<?xml version="1.0" encoding="UTF-8" standalone="no"?>
<svg
   xmlns:dc="http://purl.org/dc/elements/1.1/"
   xmlns:cc="http://creativecommons.org/ns#"
   xmlns:rdf="http://www.w3.org/1999/02/22-rdf-syntax-ns#"
   xmlns:svg="http://www.w3.org/2000/svg"
   xmlns="http://www.w3.org/2000/svg"
   id="svg4"
   xml:space="preserve"
   style="fill:#000000"
   viewBox="0 0 87.199997 206.39999"
   y="0px"
   x="0px"
   version="1.1"
   width="87.199997"
   height="206.39999"><metadata
     id="metadata10"><rdf:RDF><cc:Work
         rdf:about=""><dc:format>image/svg+xml</dc:format><dc:type
           rdf:resource="http://purl.org/dc/dcmitype/StillImage" /><dc:title></dc:title></cc:Work></rdf:RDF></metadata><defs
     id="defs8" /><path
     style="fill:#252424;fill-opacity:1"
     id="path2"
     d="m 11.8,157 31.8,33 31.8,-33 c 1.2,-1.2 2.7,-1.9 4.4,-1.9 1.7,0 3.3,0.6 4.5,1.8 1.2,1.2 1.9,2.7 1.9,4.4 v 0.1 c 0,1.6 -0.6,3.2 -1.8,4.4 l -36.3,37.7 c -1.2,1.2 -2.8,1.9 -4.5,1.9 -1.7,0 -3.4,-0.7 -4.5,-1.9 L 2.8,165.7 C 1.7,164.5 1,163 1,161.3 c 0,-1.7 0.7,-3.3 1.9,-4.5 1.2,-1.2 2.8,-1.8 4.5,-1.8 1.7,0 3.3,0.7 4.4,2 z" /><path
     d="m 11.8,80 31.8,33 31.8,-33 c 1.2,-1.2 2.7,-1.9 4.4,-1.9 1.7,0 3.3,0.6 4.5,1.8 1.2,1.2 1.9,2.7 1.9,4.4 v 0.1 c 0,1.6 -0.6,3.2 -1.8,4.4 l -36.3,37.7 c -1.2,1.2 -2.8,1.9 -4.5,1.9 -1.7,0 -3.4,-0.7 -4.5,-1.9 L 2.8,88.7 C 1.7,87.5 1,86 1,84.3 1,82.6 1.7,81 2.9,79.8 4.1,78.6 5.7,78 7.4,78 c 1.7,0 3.3,0.7 4.4,2 z"
     id="path835"
     style="fill:#252424;fill-opacity:1" /><path
     style="fill:#252424;fill-opacity:1"
     id="path837"
     d="M 11.8,3 43.6,36 75.4,3 c 1.2,-1.2 2.7,-1.9 4.4,-1.9 1.7,0 3.3,0.6 4.5,1.8 1.2,1.2 1.9,2.7 1.9,4.4 v 0.1 c 0,1.6 -0.6,3.2 -1.8,4.4 L 48.1,49.5 c -1.2,1.2 -2.8,1.9 -4.5,1.9 -1.7,0 -3.4,-0.7 -4.5,-1.9 L 2.8,11.7 C 1.7,10.5 1,9 1,7.3 1,5.6 1.7,4 2.9,2.8 4.1,1.6 5.7,1 7.4,1 c 1.7,0 3.3,0.7 4.4,2 z" /></svg>