<svg xmlns="http://www.w3.org/2000/svg" width="87.2" height="206.4"><path d="M11.8 157l31.8 33 31.8-33c1.2-1.2 2.7-1.9 4.4-1.9 1.7 0 3.3.6 4.5 1.8 1.2 1.2 1.9 2.7 1.9 4.4v.1c0 1.6-.6 3.2-1.8 4.4l-36.3 37.7c-1.2 1.2-2.8 1.9-4.5 1.9-1.7 0-3.4-.7-4.5-1.9L2.8 165.7C1.7 164.5 1 163 1 161.3c0-1.7.7-3.3 1.9-4.5 1.2-1.2 2.8-1.8 4.5-1.8 1.7 0 3.3.7 4.4 2zm0-77l31.8 33 31.8-33c1.2-1.2 2.7-1.9 4.4-1.9 1.7 0 3.3.6 4.5 1.8 1.2 1.2 1.9 2.7 1.9 4.4v.1c0 1.6-.6 3.2-1.8 4.4l-36.3 37.7c-1.2 1.2-2.8 1.9-4.5 1.9-1.7 0-3.4-.7-4.5-1.9L2.8 88.7C1.7 87.5 1 86 1 84.3c0-1.7.7-3.3 1.9-4.5C4.1 78.6 5.7 78 7.4 78c1.7 0 3.3.7 4.4 2zm0-77l31.8 33L75.4 3c1.2-1.2 2.7-1.9 4.4-1.9 1.7 0 3.3.6 4.5 1.8 1.2 1.2 1.9 2.7 1.9 4.4v.1c0 1.6-.6 3.2-1.8 4.4L48.1 49.5c-1.2 1.2-2.8 1.9-4.5 1.9-1.7 0-3.4-.7-4.5-1.9L2.8 11.7C1.7 10.5 1 9 1 7.3c0-1.7.7-3.3 1.9-4.5C4.1 1.6 5.7 1 7.4 1c1.7 0 3.3.7 4.4 2z" fill="#252424"/></svg>