<?xml version="1.0" encoding="UTF-8" standalone="no"?>
<svg
   xmlns:dc="http://purl.org/dc/elements/1.1/"
   xmlns:cc="http://creativecommons.org/ns#"
   xmlns:rdf="http://www.w3.org/1999/02/22-rdf-syntax-ns#"
   xmlns:svg="http://www.w3.org/2000/svg"
   xmlns="http://www.w3.org/2000/svg"
   xmlns:sodipodi="http://sodipodi.sourceforge.net/DTD/sodipodi-0.dtd"
   xmlns:inkscape="http://www.inkscape.org/namespaces/inkscape"
   id="svg35"
   version="1.1"
   width="1134.245"
   height="1133.53"
   viewBox="0 0 300.102 299.913"
   sodipodi:docname="Dashboard_Pattern_blue_v2.svg"
   inkscape:version="0.92.3 (2405546, 2018-03-11)">
  <sodipodi:namedview
     pagecolor="#ffffff"
     bordercolor="#666666"
     borderopacity="1"
     objecttolerance="10"
     gridtolerance="10"
     guidetolerance="10"
     inkscape:pageopacity="0"
     inkscape:pageshadow="2"
     inkscape:window-width="1853"
     inkscape:window-height="1025"
     id="namedview21"
     showgrid="false"
     inkscape:zoom="0.41639832"
     inkscape:cx="567.1225"
     inkscape:cy="566.76501"
     inkscape:window-x="67"
     inkscape:window-y="27"
     inkscape:window-maximized="1"
     inkscape:current-layer="svg35" />
  <metadata
     id="metadata39">
    <rdf:RDF>
      <cc:Work
         rdf:about="">
        <dc:format>image/svg+xml</dc:format>
        <dc:type
           rdf:resource="http://purl.org/dc/dcmitype/StillImage" />
        <dc:title />
      </cc:Work>
    </rdf:RDF>
  </metadata>
  <defs
     id="defs5">
    <clipPath
       id="a">
      <path
         id="path2"
         d="M0 0h99v99H0z"
         fill="#fff" />
    </clipPath>
  </defs>
  <rect
     style="opacity:1;fill:#5fbfbc;fill-opacity:1;stroke:none;stroke-width:1.99998379;stroke-linecap:round;stroke-linejoin:miter;stroke-miterlimit:4;stroke-dasharray:none;stroke-dashoffset:0;stroke-opacity:1;paint-order:fill markers stroke"
     id="rect831"
     width="299.9129"
     height="300.54831"
     x="0.6354087"
     y="-1.582449e-07" />
  <g
     id="g33"
     fill="#e6f8f7">
    <path
       style="fill:#63c6c3;fill-opacity:1"
       id="path7"
       d="M128.202 30.544l-5.012-.561c-.09-.018-.18-.072-.217-.163l-2.08-4.595a.715.715 0 00-1.303 0l-2.08 4.595c-.037.09-.128.145-.218.163l-5.012.56c-.615.073-.85.833-.398 1.231l3.727 3.402c.073.072.109.162.09.253l-1.012 4.94c-.127.596.524 1.067 1.049.759l4.378-2.479a.247.247 0 01.272 0l4.378 2.479a.708.708 0 001.05-.76l-1.014-4.94a.266.266 0 01.09-.252l3.728-3.402a.716.716 0 00-.416-1.23z" />
    <g
       style="fill:#63c6c3;fill-opacity:1"
       id="g11"
       transform="translate(242.482 -11.035) scale(.60589)"
       clip-path="url(#a)">
      <path
         style="fill:#63c6c3;fill-opacity:1"
         id="path9"
         d="M26.707 67.139l-.032-.054-.04-.05a30.204 30.204 0 01-6.488-18.74c0-16.759 13.585-30.344 30.343-30.344s30.343 13.585 30.343 30.343c0 7.076-2.428 13.58-6.489 18.741l-.039.05-.032.054-15.836 26.384-.005.008-.004.007a9.166 9.166 0 01-15.876 0l-.004-.007-.005-.008zM63.35 48.294c0-7.103-5.757-12.859-12.859-12.859s-12.86 5.756-12.86 12.86c0 7.102 5.758 12.858 12.86 12.858 7.102 0 12.86-5.757 12.86-12.859z" />
    </g>
    <path
       style="fill:#63c6c3;fill-opacity:1"
       id="path13"
       d="M192.968 19.048l-8.384 8.384-7.245-16.449c-.957-2.141-3.737-2.642-5.377-1.002l-11.3 11.3c-1.048 1.048-1.276 2.643-.547 3.919l14.809 27.93c1.048 1.96 3.736 2.37 5.285.82l7.929-7.927 13.942 15.765c2.142 2.415 6.06.319 5.332-2.78l-9.296-38.456c-.546-2.37-3.463-3.19-5.148-1.504zM78.724 130.226c.205.051.436.051.642.051h35.874c.308 0 .617-.025.899-.051 5.364-.445 9.55-4.945 9.55-10.413a10.463 10.463 0 00-10.466-10.467c-.235 0-.471 0-.68.027a17.968 17.968 0 00-16.772-11.487c-9.21 0-16.823 6.934-17.844 15.908-.183-.026-.366-.026-.549-.026-4.552 0-8.268 3.689-8.268 8.241a8.228 8.228 0 007.614 8.217z" />
    <path
       id="path15"
       color="#000"
       overflow="visible"
       style="text-indent:0;text-transform:none;fill:#63c6c3;fill-opacity:1"
       d="M25.945 240.634c0 5.941 1.91 11.292 5.976 15.237 3.675 3.567 8.934 5.927 15.734 6.993v6.992h-15.29c-1.223.128-2.251 1.276-2.245 2.505 0 5.877 1.535 12.477 4.75 17.872 3.213 5.395 8.43 9.68 15.29 9.68 7.208 0 12.512-4.306 15.63-9.732 3.116-5.425 4.409-12.008 4.409-17.82 0-1.311-1.194-2.505-2.505-2.505h-15.03v-6.992c6.8-1.066 12.06-3.426 15.734-6.993 4.066-3.945 5.976-9.296 5.976-15.237.002-1.365-1.3-2.59-2.662-2.504-6.575.438-11.535 2.105-15.264 5.713-2.57 2.487-4.502 5.736-6.288 9.863-1.787-4.127-3.72-7.376-6.289-9.863-3.73-3.608-8.689-5.275-15.264-5.713-1.404.047-2.675 1.058-2.662 2.504zm5.219 2.818c4.18.594 6.962 1.816 9.21 3.992 2.098 2.03 3.888 5.538 5.715 9.993-4.805-1.062-8.306-2.844-10.672-5.14-2.416-2.345-3.786-5.278-4.253-8.845zm37.991 0c-.467 3.567-1.837 6.5-4.253 8.845-2.366 2.296-5.867 4.078-10.672 5.14 1.827-4.455 3.617-7.964 5.714-9.993 2.25-2.176 5.031-3.398 9.211-3.992z" />
    <path
       style="fill:#63c6c3;fill-opacity:1"
       id="path17"
       text-rendering="geometricPrecision"
       shape-rendering="geometricPrecision"
       image-rendering="optimizeQuality"
       fill-rule="evenodd"
       clip-rule="evenodd"
       d="M31.502 59.028c-.257-3.063-.667-6.227-.916-9.766-.028-1.684.197-3.42 1.603-4.42l23.306-13.457c1.64-.758 3.186-.044 4.701.781 2.941 1.986 5.476 3.922 8 5.677zm-1.48-17.941c-2.48 1.431-3.506 3.252-3.884 7.342l1.028 9.796-5.313 3.068c-.78.45.228 5.63 5.835 2.581l.776 5.597c3.272 5.667 6.655 11.364 9.927 17.032.696 1.204 2.148 1.593 3.352.898l7.155-4.131c1.204-.695 1.594-2.148.898-3.352l-2.74-4.746 27.273-15.746 2.74 4.746c.695 1.204 2.219 1.553 3.352.898l7.226-4.172c1.204-.695 1.593-2.147.898-3.352-3.272-5.667-6.514-11.446-9.786-17.113l-4.53-3.429c5.514-3.373 1.461-6.794.682-6.344l-5.313 3.067-7.899-5.829c-3.802-1.677-5.821-1.74-8.372-.267zm41.079 4.24a4.015 4.015 0 00-1.467 5.475 4.015 4.015 0 005.475 1.468 4.015 4.015 0 001.467-5.476 4.015 4.015 0 00-5.475-1.467zm-34.64 20a4.015 4.015 0 015.475 1.467 4.015 4.015 0 01-1.467 5.475 4.015 4.015 0 01-5.475-1.467 4.015 4.015 0 011.467-5.475z" />
    <path
       style="fill:#63c6c3;fill-opacity:1"
       id="path19"
       d="M230.706 238.98c-4.146 7.182-1.663 16.45 5.519 20.596a15.01 15.01 0 0018.84-3.147l3.562 2.54.145.084c.436.251.882.316 1.34.193l26.384-8.173-.95 3.32a14.894 14.894 0 00-15.668 7.203c-4.146 7.182-1.663 16.45 5.519 20.596 7.181 4.146 16.45 1.663 20.595-5.519 4.147-7.181 1.663-16.45-5.518-20.596-.58-.335-1.13-.555-1.68-.776l3.207-10.915 3.917 2.261a1.68 1.68 0 01.613 2.289 1.68 1.68 0 01-2.288.613 1.68 1.68 0 00-2.288.613 1.68 1.68 0 00.613 2.288 5.04 5.04 0 006.865-1.84 5.04 5.04 0 00-1.84-6.864l-5.73-3.309c-.435-.251-.996-.285-1.496-.09-.5.195-.823.589-1.002 1.066l-1.36 4.534-20.094-11.6.95-3.321 3.119 1.8a1.68 1.68 0 002.288-.613 1.68 1.68 0 00-.613-2.288l-7.254-4.188a1.68 1.68 0 00-2.288.613 1.68 1.68 0 00.613 2.288l1.16.67-1.287 4.577-8.29 4.306c-1.31-1.918-2.903-3.515-5.007-4.73-7.181-4.145-16.45-1.662-20.596 5.52zm53.902 18.547l-3.333 11.133a1.614 1.614 0 00.75 1.884c.145.083.218.125.405.136.923.244 1.777-.23 2.093-1.112l3.332-11.133c.29.167.695.304.985.472 5.586 3.224 7.517 10.433 4.293 16.018-3.225 5.586-10.434 7.518-16.02 4.293-5.585-3.225-7.516-10.434-4.292-16.02 2.43-4.207 7.208-6.284 11.787-5.671zm-21.286-19.253l-4.677 16.644-1.657-1.15c2.231-4.032 2.355-8.603.794-12.6zm-9.068 13.528l-7.24-5.05 7.863-4.07c.953 2.873.793 6.165-.623 9.12zm30.624-3.79l-22.825 7.035 4.908-17.38zm-51.27-7.356c3.225-5.586 10.433-7.517 16.019-4.293 1.523.88 2.692 2.038 3.663 3.372l-10.34 5.347c-.542.267-.835.775-.911 1.409-.034.56.234 1.102.7 1.468l9.508 6.65c-3.57 3.838-9.56 4.83-14.347 2.066-5.585-3.225-7.517-10.434-4.292-16.02z" />
    <g
       style="fill:#63c6c3;fill-opacity:1"
       id="g27"
       transform="rotate(-30 327.418 -357.804) scale(.64252)">
      <path
         style="fill:#63c6c3;fill-opacity:1"
         id="path21"
         d="M36.5 67l8.1 8.1-7 18.9c-.8 2.1-2.8 3.4-4.9 3.4-.6 0-1.2-.1-1.8-.3-2.7-1-4.1-4-3.1-6.7z" />
      <path
         style="fill:#63c6c3;fill-opacity:1"
         id="path23"
         d="M21.4 46.3l4.8-9.2c1.3-2.4 3.2-4.4 5.5-5.8 11.1-6.6 12.5-6.5 13.9-6.4l7.5.5c2.3.1 3.9.7 11.6 12 .3.4.7.7 1.3.8l9.2 1.4c2.5.4 4.2 2.7 3.8 5.2-.4 2.5-2.7 4.2-5.2 3.8l-9.2-1.4c-3-.5-5.7-2.1-7.4-4.6-.4-.6-.7-1.1-1.1-1.6l-5.9 18.7 8.2 8.2c1.2 1.2 2.2 2.8 2.8 4.4l6.3 18.4c1 2.7-.5 5.7-3.2 6.6-.6.2-1.1.3-1.7.3-2.2 0-4.2-1.4-5-3.5l-6.3-18.4c-.1-.2-.2-.3-.3-.5L36.4 60.5c-2.1-2.1-2.9-5-2.3-7.8l3.2-14.2c-.3.2-.6.4-1 .6-.9.5-1.6 1.3-2.1 2.2l-4.8 9.2c-.8 1.5-2.4 2.4-4 2.4-.7 0-1.4-.2-2.1-.5-2.2-1.2-3-3.9-1.9-6.1z" />
      <circle
         style="fill:#63c6c3;fill-opacity:1"
         id="circle25"
         cy="12.6"
         cx="50.9"
         transform="rotate(-83.788 50.869 12.58)"
         r="10.1" />
    </g>
    <path
       style="fill:#63c6c3;fill-opacity:1"
       id="path29"
       d="M200.357 171.789l-.933-.539 7.885-13.656c1.115-1.932.534-4.31-1.398-5.425-1.932-1.116-4.282-.43-5.397 1.502l-7.885 13.656-5.595-3.23 7.884-13.656c1.116-1.932.535-4.31-1.397-5.426-1.932-1.115-4.282-.43-5.398 1.503l-7.884 13.656-5.596-3.23 7.885-13.657c1.115-1.932.534-4.31-1.398-5.426-1.932-1.115-4.282-.429-5.397 1.503l-7.885 13.656-5.595-3.23 7.884-13.657c1.115-1.932.401-4.387-1.464-5.464-1.865-1.077-4.349-.468-5.464 1.464l-7.884 13.656-1-.576c-1.932-1.116-4.387-.402-5.464 1.464a3.973 3.973 0 001.464 5.464l45.965 26.538c1.932 1.115 4.387.4 5.464-1.465 1.144-1.826.535-4.31-1.397-5.425zM165.666 126.8l45.099 26.038c2.131 1.23 4.692.488 5.922-1.643.923-1.599.799-3.536-.387-5.02l-17.702-20.879c-.028-.105-.094-.143-.228-.22l1.77-3.065 2.398 1.385c.2.115.4.23.638.28-.675 1.475-.09 3.234 1.308 4.041l4.663 2.692 5.077-8.793-4.863-2.807-.333-.193c.674-1.476.09-3.234-1.308-4.041l-4.797-2.77-.653 1.133-4.385 7.594-1.808 3.131-.066-.038-27.398-5.16c-1.84-.352-3.685.537-4.608 2.136-1.241 2.303-.471 4.968 1.66 6.2zm26.673 162.634h2.677a4.016 4.016 0 004.016-4.016v-1.9a14.724 14.724 0 0010.708-14.163v-9.37a5.354 5.354 0 00-5.354-5.354v-16.063a2.677 2.677 0 00-5.354 0v16.063h-10.709v-16.063a2.677 2.677 0 00-5.354 0v16.063a5.354 5.354 0 00-5.355 5.354v9.37a14.724 14.724 0 0010.71 14.163v1.9a4.016 4.016 0 004.015 4.016zm-52.992-57.578l1.697-.98a1.701 1.701 0 00-1.701-2.946l-2.189 1.264-2.633-3.2c2.608-3.191 3.143-7.774.965-11.547-1.88-3.255-5.298-5.04-8.812-5.058l-3.26-5.647a1.701 1.701 0 00-2.323-.622l-1.473.85-11.054-19.147a1.701 1.701 0 00-2.946 1.7l11.054 19.148-1.472.85a1.701 1.701 0 00-.623 2.323l3.26 5.647c-1.743 3.05-1.906 6.902-.025 10.16 2.178 3.774 6.418 5.6 10.482 4.938l1.455 3.88-2.189 1.264a1.701 1.701 0 001.7 2.946l1.698-.98 7.763 20.725a1.7 1.7 0 002.442.876l11.782-6.802c.016-.014.039-.023.06-.034a1.701 1.701 0 00.109-2.88zm-58.62-52.907c0-11.429-11.755-20.735-26.205-20.735-8.163 0-15.51 3.02-20.326 7.673 15.428 1.878 27.347 12.898 27.347 26.286 0 2.45-.408 4.898-1.143 7.184 3.02 2.367 6.776 4.898 10.857 6.122.408.164.898.164 1.306.082.735-.082 1.388-.49 1.878-1.143.735-.98.735-2.285.163-3.265-1.55-2.286-2.286-4.653-2.775-6.612 5.387-3.756 8.898-9.388 8.898-15.592z" />
    <path
       style="fill:#63c6c3;fill-opacity:1"
       id="path31"
       d="M29.38 171.438c-14.45 0-26.205 9.307-26.205 20.735 0 6.286 3.51 11.837 9.061 15.674a18.225 18.225 0 01-2.775 6.53c-.653.98-.653 2.286.163 3.266.49.653 1.143.98 1.878 1.143.408.081.898 0 1.306-.082 4.081-1.306 8-3.837 11.02-6.286 1.796.327 3.674.49 5.633.49 14.45 0 26.204-9.306 26.204-20.735 0-11.428-11.755-20.735-26.286-20.735zm.407 34.123a2.753 2.753 0 01-2.775-2.775 2.753 2.753 0 012.775-2.776 2.753 2.753 0 012.776 2.776 2.753 2.753 0 01-2.776 2.775zm6.694-14.286c-1.06 1.47-2.204 2.204-2.938 2.776-.898.653-1.307.898-1.388 2.367-.082.653-.572 1.143-1.306 1.143h-1.96c-.734 0-1.306-.653-1.306-1.388.245-3.51 1.633-4.734 3.347-5.877.653-.49 1.306-.898 1.96-1.796.653-.898.734-2.041.163-3.102-.327-.735-1.306-1.878-3.51-1.878-2.858 0-3.756 1.796-4 3.265-.082.654-.654 1.062-1.225 1.062h-2.04a1.334 1.334 0 01-1.307-1.47c.572-3.755 3.265-7.428 8.572-7.428 3.347 0 6.204 1.632 7.591 4.408 1.225 2.612.98 5.633-.653 7.918zm-7.169-75.205l-5.012-.56c-.09-.019-.18-.073-.217-.164l-2.08-4.595a.715.715 0 00-1.303 0l-2.08 4.595c-.037.09-.127.145-.218.163l-5.011.561c-.616.072-.85.832-.398 1.23l3.727 3.402c.072.072.108.163.09.253l-1.013 4.94c-.127.596.525 1.067 1.05.76l4.378-2.48a.247.247 0 01.271 0l4.378 2.48a.708.708 0 001.05-.76l-1.013-4.94a.266.266 0 01.09-.253l3.727-3.402a.716.716 0 00-.416-1.23zm127.22-35.814l-5.011-.56c-.09-.019-.181-.073-.217-.164l-2.081-4.595a.715.715 0 00-1.303 0l-2.08 4.595a.291.291 0 01-.217.163l-5.012.56c-.615.073-.85.833-.398 1.231l3.727 3.402c.072.072.108.162.09.253l-1.013 4.94c-.126.596.525 1.067 1.05.76l4.378-2.48a.247.247 0 01.271 0l4.379 2.48a.708.708 0 001.05-.76l-1.014-4.94a.266.266 0 01.09-.253l3.728-3.402a.716.716 0 00-.417-1.23zM110.54 264.672l-5.011-.561c-.09-.018-.181-.072-.217-.163l-2.08-4.595a.715.715 0 00-1.304 0l-2.08 4.595c-.036.09-.127.145-.217.163l-5.012.56c-.615.073-.85.833-.398 1.231l3.727 3.402c.072.072.109.162.09.253l-1.013 4.94c-.126.596.525 1.067 1.05.76l4.378-2.48a.247.247 0 01.272 0l4.378 2.48a.708.708 0 001.05-.76l-1.014-4.94a.266.266 0 01.09-.253l3.728-3.402a.716.716 0 00-.416-1.23zm67.908-62.542l-5.011-.56c-.09-.018-.181-.072-.217-.163l-2.08-4.595a.715.715 0 00-1.304 0l-2.08 4.595c-.036.09-.127.145-.217.163l-5.012.56c-.615.073-.85.833-.398 1.231l3.727 3.402c.072.072.109.162.09.253l-1.013 4.94c-.126.596.525 1.067 1.05.759l4.378-2.479a.247.247 0 01.271 0l4.379 2.479a.708.708 0 001.05-.76l-1.014-4.94a.266.266 0 01.09-.252l3.728-3.402a.716.716 0 00-.417-1.23zm83.389-13.363l-5.012-.56c-.09-.019-.181-.073-.217-.163l-2.08-4.596a.715.715 0 00-1.304 0l-2.08 4.596c-.036.09-.127.144-.217.162l-5.012.561c-.615.073-.85.833-.398 1.23l3.727 3.402c.072.072.109.163.09.253l-1.013 4.94c-.126.597.525 1.067 1.05.76l4.378-2.48a.247.247 0 01.272 0l4.378 2.48a.708.708 0 001.05-.76l-1.014-4.94a.266.266 0 01.09-.253l3.728-3.401a.716.716 0 00-.416-1.23zM245.266 67.962l-5.012-.561a.291.291 0 01-.217-.163l-2.08-4.596a.715.715 0 00-1.303 0l-2.08 4.596c-.037.09-.128.145-.218.163l-5.012.56c-.615.073-.85.833-.398 1.23l3.727 3.402c.073.073.109.163.09.254l-1.012 4.939c-.127.597.524 1.067 1.05.76l4.377-2.479a.247.247 0 01.272 0l4.378 2.479a.708.708 0 001.05-.76l-1.014-4.94a.266.266 0 01.09-.253l3.728-3.401a.716.716 0 00-.416-1.23zM123.39 156.695l-5.01-.56c-.091-.019-.182-.073-.218-.164l-2.08-4.595a.715.715 0 00-1.303 0l-2.08 4.595c-.037.09-.127.145-.218.163l-5.012.561c-.615.072-.85.832-.398 1.23l3.727 3.402c.073.072.11.163.091.253l-1.013 4.94c-.127.596.524 1.067 1.05.76l4.378-2.48a.247.247 0 01.27 0l4.38 2.48a.708.708 0 001.049-.76l-1.013-4.94a.266.266 0 01.09-.253l3.727-3.402a.716.716 0 00-.416-1.23z" />
  </g>
</svg>
