<svg xmlns="http://www.w3.org/2000/svg" height="26.199" width="99.783" viewBox="-255 347 99.783 26.199"><g transform="translate(4.766 -36.287)"><path d="M-247.744 405.104l5.774 1.589h80.296l1.166-.742-.212-15.519-2.066-6.462h-83.792l-1.378 1.007z" fill="#f0d722"/><path d="M-243.204 397.829h17.642c1.218 0 1.206 1.262 1.206 1.262v3.378l.857 4.138 17.637.056v-7.79s-.01-1.088 1.086-1.086l19.775.038c1.262.002 1.273 1.273 1.273 1.273v3.071l2.06 4.607 16.48-.038v-7.078c0-1.068 1.509-1.086 1.509-1.086l-1.543-4.646.264-4.555.636-.583h2.86l-.768-2.875h-81.87c-1.06 0-1.068 1.067-1.068 1.067v9.007l.281.75z" fill="#252424"/><path d="M-163.475 404.256l-.053-2.171 2.914.053v2.224zm2.808-5.985l-2.914-.106-1.641-4.237.264-4.555.636-.583h2.86l.795 2.384zm-19.492 8.422l.212-18.115 11.864.053.212 18.274zm-11.758-9.323l-1.483-.185-.398-8.077 1.828-.424 8.05.053.69.795-.107 7.203-.688.583zm-13.613-.052l-.847-.9.106-6.886.741-.9 10.196.185 1.033.9-.635 7.362-1.166.345zm-15.837 9.428l.053-18.009 12.236-.053.053 18.009zm-17.637-10.223l.794.9 13.295.107 1.006-1.007-.106-7.044-.794-.848h-13.4l-.583.636zm-5.884.215l.974.75 3.52.037.787-.749-.225-7.528-1.16-.45-3.097-.007-.689.688z" fill="#fff"/><path d="M-245.694 383.287c-.1 0-.699-.001-1.299.199s-1.3.7-1.5 1.6c-.1.4-.1 2.5-.1 5.3 0 5.6.1 13.6.1 13.6 0 1.4 1.2 2.3 2.5 2.5 1.2.2 4.2.8 4.2.8h10.701c.8 1.3 2.198 2.2 3.798 2.2s3.101-.9 3.801-2.2h33.61c.8 1.3 2.2 2.2 3.8 2.2 1.6 0 3-.9 3.8-2.2h20.5c1 0 1.8-.7 1.8-1.7v-4.6s-.1-6.2-.3-9.7c-.3-3.6-1.2-6.1-1.3-6.2-.1-.6-.701-1.7-2.101-1.8h-81.908zm-.1 1.298h82.01c.6 0 .8.4.9.9.212.869.514 1.717.752 2.875l-1.851.026c-.9.013-1.6.7-1.6 1.6v3.9c0 .9 1.399 4.4 1.399 4.4.1.2.2.3.4.3h2.4c0 1.5.1 2.6.1 2.6v.5h-1.799c-.5 0-.8.4-.8.8v1.4c0 .5.2.819.8.8h2v.9c0 .3-.301.5-.601.5h-5.799v-17.4c0-.1-.002-.2-.102-.3-.1-.1-.198-.1-.298-.1h-12.202c-.1 0-.198 0-.298.1-.1.1-.1.201-.1.3v17.5h-1.3c.1-.3.099-.6.099-1 0-2.4-2-4.4-4.4-4.4-2.4 0-4.399 2-4.399 4.4 0 .3 0 .6.1 1h-18.301v-17.485a.4.4 0 00-.4-.4h-12.21a.4.4 0 00-.4.4v17.486h-1.2c.1-.3.1-.6.1-1 0-2.4-2-4.4-4.4-4.4-2.4 0-4.398 2-4.398 4.4 0 .3 0 .6.1 1h-10.1c-.4-.1-3.002-.6-4.102-.8-1.1-.2-1.5-.602-1.5-1.302 0 0-.1-8-.1-13.6v-5.099c.1-.4.302-.5.702-.7.4-.1.798-.1.798-.1zm2.202 3.702c-.9 0-1.602.7-1.602 1.6v6.335c0 .9.702 1.6 1.602 1.6h2.699c.9 0 1.6-.7 1.6-1.6v-6.336c0-.9-.7-1.6-1.6-1.6zm5.898 0c-.9 0-1.6.7-1.6 1.6v6.335c0 .9.7 1.6 1.6 1.6h12.5c.9 0 1.602-.7 1.602-1.6v-6.336c0-.905-.802-1.6-1.602-1.6zm32.611 0c-.9 0-1.601.7-1.601 1.6v6.335c0 .9.701 1.6 1.601 1.6h9.348c.9 0 1.6-.7 1.6-1.6v-6.336c0-.9-.7-1.6-1.6-1.6zm12.54 0c-.9 0-1.6.7-1.6 1.6v6.335c0 .9.7 1.6 1.6 1.6h7.974c.9 0 1.6-.7 1.6-1.6v-6.336c0-.905-.8-1.6-1.6-1.6zm-51.05.798h2.7c.4 0 .8.301.8.801v6.336c0 .4-.3.799-.8.799h-2.7c-.4 0-.8-.299-.8-.799v-6.336c0-.4.3-.8.8-.8zm5.8 0h12.599c.4 0 .902-.047.8.801v6.416c-.001.662-.4.719-.9.719h-12.5a.787.787 0 01-.798-.799v-6.336c0-.4.298-.8.798-.8zm32.71 0h9.348c.4 0 .799.301.799.801v6.336c0 .4-.3.8-.8.8h-9.347c-.4 0-.8-.3-.8-.8v-6.336c0-.4.3-.8.8-.8zm12.44 0h7.975c.4 0 .798.301.798.801v6.336c0 .4-.298.8-.798.8h-7.976c-.4 0-.799-.3-.799-.8v-6.336c0-.4.3-.8.8-.8zm12.959 0h5.135v17.102h-5.135zm5.935 0h5.366v17.102h-5.366zm9.965 0h1.6c.359.015.501.501.701 2.301.1 1.8.199 4.3.299 6.3h-2.1c-.1-.3-.4-1-.6-1.6-.3-1-.699-2.1-.699-2.3v-3.9c0-.4.3-.8.8-.8zm-57.111.016h5.144v17.086h-5.144zm5.945 0h5.465v17.086h-5.465zm-12.244 12.885c1.8 0 3.201 1.4 3.201 3.2 0 1.8-1.401 3.2-3.201 3.2s-3.2-1.4-3.2-3.2c0-1.8 1.4-3.2 3.2-3.2zm41.211 0c1.8 0 3.2 1.4 3.2 3.2 0 1.8-1.5 3.2-3.2 3.2-1.8 0-3.201-1.4-3.201-3.2 0-1.8 1.401-3.2 3.201-3.2zm22.9.5h2v1.4h-2z" fill="#252424"/><path d="M-223.764 405.14a3.483 3.483 0 01-3.484 3.483 3.483 3.483 0 01-3.483-3.483 3.483 3.483 0 013.483-3.483 3.483 3.483 0 013.484 3.483z" paint-order="stroke fill markers" fill="#252424"/><path d="M-225 405.14a2.247 2.247 0 01-2.248 2.247 2.247 2.247 0 01-2.247-2.247 2.247 2.247 0 012.247-2.247A2.247 2.247 0 01-225 405.14z" fill="#c1c1c1" paint-order="stroke fill markers"/><path d="M-226.367 405.14a.88.88 0 01-.88.88.88.88 0 01-.88-.88.88.88 0 01.88-.88.88.88 0 01.88.88zm43.702 0a3.483 3.483 0 01-3.483 3.483 3.483 3.483 0 01-3.483-3.483 3.483 3.483 0 013.483-3.483 3.483 3.483 0 013.483 3.483z" paint-order="stroke fill markers" fill="#252424"/><path d="M-183.9 405.14a2.247 2.247 0 01-2.248 2.247 2.247 2.247 0 01-2.247-2.247 2.247 2.247 0 012.247-2.247 2.247 2.247 0 012.247 2.247z" fill="#c1c1c1" paint-order="stroke fill markers"/><path d="M-185.268 405.14a.88.88 0 01-.88.88.88.88 0 01-.88-.88.88.88 0 01.88-.88.88.88 0 01.88.88z" paint-order="stroke fill markers"/><path style="line-height:normal;font-variant-ligatures:normal;font-variant-position:normal;font-variant-caps:normal;font-variant-numeric:normal;font-variant-alternates:normal;font-feature-settings:normal;text-indent:0;text-align:start;text-decoration-line:none;text-decoration-style:solid;text-decoration-color:#000;text-transform:none;text-orientation:mixed;white-space:normal;shape-padding:0;isolation:auto;mix-blend-mode:normal;solid-color:#000;solid-opacity:1" d="M-259.766 387.796v2.132c0 .684.428 1.12.836 1.29.408.17.8.14.8.14l-.024.003h3.188l-.025-.002s.393.028.8-.142c.408-.17.837-.605.837-1.29v-2.161c0-.945-.213-1.095-1.061-1.095h-4.244c-1.075 0-1.107.126-1.107 1.125z" color="#000" font-weight="400" font-family="sans-serif" overflow="visible" fill="#252424"/><rect width="1.304" height="4.771" x="-258.802" y="383.332" ry=".561" fill="#c1c1c1" paint-order="stroke fill markers"/><rect ry=".561" y="383.332" x="-255.637" height="4.771" width="1.304" fill="#c1c1c1" paint-order="stroke fill markers"/><path style="line-height:normal;font-variant-ligatures:normal;font-variant-position:normal;font-variant-caps:normal;font-variant-numeric:normal;font-variant-alternates:normal;font-feature-settings:normal;text-indent:0;text-align:start;text-decoration-line:none;text-decoration-style:solid;text-decoration-color:#000;text-transform:none;text-orientation:mixed;white-space:normal;shape-padding:0;isolation:auto;mix-blend-mode:normal;solid-color:#000;solid-opacity:1" d="M-256.932 390.207v8.686c0 1.84.023 3.116.801 4.003.39.444.945.724 1.645.885.7.161 1.558.219 2.662.219h3.761v-1h-3.761c-1.067 0-1.866-.062-2.438-.193-.571-.132-.897-.317-1.117-.569-.44-.503-.553-1.53-.553-3.345v-8.686z" color="#000" font-weight="400" font-family="sans-serif" overflow="visible" fill="#252424"/></g></svg>