<svg xmlns="http://www.w3.org/2000/svg" xmlns:xlink="http://www.w3.org/1999/xlink" width="2257" height="2257"><path fill="#F0D722" d="M0 0h2257v2257H0z"/><path d="M732 122h61v61h-61zm305 0h61v61h-61zm61 0h61v61h-61zm61 0h61v61h-61zm366 0h61v61h-61zm61 0h61v61h-61zm-915 61h61v61h-61zm61 0h61v61h-61zm61 0h61v61h-61zm122 0h61v61h-61zm122 0h61v61h-61zm61 0h61v61h-61zm61 0h61v61h-61zm183 0h61v61h-61zm61 0h61v61h-61zm61 0h61v61h-61zm61 0h61v61h-61zm-793 61h61v61h-61zm183 0h61v61h-61zm61 0h61v61h-61zm183 0h61v61h-61zm61 0h61v61h-61zm61 0h61v61h-61zm244 0h61v61h-61zm-854 61h61v61h-61zm183 0h61v61h-61zm61 0h61v61h-61zm122 0h61v61h-61zm244 0h61v61h-61zm183 0h61v61h-61zm61 0h61v61h-61zm61 0h61v61h-61zm-976 61h61v61h-61zm122 0h61v61h-61zm61 0h61v61h-61zm61 0h61v61h-61zm122 0h61v61h-61zm61 0h61v61h-61zm61 0h61v61h-61zm61 0h61v61h-61zm183 0h61v61h-61zm61 0h61v61h-61zm122 0h61v61h-61zm61 0h61v61h-61zm-793 61h61v61h-61zm61 0h61v61h-61zm244 0h61v61h-61zm122 0h61v61h-61zm61 0h61v61h-61zm183 0h61v61h-61zm61 0h61v61h-61zm-915 61h61v61h-61zm122 0h61v61h-61zm122 0h61v61h-61zm122 0h61v61h-61zm122 0h61v61h-61zm122 0h61v61h-61zm122 0h61v61h-61zm122 0h61v61h-61zm122 0h61v61h-61zm-976 61h61v61h-61zm61 0h61v61h-61zm61 0h61v61h-61zm61 0h61v61h-61zm61 0h61v61h-61zm61 0h61v61h-61zm305 0h61v61h-61zm61 0h61v61h-61zm183 0h61v61h-61zm122 0h61v61h-61zM244 610h61v61h-61zm61 0h61v61h-61zm183 0h61v61h-61zm61 0h61v61h-61zm61 0h61v61h-61zm183 0h61v61h-61zm244 0h61v61h-61zm61 0h61v61h-61zm61 0h61v61h-61zm122 0h61v61h-61zm61 0h61v61h-61zm61 0h61v61h-61zm122 0h61v61h-61zm122 0h61v61h-61zm61 0h61v61h-61zm122 0h61v61h-61zM122 671h61v61h-61zm183 0h61v61h-61zm61 0h61v61h-61zm61 0h61v61h-61zm305 0h61v61h-61zm61 0h61v61h-61zm61 0h61v61h-61zm244 0h61v61h-61zm61 0h61v61h-61zm61 0h61v61h-61zm122 0h61v61h-61zm61 0h61v61h-61zm122 0h61v61h-61zm122 0h61v61h-61zm61 0h61v61h-61zm244 0h61v61h-61zm122 0h61v61h-61zM183 732h61v61h-61zm305 0h61v61h-61zm183 0h61v61h-61zm61 0h61v61h-61zm305 0h61v61h-61zm61 0h61v61h-61zm61 0h61v61h-61zm122 0h61v61h-61zm244 0h61v61h-61zm122 0h61v61h-61zm61 0h61v61h-61zm244 0h61v61h-61zm122 0h61v61h-61zM122 793h61v61h-61zm122 0h61v61h-61zm122 0h61v61h-61zm61 0h61v61h-61zm183 0h61v61h-61zm61 0h61v61h-61zm61 0h61v61h-61zm61 0h61v61h-61zm122 0h61v61h-61zm183 0h61v61h-61zm244 0h61v61h-61zm244 0h61v61h-61zm183 0h61v61h-61zm61 0h61v61h-61zM122 854h61v61h-61zm61 0h61v61h-61zm305 0h61v61h-61zm61 0h61v61h-61zm122 0h61v61h-61zm61 0h61v61h-61zm61 0h61v61h-61zm61 0h61v61h-61zm244 0h61v61h-61zm61 0h61v61h-61zm61 0h61v61h-61zm61 0h61v61h-61zm61 0h61v61h-61zm61 0h61v61h-61zm122 0h61v61h-61zm61 0h61v61h-61zm61 0h61v61h-61zm366 0h61v61h-61zM122 915h61v61h-61zm183 0h61v61h-61zm61 0h61v61h-61zm61 0h61v61h-61zm122 0h61v61h-61zm61 0h61v61h-61zm61 0h61v61h-61zm61 0h61v61h-61zm61 0h61v61h-61zm61 0h61v61h-61zm122 0h61v61h-61zm61 0h61v61h-61zm183 0h61v61h-61zm122 0h61v61h-61zm61 0h61v61h-61zm61 0h61v61h-61zm122 0h61v61h-61zm61 0h61v61h-61zm244 0h61v61h-61zM183 976h61v61h-61zm61 0h61v61h-61zm61 0h61v61h-61zm122 0h61v61h-61zm61 0h61v61h-61zm61 0h61v61h-61zm61 0h61v61h-61zm61 0h61v61h-61zm183 0h61v61h-61zm61 0h61v61h-61zm122 0h61v61h-61zm244 0h61v61h-61zm61 0h61v61h-61zm61 0h61v61h-61zm366 0h61v61h-61zm61 0h61v61h-61zm61 0h61v61h-61zm-1525 61h61v61h-61zm183 0h61v61h-61zm183 0h61v61h-61zm122 0h61v61h-61zm183 0h61v61h-61zm61 0h61v61h-61zm61 0h61v61h-61zm61 0h61v61h-61zm61 0h61v61h-61zm122 0h61v61h-61zm61 0h61v61h-61zm61 0h61v61h-61zm61 0h61v61h-61zm61 0h61v61h-61zm122 0h61v61h-61zm183 0h61v61h-61zm61 0h61v61h-61zm-1891 61h61v61h-61zm183 0h61v61h-61zm61 0h61v61h-61zm122 0h61v61h-61zm61 0h61v61h-61zm61 0h61v61h-61zm61 0h61v61h-61zm183 0h61v61h-61zm61 0h61v61h-61zm61 0h61v61h-61zm61 0h61v61h-61zm61 0h61v61h-61zm61 0h61v61h-61zm122 0h61v61h-61zm61 0h61v61h-61zm61 0h61v61h-61zm122 0h61v61h-61zm61 0h61v61h-61zm61 0h61v61h-61zm61 0h61v61h-61zm122 0h61v61h-61zm-1647 61h61v61h-61zm61 0h61v61h-61zm366 0h61v61h-61zm61 0h61v61h-61zm122 0h61v61h-61zm122 0h61v61h-61zm61 0h61v61h-61zm61 0h61v61h-61zm61 0h61v61h-61zm61 0h61v61h-61zm61 0h61v61h-61zm122 0h61v61h-61zm122 0h61v61h-61zm61 0h61v61h-61zm183 0h61v61h-61zm61 0h61v61h-61zm61 0h61v61h-61zm122 0h61v61h-61zm61 0h61v61h-61zm-1830 61h61v61h-61zm61 0h61v61h-61zm61 0h61v61h-61zm61 0h61v61h-61zm122 0h61v61h-61zm61 0h61v61h-61zm122 0h61v61h-61zm61 0h61v61h-61zm122 0h61v61h-61zm61 0h61v61h-61zm61 0h61v61h-61zm61 0h61v61h-61zm61 0h61v61h-61zm61 0h61v61h-61zm488 0h61v61h-61zm61 0h61v61h-61zm61 0h61v61h-61zm61 0h61v61h-61zm122 0h61v61h-61zm61 0h61v61h-61zm61 0h61v61h-61zm-1952 61h61v61h-61zm61 0h61v61h-61zm183 0h61v61h-61zm61 0h61v61h-61zm183 0h61v61h-61zm122 0h61v61h-61zm61 0h61v61h-61zm122 0h61v61h-61zm122 0h61v61h-61zm61 0h61v61h-61zm183 0h61v61h-61zm61 0h61v61h-61zm-1220 61h61v61h-61zm244 0h61v61h-61zm122 0h61v61h-61zm366 0h61v61h-61zm61 0h61v61h-61zm183 0h61v61h-61zm183 0h61v61h-61zm122 0h61v61h-61zm183 0h61v61h-61zm122 0h61v61h-61zm183 0h61v61h-61zm61 0h61v61h-61zm122 0h61v61h-61zm-1952 61h61v61h-61zm122 0h61v61h-61zm61 0h61v61h-61zm61 0h61v61h-61zm61 0h61v61h-61zm244 0h61v61h-61zm61 0h61v61h-61zm61 0h61v61h-61zm61 0h61v61h-61zm122 0h61v61h-61zm183 0h61v61h-61zm183 0h61v61h-61zm122 0h61v61h-61zm122 0h61v61h-61zm305 0h61v61h-61zm122 0h61v61h-61zm61 0h61v61h-61zm-1830 61h61v61h-61zm61 0h61v61h-61zm61 0h61v61h-61zm122 0h61v61h-61zm122 0h61v61h-61zm61 0h61v61h-61zm122 0h61v61h-61zm122 0h61v61h-61zm122 0h61v61h-61zm61 0h61v61h-61zm122 0h61v61h-61zm183 0h61v61h-61zm61 0h61v61h-61zm61 0h61v61h-61zm61 0h61v61h-61zm122 0h61v61h-61zm61 0h61v61h-61zm244 0h61v61h-61zm61 0h61v61h-61zm-1891 61h61v61h-61zm61 0h61v61h-61zm122 0h61v61h-61zm61 0h61v61h-61zm244 0h61v61h-61zm61 0h61v61h-61zm122 0h61v61h-61zm122 0h61v61h-61zm61 0h61v61h-61zm61 0h61v61h-61zm122 0h61v61h-61zm122 0h61v61h-61zm122 0h61v61h-61zm183 0h61v61h-61zm122 0h61v61h-61zm122 0h61v61h-61zm-1769 61h61v61h-61zm122 0h61v61h-61zm61 0h61v61h-61zm61 0h61v61h-61zm61 0h61v61h-61zm61 0h61v61h-61zm122 0h61v61h-61zm61 0h61v61h-61zm61 0h61v61h-61zm183 0h61v61h-61zm61 0h61v61h-61zm61 0h61v61h-61zm61 0h61v61h-61zm61 0h61v61h-61zm61 0h61v61h-61zm183 0h61v61h-61zm183 0h61v61h-61zm61 0h61v61h-61zm61 0h61v61h-61zm61 0h61v61h-61zm61 0h61v61h-61zm183 0h61v61h-61zm-1403 61h61v61h-61zm122 0h61v61h-61zm122 0h61v61h-61zm122 0h61v61h-61zm61 0h61v61h-61zm122 0h61v61h-61zm244 0h61v61h-61zm122 0h61v61h-61zm61 0h61v61h-61zm244 0h61v61h-61zm122 0h61v61h-61zm-1342 61h61v61h-61zm61 0h61v61h-61zm61 0h61v61h-61zm244 0h61v61h-61zm61 0h61v61h-61zm61 0h61v61h-61zm244 0h61v61h-61zm61 0h61v61h-61zm122 0h61v61h-61zm61 0h61v61h-61zm122 0h61v61h-61zm122 0h61v61h-61zm122 0h61v61h-61zm-1281 61h61v61h-61zm61 0h61v61h-61zm183 0h61v61h-61zm610 0h61v61h-61zm61 0h61v61h-61zm244 0h61v61h-61zm61 0h61v61h-61zm61 0h61v61h-61zm61 0h61v61h-61zm61 0h61v61h-61zm-1342 61h61v61h-61zm61 0h61v61h-61zm61 0h61v61h-61zm61 0h61v61h-61zm244 0h61v61h-61zm61 0h61v61h-61zm61 0h61v61h-61zm61 0h61v61h-61zm122 0h61v61h-61zm61 0h61v61h-61zm61 0h61v61h-61zm61 0h61v61h-61zm61 0h61v61h-61zm61 0h61v61h-61zm61 0h61v61h-61zm61 0h61v61h-61zm61 0h61v61h-61zm61 0h61v61h-61zm-1403 61h61v61h-61zm61 0h61v61h-61zm61 0h61v61h-61zm183 0h61v61h-61zm122 0h61v61h-61zm61 0h61v61h-61zm61 0h61v61h-61zm61 0h61v61h-61zm183 0h61v61h-61zm61 0h61v61h-61zm122 0h61v61h-61zm183 0h61v61h-61zm122 0h61v61h-61zm61 0h61v61h-61zm-1342 61h61v61h-61zm61 0h61v61h-61zm183 0h61v61h-61zm122 0h61v61h-61zm122 0h61v61h-61zm61 0h61v61h-61zm183 0h61v61h-61zm61 0h61v61h-61zm61 0h61v61h-61zm122 0h61v61h-61zm61 0h61v61h-61zm61 0h61v61h-61zm-1037 61h61v61h-61zm122 0h61v61h-61zm122 0h61v61h-61zm122 0h61v61h-61zm61 0h61v61h-61zm61 0h61v61h-61zm61 0h61v61h-61zm122 0h61v61h-61zm244 0h61v61h-61zm61 0h61v61h-61zm61 0h61v61h-61zm244 0h61v61h-61zm122 0h61v61h-61zm-1403 61h61v61h-61zm122 0h61v61h-61zm122 0h61v61h-61zm183 0h61v61h-61zm61 0h61v61h-61zm122 0h61v61h-61zm61 0h61v61h-61zm122 0h61v61h-61zm61 0h61v61h-61zm122 0h61v61h-61zm122 0h61v61h-61zm61 0h61v61h-61z" fill="#252424"/><g fill="#252424"><path fill="none" d="M186.05 186.05h298.9v298.9h-298.9z"/><path d="M484.95 122H122v427h427V122h-64.05zm0 362.95h-298.9v-298.9h298.9v298.9z"/></g><g fill="#252424"><path fill="none" d="M1772.05 186.05h298.9v298.9h-298.9z"/><path d="M2070.95 122H1708v427h427V122h-64.05zm0 362.95h-298.9v-298.9h298.9v298.9z"/></g><g fill="#252424"><path fill="none" d="M186.05 1772.05h298.9v298.9h-298.9z"/><path d="M484.95 1708H122v427h427v-427h-64.05zm0 362.95h-298.9v-298.9h298.9v298.9z"/></g><path d="M244 244h183v183H244zm1586 0h183v183h-183zM244 1830h183v183H244z" fill="#252424"/><svg xmlns="http://www.w3.org/2000/svg" version="1.0" width="708.661" height="724.055" transform="translate(800.133 793) scale(.92672)"><path fill="#f0d723" d="M0 0h708.661v724.055H0z"/><path d="M188.69 558.14c0 21.974-3.105 41.953-32.006 41.953h-17.913V516.21h13.972c32.842 0 35.947 17.985 35.947 41.93zm-3.105-114.802c0 16.97-.956 37.94-34.872 37.94H138.77v-74.866h14.928c27.945 0 31.886 9.972 31.886 36.926zm54.935 112.831c0-26.966-12.898-56.905-50.875-58.912 34.872-7.01 43.948-31.957 43.948-59.903 0-34.931-9.076-66.853-71.893-66.853h-51.95c-11.942 0-20.899 8.969-20.899 19.92v227.61c0 13.996 8.957 17.973 20.9 17.973h47.889c67.952 0 82.88-37.905 82.88-79.835zm190.72-153.746c4.896-20.959-7.046-33.928-23.05-33.928-12.897 0-21.973 7.977-24.84 22.929l-29.02 149.734c-2.985 14.008-5.015 30.942-5.97 41.953-.956-11.01-2.986-27.945-5.972-41.953l-32.005-149.734c-3.941-16.934-13.973-22.93-25.915-22.93-18.989 0-27.945 16.947-23.049 36.926l48.964 202.65c5.016 19.969 15.047 30.932 37.977 30.932 19.943 0 31.886-10.963 36.902-32.937l45.978-203.642zM619.81 583.11v-78.867c0-15.98-4.896-22.966-19.944-22.966h-43.828c-14.092 0-21.019 6.987-21.019 19.968 0 11.978 8.002 18.953 21.019 18.953h14.928v76.861c-2.986 1.039-8.002 2.03-16.959 2.03-34.99 0-51.949-16.982-51.949-90.857 0-78.856 20.063-96.841 49.92-96.841 22.929 0 33.916 7.99 44.903 7.99 10.987 0 21.018-8.982 21.018-20.936 0-8.025-4.06-13.005-7.046-16.003-14.928-11.942-44.903-14.987-57.8-14.987-61.982 0-101.87 40.95-101.87 136.788 0 90.822 18.034 134.758 96.853 134.758 48.845 0 71.774-16.982 71.774-55.89"/></svg></svg>