<?xml version="1.0" standalone="no"?>
<!DOCTYPE svg PUBLIC "-//W3C//DTD SVG 20010904//EN"
 "http://www.w3.org/TR/2001/REC-SVG-20010904/DTD/svg10.dtd">
<svg version="1.0" xmlns="http://www.w3.org/2000/svg"
 width="700.000000pt" height="700.000000pt" viewBox="0 0 700.000000 700.000000"
 preserveAspectRatio="xMidYMid meet">
<metadata>
Created by potrace 1.11, written by Peter Selinger 2001-2013
</metadata>
<g transform="translate(0.000000,700.000000) scale(0.100000,-0.100000)"
fill="#000000" stroke="none">
<path d="M3407 6314 c-1 -1 -103 -5 -227 -8 -124 -4 -250 -9 -280 -11 -30 -3
-98 -7 -150 -9 -158 -9 -440 -31 -525 -41 -59 -7 -112 -13 -185 -20 -36 -4
-74 -9 -84 -11 -11 -2 -42 -6 -70 -9 -28 -3 -58 -8 -66 -10 -8 -2 -31 -7 -50
-9 -72 -9 -117 -17 -185 -32 -38 -9 -77 -17 -85 -19 -314 -66 -572 -208 -692
-382 -41 -60 -84 -158 -93 -213 -5 -25 -8 -963 -8 -2085 1 -1899 2 -2044 18
-2100 62 -216 248 -377 462 -399 21 -3 57 -5 81 -5 l42 -1 0 -140 c0 -149 7
-177 54 -228 50 -55 50 -55 466 -57 424 -1 444 1 497 58 45 49 51 73 52 222 1
77 3 140 4 142 4 3 593 4 1515 4 l722 -1 0 -137 c0 -151 12 -194 63 -242 46
-42 90 -46 493 -45 428 0 414 -2 478 77 l31 39 3 154 4 154 51 0 c78 0 182 26
256 62 83 41 184 141 228 224 69 130 65 -20 65 2235 1 2239 5 2070 -58 2204
-32 67 -119 173 -181 219 -26 20 -57 43 -68 51 -46 36 -228 116 -336 149 -102
31 -298 74 -414 90 -22 3 -51 8 -65 11 -61 11 -293 40 -405 50 -33 3 -78 7
-100 10 -72 8 -169 16 -240 20 -196 11 -295 17 -340 20 -118 8 -673 23 -678
19z m627 -409 c26 -24 26 -26 26 -154 0 -122 -1 -131 -24 -158 l-24 -27 -508
-1 -509 0 -27 27 c-28 26 -28 28 -28 158 0 129 0 131 26 155 l27 25 507 0 507
0 27 -25z m1625 -756 c63 -22 60 31 60 -1068 0 -609 -3 -1011 -9 -1026 -5 -14
-22 -33 -38 -42 -27 -17 -149 -18 -2184 -17 -2035 0 -2157 1 -2182 18 -15 9
-31 28 -36 42 -16 40 -13 2016 2 2050 7 15 26 33 43 40 40 17 4295 20 4344 3z
m-3989 -2665 c485 -131 459 -122 500 -182 23 -32 25 -46 27 -155 3 -144 -12
-191 -74 -230 l-38 -25 -351 -1 c-410 -2 -417 0 -465 89 -16 30 -23 395 -8
452 17 68 96 120 169 111 19 -2 127 -29 240 -59z m3985 40 c19 -9 45 -31 58
-48 21 -30 22 -39 22 -258 0 -213 -1 -228 -21 -254 -11 -15 -33 -37 -48 -48
-26 -20 -42 -21 -364 -24 -185 -2 -356 0 -379 3 -50 7 -104 56 -119 107 -8 27
-11 173 -5 256 0 10 17 37 37 60 29 34 47 45 102 60 124 36 227 64 242 67 43
10 354 95 357 98 9 9 86 -3 118 -19z"/>
<path d="M3396 4964 c-10 -9 -143 -220 -518 -819 l-97 -155 265 0 c160 0 264
-4 264 -9 0 -6 -39 -135 -86 -288 -47 -153 -90 -294 -96 -313 -5 -19 -23 -75
-39 -124 -16 -50 -27 -91 -25 -93 1 -2 36 32 77 75 190 201 330 350 355 377
23 25 226 241 344 365 19 20 94 99 165 175 72 76 140 149 153 161 12 13 22 25
22 28 0 3 -137 7 -305 8 l-304 3 139 220 c77 121 148 234 158 250 43 67 92
146 92 148 0 1 -124 2 -277 2 -189 0 -280 -3 -287 -11z"/>
<path d="M238 4750 c-58 -10 -104 -44 -134 -100 -17 -32 -18 -66 -18 -455 -1
-477 -1 -471 81 -529 39 -27 50 -29 135 -31 132 -3 184 19 228 97 22 40 23 43
23 463 l0 423 -25 44 c-37 62 -90 89 -181 92 -40 1 -88 -1 -109 -4z"/>
<path d="M6579 4624 c-51 -16 -105 -66 -120 -113 -9 -25 -12 -157 -12 -447 1
-450 -1 -441 62 -500 43 -40 83 -51 181 -49 130 2 197 45 218 140 4 22 8 223
7 447 l0 407 -31 43 c-16 24 -47 51 -69 61 -47 23 -176 28 -236 11z"/>
</g>
</svg>
