<?xml version="1.0" encoding="UTF-8" standalone="no"?>
<!-- Created with Inkscape (http://www.inkscape.org/) -->

<svg
   xmlns:i="http://ns.adobe.com/AdobeIllustrator/10.0/"
   xmlns:dc="http://purl.org/dc/elements/1.1/"
   xmlns:cc="http://creativecommons.org/ns#"
   xmlns:rdf="http://www.w3.org/1999/02/22-rdf-syntax-ns#"
   xmlns:svg="http://www.w3.org/2000/svg"
   xmlns="http://www.w3.org/2000/svg"
   xmlns:sodipodi="http://sodipodi.sourceforge.net/DTD/sodipodi-0.dtd"
   xmlns:inkscape="http://www.inkscape.org/namespaces/inkscape"
   width="633.97552mm"
   height="228.22591mm"
   viewBox="0 0 633.9755 228.2259"
   version="1.1"
   id="svg8"
   inkscape:version="0.92.3 (2405546, 2018-03-11)"
   sodipodi:docname="Image_question_berlin_wind.svg">
  <defs
     id="defs2" />
  <sodipodi:namedview
     id="base"
     pagecolor="#ffffff"
     bordercolor="#666666"
     borderopacity="1.0"
     inkscape:pageopacity="0.0"
     inkscape:pageshadow="2"
     inkscape:zoom="0.24748737"
     inkscape:cx="493.04665"
     inkscape:cy="801.7817"
     inkscape:document-units="mm"
     inkscape:current-layer="layer3"
     showgrid="false"
     showguides="true"
     inkscape:guide-bbox="true"
     inkscape:window-width="1853"
     inkscape:window-height="1025"
     inkscape:window-x="67"
     inkscape:window-y="27"
     inkscape:window-maximized="1"
     fit-margin-left="10"
     fit-margin-top="20"
     fit-margin-bottom="20"
     fit-margin-right="10" />
  <metadata
     id="metadata5">
    <rdf:RDF>
      <cc:Work
         rdf:about="">
        <dc:format>image/svg+xml</dc:format>
        <dc:type
           rdf:resource="http://purl.org/dc/dcmitype/StillImage" />
        <dc:title></dc:title>
      </cc:Work>
    </rdf:RDF>
  </metadata>
  <g
     inkscape:label="Ebene 1"
     inkscape:groupmode="layer"
     id="layer1"
     style="display:none;opacity:0.15400002"
     transform="translate(303.36905,-66.992248)"
     sodipodi:insensitive="true">
    <g
       style="fill:#000000"
       id="g850"
       transform="matrix(1.6596944,0,0,1.6596944,-24.917034,101.5392)">
      <g
         id="g831">
        <g
           id="g829"
           i:extraneous="self">
          <g
             id="g827">
            <path
               id="path817"
               d="M 50.7,47.2 50,46.7 49.3,47.1 c -0.9,0.5 -1.9,1.1 -2.9,1.6 l -1.5,47.5 c 0,0.7 0.5,1.2 1.2,1.2 h 8.1 c 0.7,0 1.2,-0.6 1.2,-1.2 L 53.9,48.7 c -1.2,-0.5 -2.2,-1 -3.2,-1.5 z"
               class="st0"
               inkscape:connector-curvature="0"
               style="clip-rule:evenodd;fill-rule:evenodd" />
            <path
               id="path819"
               d="M 54.3,33.9 C 54.2,19.9 52.3,2.5 50,2.5 c -2.3,0 -4.2,17.4 -4.3,31.4 1.1,-1 2.6,-1.6 4.3,-1.6 1.6,0 3.1,0.6 4.3,1.6 z"
               class="st0"
               inkscape:connector-curvature="0"
               style="clip-rule:evenodd;fill-rule:evenodd" />
            <path
               id="path821"
               d="m 43.5,38.8 c 0,-0.5 0.1,-0.9 0.1,-1.3 -12.1,7.1 -26.2,17.4 -25.1,19.4 1.1,2 17.2,-5.1 29.4,-12 -2.5,-0.9 -4.4,-3.3 -4.4,-6.1 z"
               class="st0"
               inkscape:connector-curvature="0"
               style="clip-rule:evenodd;fill-rule:evenodd" />
            <path
               id="path823"
               d="m 56.3,37.5 c 0.1,0.4 0.1,0.9 0.1,1.3 0,2.9 -1.9,5.3 -4.5,6.1 12.2,6.9 28.2,14 29.4,12 1.2,-2 -12.9,-12.3 -25,-19.4 z"
               class="st0"
               inkscape:connector-curvature="0"
               style="clip-rule:evenodd;fill-rule:evenodd" />
            <path
               id="path825"
               d="m 46.1,38.8 c 0,2.1 1.7,3.9 3.9,3.9 2.1,0 3.9,-1.7 3.9,-3.9 0,-2.1 -1.7,-3.9 -3.9,-3.9 -2.1,0 -3.9,1.7 -3.9,3.9 z"
               class="st0"
               inkscape:connector-curvature="0"
               style="clip-rule:evenodd;fill-rule:evenodd" />
          </g>
        </g>
      </g>
    </g>
    <g
       style="fill:#000000"
       id="g869"
       transform="matrix(13.06846,0,0,13.06846,131.41169,113.94156)">
      <g
         id="g856"
         transform="translate(0,-284.29998)">
        <g
           id="g854"
           transform="translate(1273.8745,-358.77884)">
          <path
             id="path852"
             style="fill:#000000;stroke:none"
             d="m -1267.7743,644.35811 a 0.17152743,0.17152743 0 0 0 -0.1741,0.19481 v 0 a 0.44078617,0.44078617 0 0 0 0.203,0.31472 0.05234624,0.05234624 0 0 1 0.025,0.0439 v 0.62064 l -0.155,0.27183 a 0.29997392,0.29997392 0 0 0 -0.2997,0.29972 v 1.15652 h -0.4336 v -0.66715 a 0.22400948,0.22400948 0 0 0 -0.448,0 v 0.66715 h -1.1824 v 0.37981 h -2.6815 v 0.15658 h 0.199 v 0.46458 h -0.3504 v 1.28828 h 0.1855 v 4.58526 h -0.4588 v 0.36483 h 11.6416 v -0.36483 h -0.4589 v -4.58526 h 0.185 v -1.28828 h -0.3503 v -0.46458 h 0.1995 v -0.15658 h -2.6815 v -0.37981 h -1.1829 v -0.66715 a 0.22400948,0.22400948 0 0 0 -0.448,0 v 0.66715 h -0.4331 v -1.15652 a 0.29997392,0.29997392 0 0 0 -0.3002,-0.29972 l -0.1545,-0.27183 v -0.62064 a 0.05234624,0.05234624 0 0 1 0.025,-0.0439 0.44078617,0.44078617 0 0 0 0.2036,-0.31472 0.17152743,0.17152743 0 0 0 -0.3069,-0.1266 0.14692875,0.14692875 0 0 1 -0.2341,0 0.17152743,0.17152743 0 0 0 -0.1328,-0.0682 z m -4.1181,5.28547 h 0.6992 v 4.4912 h -0.6992 z m 1.787,0 h 0.6987 v 4.4912 h -0.6987 z m 1.787,0 h 1.5864 v 4.4912 h -1.5864 z m 2.6742,0 h 0.6992 v 4.4912 h -0.6992 z m 1.787,0 h 0.6992 v 4.4912 h -0.6992 z"
             inkscape:connector-curvature="0" />
        </g>
      </g>
    </g>
    <g
       style="fill:#000000"
       id="g916"
       transform="matrix(1.7288483,0,0,1.7288483,-323.81873,100.67477)">
      <path
         id="path890"
         d="m 48.088,44.084 c -7.724,0 -14.004,-6.276 -14.004,-13.996 0,-7.724 6.28,-14.004 14.004,-14.004 7.716,0 14,6.28 14,14.004 -0.004,7.72 -6.28,13.996 -14,13.996 z m 0,-24 c -5.516,0 -10.004,4.488 -10.004,10.004 0,5.516 4.488,9.996 10.004,9.996 5.512,0 10,-4.48 10,-9.996 0,-5.516 -4.488,-10.004 -10,-10.004 z"
         inkscape:connector-curvature="0"
         style="fill:#000000" />
      <path
         id="path892"
         d="m 48,17.996 c -1.104,0 -2,-0.896 -2,-2 v -12 c 0,-1.104 0.896,-2 2,-2 1.104,0 2,0.896 2,2 v 12 c 0,1.104 -0.896,2 -2,2 z"
         inkscape:connector-curvature="0"
         style="fill:#000000" />
      <path
         id="path894"
         d="m 41.876,94.004 c -0.056,0 -0.112,0 -0.168,-0.008 -1.1,-0.088 -1.92,-1.06 -1.828,-2.16 l 4.192,-50.084 c 0.092,-1.1 1.036,-1.912 2.16,-1.828 1.1,0.092 1.92,1.06 1.828,2.16 l -4.192,50.088 c -0.088,1.048 -0.96,1.832 -1.992,1.832 z"
         inkscape:connector-curvature="0"
         style="fill:#000000" />
      <path
         id="path896"
         d="m 54.252,94.004 c -1.024,0 -1.904,-0.784 -1.992,-1.832 L 48.072,42.084 c -0.092,-1.1 0.724,-2.068 1.828,-2.16 1.132,-0.084 2.068,0.728 2.16,1.828 l 4.196,50.084 c 0.088,1.1 -0.728,2.072 -1.828,2.16 -0.064,0.008 -0.12,0.008 -0.176,0.008 z"
         inkscape:connector-curvature="0"
         style="fill:#000000" />
      <path
         id="path898"
         d="M 54,47.996 H 42 c -1.104,0 -2,-0.896 -2,-2 0,-1.104 0.896,-2 2,-2 h 12 c 1.1,0 2,0.896 2,2 0,1.104 -0.9,2 -2,2 z"
         inkscape:connector-curvature="0"
         style="fill:#000000" />
      <path
         id="path900"
         d="M 62,35.996 H 34 c -1.104,0 -2,-0.896 -2,-2 0,-1.104 0.896,-2 2,-2 h 28 c 1.1,0 2,0.896 2,2 0,1.104 -0.9,2 -2,2 z"
         inkscape:connector-curvature="0"
         style="fill:#000000" />
    </g>
    <g
       style="fill:#000000"
       id="g935"
       transform="matrix(1.6596944,0,0,1.6596944,-182.74471,124.77492)">
      <g
         id="g922">
        <g
           id="g920"
           i:extraneous="self">
          <path
             id="path918"
             d="M 93.2,79 V 42.8 L 69.4,36.3 V 79 H 66.2 V 23.1 L 33.8,16.6 V 79 H 30.6 V 26.6 L 6.8,33.1 v 46 H 2.5 v 4.3 h 95 V 79 Z M 83.5,48.4 h 4.3 V 54 h -4.3 z m 0,9.9 h 4.3 v 5.6 h -4.3 z m 0,9.9 h 4.3 v 5.6 H 83.5 Z M 74.8,48.4 h 4.3 V 54 h -4.3 z m 0,9.9 h 4.3 v 5.6 h -4.3 z m 0,9.9 h 4.3 v 5.6 H 74.8 Z M 20.9,38.4 h 4.3 V 44 h -4.3 z m 0,10 h 4.3 V 54 h -4.3 z m 0,9.9 h 4.3 v 5.6 h -4.3 z m 0,9.9 h 4.3 v 5.6 H 20.9 Z M 12.2,38.4 h 4.3 V 44 h -4.3 z m 0,10 h 4.3 V 54 h -4.3 z m 0,9.9 h 4.3 v 5.6 h -4.3 z m 0,9.9 h 4.3 v 5.6 H 12.2 Z M 56.5,28.5 h 4.3 v 5.6 h -4.3 z m 0,9.9 h 4.3 V 44 h -4.3 z m 0,10 h 4.3 V 54 h -4.3 z m 0,9.9 h 4.3 v 5.6 H 56.5 Z M 47.8,28.5 h 4.3 v 5.6 h -4.3 z m 0,9.9 h 4.3 V 44 h -4.3 z m 0,10 h 4.3 V 54 h -4.3 z m 0,9.9 h 4.3 v 5.6 H 47.8 Z M 39.2,28.5 h 4.3 v 5.6 h -4.3 z m 0,9.9 h 4.3 V 44 h -4.3 z m 0,10 h 4.3 V 54 h -4.3 z m 0,9.9 h 4.3 v 5.6 h -4.3 z m 6.7,9.9 h 8.2 V 79 h -8.2 z"
             inkscape:connector-curvature="0" />
        </g>
      </g>
    </g>
    <g
       style="fill:#000000"
       id="g1127"
       transform="matrix(0.8428587,0,0,0.8428587,-166.0875,45.877002)">
      <g
         id="g1115"
         transform="translate(0,-952.36218)">
        <path
           id="path1113"
           overflow="visible"
           display="inline"
           visibility="visible"
           marker="none"
           d="m 58.000003,975.36218 c 12.484795,0 21.218296,11.2079 20.093795,22.2813 7.3529,1.4435 12.9062,7.94282 12.9062,15.71872 0,8.8366 -7.163499,16 -15.999999,16 H 26.000002 c -10.1687,0 -16.9999995,-6.6703 -16.9999995,-15 0,-6.9656 4.9057995,-13.8097 11.9999995,-15.00002 0,-12 11,-17 19,-13 3,-6 9.4525,-11 18,-11 z"
           style="color:#000000;display:inline;overflow:visible;visibility:visible;fill:#000000;stroke:none;enable-background:accumulate"
           inkscape:connector-curvature="0" />
      </g>
    </g>
  </g>
  <g
     inkscape:groupmode="layer"
     id="layer3"
     inkscape:label="color"
     style="display:inline"
     transform="translate(303.36905,-66.992248)">
    <rect
       style="display:inline;opacity:1;fill:#ffffff;fill-opacity:1;stroke:none;stroke-width:0.60000002;stroke-linecap:round;stroke-linejoin:round;stroke-miterlimit:4;stroke-dasharray:none;stroke-dashoffset:0;stroke-opacity:1;paint-order:fill markers stroke"
       id="rect945"
       width="706.66058"
       height="313.2399"
       x="-351.9877"
       y="18.400848"
       rx="1.4334781"
       ry="1.1632539" />
    <path
       style="fill:#f0d722;fill-opacity:1;stroke:none;stroke-width:1.66230798;stroke-linecap:butt;stroke-linejoin:miter;stroke-miterlimit:4;stroke-dasharray:none;stroke-opacity:1"
       d="m 49.019736,272.66552 h 18.213126 l -4.935487,-98.67034 38.291485,19.24211 8.29843,2.07463 1.18551,-2.07463 -16.596924,-14.22594 -26.56544,-14.63403 -3.588138,-5.94421 -2.447544,-44.32766 -3.260131,-8.89122 -3.556525,9.48396 -1.7251,43.73492 -3.693898,5.94421 -36.666071,22.93249 -6.8165777,7.113 6.2238017,0.59271 42.574971,-21.02036 z"
       id="path1134"
       inkscape:connector-curvature="0"
       sodipodi:nodetypes="ccccccccccccccccccc" />
    <path
       style="fill:#ffffff;fill-opacity:1;stroke:none;stroke-width:1.65969431px;stroke-linecap:butt;stroke-linejoin:miter;stroke-opacity:1"
       d="m -251.79982,260.51418 h 21.86443 l -6.52026,-87.43032 c 0,0 15.46136,-2.20521 17.55329,-19.56067 1.31372,-10.89941 -11.06841,-24.24569 -21.89969,-24.59904 -10.83129,-0.35335 -23.15895,8.17939 -22.85284,22.52443 0.41525,19.46143 18.37533,21.63528 18.37533,21.63528 z"
       id="path1140"
       inkscape:connector-curvature="0"
       sodipodi:nodetypes="cccszscc" />
    <path
       style="fill:#ffffff;fill-opacity:1;stroke:none;stroke-width:1.65969431px;stroke-linecap:butt;stroke-linejoin:miter;stroke-opacity:1"
       d="m -170.749,260.6034 v -80.7667 l 35.37009,-10.28698 v 91.05368 z"
       id="path1142"
       inkscape:connector-curvature="0" />
    <path
       style="fill:#ffffff;fill-opacity:1;stroke:none;stroke-width:1.65969431px;stroke-linecap:butt;stroke-linejoin:miter;stroke-opacity:1"
       d="M -121.80695,261.07468 V 155.80046 l 43.43104,11.11152 v 94.1627 z"
       id="path1144"
       inkscape:connector-curvature="0" />
    <path
       style="color:#000000;font-style:normal;font-variant:normal;font-weight:normal;font-stretch:normal;font-size:medium;line-height:normal;font-family:sans-serif;font-variant-ligatures:normal;font-variant-position:normal;font-variant-caps:normal;font-variant-numeric:normal;font-variant-alternates:normal;font-feature-settings:normal;text-indent:0;text-align:start;text-decoration:none;text-decoration-line:none;text-decoration-style:solid;text-decoration-color:#000000;letter-spacing:normal;word-spacing:normal;text-transform:none;writing-mode:lr-tb;direction:ltr;text-orientation:mixed;dominant-baseline:auto;baseline-shift:baseline;text-anchor:start;white-space:normal;shape-padding:0;clip-rule:nonzero;display:inline;overflow:visible;visibility:visible;opacity:1;isolation:auto;mix-blend-mode:normal;color-interpolation:sRGB;color-interpolation-filters:linearRGB;solid-color:#000000;solid-opacity:1;vector-effect:none;fill:#000000;fill-opacity:1;fill-rule:nonzero;stroke:none;stroke-width:1.65969431px;stroke-linecap:butt;stroke-linejoin:miter;stroke-miterlimit:4;stroke-dasharray:none;stroke-dashoffset:0;stroke-opacity:1;color-rendering:auto;image-rendering:auto;shape-rendering:auto;text-rendering:auto;enable-background:accumulate"
       d="m -65.357422,181.72266 v 79.62109 h 0.830078 36.199219 v -68.85156 z m 1.660156,2.21093 33.708985,9.80274 v 65.94726 h -33.708985 z"
       id="path1146"
       inkscape:connector-curvature="0" />
    <path
       style="fill:#ffffff;fill-opacity:1;stroke:none;stroke-width:1.65969431px;stroke-linecap:butt;stroke-linejoin:miter;stroke-opacity:1"
       d="m 144.04536,260.51418 v -61.66524 h -6.07752 v -16.97498 h 5.90985 v -8.32402 h 35.37504 v -8.23187 h 26.8247 v -15.0889 h 4.61055 v -18.44198 h 8.41975 v 18.44198 h 4.61055 v 15.0889 h 26.8247 v 8.23187 h 35.37504 v 8.32402 h 5.90985 v 16.97498 h -6.07752 v 61.66524 h -13.0601 v -61.24609 h -9.64013 v 61.24609 h -13.59574 v -61.24609 h -9.64013 v 61.24609 l -17.48014,0.0173 V 199.1714 h -17.52907 v 61.35972 l -15.10003,-0.0173 v -61.24609 h -9.64013 v 61.24609 h -13.59574 v -61.24609 h -9.64013 v 61.24609 z"
       id="path1148"
       inkscape:connector-curvature="0" />
    <path
       sodipodi:nodetypes="cczcscscsc"
       inkscape:connector-curvature="0"
       id="path1150"
       d="m -167.4814,134.40706 h 38.82492 c 0,0 14.51634,0.91664 16.00428,-13.18864 1.48792,-14.10528 -10.73043,-13.46576 -10.73043,-13.46576 0,0 2.13291,-14.415013 -13.67615,-18.187242 -15.87461,-3.78786 -18.43161,8.678686 -18.43161,8.678686 0,0 -5.6536,-3.20202 -11.8429,1.190832 -5.7881,4.108074 -4.17133,9.766334 -4.17133,9.766334 0,0 -10.42173,0.43271 -10.35104,12.31353 0.0766,12.8698 14.37426,12.89226 14.37426,12.89226 z"
       style="fill:#ffffff;fill-opacity:1;stroke:none;stroke-width:3.7637167;stroke-linecap:butt;stroke-linejoin:round;stroke-miterlimit:4;stroke-dasharray:none;stroke-opacity:1" />
    <path
       style="fill:#ffffff;fill-opacity:1;stroke:none;stroke-width:2.31567287;stroke-linecap:butt;stroke-linejoin:round;stroke-miterlimit:4;stroke-dasharray:none;stroke-opacity:1"
       d="m 151.29327,122.74326 h -23.88749 c 0,0 -8.9313,0.56399 -9.84682,-8.11448 -0.9154,-8.67845 6.60199,-8.28498 6.60199,-8.28498 0,0 -1.31222,-8.869013 8.41448,-11.189921 9.76704,-2.330531 11.34027,5.339661 11.34027,5.339661 0,0 3.47849,-1.970074 7.28649,0.73268 3.56123,2.52754 2.56648,6.00886 2.56648,6.00886 0,0 6.41205,0.26622 6.36858,7.57604 -0.0439,7.91831 -8.84398,7.93214 -8.84398,7.93214 z"
       id="path1167"
       inkscape:connector-curvature="0"
       sodipodi:nodetypes="cczcscscsc" />
  </g>
  <g
     inkscape:groupmode="layer"
     id="layer2"
     inkscape:label="lines"
     style="display:inline"
     transform="translate(303.36905,-66.992248)">
    <g
       id="g955"
       transform="matrix(6.2728607,0,0,6.2728607,1546.8939,-344.12142)">
      <path
         style="fill:none;stroke:#b0b0b0;stroke-width:0.60000002;stroke-linecap:round;stroke-linejoin:miter;stroke-miterlimit:4;stroke-dasharray:none;stroke-opacity:1"
         d="m -293.06474,96.389131 h 54.10696"
         id="path1036"
         inkscape:connector-curvature="0" />
      <path
         inkscape:connector-curvature="0"
         id="path940"
         d="m -286.74218,96.389131 1.03944,-13.937867"
         style="fill:none;stroke:#b0b0b0;stroke-width:0.60000002;stroke-linecap:butt;stroke-linejoin:miter;stroke-miterlimit:4;stroke-dasharray:none;stroke-opacity:1" />
      <path
         style="fill:none;stroke:#b0b0b0;stroke-width:0.60000002;stroke-linecap:butt;stroke-linejoin:miter;stroke-miterlimit:4;stroke-dasharray:none;stroke-opacity:1"
         d="m -283.25663,96.389131 -1.03944,-13.937867"
         id="path942"
         inkscape:connector-curvature="0" />
      <path
         style="opacity:1;fill:none;fill-opacity:1;stroke:#b0b0b0;stroke-width:0.60000002;stroke-linecap:round;stroke-linejoin:round;stroke-miterlimit:4;stroke-dasharray:none;stroke-dashoffset:0;stroke-opacity:1;paint-order:fill markers stroke"
         d="m -281.49895,79.143974 a 3.5435269,3.5435269 0 0 1 -3.54353,3.543527 3.5435269,3.5435269 0 0 1 -3.54353,-3.543527 3.5435269,3.5435269 0 0 1 3.54353,-3.543527 3.5435269,3.5435269 0 0 1 3.54353,3.543527 z"
         id="path944" />
      <path
         inkscape:connector-curvature="0"
         id="path946"
         d="m -284.98895,71.537202 v 3.874254"
         style="fill:none;stroke:#b0b0b0;stroke-width:0.60000002;stroke-linecap:round;stroke-linejoin:miter;stroke-miterlimit:4;stroke-dasharray:none;stroke-opacity:1" />
      <path
         inkscape:connector-curvature="0"
         id="path948"
         d="m -288.34858,80.2779 h 6.61459"
         style="fill:none;stroke:#b0b0b0;stroke-width:0.60000002;stroke-linecap:butt;stroke-linejoin:miter;stroke-miterlimit:4;stroke-dasharray:none;stroke-opacity:1" />
      <g
         id="g1055"
         style="stroke:#b0b0b0;stroke-opacity:1">
        <path
           inkscape:connector-curvature="0"
           id="path975"
           d="m -223.63777,96.389131 v -9.830478 h -0.96886 v -2.706102 h 0.94213 v -1.326989 h 5.63938 v -1.312297 h 4.27631 v -2.405426 h 0.735 v -2.939965 h 0.73499"
           style="fill:none;stroke:#b0b0b0;stroke-width:0.60000002;stroke-linecap:butt;stroke-linejoin:round;stroke-miterlimit:4;stroke-dasharray:none;stroke-opacity:1" />
        <path
           inkscape:connector-curvature="0"
           id="path977"
           d="m -221.59984,96.389131 v -9.76366 h 1.5368 v 9.76366"
           style="fill:none;stroke:#b0b0b0;stroke-width:0.60000002;stroke-linecap:butt;stroke-linejoin:round;stroke-miterlimit:4;stroke-dasharray:none;stroke-opacity:1" />
        <path
           style="fill:none;stroke:#b0b0b0;stroke-width:0.60000002;stroke-linecap:butt;stroke-linejoin:round;stroke-miterlimit:4;stroke-dasharray:none;stroke-opacity:1"
           d="m -217.89565,96.389131 v -9.76366 h 1.5368 v 9.76366"
           id="path979"
           inkscape:connector-curvature="0" />
        <path
           inkscape:connector-curvature="0"
           id="path981"
           d="m -213.95165,96.391828 v -9.781776 h 2.79443 v 9.781776"
           style="fill:none;stroke:#b0b0b0;stroke-width:0.60000002;stroke-linecap:butt;stroke-linejoin:round;stroke-miterlimit:4;stroke-dasharray:none;stroke-opacity:1" />
        <path
           style="fill:none;stroke:#b0b0b0;stroke-width:0.60000002;stroke-linecap:butt;stroke-linejoin:round;stroke-miterlimit:4;stroke-dasharray:none;stroke-opacity:1"
           d="m -208.37059,96.389131 v -9.76366 h 1.5368 v 9.76366"
           id="path983"
           inkscape:connector-curvature="0" />
        <path
           inkscape:connector-curvature="0"
           id="path985"
           d="m -204.6664,96.389131 v -9.76366 h 1.5368 v 9.76366"
           style="fill:none;stroke:#b0b0b0;stroke-width:0.60000002;stroke-linecap:butt;stroke-linejoin:round;stroke-miterlimit:4;stroke-dasharray:none;stroke-opacity:1" />
        <path
           style="fill:none;stroke:#b0b0b0;stroke-width:0.60000002;stroke-linecap:butt;stroke-linejoin:round;stroke-miterlimit:4;stroke-dasharray:none;stroke-opacity:1"
           d="m -201.0476,96.389131 v -9.830478 h 0.96886 v -2.706102 h -0.94213 v -1.326989 h -5.63938 v -1.312297 h -4.27631 v -2.405426 h -0.735 v -2.939965 h -0.73499"
           id="path989"
           inkscape:connector-curvature="0" />
      </g>
      <path
         inkscape:connector-curvature="0"
         id="path1138"
         d="m -235.8432,96.389131 h 40.04799"
         style="fill:none;stroke:#b0b0b0;stroke-width:0.60000002;stroke-linecap:round;stroke-linejoin:miter;stroke-miterlimit:4;stroke-dasharray:none;stroke-opacity:1" />
      <g
         id="g1046">
        <path
           style="opacity:1;fill:none;fill-opacity:1;stroke:#252424;stroke-width:0.60000002;stroke-linecap:round;stroke-linejoin:round;stroke-miterlimit:4;stroke-dasharray:none;stroke-dashoffset:0;stroke-opacity:1;paint-order:fill markers stroke"
           d="m -235.93543,81.340965 a 1.4111838,1.4111838 0 0 1 -1.41119,1.411184 1.4111838,1.4111838 0 0 1 -1.41118,-1.411184 1.4111838,1.4111838 0 0 1 1.41118,-1.411184 1.4111838,1.4111838 0 0 1 1.41119,1.411184 z"
           id="circle963" />
        <path
           sodipodi:nodetypes="czc"
           inkscape:connector-curvature="0"
           id="path965"
           d="m -238.25827,80.115684 c 0,0 -0.005,-8.362438 0.82033,-8.383511 0.82537,-0.02107 0.93155,8.383511 0.93155,8.383511"
           style="fill:none;stroke:#000000;stroke-width:0.60000002;stroke-linecap:butt;stroke-linejoin:miter;stroke-miterlimit:4;stroke-dasharray:none;stroke-opacity:1" />
        <path
           style="fill:none;stroke:#000000;stroke-width:0.60000002;stroke-linecap:butt;stroke-linejoin:miter;stroke-miterlimit:4;stroke-dasharray:none;stroke-opacity:1"
           d="m -237.99966,82.596543 c 0,0 -7.31641,4.049758 -7.73412,3.337622 -0.41771,-0.712172 6.88664,-4.870872 6.88664,-4.870872"
           id="path967"
           inkscape:connector-curvature="0"
           sodipodi:nodetypes="czc" />
        <path
           sodipodi:nodetypes="czc"
           inkscape:connector-curvature="0"
           id="path969"
           d="m -236.78186,82.596543 c 0,0 7.31641,4.049758 7.73412,3.337622 0.41771,-0.712172 -6.88664,-4.870872 -6.88664,-4.870872"
           style="fill:none;stroke:#000000;stroke-width:0.60000002;stroke-linecap:butt;stroke-linejoin:miter;stroke-miterlimit:4;stroke-dasharray:none;stroke-opacity:1" />
        <path
           style="fill:none;stroke:#000000;stroke-width:0.60000002;stroke-linecap:butt;stroke-linejoin:round;stroke-miterlimit:4;stroke-dasharray:none;stroke-opacity:1"
           d="m -238.00952,82.59961 -0.78248,15.833585 h 2.89484 l -0.78446,-15.836652"
           id="path1136"
           inkscape:connector-curvature="0" />
      </g>
    </g>
    <g
       id="g1078"
       style="stroke:#b0b0b0;stroke-opacity:1"
       transform="matrix(6.2728607,0,0,6.2728607,1546.8939,-344.12142)">
      <path
         style="opacity:1;fill:none;fill-opacity:1;stroke:#b0b0b0;stroke-width:0.60000002;stroke-linecap:butt;stroke-linejoin:round;stroke-miterlimit:4;stroke-dasharray:none;stroke-dashoffset:0;stroke-opacity:1;paint-order:fill markers stroke"
         d="m -272.25601,85.789246 h 2.4552 v 1.381746 h -2.4552 z"
         id="rect1010" />
      <path
         style="opacity:1;fill:none;fill-opacity:1;stroke:#b0b0b0;stroke-width:0.60000002;stroke-linecap:butt;stroke-linejoin:round;stroke-miterlimit:4;stroke-dasharray:none;stroke-dashoffset:0;stroke-opacity:1;paint-order:fill markers stroke"
         d="m -272.25601,88.964249 h 2.4552 v 1.381746 h -2.4552 z"
         id="rect1014" />
      <path
         style="opacity:1;fill:none;fill-opacity:1;stroke:#b0b0b0;stroke-width:0.60000002;stroke-linecap:butt;stroke-linejoin:round;stroke-miterlimit:4;stroke-dasharray:none;stroke-dashoffset:0;stroke-opacity:1;paint-order:fill markers stroke"
         d="m -272.25601,92.139252 h 2.4552 v 1.381746 h -2.4552 z"
         id="rect1016" />
      <path
         style="opacity:1;fill:none;fill-opacity:1;stroke:#b0b0b0;stroke-width:0.60000002;stroke-linecap:butt;stroke-linejoin:round;stroke-miterlimit:4;stroke-dasharray:none;stroke-dashoffset:0;stroke-opacity:1;paint-order:fill markers stroke"
         d="m -255.338,88.885254 h 2.4552 V 90.267 h -2.4552 z"
         id="rect1018" />
      <path
         style="opacity:1;fill:none;fill-opacity:1;stroke:#b0b0b0;stroke-width:0.60000002;stroke-linecap:butt;stroke-linejoin:round;stroke-miterlimit:4;stroke-dasharray:none;stroke-dashoffset:0;stroke-opacity:1;paint-order:fill markers stroke"
         d="m -255.338,92.060257 h 2.4552 v 1.381746 h -2.4552 z"
         id="rect1020" />
      <path
         style="opacity:1;fill:none;fill-opacity:1;stroke:#b0b0b0;stroke-width:0.60000002;stroke-linecap:butt;stroke-linejoin:round;stroke-miterlimit:4;stroke-dasharray:none;stroke-dashoffset:0;stroke-opacity:1;paint-order:fill markers stroke"
         d="m -264.23099,82.655083 h 3.21806 v 1.35765 h -3.21806 z"
         id="rect1024" />
      <path
         style="opacity:1;fill:none;fill-opacity:1;stroke:#b0b0b0;stroke-width:0.60000002;stroke-linecap:butt;stroke-linejoin:round;stroke-miterlimit:4;stroke-dasharray:none;stroke-dashoffset:0;stroke-opacity:1;paint-order:fill markers stroke"
         d="m -264.23099,85.774712 h 3.21806 v 1.357649 h -3.21806 z"
         id="rect1026" />
      <path
         style="opacity:1;fill:none;fill-opacity:1;stroke:#b0b0b0;stroke-width:0.60000002;stroke-linecap:butt;stroke-linejoin:round;stroke-miterlimit:4;stroke-dasharray:none;stroke-dashoffset:0;stroke-opacity:1;paint-order:fill markers stroke"
         d="m -264.23099,88.894348 h 3.21806 v 1.35765 h -3.21806 z"
         id="rect1028" />
      <path
         style="opacity:1;fill:none;fill-opacity:1;stroke:#b0b0b0;stroke-width:0.60000002;stroke-linecap:butt;stroke-linejoin:round;stroke-miterlimit:4;stroke-dasharray:none;stroke-dashoffset:0;stroke-opacity:1;paint-order:fill markers stroke"
         d="m -264.23099,92.069351 h 3.21806 v 1.35765 h -3.21806 z"
         id="rect1030" />
      <path
         inkscape:connector-curvature="0"
         id="path957"
         d="M -273.82131,96.403355 V 83.527777 l 5.63858,-1.639915 v 14.515493"
         style="fill:none;stroke:#b0b0b0;stroke-width:0.60000002;stroke-linecap:butt;stroke-linejoin:round;stroke-miterlimit:4;stroke-dasharray:none;stroke-opacity:1" />
      <path
         sodipodi:nodetypes="cccc"
         style="fill:none;stroke:#b0b0b0;stroke-width:0.60000002;stroke-linecap:butt;stroke-linejoin:round;stroke-miterlimit:4;stroke-dasharray:none;stroke-opacity:1"
         d="M -251.24929,96.389131 V 85.644445 l -5.63858,-1.639915 v 12.384601"
         id="path959"
         inkscape:connector-curvature="0" />
      <path
         inkscape:connector-curvature="0"
         id="path961"
         d="M -259.09548,96.478486 V 81.46736 l -6.92364,-1.771366 v 16.782492"
         style="fill:none;stroke:#b0b0b0;stroke-width:0.60000002;stroke-linecap:butt;stroke-linejoin:round;stroke-miterlimit:4;stroke-dasharray:none;stroke-opacity:1"
         sodipodi:nodetypes="cccc" />
    </g>
    <rect
       style="opacity:1;fill:#ffffff;fill-opacity:1;stroke:none;stroke-width:0.60000002;stroke-linecap:round;stroke-linejoin:round;stroke-miterlimit:4;stroke-dasharray:none;stroke-dashoffset:0;stroke-opacity:1;paint-order:fill markers stroke"
       id="rect943"
       width="5.3453903"
       height="3.2072344"
       x="-306.57629"
       y="62.159126"
       rx="1.4334781"
       ry="1.1632539" />
  </g>
  <style
     id="style815"
     type="text/css">
	.st0{fill-rule:evenodd;clip-rule:evenodd;}
</style>
  <path
     style="color:#000000;font-style:normal;font-variant:normal;font-weight:normal;font-stretch:normal;font-size:medium;line-height:normal;font-family:sans-serif;font-variant-ligatures:normal;font-variant-position:normal;font-variant-caps:normal;font-variant-numeric:normal;font-variant-alternates:normal;font-feature-settings:normal;text-indent:0;text-align:start;text-decoration:none;text-decoration-line:none;text-decoration-style:solid;text-decoration-color:#000000;letter-spacing:normal;word-spacing:normal;text-transform:none;writing-mode:lr-tb;direction:ltr;text-orientation:mixed;dominant-baseline:auto;baseline-shift:baseline;text-anchor:start;white-space:normal;shape-padding:0;clip-rule:nonzero;display:inline;overflow:visible;visibility:visible;opacity:1;isolation:auto;mix-blend-mode:normal;color-interpolation:sRGB;color-interpolation-filters:linearRGB;solid-color:#000000;solid-opacity:1;vector-effect:none;fill:#b0b0b0;fill-opacity:1;fill-rule:nonzero;stroke:none;stroke-width:3.7637167;stroke-linecap:butt;stroke-linejoin:round;stroke-miterlimit:4;stroke-dasharray:none;stroke-dashoffset:0;stroke-opacity:1;color-rendering:auto;image-rendering:auto;shape-rendering:auto;text-rendering:auto;enable-background:accumulate"
     d="m 160.97852,20 c -5.23597,-0.03649 -8.89416,1.8713 -11.17188,4.166016 -1.68407,1.696634 -2.5722,3.40613 -3.10742,4.742187 -2.53144,-0.733029 -7.03049,-1.351054 -11.75195,2 -3.29404,2.33793 -4.63806,5.3234 -5.02344,7.650391 -0.13428,0.810767 -0.0815,1.425221 -0.0566,2.060547 -1.1462,0.261346 -2.67027,0.755322 -4.18946,1.6875 -3.04252,1.866899 -6.0855,5.735795 -6.04687,12.226562 0.0424,7.131744 4.31646,11.17047 8.32617,12.976563 4.00971,1.806092 7.92774,1.787109 7.92774,1.787109 a 1.8820465,1.8820465 0 0 0 0.002,0 h 38.82617 l -0.11914,-0.0039 c 0,0 4.00712,0.274804 8.26563,-1.4375 4.2585,-1.712304 8.91713,-5.739832 9.72851,-13.431641 0.80002,-7.584115 -2.34805,-11.956436 -5.75977,-13.863281 -1.81996,-1.017197 -3.56356,-1.40132 -4.89648,-1.5625 0.0257,-1.596351 -0.10492,-3.790731 -1.08008,-6.544922 -1.60808,-4.541816 -5.65597,-9.694787 -14.10547,-11.710937 C 164.64288,20.240338 162.72384,20.012163 160.97852,20 Z m -0.0352,3.716797 c 1.43301,0.03109 3.06425,0.242385 4.92969,0.6875 7.35956,1.756079 10.15196,5.695938 11.42968,9.304687 1.27773,3.608749 0.82227,6.775391 0.82227,6.775391 a 1.8820465,1.8820465 0 0 0 1.95898,2.15625 c 0,0 2.58276,-0.09464 4.90821,1.205078 2.32544,1.299715 4.54141,3.662423 3.85351,10.183594 -0.67653,6.413478 -4.019,8.978287 -7.39062,10.333984 -3.37162,1.355698 -6.62305,1.173828 -6.62305,1.173828 a 1.8820465,1.8820465 0 0 0 -0.11914,-0.0039 h -38.82227 -0.004 c -0.006,-6.1e-5 -3.22951,-0.03386 -6.38477,-1.455078 -3.1583,-1.422593 -6.07331,-3.828348 -6.10742,-9.566406 -0.0321,-5.390055 2.10128,-7.67839 4.25195,-8.998047 2.15068,-1.319658 4.29688,-1.423828 4.29688,-1.423828 a 1.8820465,1.8820465 0 0 0 1.73047,-2.398438 c 0,0 -0.29036,-0.98842 -0.0371,-2.517578 0.25325,-1.529157 0.99422,-3.427116 3.48828,-5.197266 5.39625,-3.829975 9.82617,-1.08789 9.82617,-1.08789 a 1.8820465,1.8820465 0 0 0 2.77149,-1.257813 c 0,0 0.54371,-2.585813 2.7539,-4.8125 1.65765,-1.670015 4.16777,-3.194841 8.4668,-3.101562 z"
     id="path1129"
     inkscape:connector-curvature="0" />
  <path
     style="color:#000000;font-style:normal;font-variant:normal;font-weight:normal;font-stretch:normal;font-size:medium;line-height:normal;font-family:sans-serif;font-variant-ligatures:normal;font-variant-position:normal;font-variant-caps:normal;font-variant-numeric:normal;font-variant-alternates:normal;font-feature-settings:normal;text-indent:0;text-align:start;text-decoration:none;text-decoration-line:none;text-decoration-style:solid;text-decoration-color:#000000;letter-spacing:normal;word-spacing:normal;text-transform:none;writing-mode:lr-tb;direction:ltr;text-orientation:mixed;dominant-baseline:auto;baseline-shift:baseline;text-anchor:start;white-space:normal;shape-padding:0;clip-rule:nonzero;display:inline;overflow:visible;visibility:visible;opacity:1;isolation:auto;mix-blend-mode:normal;color-interpolation:sRGB;color-interpolation-filters:linearRGB;solid-color:#000000;solid-opacity:1;vector-effect:none;fill:#b0b0b0;fill-opacity:1;fill-rule:nonzero;stroke:none;stroke-width:3.7637167;stroke-linecap:butt;stroke-linejoin:round;stroke-miterlimit:4;stroke-dasharray:none;stroke-dashoffset:0;stroke-opacity:1;color-rendering:auto;image-rendering:auto;shape-rendering:auto;text-rendering:auto;enable-background:accumulate"
     d="m 438.85742,25.849609 c -1.15242,0.0041 -2.41056,0.149412 -3.77344,0.47461 -5.5004,1.31246 -8.27008,4.769646 -9.33984,7.791015 -0.51079,1.442635 -0.65592,2.774275 -0.69726,3.810547 -0.82072,0.150367 -1.74458,0.341548 -2.73047,0.892578 -2.34147,1.308681 -4.48925,4.424109 -3.9668,9.376953 0.5338,5.060546 3.70001,7.860016 6.53516,9 2.83514,1.139985 5.48828,0.949219 5.48828,0.949219 l -0.11914,0.0039 h 24.33984 a 1.8820465,1.8820465 0 0 0 0.004,0 c 0,0 2.58362,0.02217 5.25586,-1.181641 2.67224,-1.203809 5.60331,-4.040717 5.63281,-8.771485 0.0254,-4.274474 -2.05123,-6.995119 -4.125,-8.267578 -0.85771,-0.526286 -1.65223,-0.754112 -2.36719,-0.949218 0.0102,-0.41482 0.11478,-0.411677 0.0312,-0.916016 -0.26625,-1.607648 -1.22125,-3.682316 -3.43555,-5.253906 -3.05915,-2.171231 -5.61437,-1.887385 -7.39062,-1.416016 -0.39078,-0.832623 -0.91199,-1.807468 -1.83203,-2.734375 -1.5436,-1.555116 -4.0525,-2.820874 -7.50977,-2.808594 z m 0.0352,3.714844 c 2.52033,-0.06907 3.87921,0.815678 4.80273,1.746094 1.23137,1.240554 1.53711,2.664062 1.53711,2.664062 a 1.8820465,1.8820465 0 0 0 2.77149,1.257813 c 0,0 2.32112,-1.546515 5.4082,0.644531 1.41432,1.003808 1.76627,1.990968 1.90039,2.800781 0.13412,0.809813 -0.006,1.269532 -0.006,1.269532 a 1.8820465,1.8820465 0 0 0 1.73047,2.398437 c 0,0 1.17355,0.06384 2.35547,0.789063 1.18191,0.725219 2.34895,1.865297 2.33008,5.039062 -0.0215,3.335738 -1.59359,4.541226 -3.41407,5.361328 -1.82089,0.820287 -3.71679,0.84961 -3.71679,0.84961 h -24.33789 a 1.8820465,1.8820465 0 0 0 -0.11914,0.0039 c 0,0 -1.89745,0.09783 -3.84571,-0.685547 -1.94826,-0.783377 -3.7983,-2.120132 -4.19726,-5.902344 -0.41033,-3.889906 0.80535,-4.995719 2.06054,-5.697265 1.2552,-0.701546 2.69727,-0.667969 2.69727,-0.667969 a 1.8820465,1.8820465 0 0 0 1.95898,-2.154297 c 0,0 -0.25502,-1.821852 0.48438,-3.910156 0.7394,-2.088304 2.25554,-4.332376 6.66601,-5.384766 1.12511,-0.268463 2.09349,-0.398851 2.9336,-0.421875 z"
     id="path1131"
     inkscape:connector-curvature="0" />
</svg>
