<?xml version="1.0" encoding="utf-8"?>
<!-- Generator: Adobe Illustrator 21.0.0, SVG Export Plug-In . SVG Version: 6.00 Build 0)  -->
<svg version="1.1" id="Ebene_1" xmlns="http://www.w3.org/2000/svg" xmlns:xlink="http://www.w3.org/1999/xlink" x="0px" y="0px"
	 viewBox="0 0 283.5 283.5" style="enable-background:new 0 0 283.5 283.5;" xml:space="preserve">
<style type="text/css">
	.st0{fill:#B93325;}
	.st1{fill:#FFCC00;}
</style>
<polygon points="85.5,149.9 85.9,154.6 80.9,155 80.5,150.6 79.6,150.7 79.9,155 75.3,155.4 74.9,150.8 74,150.9 74.4,156.5 
	86.9,155.6 86.5,149.9 "/>
<rect x="79.7" y="140.9" transform="matrix(1.674101e-02 -0.9999 0.9999 1.674101e-02 -68.2148 224.9474)" width="1" height="12.5"/>
<g>
	<path d="M82,138.9c-1.9-0.2-3.1,0-3.3,1.7c-0.1,1.7,1,2.1,2.9,2.2L82,138.9z M82.5,142.9l0.7,0.1c1.2,0.1,2.8-0.1,3-1.7
		c0.1-1.3-0.7-2-1.8-2.1l0.1-1.1c2.1,0.3,2.7,1.5,2.6,3.2c-0.1,1.5-0.9,2.9-3.5,2.7l-2.1-0.2c-2.5-0.2-3.6-1.4-3.4-3.3
		c0.3-3,2.4-2.8,5-2.6L82.5,142.9z"/>
</g>
<polygon points="75.1,134 75.3,133 82.8,134.4 82.8,134.4 79.5,130.7 79.8,129.5 83,133.3 88.4,131 88.2,132.3 82.9,134.4 
	82.9,134.5 87.6,135.4 87.4,136.4 "/>
<g>
	<path d="M80.9,128.4l-0.8-0.2l0.4-1.4l-1.7-0.5l-0.2-1.1l2.2,0.6l0.5-1.7l0.8,0.2l-0.5,1.7l5.4,1.5c1.1,0.3,1.4,0.3,1.6-0.5
		c0.1-0.3,0.1-0.6,0.2-0.8l0.9,0.2c0,0.3-0.1,0.6-0.2,1c-0.4,1.4-1.1,1.6-2.1,1.3l-6-1.7L80.9,128.4z"/>
	<path d="M83.4,121.4L83.4,121.4c-0.6-0.7-0.8-1.8-0.5-2.7l1,0.4c-0.6,1.3-0.1,2.6,1.3,3l5.3,1.9l-0.3,1L82,122l0.3-1L83.4,121.4z"
		/>
	<path d="M88.2,117.8c2.1,0.9,3.5,1.3,4.2-0.3c0.7-1.6-0.5-2.4-2.6-3.3c-2.1-0.9-3.5-1.3-4.2,0.3C84.9,116,86.1,116.8,88.2,117.8
		 M88.6,119.1l-1.7-0.8c-2.1-0.9-2.9-2.4-2-4.2c0.8-1.9,2.5-2.2,4.5-1.3l1.7,0.8c2.1,0.9,2.9,2.4,2,4.2
		C92.3,119.7,90.7,120,88.6,119.1"/>
	<path d="M95.6,112.5l-0.6,0.9l-7.4-4.6l0.5-0.8l0.9,0.6l0,0c-0.4-0.7-0.5-1.6,0-2.4c0.5-0.8,1.3-1.2,2.2-1c-0.5-0.8-0.5-1.7,0-2.5
		c0.8-1.2,2-1.3,3.2-0.6l5.5,3.4l-0.6,0.9l-5.3-3.3c-0.7-0.4-1.7-0.7-2.3,0.2c-0.7,1.1,0.2,2.2,1.1,2.8l4.8,3l-0.5,0.9l-5.3-3.3
		c-0.7-0.4-1.7-0.7-2.3,0.2c-0.7,1.1,0.2,2.2,1.1,2.8L95.6,112.5z"/>
	<path d="M98.5,100.3c1.8,1.5,3,2.2,4.1,0.9c1.1-1.3,0.2-2.4-1.6-3.9c-1.7-1.4-3-2.2-4.1-0.8S96.8,98.9,98.5,100.3 M98.6,101.7
		l-1.5-1.2c-1.7-1.4-2.2-3-0.9-4.6c1.3-1.6,2.9-1.5,4.7,0l1.5,1.2c1.7,1.4,2.2,3,0.9,4.6C102,103.3,100.3,103.2,98.6,101.7"/>
	<path d="M108,95.3c1.4-1.3,0.3-2.6-1.2-4c-1.4-1.5-2.6-2.6-4-1.3c-1.2,1.2,0.2,2.9,1.2,3.9C105,94.9,106.7,96.6,108,95.3
		 M106.3,97.9c-0.2-0.2-0.3-0.5-0.5-0.7l-8.1-8.3l0.7-0.7l3.3,3.4h0c-0.2-1,0-1.7,0.8-2.4c2-2,3.9,0.3,5,1.4
		c1.3,1.4,3.1,3.4,1.2,5.1c-0.7,0.7-1.6,0.9-2.4,0.7l0,0l0.7,0.8L106.3,97.9z"/>
</g>
<path d="M112.3,92.3l-5.6-6.7l0.8-0.7l5.6,6.7L112.3,92.3z M105.1,83.8l-0.8-1l1-0.8l0.8,1L105.1,83.8z"/>
<rect x="111.7" y="78.2" transform="matrix(0.8026 -0.5966 0.5966 0.8026 -28.2292 83.5926)" width="1" height="12.5"/>
<path d="M118.8,87.4l-4.8-7.3l0.9-0.6l4.8,7.3L118.8,87.4z M112.5,78.2l-0.7-1.1l1.1-0.7l0.7,1.1L112.5,78.2z"/>
<g>
	<path d="M117.2,79l-0.4-0.7l1.2-0.7l-0.9-1.6l0.7-0.9l1.1,1.9l1.5-0.9l0.4,0.7l-1.5,0.9l2.8,4.9c0.6,1,0.8,1.2,1.5,0.8
		c0.3-0.2,0.5-0.3,0.7-0.4l0.4,0.8c-0.3,0.2-0.5,0.4-0.8,0.5c-1.2,0.7-1.9,0.4-2.4-0.6l-3.1-5.4L117.2,79z"/>
	<path d="M128.3,77.1c-1.3,0.7-3.4,1.5-2.6,3.4c0.4,0.9,1.2,1.4,2.2,1c1.1-0.5,1.5-1.9,1-2.9L128.3,77.1z M124.5,71l1-0.5l0.7,1.6
		l-1,0.5L124.5,71z M129.8,80.2L129.8,80.2c-0.2,1-0.8,1.7-1.8,2.2c-1.4,0.7-2.6,0.1-3.3-1.3c-1.3-2.8,1.6-3.8,3.2-4.7l-0.3-0.7
		c-0.5-1.2-1.2-1.7-2.5-1.1c-0.9,0.4-1.4,1.1-0.9,2.1l-1,0.5c-0.6-1.6,0.3-2.7,1.7-3.3c0.8-0.4,2.5-1.1,3.4,1l1.8,4
		c0.3,0.6,0.5,1.1,1,2l-1,0.4L129.8,80.2z M122.1,72.1l1-0.5l0.7,1.6l-1,0.5L122.1,72.1z"/>
	<path d="M129.8,72.8l-0.3-0.8l1.3-0.5l-0.6-1.7l0.8-0.8l0.8,2.1l1.7-0.6l0.3,0.8l-1.7,0.6l1.9,5.3c0.4,1.1,0.6,1.3,1.4,1
		c0.3-0.1,0.5-0.2,0.7-0.3l0.3,0.8c-0.3,0.1-0.6,0.3-0.9,0.4c-1.3,0.5-1.9,0-2.3-1l-2.1-5.9L129.8,72.8z"/>
</g>
<polygon points="148.7,88.7 148.7,88.7 149.5,81 150.5,80.8 149.5,89.9 148.3,90.1 144.2,81.9 145.3,81.7 "/>
<g>
	<path d="M153.9,84.9c0.1,2.3,0.5,3.7,2.2,3.6c1.7-0.1,1.9-1.5,1.8-3.8c-0.1-2.3-0.5-3.7-2.2-3.6C153.9,81.2,153.8,82.6,153.9,84.9
		 M152.9,85.9l-0.1-1.9c-0.1-2.3,0.8-3.6,2.8-3.7c2-0.1,3.1,1.2,3.2,3.4l0.1,1.9c0.1,2.3-0.8,3.6-2.8,3.7
		C154,89.4,153,88.1,152.9,85.9"/>
	<path d="M162.5,81.6L162.5,81.6c0.5-0.8,1.5-1.3,2.5-1.2l-0.1,1.1c-1.5-0.2-2.5,0.6-2.6,2.1l-0.3,5.6l-1-0.1l0.5-8.7l1,0.1
		L162.5,81.6z"/>
	<path d="M173.6,90.1c2.6,0.6,3.1-1.5,3.9-4.7c0.8-3.2,1.3-5.4-1.2-6c-2.6-0.6-3.1,1.5-3.9,4.7C171.6,87.3,171.1,89.5,173.6,90.1
		 M176.5,78.4c3.6,0.9,2.9,3.9,2.1,7.2c-0.8,3.3-1.6,6.3-5.2,5.4c-3.6-0.9-2.9-3.9-2.1-7.2C172.1,80.5,172.9,77.5,176.5,78.4"/>
	<path d="M182.8,85.8L182.8,85.8c0.7-0.6,1.8-0.8,2.8-0.4l-0.4,1c-1.3-0.6-2.6-0.2-3.1,1.2l-2,5.3l-1-0.4l3.1-8.2l1,0.4L182.8,85.8z
		"/>
	<path d="M186.3,86.9l0.4-0.7l1.3,0.6l0.8-1.6l1.1,0l-1,2l1.6,0.8l-0.4,0.7l-1.6-0.8l-2.4,5c-0.5,1-0.5,1.3,0.2,1.7
		c0.3,0.2,0.5,0.2,0.8,0.3l-0.4,0.8c-0.3-0.1-0.6-0.2-0.9-0.4c-1.3-0.6-1.4-1.4-0.9-2.3l2.7-5.6L186.3,86.9z"/>
	<path class="st0" d="M114.6,171.5c-2,0-3.8-1.2-4.6-3.1c-5.5-13.3-5.5-28,0-41.3c5.5-13.3,15.9-23.7,29.2-29.2
		c13.3-5.5,28-5.5,41.3,0c13.3,5.5,23.7,15.9,29.2,29.2c1.1,2.6-0.2,5.5-2.7,6.5c-2.6,1.1-5.5-0.2-6.6-2.7
		c-4.5-10.8-12.9-19.3-23.8-23.8c-10.8-4.5-22.8-4.5-33.6,0c-10.8,4.5-19.3,12.9-23.8,23.8c-4.5,10.8-4.5,22.8,0,33.6
		c1.1,2.6-0.2,5.5-2.7,6.6C115.9,171.4,115.2,171.5,114.6,171.5"/>
	<path d="M159.8,215.5c-8.8,0-17.5-1.7-25.9-5.2c-16.7-6.9-29.7-19.9-36.6-36.6c-6.9-16.7-6.9-35.1,0-51.8
		c6.9-16.7,19.9-29.7,36.6-36.6c2.6-1.1,5.5,0.2,6.6,2.7c1.1,2.6-0.2,5.5-2.7,6.6c-14.2,5.9-25.3,17-31.2,31.2
		c-5.9,14.2-5.9,29.9,0,44.1c5.9,14.2,17,25.3,31.2,31.2c14.2,5.9,29.9,5.9,44.1,0c2.6-1.1,5.5,0.2,6.5,2.7c1.1,2.6-0.2,5.5-2.7,6.6
		C177.3,213.7,168.6,215.5,159.8,215.5"/>
	<path class="st1" d="M196.9,132.4c-4.1-9.9-11.8-17.6-21.7-21.7c-9.9-4.1-20.8-4.1-30.7,0c-20.5,8.5-30.2,32-21.7,52.5
		c6.4,15.5,21.4,24.8,37.2,24.8c5.1,0,10.3-1,15.3-3.1c2.6-1.1,3.8-4,2.7-6.6c-1.1-2.6-4-3.8-6.6-2.7c-13.8,5.7-29.4,0.4-37.1-11.8
		l59.9-24.8C196.8,137.9,198,135,196.9,132.4 M148.3,119.9c7.4-3.1,15.6-3.1,23.1,0c5.9,2.4,10.7,6.6,14,11.8l-54.9,22.7
		C127.2,140.5,134.5,125.6,148.3,119.9"/>
</g>
</svg>
