<svg height='100px' width='100px'  fill="#000000" xmlns="http://www.w3.org/2000/svg" xmlns:xlink="http://www.w3.org/1999/xlink" version="1.1" x="0px" y="0px" viewBox="11.4 37.3 489.1 437.3" style="enable-background:new 11.4 37.3 489.1 437.3;" xml:space="preserve"><path d="M494.6,182.8c3.3,0,6-2.7,6-6V74.6c0-3.3-2.7-6-6-6h-0.3c0,0,0,0,0,0h-62.4V43.3c0-3.3-2.7-6-6-6s-6,2.7-6,6v25.3h-19.2  c0,0,0,0,0,0H103.8V43.3c0-3.3-2.7-6-6-6s-6,2.7-6,6v25.3H17.4c-3.3,0-6,2.7-6,6v102.2c0,0.4,0,0.7,0.1,1.1c0,0,0,0,0,0.1  c0.1,0.4,0.2,0.7,0.3,1c0,0,0,0.1,0,0.1c0.1,0.3,0.3,0.7,0.5,1c0,0,0,0,0,0.1c0.2,0.3,0.5,0.6,0.8,0.9c0,0,0,0,0,0c0,0,0,0,0,0  c0.3,0.3,0.6,0.5,0.9,0.8c0,0,0,0,0.1,0c0.3,0.2,0.6,0.4,1,0.5c0,0,0.1,0,0.1,0c0.3,0.1,0.7,0.2,1,0.3c0,0,0,0,0.1,0  c0.4,0.1,0.7,0.1,1.1,0.1h74.4v26.3H17.4c-3.3,0-6,2.7-6,6v102.2c0,0,0,0,0,0c0,0.4,0,0.7,0.1,1.1c0,0,0,0,0,0.1  c0.1,0.4,0.2,0.7,0.3,1c0,0,0,0.1,0,0.1c0.1,0.3,0.3,0.7,0.5,1c0,0,0,0,0,0.1c0.4,0.7,1,1.2,1.7,1.7c0,0,0,0,0.1,0  c0.3,0.2,0.6,0.4,1,0.5c0,0,0.1,0,0.1,0c0.3,0.1,0.7,0.2,1,0.3c0,0,0,0,0.1,0c0.4,0.1,0.7,0.1,1.1,0.1h74.4v139.2h-42  c-3.3,0-6,2.7-6,6s2.7,6,6,6h95.9c3.3,0,6-2.7,6-6s-2.7-6-6-6h-42V323.4h316v139.2h-42c-3.3,0-6,2.7-6,6s2.7,6,6,6h96  c3.3,0,6-2.7,6-6s-2.7-6-6-6h-42V323.4h62.7c3.3,0,6-2.7,6-6V215.2c0-3.3-2.7-6-6-6h-62.7v-26.3H494.6z M406.5,170.8l82.1-82v82  H406.5z M312.9,170.8l90.2-90.2h76.7l-90.2,90.2H312.9z M219.2,170.8l90.2-90.2h76.7l-90.2,90.2H219.2z M125.6,170.8l90.2-90.2h76.7  l-90.2,90.2H125.6z M31.9,170.8l90.2-90.2h76.7l-90.2,90.2H31.9z M105.2,80.6l-81.8,81.7V80.6H105.2z M105.2,221.2l-81.8,81.8v-81.8  H105.2z M292.5,221.2l-90.2,90.2h-76.7l90.2-90.2H292.5z M479.8,221.2l-90.2,90.2h-76.7l90.2-90.2H479.8z M295.9,311.4h-76.7  l90.2-90.2h76.7L295.9,311.4z M108.6,311.4H31.9l90.2-90.2h76.7L108.6,311.4z M406.5,311.4l82.1-82.1v82.1H406.5z M419.8,209.2  H213.3c0,0,0,0,0,0H103.8v-26.3h316V209.2z"></path></svg>