<?xml version="1.0" encoding="UTF-8" standalone="no"?>
<svg
   xmlns:dc="http://purl.org/dc/elements/1.1/"
   xmlns:cc="http://creativecommons.org/ns#"
   xmlns:rdf="http://www.w3.org/1999/02/22-rdf-syntax-ns#"
   xmlns:svg="http://www.w3.org/2000/svg"
   xmlns="http://www.w3.org/2000/svg"
   id="svg8"
   xml:space="preserve"
   enable-background="new 0 0 50 50"
   viewBox="0 0 50 50"
   y="0px"
   x="0px"
   version="1.1"
   fill="#000000"
   width="100px"
   height="100px"><metadata
     id="metadata14"><rdf:RDF><cc:Work
         rdf:about=""><dc:format>image/svg+xml</dc:format><dc:type
           rdf:resource="http://purl.org/dc/dcmitype/StillImage" /><dc:title></dc:title></cc:Work></rdf:RDF></metadata><defs
     id="defs12" /><g
     id="g6"><path
       id="path2"
       d="M34.3,4.1h-3.6V2.6C30.7,1.7,30,1,29.1,1h-8.2c-0.9,0-1.6,0.7-1.6,1.6v1.5h-3.6c-3.1,0-5.6,2.5-5.6,5.6v33.6   c0,3.1,2.5,5.6,5.6,5.6h18.6c3.1,0,5.6-2.5,5.6-5.6V9.8C40,6.7,37.4,4.1,34.3,4.1z M36,43.4c0,0.9-0.7,1.6-1.6,1.6H15.7   c-0.9,0-1.6-0.7-1.6-1.6V9.8c0-0.9,0.7-1.6,1.6-1.6h18.6c0.9,0,1.6,0.7,1.6,1.6V43.4z" /><path
       style="fill:#17bebb;fill-opacity:1"
       id="path4"
       d="M16,43H34V10.1H16V43z M20,27.9l5.4-9.6c0.1-0.2,0.4-0.3,0.6-0.2c0.2,0.1,0.4,0.3,0.4,0.5L26,25.1l3.5-0.6   c0.2,0,0.4,0,0.5,0.2c0.1,0.2,0.1,0.4,0,0.5l-5.4,9.6c-0.1,0.1-0.2,0.2-0.3,0.2c-0.1,0-0.2,0-0.3,0c-0.2-0.1-0.4-0.3-0.4-0.5L24,28   l-3.5,0.6c-0.2,0-0.4,0-0.5-0.2C19.9,28.3,19.9,28.1,20,27.9z" /></g></svg>