<?xml version="1.0" encoding="UTF-8" standalone="no"?>
<svg
   xmlns:i="http://ns.adobe.com/AdobeIllustrator/10.0/"
   xmlns:dc="http://purl.org/dc/elements/1.1/"
   xmlns:cc="http://creativecommons.org/ns#"
   xmlns:rdf="http://www.w3.org/1999/02/22-rdf-syntax-ns#"
   xmlns:svg="http://www.w3.org/2000/svg"
   xmlns="http://www.w3.org/2000/svg"
   id="svg14"
   xml:space="preserve"
   style="enable-background:new 0 0 100 100;"
   viewBox="0 0 100 100"
   y="0px"
   x="0px"
   version="1.1"
   fill="#000000"
   width="100px"
   height="100px"><metadata
     id="metadata20"><rdf:RDF><cc:Work
         rdf:about=""><dc:format>image/svg+xml</dc:format><dc:type
           rdf:resource="http://purl.org/dc/dcmitype/StillImage" /><dc:title></dc:title></cc:Work></rdf:RDF></metadata><defs
     id="defs18" /><g
     id="g12"><g
       id="g10"
       i:extraneous="self"><g
         id="g8"><path
           id="path2"
           d="M70.3,11.3h-9.6v-7c0-1-0.8-1.7-1.7-1.7H41.1c-1,0-1.7,0.8-1.7,1.7v7h-9.6c-4.5,0-8.1,3.6-8.1,8.1v70     c0,4.5,3.7,8.1,8.1,8.1h40.5c4.5,0,8.1-3.6,8.1-8.1v-70C78.4,14.9,74.8,11.3,70.3,11.3z M70.8,89.4c0,0.3-0.2,0.5-0.5,0.5H29.7     c-0.3,0-0.5-0.2-0.5-0.5v-70c0-0.3,0.2-0.5,0.5-0.5h40.5c0.3,0,0.5,0.2,0.5,0.5V89.4z" /><path
           id="path4"
           d="M48.7,62.9h2.6c0.9,0,1.6-0.7,1.7-1.6l2.6-30.8c0.1-1-0.7-1.9-1.7-1.9h-7.8c-1,0-1.8,0.9-1.7,1.9L47,61.3     C47.1,62.2,47.8,62.9,48.7,62.9z" /><path
           id="path6"
           d="M54.1,68.5h-8.2c-1,0-1.7,0.8-1.7,1.7v8.2c0,1,0.8,1.7,1.7,1.7h8.2c1,0,1.7-0.8,1.7-1.7v-8.2     C55.8,69.2,55,68.5,54.1,68.5z" /></g></g></g></svg>