<?xml version="1.0" encoding="UTF-8" standalone="no"?>
<svg
   xmlns:i="http://ns.adobe.com/AdobeIllustrator/10.0/"
   xmlns:dc="http://purl.org/dc/elements/1.1/"
   xmlns:cc="http://creativecommons.org/ns#"
   xmlns:rdf="http://www.w3.org/1999/02/22-rdf-syntax-ns#"
   xmlns:svg="http://www.w3.org/2000/svg"
   xmlns="http://www.w3.org/2000/svg"
   id="svg8"
   xml:space="preserve"
   style="enable-background:new 0 0 100 100;"
   viewBox="0 0 100 100"
   y="0px"
   x="0px"
   version="1.1"
   fill="#000000"
   width="100px"
   height="100px"><metadata
     id="metadata14"><rdf:RDF><cc:Work
         rdf:about=""><dc:format>image/svg+xml</dc:format><dc:type
           rdf:resource="http://purl.org/dc/dcmitype/StillImage" /><dc:title></dc:title></cc:Work></rdf:RDF></metadata><defs
     id="defs12" /><g
     style="fill:#efefef;fill-opacity:1"
     id="g6"><g
       style="fill:#efefef;fill-opacity:1"
       id="g4"
       i:extraneous="self"><path
         style="fill:#efefef;fill-opacity:1"
         id="path2"
         d="M96.8,82.5h-3.4v-5.2c1.4-0.4,2.5-1.7,2.5-3.2V70c0-1.8-1.5-3.3-3.3-3.3c-1.8,0-3.3,1.5-3.3,3.3v4.2    c0,1.5,1.1,2.8,2.5,3.2v5.2h-5.9V40.8c0-0.8-0.5-1.5-1.3-1.7l-16.1-4.7c-1.1-0.3-2.3,0.5-2.3,1.7v46.4h-2.7v-38    c0-1.2-1-2.2-2.2-2.2h-5V15.8c0-1.2-1-2.2-2.2-2.2H38.6c-1.2,0-2.2,1-2.2,2.2v28.7v11.1v26.9h-2.6V23.7c0-1.2-1.1-2.1-2.3-1.7    l-16.1,4.7c-0.8,0.2-1.3,0.9-1.3,1.7v54.1H8.2v-5.2c1.4-0.4,2.5-1.7,2.5-3.2V70c0-1.8-1.5-3.3-3.3-3.3h0c-1.8,0-3.3,1.5-3.3,3.3    v4.2c0,1.5,1.1,2.8,2.5,3.2v5.2H3.2c-0.4,0-0.7,0.3-0.7,0.7v2.4c0,0.4,0.3,0.7,0.7,0.7h93.6c0.4,0,0.7-0.3,0.7-0.7v-2.4    C97.5,82.8,97.2,82.5,96.8,82.5z M70.6,44.5c0-0.2,0.2-0.4,0.4-0.4h10c0.2,0,0.4,0.2,0.4,0.4v2c0,0.2-0.2,0.4-0.4,0.4h-10    c-0.2,0-0.4-0.2-0.4-0.4V44.5z M70.6,50.8c0-0.2,0.2-0.4,0.4-0.4h10c0.2,0,0.4,0.2,0.4,0.4v2c0,0.2-0.2,0.4-0.4,0.4h-10    c-0.2,0-0.4-0.2-0.4-0.4V50.8z M70.6,57.1c0-0.2,0.2-0.4,0.4-0.4h10c0.2,0,0.4,0.2,0.4,0.4v2c0,0.2-0.2,0.4-0.4,0.4h-10    c-0.2,0-0.4-0.2-0.4-0.4V57.1z M70.6,63.4c0-0.2,0.2-0.4,0.4-0.4h10c0.2,0,0.4,0.2,0.4,0.4v2c0,0.2-0.2,0.4-0.4,0.4h-10    c-0.2,0-0.4-0.2-0.4-0.4V63.4z M70.6,69.6c0-0.2,0.2-0.4,0.4-0.4h10c0.2,0,0.4,0.2,0.4,0.4v2c0,0.2-0.2,0.4-0.4,0.4h-10    c-0.2,0-0.4-0.2-0.4-0.4V69.6z M70.6,75.9c0-0.2,0.2-0.4,0.4-0.4h10c0.2,0,0.4,0.2,0.4,0.4v2c0,0.2-0.2,0.4-0.4,0.4h-10    c-0.2,0-0.4-0.2-0.4-0.4V75.9z M18.6,31.9c0-0.2,0.2-0.4,0.4-0.4h10c0.2,0,0.4,0.2,0.4,0.4v2c0,0.2-0.2,0.4-0.4,0.4H19    c-0.2,0-0.4-0.2-0.4-0.4V31.9z M18.6,38.2c0-0.2,0.2-0.4,0.4-0.4h10c0.2,0,0.4,0.2,0.4,0.4v2c0,0.2-0.2,0.4-0.4,0.4H19    c-0.2,0-0.4-0.2-0.4-0.4V38.2z M18.6,44.5c0-0.2,0.2-0.4,0.4-0.4h10c0.2,0,0.4,0.2,0.4,0.4v2c0,0.2-0.2,0.4-0.4,0.4H19    c-0.2,0-0.4-0.2-0.4-0.4V44.5z M18.6,50.8c0-0.2,0.2-0.4,0.4-0.4h10c0.2,0,0.4,0.2,0.4,0.4v2c0,0.2-0.2,0.4-0.4,0.4H19    c-0.2,0-0.4-0.2-0.4-0.4V50.8z M18.6,57.1c0-0.2,0.2-0.4,0.4-0.4h10c0.2,0,0.4,0.2,0.4,0.4v2c0,0.2-0.2,0.4-0.4,0.4H19    c-0.2,0-0.4-0.2-0.4-0.4V57.1z M18.6,63.4c0-0.2,0.2-0.4,0.4-0.4h10c0.2,0,0.4,0.2,0.4,0.4v2c0,0.2-0.2,0.4-0.4,0.4H19    c-0.2,0-0.4-0.2-0.4-0.4V63.4z M18.6,69.6c0-0.2,0.2-0.4,0.4-0.4h10c0.2,0,0.4,0.2,0.4,0.4v2c0,0.2-0.2,0.4-0.4,0.4H19    c-0.2,0-0.4-0.2-0.4-0.4V69.6z M18.6,75.9c0-0.2,0.2-0.4,0.4-0.4h10c0.2,0,0.4,0.2,0.4,0.4v2c0,0.2-0.2,0.4-0.4,0.4H19    c-0.2,0-0.4-0.2-0.4-0.4V75.9z M55.3,47.6c0-0.4,0.3-0.7,0.7-0.7h2.2c0.4,0,0.7,0.3,0.7,0.7v2.2c0,0.4-0.3,0.7-0.7,0.7h-2.2    c-0.4,0-0.7-0.3-0.7-0.7V47.6z M55.3,54.8c0-0.4,0.3-0.7,0.7-0.7h2.2c0.4,0,0.7,0.3,0.7,0.7v2.2c0,0.4-0.3,0.7-0.7,0.7h-2.2    c-0.4,0-0.7-0.3-0.7-0.7V54.8z M55.3,61.9c0-0.4,0.3-0.7,0.7-0.7h2.2c0.4,0,0.7,0.3,0.7,0.7v2.2c0,0.4-0.3,0.7-0.7,0.7h-2.2    c-0.4,0-0.7-0.3-0.7-0.7V61.9z M55.3,69.1c0-0.4,0.3-0.7,0.7-0.7h2.2c0.4,0,0.7,0.3,0.7,0.7v2.2c0,0.4-0.3,0.7-0.7,0.7h-2.2    c-0.4,0-0.7-0.3-0.7-0.7V69.1z M54.6,75.6c0.4,0,0.7,0.3,0.7,0.7v6.2h-4.7v-6.9H54.6z M48.2,18.9c0-0.4,0.3-0.7,0.7-0.7H51    c0.4,0,0.7,0.3,0.7,0.7V21c0,0.4-0.3,0.7-0.7,0.7h-2.2c-0.4,0-0.7-0.3-0.7-0.7V18.9z M48.2,26.1c0-0.4,0.3-0.7,0.7-0.7H51    c0.4,0,0.7,0.3,0.7,0.7v2.2c0,0.4-0.3,0.7-0.7,0.7h-2.2c-0.4,0-0.7-0.3-0.7-0.7V26.1z M48.2,33.2c0-0.4,0.3-0.7,0.7-0.7H51    c0.4,0,0.7,0.3,0.7,0.7v2.2c0,0.4-0.3,0.7-0.7,0.7h-2.2c-0.4,0-0.7-0.3-0.7-0.7V33.2z M48.2,40.4c0-0.4,0.3-0.7,0.7-0.7H51    c0.4,0,0.7,0.3,0.7,0.7v2.2c0,0.4-0.3,0.7-0.7,0.7h-2.2c-0.4,0-0.7-0.3-0.7-0.7V40.4z M48.2,47.6c0-0.4,0.3-0.7,0.7-0.7H51    c0.4,0,0.7,0.3,0.7,0.7v2.2c0,0.4-0.3,0.7-0.7,0.7h-2.2c-0.4,0-0.7-0.3-0.7-0.7V47.6z M48.2,54.8c0-0.4,0.3-0.7,0.7-0.7H51    c0.4,0,0.7,0.3,0.7,0.7v2.2c0,0.4-0.3,0.7-0.7,0.7h-2.2c-0.4,0-0.7-0.3-0.7-0.7V54.8z M48.2,61.9c0-0.4,0.3-0.7,0.7-0.7H51    c0.4,0,0.7,0.3,0.7,0.7v2.2c0,0.4-0.3,0.7-0.7,0.7h-2.2c-0.4,0-0.7-0.3-0.7-0.7V61.9z M48.2,69.1c0-0.4,0.3-0.7,0.7-0.7H51    c0.4,0,0.7,0.3,0.7,0.7v2.2c0,0.4-0.3,0.7-0.7,0.7h-2.2c-0.4,0-0.7-0.3-0.7-0.7V69.1z M41,18.9c0-0.4,0.3-0.7,0.7-0.7h2.2    c0.4,0,0.7,0.3,0.7,0.7V21c0,0.4-0.3,0.7-0.7,0.7h-2.2c-0.4,0-0.7-0.3-0.7-0.7V18.9z M41,26.1c0-0.4,0.3-0.7,0.7-0.7h2.2    c0.4,0,0.7,0.3,0.7,0.7v2.2c0,0.4-0.3,0.7-0.7,0.7h-2.2c-0.4,0-0.7-0.3-0.7-0.7V26.1z M41,33.2c0-0.4,0.3-0.7,0.7-0.7h2.2    c0.4,0,0.7,0.3,0.7,0.7v2.2c0,0.4-0.3,0.7-0.7,0.7h-2.2c-0.4,0-0.7-0.3-0.7-0.7V33.2z M41,40.4c0-0.4,0.3-0.7,0.7-0.7h2.2    c0.4,0,0.7,0.3,0.7,0.7v2.2c0,0.4-0.3,0.7-0.7,0.7h-2.2c-0.4,0-0.7-0.3-0.7-0.7V40.4z M41,47.6c0-0.4,0.3-0.7,0.7-0.7h2.2    c0.4,0,0.7,0.3,0.7,0.7v2.2c0,0.4-0.3,0.7-0.7,0.7h-2.2c-0.4,0-0.7-0.3-0.7-0.7V47.6z M41,54.8c0-0.4,0.3-0.7,0.7-0.7h2.2    c0.4,0,0.7,0.3,0.7,0.7v2.2c0,0.4-0.3,0.7-0.7,0.7h-2.2c-0.4,0-0.7-0.3-0.7-0.7V54.8z M41,61.9c0-0.4,0.3-0.7,0.7-0.7h2.2    c0.4,0,0.7,0.3,0.7,0.7v2.2c0,0.4-0.3,0.7-0.7,0.7h-2.2c-0.4,0-0.7-0.3-0.7-0.7V61.9z M41,69.1c0-0.4,0.3-0.7,0.7-0.7h2.2    c0.4,0,0.7,0.3,0.7,0.7v2.2c0,0.4-0.3,0.7-0.7,0.7h-2.2c-0.4,0-0.7-0.3-0.7-0.7V69.1z M44.6,76.3c0-0.4,0.3-0.7,0.7-0.7h4v6.9    h-4.7V76.3z" /></g></g></svg>