<svg width="30" height="30" viewBox="0 0 30 30" fill="none" xmlns="http://www.w3.org/2000/svg">
<path fill-rule="evenodd" clip-rule="evenodd" d="M6.75005 15.5287C9.4838 15.5287 11.7 17.7487 11.7 20.4787C11.7 23.2125 9.4838 25.4287 6.75005 25.4287C4.0163 25.4287 1.80005 23.2125 1.80005 20.4787C1.80005 17.7487 4.0163 15.5287 6.75005 15.5287ZM22.0501 15.5287C24.7838 15.5287 27 17.7487 27 20.4787C27 23.2125 24.7838 25.4287 22.0501 25.4287C19.3163 25.4287 17.1 23.2125 17.1 20.4787C17.1 17.7487 19.3163 15.5287 22.0501 15.5287ZM6.75005 16.7662C8.79755 16.7662 10.4625 18.4312 10.4625 20.4787C10.4625 22.53 8.79755 24.1912 6.75005 24.1912C4.70255 24.1912 3.03755 22.53 3.03755 20.4787C3.03755 18.4312 4.70255 16.7662 6.75005 16.7662ZM22.0501 16.7662C24.0976 16.7662 25.7626 18.4312 25.7626 20.4787C25.7626 22.53 24.0976 24.1912 22.0501 24.1912C20.0026 24.1912 18.3375 22.53 18.3375 20.4787C18.3375 18.4312 20.0026 16.7662 22.0501 16.7662ZM12.765 6.84C13.0238 6.83625 13.2825 6.93375 13.4813 7.12875L17.7301 11.3812H21.0638C21.6075 11.3812 22.0501 11.82 22.0501 12.3637C22.0501 12.9075 21.6075 13.35 21.0638 13.35H17.3475C17.3438 13.35 17.3401 13.35 17.3363 13.35C17.0775 13.3537 16.8225 13.2562 16.6276 13.0612L12.9713 9.405L11.0175 12.7837L15.99 14.1187C16.4363 14.235 16.7288 14.6437 16.7213 15.0862C16.7213 15.1762 16.71 15.2662 16.6875 15.3562L15.0263 21.5587C14.8838 22.0837 14.3438 22.395 13.8188 22.2562C13.2938 22.1137 12.9825 21.5737 13.1213 21.0487L14.5388 15.7687L9.2813 14.3587C8.83505 14.2387 8.5463 13.8375 8.55005 13.395C8.5463 13.2262 8.5913 13.05 8.6813 12.8925L11.8913 7.335C12.0788 7.0125 12.4163 6.83625 12.765 6.84ZM13.8188 3.37125C14.73 3.37125 15.465 4.11 15.465 5.0175C15.465 5.925 14.73 6.66375 13.8188 6.66375C12.9113 6.66375 12.1725 5.925 12.1725 5.0175C12.1725 4.11 12.9113 3.37125 13.8188 3.37125Z" fill="black"/>
</svg>
