<?xml version="1.0" encoding="UTF-8" standalone="no"?>
<svg
   xmlns:dc="http://purl.org/dc/elements/1.1/"
   xmlns:cc="http://creativecommons.org/ns#"
   xmlns:rdf="http://www.w3.org/1999/02/22-rdf-syntax-ns#"
   xmlns:svg="http://www.w3.org/2000/svg"
   xmlns="http://www.w3.org/2000/svg"
   id="svg4"
   xml:space="preserve"
   enable-background="new 0 0 100 100"
   viewBox="0 0 100 100"
   y="0px"
   x="0px"
   version="1.1"
   fill="#000000"
   width="100px"
   height="100px"><metadata
     id="metadata10"><rdf:RDF><cc:Work
         rdf:about=""><dc:format>image/svg+xml</dc:format><dc:type
           rdf:resource="http://purl.org/dc/dcmitype/StillImage" /><dc:title></dc:title></cc:Work></rdf:RDF></metadata><defs
     id="defs8" /><path
     style="fill:#8a8a8a;fill-opacity:1"
     id="path2"
     d="M77.669,43.513c-2.505,0-4.881,0.545-7.033,1.506l-4.355-7.501l7.501-12.673  c0.366-0.618,0.372-1.385,0.016-2.009c-0.355-0.624-1.019-1.009-1.737-1.009h-10.47c-1.104,0-2,0.896-2,2s0.896,2,2,2h6.962  l-5.599,9.461H38.913v-1.983h1.739c1.104,0,2-0.896,2-2s-0.896-2-2-2h-9.722c-1.104,0-2,0.896-2,2s0.896,2,2,2h3.982v3.419  l-5.19,8.469c-2.246-1.065-4.746-1.679-7.392-1.679C12.774,43.513,5,51.288,5,60.844c0,9.556,7.774,17.33,17.331,17.33  c9.007,0,16.425-6.909,17.248-15.704h6.716c0.679,1.957,2.521,3.374,4.705,3.374c2.757,0,5-2.243,5-5  c0-1.367-0.554-2.606-1.446-3.51l9.393-15.871l3.253,5.603c-4.159,3.169-6.861,8.158-6.861,13.778c0,9.556,7.774,17.33,17.33,17.33  c9.556,0,17.331-7.774,17.331-17.33C95,51.288,87.226,43.513,77.669,43.513z M50.774,55.867c-0.243,0.011-0.485,0.028-0.718,0.073  l-9.669-16.652h20.199L50.774,55.867z M36.867,41.19l9.892,17.036c-0.048,0.078-0.088,0.162-0.132,0.243h-7.149  c-0.621-4.502-2.966-8.455-6.359-11.165L36.867,41.19z M35.437,58.47h-9.16l4.733-7.723C33.28,52.702,34.882,55.403,35.437,58.47z   M22.331,74.174C14.98,74.174,9,68.194,9,60.844c0-7.351,5.98-13.331,13.331-13.331c1.881,0,3.67,0.396,5.294,1.102L21,59.425  c-0.378,0.617-0.394,1.391-0.04,2.022c0.354,0.632,1.021,1.023,1.745,1.023h12.847C34.745,69.054,29.129,74.174,22.331,74.174z   M51,61.844c-0.551,0-1-0.449-1-1s0.449-1,1-1s1,0.449,1,1S51.551,61.844,51,61.844z M77.669,74.174c-7.35,0-13.33-5.98-13.33-13.33  c0-4.145,1.903-7.854,4.88-10.301l6.347,10.931c0.371,0.639,1.042,0.996,1.731,0.996c0.341,0,0.687-0.087,1.002-0.271  c0.955-0.555,1.28-1.778,0.725-2.734l-6.367-10.966c1.549-0.631,3.239-0.986,5.012-0.986C85.02,47.513,91,53.493,91,60.844  C91,68.194,85.02,74.174,77.669,74.174z"
     fill="#000000" /></svg>