<?xml version="1.0" encoding="UTF-8" standalone="no"?>
<svg
   xmlns:dc="http://purl.org/dc/elements/1.1/"
   xmlns:cc="http://creativecommons.org/ns#"
   xmlns:rdf="http://www.w3.org/1999/02/22-rdf-syntax-ns#"
   xmlns:svg="http://www.w3.org/2000/svg"
   xmlns="http://www.w3.org/2000/svg"
   xmlns:sodipodi="http://sodipodi.sourceforge.net/DTD/sodipodi-0.dtd"
   xmlns:inkscape="http://www.inkscape.org/namespaces/inkscape"
   height="100px"
   width="100px"
   fill="#000000"
   version="1.1"
   x="0px"
   y="0px"
   viewBox="0 0 100 100"
   style="enable-background:new 0 0 100 100;"
   xml:space="preserve"
   id="svg8"
   sodipodi:docname="i_bike_black_small.svg"
   inkscape:version="0.92.3 (2405546, 2018-03-11)"><sodipodi:namedview
     pagecolor="#ffffff"
     bordercolor="#666666"
     borderopacity="1"
     objecttolerance="10"
     gridtolerance="10"
     guidetolerance="10"
     inkscape:pageopacity="0"
     inkscape:pageshadow="2"
     inkscape:window-width="1853"
     inkscape:window-height="1025"
     id="namedview7"
     showgrid="false"
     inkscape:zoom="2.36"
     inkscape:cx="50"
     inkscape:cy="50"
     inkscape:window-x="67"
     inkscape:window-y="27"
     inkscape:window-maximized="1"
     inkscape:current-layer="svg8" /><metadata
     id="metadata14"><rdf:RDF><cc:Work
         rdf:about=""><dc:format>image/svg+xml</dc:format><dc:type
           rdf:resource="http://purl.org/dc/dcmitype/StillImage" /><dc:title /></cc:Work></rdf:RDF></metadata><defs
     id="defs12" /><g
     transform="matrix(0.72693032,0,0,0.72693032,14.094524,13.88278)"
     id="g849"
     style="fill:#8a8a8a;fill-opacity:1"><path
       style="fill:#8a8a8a;fill-opacity:1"
       id="path2"
       d="m 77.669,43.513 c -2.505,0 -4.881,0.545 -7.033,1.506 l -4.355,-7.501 7.501,-12.673 c 0.366,-0.618 0.372,-1.385 0.016,-2.009 -0.355,-0.624 -1.019,-1.009 -1.737,-1.009 h -10.47 c -1.104,0 -2,0.896 -2,2 0,1.104 0.896,2 2,2 h 6.962 l -5.599,9.461 H 38.913 v -1.983 h 1.739 c 1.104,0 2,-0.896 2,-2 0,-1.104 -0.896,-2 -2,-2 H 30.93 c -1.104,0 -2,0.896 -2,2 0,1.104 0.896,2 2,2 h 3.982 v 3.419 l -5.19,8.469 C 27.476,44.128 24.976,43.514 22.33,43.514 12.774,43.513 5,51.288 5,60.844 c 0,9.556 7.774,17.33 17.331,17.33 9.007,0 16.425,-6.909 17.248,-15.704 h 6.716 c 0.679,1.957 2.521,3.374 4.705,3.374 2.757,0 5,-2.243 5,-5 0,-1.367 -0.554,-2.606 -1.446,-3.51 l 9.393,-15.871 3.253,5.603 c -4.159,3.169 -6.861,8.158 -6.861,13.778 0,9.556 7.774,17.33 17.33,17.33 C 87.225,78.174 95,70.4 95,60.844 95,51.288 87.226,43.513 77.669,43.513 Z M 50.774,55.867 c -0.243,0.011 -0.485,0.028 -0.718,0.073 L 40.387,39.288 H 60.586 Z M 36.867,41.19 46.759,58.226 c -0.048,0.078 -0.088,0.162 -0.132,0.243 H 39.478 C 38.857,53.967 36.512,50.014 33.119,47.304 Z m -1.43,17.28 h -9.16 l 4.733,-7.723 c 2.27,1.955 3.872,4.656 4.427,7.723 z M 22.331,74.174 C 14.98,74.174 9,68.194 9,60.844 9,53.493 14.98,47.513 22.331,47.513 c 1.881,0 3.67,0.396 5.294,1.102 L 21,59.425 c -0.378,0.617 -0.394,1.391 -0.04,2.022 0.354,0.632 1.021,1.023 1.745,1.023 H 35.552 C 34.745,69.054 29.129,74.174 22.331,74.174 Z M 51,61.844 c -0.551,0 -1,-0.449 -1,-1 0,-0.551 0.449,-1 1,-1 0.551,0 1,0.449 1,1 0,0.551 -0.449,1 -1,1 z m 26.669,12.33 c -7.35,0 -13.33,-5.98 -13.33,-13.33 0,-4.145 1.903,-7.854 4.88,-10.301 l 6.347,10.931 c 0.371,0.639 1.042,0.996 1.731,0.996 0.341,0 0.687,-0.087 1.002,-0.271 0.955,-0.555 1.28,-1.778 0.725,-2.734 L 72.657,48.499 c 1.549,-0.631 3.239,-0.986 5.012,-0.986 7.351,0 13.331,5.98 13.331,13.331 0,7.35 -5.98,13.33 -13.331,13.33 z" /></g></svg>