<?xml version="1.0" encoding="UTF-8" standalone="no"?>
<svg
   xmlns:dc="http://purl.org/dc/elements/1.1/"
   xmlns:cc="http://creativecommons.org/ns#"
   xmlns:rdf="http://www.w3.org/1999/02/22-rdf-syntax-ns#"
   xmlns:svg="http://www.w3.org/2000/svg"
   xmlns="http://www.w3.org/2000/svg"
   id="svg6"
   xml:space="preserve"
   style="enable-background:new 0 0 100 100;"
   viewBox="0 0 100 100"
   y="0px"
   x="0px"
   version="1.1"
   fill="#000000"
   width="100px"
   height="100px"><metadata
     id="metadata12"><rdf:RDF><cc:Work
         rdf:about=""><dc:format>image/svg+xml</dc:format><dc:type
           rdf:resource="http://purl.org/dc/dcmitype/StillImage" /><dc:title></dc:title></cc:Work></rdf:RDF></metadata><defs
     id="defs10" /><path
     id="path2"
     d="M 96.5,41.5 H 88 c -0.3,0 -0.5,0.1 -0.8,0.1 L 75.8,22.4 C 75,21 73.5,20.2 71.9,20.2 H 60.5 c 0,0 0,0 0,-0.1 L 56.2,15.2 C 56,15 55.8,14.9 55.5,14.9 h -11 c -0.3,0 -0.5,0.1 -0.7,0.3 l -4.3,4.9 c 0,0 0,0 0,0.1 H 27.4 c -1.7,0 -3.2,0.9 -4,2.3 l -10.7,19 c -0.2,0 -0.3,-0.1 -0.5,-0.1 H 3.7 c -1.2,0 -2.2,1 -2.2,2.2 V 46 c 0,1 0.7,1.9 1.6,2.1 l 5.1,1.4 C 8.1,50.1 8,50.6 8,51.2 v 33.1 c 0,1.3 1,2.3 2.3,2.3 H 18 c 1.3,0 2.3,-1 2.3,-2.3 v -7.1 c 6.9,0.6 17.8,1.4 29.7,1.4 11.9,0 22.9,-0.8 29.7,-1.4 v 7.1 c 0,1.3 1,2.3 2.3,2.3 h 7.8 c 1.3,0 2.3,-1 2.3,-2.3 V 51 c 0,-0.5 -0.1,-1 -0.3,-1.5 L 97,48.1 C 98,47.8 98.6,47 98.6,46 v -2.3 c 0,-1.2 -0.9,-2.2 -2.1,-2.2 z M 30.5,59 c 0,1.4 -1.1,2.5 -2.5,2.5 H 18.5 C 17.1,61.5 16,60.4 16,59 v -5.2 c 0,-0.8 0.4,-1.5 1,-2 0.6,-0.5 1.4,-0.6 2.1,-0.4 l 9.5,2.6 c 1.1,0.3 1.8,1.3 1.8,2.4 V 59 Z M 21.7,45.5 c -0.6,0 -1.1,-0.3 -1.4,-0.8 -0.3,-0.5 -0.3,-1.1 0,-1.6 l 9.1,-17 c 0.3,-0.5 0.8,-0.8 1.4,-0.8 h 38.7 c 0.6,0 1.1,0.3 1.4,0.9 l 8.8,17 c 0.3,0.5 0.2,1.1 -0.1,1.6 -0.3,0.5 -0.8,0.8 -1.4,0.8 H 21.7 Z m 63,13.5 c 0,1.4 -1.1,2.5 -2.5,2.5 h -9.5 c -1.4,0 -2.5,-1.1 -2.5,-2.5 v -2.6 c 0,-1.1 0.7,-2.1 1.8,-2.4 l 9.5,-2.6 c 0.7,-0.2 1.5,0 2.1,0.4 0.6,0.5 1,1.2 1,2 V 59 Z" /></svg>