<svg width="28" height="28" viewBox="0 0 28 28" fill="none" xmlns="http://www.w3.org/2000/svg">
<path d="M27.72 10.64C27.72 9.716 26.964 8.96 26.04 8.96H24.257L22.7873 4.97084C22.5742 4.39292 21.9265 3.74752 21.3475 3.53696C21.3475 3.53724 19.32 2.8 14 2.8C8.68003 2.8 6.65255 3.53724 6.65255 3.53724C6.07351 3.7478 5.42587 4.39292 5.21279 4.97112L3.74307 8.96H1.96003C1.03603 8.96 0.280029 9.716 0.280029 10.64C0.280029 11.564 1.03603 12.32 1.96003 12.32H2.50519L2.06727 13.5092C1.85419 14.0871 1.68003 15.064 1.68003 15.68V22.96C1.68003 24.192 2.68803 25.2 3.92003 25.2C5.15203 25.2 6.16003 24.192 6.16003 22.96V21.84H21.84V22.96C21.84 24.192 22.848 25.2 24.08 25.2C25.312 25.2 26.32 24.192 26.32 22.96V15.68C26.32 15.064 26.1459 14.0871 25.9328 13.5092L25.4949 12.32H26.04C26.964 12.32 27.72 11.564 27.72 10.64ZM7.56003 5.6H20.44L22.12 10.64H5.88003L7.56003 5.6ZM5.60003 17.36C4.67239 17.36 3.92003 16.6074 3.92003 15.68C3.92003 14.7526 4.67239 14 5.60003 14C6.52767 14 7.28003 14.7526 7.28003 15.68C7.28003 16.6074 6.52767 17.36 5.60003 17.36ZM22.4 17.36C21.4721 17.36 20.72 16.6079 20.72 15.68C20.72 14.7521 21.4721 14 22.4 14C23.3279 14 24.08 14.7521 24.08 15.68C24.08 16.6079 23.3279 17.36 22.4 17.36Z" fill="black"/>
</svg>
