<?xml version="1.0" encoding="UTF-8" standalone="no"?>
<svg
   xmlns:dc="http://purl.org/dc/elements/1.1/"
   xmlns:cc="http://creativecommons.org/ns#"
   xmlns:rdf="http://www.w3.org/1999/02/22-rdf-syntax-ns#"
   xmlns:svg="http://www.w3.org/2000/svg"
   xmlns="http://www.w3.org/2000/svg"
   xmlns:sodipodi="http://sodipodi.sourceforge.net/DTD/sodipodi-0.dtd"
   xmlns:inkscape="http://www.inkscape.org/namespaces/inkscape"
   id="svg12"
   version="1.1"
   y="0px"
   x="0px"
   viewBox="0 0 62.36 72.57"
   data-name="Layer 1"
   fill="#000000"
   width="100px"
   height="100px"
   sodipodi:docname="i_quiz_co2.svg"
   inkscape:version="0.92.3 (2405546, 2018-03-11)">
  <sodipodi:namedview
     pagecolor="#ffffff"
     bordercolor="#666666"
     borderopacity="1"
     objecttolerance="10"
     gridtolerance="10"
     guidetolerance="10"
     inkscape:pageopacity="0"
     inkscape:pageshadow="2"
     inkscape:window-width="1853"
     inkscape:window-height="1025"
     id="namedview11"
     showgrid="false"
     inkscape:zoom="2.36"
     inkscape:cx="50"
     inkscape:cy="50"
     inkscape:window-x="67"
     inkscape:window-y="27"
     inkscape:window-maximized="1"
     inkscape:current-layer="svg12" />
  <metadata
     id="metadata18">
    <rdf:RDF>
      <cc:Work
         rdf:about="">
        <dc:format>image/svg+xml</dc:format>
        <dc:type
           rdf:resource="http://purl.org/dc/dcmitype/StillImage" />
        <dc:title>79</dc:title>
      </cc:Work>
    </rdf:RDF>
  </metadata>
  <defs
     id="defs16" />
  <title
     id="title2">79</title>
  <path
     style="color:#000000;font-style:normal;font-variant:normal;font-weight:normal;font-stretch:normal;font-size:medium;line-height:normal;font-family:sans-serif;font-variant-ligatures:normal;font-variant-position:normal;font-variant-caps:normal;font-variant-numeric:normal;font-variant-alternates:normal;font-feature-settings:normal;text-indent:0;text-align:start;text-decoration:none;text-decoration-line:none;text-decoration-style:solid;text-decoration-color:#000000;letter-spacing:normal;word-spacing:normal;text-transform:none;writing-mode:lr-tb;direction:ltr;text-orientation:mixed;dominant-baseline:auto;baseline-shift:baseline;text-anchor:start;white-space:normal;shape-padding:0;clip-rule:nonzero;display:inline;overflow:visible;visibility:visible;opacity:1;isolation:auto;mix-blend-mode:normal;color-interpolation:sRGB;color-interpolation-filters:linearRGB;solid-color:#000000;solid-opacity:1;vector-effect:none;fill:#252424;fill-opacity:1;fill-rule:nonzero;stroke:none;stroke-width:3.26565003;stroke-linecap:butt;stroke-linejoin:round;stroke-miterlimit:4;stroke-dasharray:none;stroke-dashoffset:0;stroke-opacity:1;color-rendering:auto;image-rendering:auto;shape-rendering:auto;text-rendering:auto;enable-background:accumulate"
     d="m 31.859375,17.609375 c -9.564098,0 -14.741694,4.946738 -17.126953,9.78125 -1.808408,3.665335 -2.089474,6.623746 -2.167969,8.167969 -1.082296,0.203845 -2.502979,0.623379 -4.0664061,1.724609 -2.7381799,1.92869 -5.3320313,5.848354 -5.3320313,12.765625 0,6.759163 2.8238128,10.621054 5.7226563,12.484375 2.8988431,1.863322 5.8457031,1.873047 5.8457031,1.873047 a 1.6329883,1.6329883 0 0 0 0.0098,0 h 19.935547 c 0.214613,0.888121 0.62175,1.989231 1.476562,3.060547 1.822857,2.284545 5.469767,4.292969 12.097656,4.292969 4.916859,0 7.791446,-2.638099 9.025391,-5.173828 0.601983,-1.237062 0.871534,-2.447556 1.005859,-3.376954 1.029789,-0.114812 2.394414,-0.434702 3.753906,-1.265625 2.700557,-1.650582 5.183594,-5.340332 5.183594,-12.208984 0,-3.225344 -1.133108,-5.856275 -2.800781,-7.796875 C 62.754202,39.9969 60.606804,38.715386 58.523438,37.837891 55.48806,36.559417 53.063533,36.215964 51.662109,36.068359 51.542515,34.513921 51.18175,31.440837 49.251953,27.646484 46.733276,22.69428 41.439944,17.609375 31.859375,17.609375 Z m 0,3.265625 c 8.478314,0 12.348978,4.061032 14.480469,8.251953 2.13149,4.190921 2.216797,8.425781 2.216797,8.425781 a 1.6329883,1.6329883 0 0 0 1.550781,1.607422 c 0,0 3.614318,0.198961 7.148437,1.6875 1.76706,0.74427 3.469307,1.798917 4.689453,3.21875 1.220147,1.419833 2.011719,3.175688 2.011719,5.667969 0,6.131312 -1.918821,8.381445 -3.621093,9.421875 -1.702273,1.04043 -3.345704,0.839844 -3.345704,0.839844 a 1.6329883,1.6329883 0 0 0 -1.83789,1.667968 c 0,0 0.0281,1.772803 -0.808594,3.492188 -0.836693,1.719385 -2.228278,3.337891 -6.089844,3.337891 -5.993686,0 -8.434072,-1.670298 -9.544922,-3.0625 -1.110849,-1.392203 -1.001953,-2.560547 -1.001953,-2.560547 A 1.6329883,1.6329883 0 0 0 36.076172,61.140625 H 14.753906 c 0,0 -2.025844,-0.02249 -4.099609,-1.355469 -2.0737653,-1.332977 -4.2226564,-3.832057 -4.2226564,-9.736328 0,-6.144032 2.0464733,-8.756843 3.9472654,-10.095703 1.900793,-1.33886 3.699219,-1.337891 3.699219,-1.337891 a 1.6329883,1.6329883 0 0 0 1.630859,-1.658203 c 0,0 -0.03977,-4.0858 1.951172,-8.121093 C 19.651095,24.800644 23.364581,20.875 31.859375,20.875 Z"
     id="path840"
     inkscape:connector-curvature="0" />
  <path
     style="color:#000000;font-style:normal;font-variant:normal;font-weight:normal;font-stretch:normal;font-size:medium;line-height:normal;font-family:sans-serif;font-variant-ligatures:normal;font-variant-position:normal;font-variant-caps:normal;font-variant-numeric:normal;font-variant-alternates:normal;font-feature-settings:normal;text-indent:0;text-align:start;text-decoration:none;text-decoration-line:none;text-decoration-style:solid;text-decoration-color:#000000;letter-spacing:normal;word-spacing:normal;text-transform:none;writing-mode:lr-tb;direction:ltr;text-orientation:mixed;dominant-baseline:auto;baseline-shift:baseline;text-anchor:start;white-space:normal;shape-padding:0;clip-rule:nonzero;display:inline;overflow:visible;visibility:visible;opacity:1;isolation:auto;mix-blend-mode:normal;color-interpolation:sRGB;color-interpolation-filters:linearRGB;solid-color:#000000;solid-opacity:1;vector-effect:none;fill:#252424;fill-opacity:1;fill-rule:nonzero;stroke:none;stroke-width:3.26565003;stroke-linecap:square;stroke-linejoin:round;stroke-miterlimit:4;stroke-dasharray:none;stroke-dashoffset:0;stroke-opacity:1;paint-order:normal;color-rendering:auto;image-rendering:auto;shape-rendering:auto;text-rendering:auto;enable-background:accumulate"
     d="m 57.470703,1.4414062 c -3.854426,0 -7.013672,3.1611987 -7.013672,7.015625 0,3.8544268 3.159246,7.0136718 7.013672,7.0136718 3.854427,0 7.013672,-3.159245 7.013672,-7.0136718 0,-3.8544263 -3.159245,-7.015625 -7.013672,-7.015625 z m 0,3.265625 c 2.089538,0 3.748047,1.6604619 3.748047,3.75 0,2.0895378 -1.658509,3.7480468 -3.748047,3.7480468 -2.089538,0 -3.748047,-1.658509 -3.748047,-3.7480468 0,-2.0895381 1.658509,-3.75 3.748047,-3.75 z"
     id="path867"
     inkscape:connector-curvature="0" />
  <path
     style="color:#000000;font-style:normal;font-variant:normal;font-weight:normal;font-stretch:normal;font-size:medium;line-height:normal;font-family:sans-serif;font-variant-ligatures:normal;font-variant-position:normal;font-variant-caps:normal;font-variant-numeric:normal;font-variant-alternates:normal;font-feature-settings:normal;text-indent:0;text-align:start;text-decoration:none;text-decoration-line:none;text-decoration-style:solid;text-decoration-color:#000000;letter-spacing:normal;word-spacing:normal;text-transform:none;writing-mode:lr-tb;direction:ltr;text-orientation:mixed;dominant-baseline:auto;baseline-shift:baseline;text-anchor:start;white-space:normal;shape-padding:0;clip-rule:nonzero;display:inline;overflow:visible;visibility:visible;opacity:1;isolation:auto;mix-blend-mode:normal;color-interpolation:sRGB;color-interpolation-filters:linearRGB;solid-color:#000000;solid-opacity:1;vector-effect:none;fill:#252424;fill-opacity:1;fill-rule:nonzero;stroke:none;stroke-width:3.26565003;stroke-linecap:square;stroke-linejoin:round;stroke-miterlimit:4;stroke-dasharray:none;stroke-dashoffset:0;stroke-opacity:1;paint-order:normal;color-rendering:auto;image-rendering:auto;shape-rendering:auto;text-rendering:auto;enable-background:accumulate"
     d="m 2.7363281,10.359375 c -3.8544264,0 -7.0136718,3.159245 -7.0136719,7.013672 10e-8,3.854426 3.1592455,7.015625 7.0136719,7.015625 3.8544264,0 7.0136719,-3.161199 7.0136719,-7.015625 0,-3.854427 -3.1592455,-7.013672 -7.0136719,-7.013672 z m 0,3.265625 c 2.0895381,0 3.7480469,1.658509 3.7480469,3.748047 0,2.089538 -1.6585088,3.75 -3.7480469,3.75 -2.08953809,0 -3.7480469,-1.660462 -3.7480469,-3.75 0,-2.089538 1.65850881,-3.748047 3.7480469,-3.748047 z"
     id="circle871"
     inkscape:connector-curvature="0" />
</svg>
