<?xml version="1.0" encoding="UTF-8" standalone="no"?>
<svg
   xmlns:dc="http://purl.org/dc/elements/1.1/"
   xmlns:cc="http://creativecommons.org/ns#"
   xmlns:rdf="http://www.w3.org/1999/02/22-rdf-syntax-ns#"
   xmlns:svg="http://www.w3.org/2000/svg"
   xmlns="http://www.w3.org/2000/svg"
   id="svg10"
   xml:space="preserve"
   enable-background="new 0 0 50 50"
   viewBox="0 0 50 50"
   y="0px"
   x="0px"
   version="1.1"
   fill="#000000"
   width="100px"
   height="100px"><metadata
     id="metadata16"><rdf:RDF><cc:Work
         rdf:about=""><dc:format>image/svg+xml</dc:format><dc:type
           rdf:resource="http://purl.org/dc/dcmitype/StillImage" /><dc:title></dc:title></cc:Work></rdf:RDF></metadata><defs
     id="defs14" /><g
     id="g8"><path
       style="fill:#17bebb;fill-opacity:1"
       id="path2"
       d="M43.9,16.7c-0.5-4.2-4-7.4-8.3-7.4c-1.3,0-2.5,0.3-3.5,0.8c-1.6-2.7-4.4-4.4-7.8-4.4c-3.1,0-5.8,1.6-7.4,3.9   c3.3,0.2,6.4,2,8.3,4.7c1.2-0.4,2.4-0.6,3.6-0.6c5.1,0,9.4,3.7,10.3,8.7c3.5,1.7,5.8,5.3,5.8,9.3c2.5-1.4,4.1-4.1,4.1-7.2   C49,21,46.9,18,43.9,16.7z" /><path
       style="fill:#17bebb;fill-opacity:1"
       id="path4"
       d="M26,23.7c-1,0-1.9,0.4-2.6,1.1c-0.7,0.7-1.1,1.6-1.1,2.7c0,1,0.4,1.9,1.1,2.7c0.7,0.7,1.6,1.1,2.6,1.1c1,0,1.9-0.4,2.6-1.1   c0.7-0.7,1.1-1.6,1.1-2.7c0-1-0.4-1.9-1.1-2.7C27.9,24,27.1,23.7,26,23.7z" /><path
       style="fill:#17bebb;fill-opacity:1"
       id="path6"
       d="M38.2,23c-0.5-4.7-4.5-8.4-9.3-8.4c-1.4,0-2.8,0.3-4,0.9c-1.8-3-5-5-8.7-5C10.6,10.5,6,15.1,6,20.6c0,0.3,0,0.6,0,0.9   C3,23.5,1,26.9,1,30.8c0,6,4.9,10.9,10.9,10.9c1.3,0,2.6-0.2,3.8-0.7c1.7,2,4.3,3.3,7.2,3.3c3.2,0,6.1-1.6,7.8-4.1   c1.2,0.5,2.5,0.8,3.8,0.8c5.2,0,9.4-4.2,9.4-9.4C43.9,27.8,41.5,24.4,38.2,23z M12.7,30c0.7,0.7,1.5,1.1,2.5,1.1   c0.6,0,1.1-0.1,1.6-0.3c0.4-0.2,0.9-0.5,1.4-1l1.1,1.2c-1.1,1.2-2.4,1.8-4,1.8c-1.6,0-2.9-0.5-3.9-1.5c-1-1-1.6-2.3-1.6-3.8   c0-1.5,0.5-2.8,1.6-3.9c1.1-1,2.4-1.5,4-1.5c1.6,0,3,0.6,4,1.8l-1.1,1.2c-0.5-0.5-1-0.8-1.4-1c-0.4-0.2-1-0.3-1.6-0.3   c-1,0-1.9,0.3-2.6,1c-0.7,0.7-1.1,1.5-1.1,2.6C11.7,28.5,12,29.3,12.7,30z M29.9,31.3c-1,1-2.3,1.5-3.9,1.5c-1.5,0-2.8-0.5-3.9-1.5   c-1.1-1-1.6-2.3-1.6-3.8c0-1.5,0.5-2.8,1.6-3.8c1-1,2.3-1.5,3.9-1.5c1.5,0,2.8,0.5,3.9,1.5c1.1,1,1.6,2.3,1.6,3.8   C31.5,29,31,30.2,29.9,31.3z M35.4,37.6h-4.3v-0.9l1.9-1.9c0.4-0.4,0.7-0.8,0.9-1c0.2-0.2,0.3-0.5,0.3-0.7s-0.1-0.5-0.3-0.6   c-0.2-0.2-0.4-0.3-0.7-0.3c-0.5,0-0.9,0.3-1.3,0.8l-0.8-0.5c0.3-0.4,0.6-0.7,0.9-0.9c0.3-0.2,0.8-0.3,1.3-0.3c0.5,0,1,0.2,1.4,0.5   c0.4,0.3,0.6,0.8,0.6,1.3c0,0.3-0.1,0.6-0.2,0.9c-0.2,0.3-0.5,0.7-0.9,1.1l-1.5,1.5h2.8V37.6z" /></g></svg>