<svg height='100px' width='100px'  fill="#000000" xmlns="http://www.w3.org/2000/svg" data-name="Layer 1" viewBox="0 0 1024 1024" x="0px" y="0px"><title>icon-01</title><path fill="#000000" d="M867.09 64.12H363.93A92.92 92.92 0 0 0 271 157v113.12H144a80 80 0 0 0-80 80v530a80 80 0 0 0 80 80h530a80 80 0 0 0 80-80v-126h113.09A92.92 92.92 0 0 0 960 661.2V157a92.92 92.92 0 0 0-92.91-92.88zM674 900.12H144a20 20 0 0 1-20-20v-530a20 20 0 0 1 20-20h530a20 20 0 0 1 20 20v530a20 20 0 0 1-20 20zM901 661.2a32.92 32.92 0 0 1-32.92 32.92H755v-344a80 80 0 0 0-80-80H331V157a32.92 32.92 0 0 1 32.92-32.92h504.17A32.92 32.92 0 0 1 901 157z"></path><path fill="#000000" d="M542.38 495.12H277c-15.81 0-29.37 12-30.51 27.76a30 30 0 0 0 29.92 32.24h265.38c15.81 0 29.37-12 30.51-27.76a30 30 0 0 0-29.92-32.24zM542.38 675.12H277c-15.81 0-29.37 12-30.51 27.76a30 30 0 0 0 29.92 32.24h265.38c15.81 0 29.37-12 30.51-27.76a30 30 0 0 0-29.92-32.24z"></path></svg>