<?xml version="1.0" encoding="UTF-8" standalone="no"?>
<svg
   xmlns:dc="http://purl.org/dc/elements/1.1/"
   xmlns:cc="http://creativecommons.org/ns#"
   xmlns:rdf="http://www.w3.org/1999/02/22-rdf-syntax-ns#"
   xmlns:svg="http://www.w3.org/2000/svg"
   xmlns="http://www.w3.org/2000/svg"
   xmlns:sodipodi="http://sodipodi.sourceforge.net/DTD/sodipodi-0.dtd"
   xmlns:inkscape="http://www.inkscape.org/namespaces/inkscape"
   height="100px"
   width="100px"
   fill="#000000"
   viewBox="0 0 24 24"
   x="0px"
   y="0px"
   version="1.1"
   id="svg10"
   sodipodi:docname="i_download.svg"
   inkscape:version="0.92.3 (2405546, 2018-03-11)">
  <metadata
     id="metadata16">
    <rdf:RDF>
      <cc:Work
         rdf:about="">
        <dc:format>image/svg+xml</dc:format>
        <dc:type
           rdf:resource="http://purl.org/dc/dcmitype/StillImage" />
      </cc:Work>
    </rdf:RDF>
  </metadata>
  <defs
     id="defs14" />
  <sodipodi:namedview
     pagecolor="#ffffff"
     bordercolor="#666666"
     borderopacity="1"
     objecttolerance="10"
     gridtolerance="10"
     guidetolerance="10"
     inkscape:pageopacity="0"
     inkscape:pageshadow="2"
     inkscape:window-width="1920"
     inkscape:window-height="1052"
     id="namedview12"
     showgrid="false"
     inkscape:zoom="2.36"
     inkscape:cx="50"
     inkscape:cy="50"
     inkscape:window-x="0"
     inkscape:window-y="0"
     inkscape:window-maximized="1"
     inkscape:current-layer="svg10" />
  <title
     id="title2">Download</title>
  <g
     data-name="Layer 2"
     id="g8"
     style="fill:#252424;fill-opacity:1">
    <path
       d="M12,1a1,1,0,0,0-1,1V14.59L9.71,13.29a1,1,0,0,0-1.41,1.41l3,3a1,1,0,0,0,1.42,0l3-3a1,1,0,0,0-1.41-1.41L13,14.59V2A1,1,0,0,0,12,1Z"
       id="path4"
       style="fill:#252424;fill-opacity:1" />
    <path
       d="M23,13a1,1,0,0,0-1,1v6a1,1,0,0,1-1,1H3a1,1,0,0,1-1-1V14a1,1,0,0,0-2,0v6a3,3,0,0,0,3,3H21a3,3,0,0,0,3-3V14A1,1,0,0,0,23,13Z"
       id="path6"
       style="fill:#252424;fill-opacity:1" />
  </g>
</svg>
