<?xml version="1.0" encoding="UTF-8" standalone="no"?>
<svg
   xmlns:dc="http://purl.org/dc/elements/1.1/"
   xmlns:cc="http://creativecommons.org/ns#"
   xmlns:rdf="http://www.w3.org/1999/02/22-rdf-syntax-ns#"
   xmlns:svg="http://www.w3.org/2000/svg"
   xmlns="http://www.w3.org/2000/svg"
   xmlns:sodipodi="http://sodipodi.sourceforge.net/DTD/sodipodi-0.dtd"
   xmlns:inkscape="http://www.inkscape.org/namespaces/inkscape"
   height="133.79486"
   width="91.667999"
   version="1.1"
   x="0px"
   y="0px"
   viewBox="0 0 91.667999 133.79486"
   enable-background="new 0 0 100 100"
   xml:space="preserve"
   id="svg14"
   sodipodi:docname="i_e_bus_black.svg"
   style="fill:#000000"
   inkscape:version="0.92.3 (2405546, 2018-03-11)"><metadata
     id="metadata20"><rdf:RDF><cc:Work
         rdf:about=""><dc:format>image/svg+xml</dc:format><dc:type
           rdf:resource="http://purl.org/dc/dcmitype/StillImage" /><dc:title></dc:title></cc:Work></rdf:RDF></metadata><defs
     id="defs18" /><sodipodi:namedview
     pagecolor="#ffffff"
     bordercolor="#666666"
     borderopacity="1"
     objecttolerance="10"
     gridtolerance="10"
     guidetolerance="10"
     inkscape:pageopacity="0"
     inkscape:pageshadow="2"
     inkscape:window-width="1853"
     inkscape:window-height="1025"
     id="namedview16"
     showgrid="false"
     fit-margin-top="-18"
     fit-margin-left="0"
     fit-margin-right="0"
     fit-margin-bottom="0"
     inkscape:zoom="3.337544"
     inkscape:cx="45.834"
     inkscape:cy="50.000003"
     inkscape:window-x="67"
     inkscape:window-y="27"
     inkscape:window-maximized="1"
     inkscape:current-layer="g853" /><g
     id="g12"
     transform="translate(-4.166,33.794862)"
     style="fill:#252424;fill-opacity:1"><path
       d="M 66.667,12.5 H 31.25 c -1.151,0 -2.083,0.932 -2.083,2.083 0,1.151 0.932,2.083 2.083,2.083 h 35.417 c 1.151,0 2.083,-0.932 2.083,-2.083 0,-1.151 -0.932,-2.083 -2.083,-2.083 z"
       id="path2"
       inkscape:connector-curvature="0"
       style="fill:#252424;fill-opacity:1" /><path
       d="m 73.958,39.583 c 0,-3.447 -2.804,-6.25 -6.25,-6.25 -3.446,0 -6.25,2.803 -6.25,6.25 0,3.446 2.804,6.25 6.25,6.25 3.446,0 6.25,-2.803 6.25,-6.25 z m -6.25,2.084 c -1.149,0 -2.083,-0.934 -2.083,-2.083 0,-1.15 0.934,-2.083 2.083,-2.083 1.149,0 2.084,0.934 2.084,2.083 0,1.149 -0.935,2.083 -2.084,2.083 z"
       id="path4"
       inkscape:connector-curvature="0"
       style="fill:#252424;fill-opacity:1" /><path
       d="M 77.083,60.417 H 68.75 c -2.297,0 -4.167,1.869 -4.167,4.166 v 4.167 c 0,2.297 1.87,4.167 4.167,4.167 h 8.333 c 2.297,0 4.167,-1.87 4.167,-4.167 v -4.167 c 0,-2.297 -1.87,-4.166 -4.167,-4.166 z m 0,8.333 H 68.75 v -4.167 h 8.333 z"
       id="path6"
       inkscape:connector-curvature="0"
       style="fill:#252424;fill-opacity:1" /><path
       d="m 31.25,60.417 h -8.333 c -2.297,0 -4.167,1.869 -4.167,4.166 v 4.167 c 0,2.297 1.87,4.167 4.167,4.167 h 8.333 c 2.297,0 4.167,-1.87 4.167,-4.167 v -4.167 c 0,-2.297 -1.87,-4.166 -4.167,-4.166 z m 0,8.333 h -8.333 v -4.167 h 8.333 z"
       id="path8"
       inkscape:connector-curvature="0"
       style="fill:#252424;fill-opacity:1" /><path
       d="M 91.667,22.917 H 87.5 V 18.75 C 87.5,11.857 81.893,6.25 75,6.25 H 25 c -6.893,0 -12.5,5.607 -12.5,12.5 v 4.167 H 8.333 c -2.297,0 -4.167,1.87 -4.167,4.167 V 37.5 c 0,2.297 1.87,4.167 4.167,4.167 H 12.5 v 34.959 c -1.27,1.145 -2.083,2.785 -2.083,4.624 v 4.167 c 0,3.446 2.804,6.25 6.25,6.25 h 2.083 v 4.166 c 0,2.297 1.87,4.167 4.167,4.167 h 8.333 c 2.297,0 4.167,-1.87 4.167,-4.167 v -4.166 h 29.167 v 4.166 c 0,2.297 1.87,4.167 4.167,4.167 h 8.333 c 2.297,0 4.167,-1.87 4.167,-4.167 v -4.166 h 2.083 0.004 c 3.447,0 6.25,-2.804 6.25,-6.25 V 81.25 h -0.004 c 0,-1.839 -0.813,-3.479 -2.083,-4.624 V 41.667 h 4.167 c 2.297,0 4.166,-1.87 4.166,-4.167 V 27.083 c -0.001,-2.297 -1.87,-4.166 -4.167,-4.166 z M 12.5,37.5 H 8.333 V 27.083 H 12.5 Z M 25,10.417 h 50 c 4.596,0 8.333,3.738 8.333,8.333 H 16.667 c 0,-4.596 3.737,-8.333 8.333,-8.333 z m 43.75,35.416 h -1.042 -1.041 c -4.597,0 -8.334,3.737 -8.334,8.333 h -4.166 c -1.149,0 -2.084,-0.935 -2.084,-2.084 V 25 c 0,-1.149 0.935,-2.083 2.084,-2.083 h 29.166 v 31.25 h -6.25 c 0,-4.596 -3.737,-8.334 -8.333,-8.334 z m 4.167,8.334 H 62.5 C 62.5,51.87 64.37,50 66.667,50 h 2.083 c 2.297,0 4.167,1.87 4.167,4.167 z m -56.25,-31.25 h 29.167 c 1.149,0 2.083,0.934 2.083,2.083 v 27.083 c 0,1.149 -0.934,2.084 -2.083,2.084 H 16.667 Z m 0,35.416 h 29.167 c 1.607,0 3.058,-0.626 4.167,-1.625 1.108,0.999 2.56,1.625 4.167,1.625 H 83.334 V 75 H 16.667 Z m 68.754,27.084 c 0,1.149 -0.934,2.083 -2.084,2.083 H 83.333 16.667 c -1.149,0 -2.083,-0.934 -2.083,-2.083 V 81.25 c 0,-1.149 0.934,-2.083 2.083,-2.083 h 66.667 c 1.149,0 2.084,0.934 2.084,2.083 h 0.004 v 4.167 z M 87.5,37.5 V 27.083 h 4.167 V 37.5 Z"
       id="path10"
       inkscape:connector-curvature="0"
       style="fill:#252424;fill-opacity:1" /></g><style
     id="style827"
     type="text/css">
	.st0{fill:none;}
</style><g
     style="fill:#000000"
     id="g877"
     transform="matrix(1.9597457,0,0,1.9597457,22.422,-18)"><g
       id="g831"><rect
         id="rect829"
         height="32"
         width="32"
         class="st0"
         x="0"
         y="0"
         style="fill:none" /></g><g
       id="g853"><g
         id="g835"
         transform="translate(0,9.1848654)"
         style="fill:#252424;fill-opacity:1"><path
           id="path833"
           d="M 15,13.938378 H 9 c -1.1,0 -2,-0.9 -2,-2 V 7 C 7,5.9 7.9,5 9,5 h 6 c 1.1,0 2,0.9 2,2 v 4.938378 c 0,1.1 -0.9,2 -2,2 z M 9,7 v 4.938378 h 6 V 7 Z"
           inkscape:connector-curvature="0"
           sodipodi:nodetypes="sssssssssccccc"
           style="fill:#252424;fill-opacity:1" /></g><g
         id="g839"
         transform="translate(0,9.1848654)"
         style="fill:#252424;fill-opacity:1"><path
           id="path837"
           d="M 10,6 C 9.45,6 9,5.55 9,5 V 2 c 0,-0.55 0.45,-1 1,-1 0.55,0 1,0.45 1,1 v 3 c 0,0.55 -0.45,1 -1,1 z"
           inkscape:connector-curvature="0"
           style="fill:#252424;fill-opacity:1" /></g><g
         id="g843"
         transform="translate(0,9.1848654)"
         style="fill:#252424;fill-opacity:1"><path
           id="path841"
           d="M 14,6 C 13.45,6 13,5.55 13,5 V 2 c 0,-0.55 0.45,-1 1,-1 0.55,0 1,0.45 1,1 v 3 c 0,0.55 -0.45,1 -1,1 z"
           inkscape:connector-curvature="0"
           style="fill:#252424;fill-opacity:1" /></g><g
         id="g847"
         transform="translate(0,7.1437842)"
         style="fill:#252424;fill-opacity:1"><path
           id="path845"
           d="m 12,23.856216 c -0.55,0 -1,-0.45 -1,-1 V 16 c 0,-0.55 0.45,-1 1,-1 0.55,0 1,0.45 1,1 v 6.856216 c 0,0.55 -0.45,1 -1,1 z"
           inkscape:connector-curvature="0"
           sodipodi:nodetypes="sssssss"
           style="fill:#252424;fill-opacity:1" /></g><g
         id="g851" /></g></g></svg>