<svg height='100px' width='100px'  fill="#000000" xmlns="http://www.w3.org/2000/svg" xmlns:xlink="http://www.w3.org/1999/xlink" version="1.1" x="0px" y="0px" viewBox="0 0 98 98" enable-background="new 0 0 98 98" xml:space="preserve"><g><path d="M49.1003,94.5v2c6.834,0,13.4072-1.4526,19.5361-4.3174l-0.8467-1.8115C61.9275,93.1108,55.6399,94.5,49.1003,94.5z"></path><path d="M73.4641,87.1899c-0.77,0.5093-1.5664,1.001-2.3672,1.4609l0.9971,1.7344c0.8364-0.481,1.6685-0.9946,2.4736-1.5273   L73.4641,87.1899z"></path><path d="M73.1516,10.768c-0.8071-0.4937-1.6382-0.9668-2.4702-1.4072l-0.9355,1.7676c0.7954,0.4209,1.5903,0.874,2.3628,1.3457   L73.1516,10.768z"></path><path d="M49.1003,6.0395c6.2163,0,12.2119,1.2524,17.8208,3.7217l0.8057-1.8301C61.863,5.3486,55.5959,4.0395,49.1003,4.0395   V6.0395z"></path><path d="M4.9431,52.8979c-0.0513-0.8726-0.0771-1.7554-0.0771-2.6245h-2c0,0.9082,0.0273,1.8306,0.0811,2.7417L4.9431,52.8979z"></path><path d="M3.0959,54.9013c0.6226,6.2339,2.4766,12.1772,5.5098,17.6641l1.75-0.9678c-2.9009-5.248-4.6738-10.9326-5.2695-16.8955   L3.0959,54.9013z"></path><path d="M44.55,63.4497c-0.2656-1.189-0.7417-1.8745-2.606-2.3193c-6.8141-1.6262-9.333-6.9908-13.1162-4.6919   c-1.6792,1.02-1.9404,3.0581-1.9746,4.9175c-0.1724,9.4819,3.4351,11.3145,5.8223,12.5273   c3.5117,1.7825,0.5784,1.9034,5.5195,9.9771c1.6833,2.7529,2.1064,4.3633,4.2051,4.3633c3.6925,0,2.352-3.5893,2.4609-4.3037   c0.0547-0.3589,0.4482-0.7085,0.9038-1.1128c3.2698-2.9034,0.2178-4.252,2.9072-4.3779c2.9067-0.1369,3.6462-1.6007,2.9692-4.4082   c-0.8927-3.6759,3.1302-3.4591,2.6826-5.7695C53.7631,65.3568,45.2408,66.5581,44.55,63.4497z M49.5183,73.6142   c0.2565,2.0519,1.1271,2.7201-0.9395,2.8169c-3.8887,0.1814-2.9309,2.8935-3.2227,3.8096   c-0.4398,1.386-2.9453,1.3767-2.4009,4.9824c0.0435,0.2861,0.1157,0.7656,0.0786,0.8711   c-1.4067,0.2871-0.8606,0.4378-3.1328-3.2778c-4.7271-7.7239-1.8404-8.4421-6.3198-10.7163   c-2.1733-1.104-4.8779-2.478-4.728-10.7075c0.0286-1.5717,0.2336-3.5024,1.8525-3.5024c0.8271,0,1.8677,0.6958,3.1855,1.5767   c7.5047,5.0156,8.3518,2.8281,8.7065,4.4185c0.9269,4.1389,6.6515,3.5627,9.5396,4.7627   C51.7272,69.0055,49.1151,70.4161,49.5183,73.6142z"></path><path d="M90.301,50.2739c0-22.6817-18.3367-41.209-41.2002-41.209c-13.3888,0-21.4187,6.2706-23.0599,7.054l-0.0095-0.0002   C15.954,23.2571,10.463,32.4648,8.5839,42.7517c-0.7189,3.9358-0.6723,6.7487-0.778,8.3113l0.1031-0.1115   c0.3648,22.4053,18.6964,40.5226,41.1918,40.5226c8.3787,0,16.4198-2.4997,23.2979-7.2229l0.0117,0.0046l0.4438-0.3135   C83.7886,76.2178,90.301,63.6266,90.301,50.2739z M72.1807,81.9466c-0.7839-0.5484-1.1437-1.5651-0.8279-2.5091   c3.7511-11.2054,4.7178-12.7155,2.5986-15.6582c-1.1416-1.5854-2.9165-2.4951-4.9575-2.4951h-0.002   c-0.564,0-1.2031,0-1.6265-0.2422c-0.418-0.2329-0.7397-0.7783-1.0479-1.2998c-3.7671-6.4907-2.9458-8.3643,0.5718-12.4688   c2.0566-2.3823,4.1216-4.542,6.7627-4.7949c2.3379-0.2217,3.124,0.8208,4.0039,2.0576c2.2843,3.2087,3.5078,2.0122,6.2896,2.0044   c2.3227-0.0085,3.3419-3.0698,1.3999-4.3823c-1.19-0.8038-2.5198-0.9487-3.5513-1.5107c-1.673-0.9163-3.7291-4.3667-6.6284-4.3667   c-1.2801,0-1.8628,0.5749-2.8706,1.0103c-0.6731-0.0856-2.2412-2.4222-0.2896-3.9263c1.9992-1.5399,2.1857-4.0699,1.0405-5.4766   c-0.3706-2.0229-2.6833-1.9768-2.5801-3.7041l0.0181-0.3008c0.1043-1.7318,1.8552-3.0366,3.5615-2.4146   c1.0294,0.3755,2.0447,0.8215,3.0202,1.3267C84.053,29.9158,88.301,39.6411,88.301,50.2739   C88.301,62.7452,82.3099,74.5539,72.1807,81.9466z M27.0872,30.1699c0.3633,0.7139,1.0879,1.1748,1.8462,1.1748   c1.5839,0,2.0636-1.5021,2.3374-2.9575c0.8266-4.3897,1.9349-0.4307,4.5996-1.0195c0.5331-0.1216,0.9459-0.4009,1.0942-0.438   c0.0755,0.1002,1.6076,1.4342,4.3628,6.2861c0.4385,0.7622,0.3916,1.0186,0.395,1.0186   c-0.6465,0.8839-7.0364,0.1707-10.8359,4.1577c-1.4467,1.5147-2.254,3.4723-3.7383,4.3843   c-1.3555,0.8996-2.4175,1.2902-2.0513,3.7563c0.0647,0.4567,0.2109,1.2473-0.0278,1.5005   c-0.2704-0.4783-0.6875-2.4668-3.2964-2.4668c-2.5327,0-5.2949,2.2153-5.3706,5.5132c-0.0518,2.2233,2.1776,3.7799,4.793,2.5405   c0.1001-0.0449,0.21-0.0869,0.3169-0.123c-0.119,1.2538,0.078,3.5278-0.355,3.8569c-0.001-0.001-0.1455,0.0718-0.7104-0.2129   c-5.7506-2.9273-4.9751-8.9657-5.3423-10.2974c-0.6553-2.2824-2.859-3.255-4.8828-1.5905   c1.4083-10.9077,7.3406-20.7501,16.3787-27.0938c2.073,0.2613,6.6325,0.6075,7.5012,1.2999   c-0.0557,0.0889-0.1724,0.2422-0.4131,0.4604c-6.1595,5.4967-9.5773,4.2173-9.5015,7.0225   C24.2457,29.1491,26.574,29.1629,27.0872,30.1699z M9.9391,48.7218c0.6751-0.8369,2.5183-3.8512,3.2383-1.3424   c0.2438,1.0269-0.391,8.1062,6.3652,11.5459c4.4765,2.2553,3.8613-4.2613,3.9409-5.0474c0.2472-2.3954-1.0086-3.021-3.1245-2.0747   c-3.4142,1.6191-2.0065-4.2368,1.4136-4.2368c1.6795,0,0.966,1.5972,2.4399,2.3184c0.9482,0.4663,2.186-0.0127,2.6909-1.0205   c0.4334-0.8648,0.3008-1.7151,0.1738-2.6123c-0.1646-1.1066-0.1098-1.0526,1.1152-1.77c1.9459-1.1955,2.8093-3.3147,4.1411-4.709   c5.629-5.9086,18.0662,1.1776,6.7319-13.5713c-0.4277-0.5449-1.1084-1.2695-2.0815-1.2695c-1.5626,0-0.93,1.0406-2.6392,0.062   c-4.5667-2.6149-4.8448,2.683-5.418,4.3389c-0.1974-0.1535-0.1465-0.8058-1.9736-1.7783   c-0.6904-0.3672-0.7617-0.4541-0.7822-0.6665c0.4598-0.6057,3.8494-1.0143,8.855-5.4814c0.9531-0.8643,1.3013-1.7183,1.0347-2.5381   c-0.5059-1.554-2.9117-1.9883-6.7899-2.4194c13.5445-7.9741,31.0187-7.1621,43.8767,2.8635   c-2.4641,0.009-4.5096,1.9596-4.6596,4.4504L68.47,24.0639c-0.1807,2.9954,2.5939,3.3786,2.6191,4.2891l0.0112,0.4238   c0.1806,0.2348,0.6885,0.3504,0.6489,1.2793c-0.0273,0.645-0.3789,1.2734-0.9644,1.7246   c-3.4541,2.6609-1.0493,7.3279,1.3599,7.5044l0.1621,0.0063c2.3323,0,1.9815-2.9389,6.2471,1.2207   c3.3721,3.2908,3.8377,2.0638,5.6714,3.3032c0.2964,0.2005,0.0889,0.7238-0.2866,0.7251c-1.1248,0.0035-2.7306,0.445-3.4868,0.0928   c-1.4008-0.6568-1.9957-4.6396-6.9917-4.1455c-3.375,0.3232-5.8447,2.8838-8.0869,5.4814   c-4.188,4.8862-4.8887,7.707-0.7817,14.7832c2.6906,4.56,5.276,0.7754,7.7368,4.1958c1.4623,2.0304,0.9073,2.5668-2.8721,13.8545   c-0.5229,1.5626-0.0709,3.2279,1.0359,4.3248c-6.3685,4.1564-13.7323,6.3466-21.3914,6.3466   C27.0458,89.4741,9.0525,71.13,9.9391,48.7218z"></path><path d="M68.4167,48.5966l0.6982,0.7217l0.7534,0.6577l0.0732-0.0854c0.4058-0.4697,0.8179-0.9385,1.2329-1.3755l-1.4512-1.377   C69.2878,47.5976,68.8542,48.0898,68.4167,48.5966z"></path><path d="M71.2893,45.6762l1.2393,1.5703c0.5166-0.4082,0.9697-0.6572,1.3467-0.7402l-0.4316-1.9531   C72.7605,44.7046,72.0559,45.0717,71.2893,45.6762z"></path><path d="M65.9563,52.4228l1.9561,0.418c0.0713-0.334,0.3232-0.7979,0.7485-1.3789l-1.6143-1.1816   C66.4373,51.1132,66.0906,51.7939,65.9563,52.4228z"></path><path d="M55.7512,14.3335c-7.2727,0.5046-7.4584,0.3157-9.209-0.4917c-1.9093-0.8809-3.9709-1.7783-5.2617-0.0288   c-1.9005,2.5754,1.5496,4.9598,4.4604,6.3228c2.8465,1.3323,0.9546,1.7427,0.2788,3.5088   c-1.2054,3.1458,3.3275,9.8204,6.5449,5.2705c1.5159-2.1425,0.5526-1.7834,4.3018-3.6064c3.939-2.0015,3.1279-4.5996,2.6924-5.9956   C58.8217,16.9456,59.8146,14.0521,55.7512,14.3335z M55.9602,23.5254c-4.4249,2.2482-3.2721,1.7523-5.0283,4.2344   c-1.5709,2.2222-3.4332-2.3855-3.0444-3.3999c0.2582-0.6757,3.6703-3.708-1.2983-6.0356c-2.5791-1.2075-3.6602-2.2759-3.812-2.8735   c-0.0734-0.2892,0.1062-0.6343,0.6294-0.6343c1.3345,0,2.7643,1.7954,6.7334,1.7954c9.6198-0.2768,6.0768-1.298,7.5098,3.2969   C58.0647,21.2387,58.3928,22.2895,55.9602,23.5254z"></path><path d="M28.7205,37.8066l-1.5615-1.249c-0.3921,0.4902-0.7349,0.9756-1.0801,1.4648l1.6626,1.1128   C28.0369,38.7163,28.3557,38.2631,28.7205,37.8066z"></path><path d="M34.8069,33.7583l-0.623-1.9004c-0.6914,0.2266-1.3545,0.4863-1.9707,0.7729l0.8428,1.8135   C33.6008,34.1914,34.1902,33.9604,34.8069,33.7583z"></path><path d="M31.429,35.3398l-1.0898-1.6768c-0.6099,0.3965-1.1855,0.8398-1.7104,1.3174l1.3457,1.4795   C30.4202,36.0547,30.9094,35.6777,31.429,35.3398z"></path><rect x="7.5549" y="6.2402" width="2" height="2"></rect><rect x="11.5549" y="6.2402" width="2" height="2"></rect><rect x="15.5549" y="6.2402" width="2" height="2"></rect><rect x="89.134" y="17.4819" width="2" height="2"></rect><rect x="85.134" y="17.4819" width="2" height="2"></rect><rect x="93.134" y="17.4819" width="2" height="2"></rect><rect x="82.1316" y="82.1255" width="2" height="2"></rect><rect x="90.1316" y="82.1255" width="2" height="2"></rect><rect x="86.1316" y="82.1255" width="2" height="2"></rect><rect x="25.9734" y="91.9497" width="2" height="2"></rect><rect x="21.9734" y="91.9497" width="2" height="2"></rect><rect x="17.9734" y="91.9497" width="2" height="2"></rect><polygon points="6.6106,18.9873 8.4807,18.9873 8.4807,20.8579 10.4807,20.8579 10.4807,18.9873 12.3508,18.9873 12.3508,16.9873    10.4807,16.9873 10.4807,15.1172 8.4807,15.1172 8.4807,16.9873 6.6106,16.9873  "></polygon><polygon points="95.0417,70.0776 93.1711,70.0776 93.1711,68.2075 91.1711,68.2075 91.1711,70.0776 89.301,70.0776 89.301,72.0776    91.1711,72.0776 91.1711,73.9482 93.1711,73.9482 93.1711,72.0776 95.0417,72.0776  "></polygon><polygon points="33.5515,7.2402 33.5515,5.3701 35.4216,5.3701 35.4216,3.3701 33.5515,3.3701 33.5515,1.5 31.5515,1.5    31.5515,3.3701 29.6809,3.3701 29.6809,5.3701 31.5515,5.3701 31.5515,7.2402  "></polygon><polygon points="85.4309,4.3701 85.4309,6.2402 83.5608,6.2402 83.5608,8.2402 85.4309,8.2402 85.4309,10.1103 87.4309,10.1103    87.4309,8.2402 89.301,8.2402 89.301,6.2402 87.4309,6.2402 87.4309,4.3701  "></polygon><polygon points="10.7625,79.542 10.7625,81.4121 8.8918,81.4121 8.8918,83.4121 10.7625,83.4121 10.7625,85.2827 12.7625,85.2827    12.7625,83.4121 14.6326,83.4121 14.6326,81.4121 12.7625,81.4121 12.7625,79.542  "></polygon></g></svg>