<?xml version="1.0" encoding="UTF-8" standalone="no"?>
<svg
   xmlns:dc="http://purl.org/dc/elements/1.1/"
   xmlns:cc="http://creativecommons.org/ns#"
   xmlns:rdf="http://www.w3.org/1999/02/22-rdf-syntax-ns#"
   xmlns:svg="http://www.w3.org/2000/svg"
   xmlns="http://www.w3.org/2000/svg"
   xmlns:sodipodi="http://sodipodi.sourceforge.net/DTD/sodipodi-0.dtd"
   xmlns:inkscape="http://www.inkscape.org/namespaces/inkscape"
   height="84.091019"
   width="84.178673"
   version="1.1"
   x="0px"
   y="0px"
   viewBox="0 0 82.495099 82.409198"
   enable-background="new 0 0 98 98"
   xml:space="preserve"
   id="svg68"
   sodipodi:docname="i_earth_black.svg"
   style="fill:#000000"
   inkscape:version="0.92.3 (2405546, 2018-03-11)"><metadata
     id="metadata74"><rdf:RDF><cc:Work
         rdf:about=""><dc:format>image/svg+xml</dc:format><dc:type
           rdf:resource="http://purl.org/dc/dcmitype/StillImage" /><dc:title></dc:title></cc:Work></rdf:RDF></metadata><defs
     id="defs72" /><sodipodi:namedview
     pagecolor="#ffffff"
     bordercolor="#666666"
     borderopacity="1"
     objecttolerance="10"
     gridtolerance="10"
     guidetolerance="10"
     inkscape:pageopacity="0"
     inkscape:pageshadow="2"
     inkscape:window-width="1853"
     inkscape:window-height="1025"
     id="namedview70"
     showgrid="false"
     fit-margin-top="0"
     fit-margin-left="0"
     fit-margin-right="0"
     fit-margin-bottom="0"
     inkscape:zoom="6.675088"
     inkscape:cx="42.034796"
     inkscape:cy="43.340918"
     inkscape:window-x="67"
     inkscape:window-y="27"
     inkscape:window-maximized="1"
     inkscape:current-layer="g66" /><g
     id="g66"
     transform="translate(-7.8059,-9.0649)"><path
       d="m 44.55,63.4497 c -0.2656,-1.189 -0.7417,-1.8745 -2.606,-2.3193 -6.8141,-1.6262 -9.333,-6.9908 -13.1162,-4.6919 -1.6792,1.02 -1.9404,3.0581 -1.9746,4.9175 -0.1724,9.4819 3.4351,11.3145 5.8223,12.5273 3.5117,1.7825 0.5784,1.9034 5.5195,9.9771 1.6833,2.7529 2.1064,4.3633 4.2051,4.3633 3.6925,0 2.352,-3.5893 2.4609,-4.3037 0.0547,-0.3589 0.4482,-0.7085 0.9038,-1.1128 3.2698,-2.9034 0.2178,-4.252 2.9072,-4.3779 2.9067,-0.1369 3.6462,-1.6007 2.9692,-4.4082 -0.8927,-3.6759 3.1302,-3.4591 2.6826,-5.7695 -0.5607,-2.8948 -9.083,-1.6935 -9.7738,-4.8019 z m 4.9683,10.1645 c 0.2565,2.0519 1.1271,2.7201 -0.9395,2.8169 -3.8887,0.1814 -2.9309,2.8935 -3.2227,3.8096 -0.4398,1.386 -2.9453,1.3767 -2.4009,4.9824 0.0435,0.2861 0.1157,0.7656 0.0786,0.8711 -1.4067,0.2871 -0.8606,0.4378 -3.1328,-3.2778 -4.7271,-7.7239 -1.8404,-8.4421 -6.3198,-10.7163 -2.1733,-1.104 -4.8779,-2.478 -4.728,-10.7075 0.0286,-1.5717 0.2336,-3.5024 1.8525,-3.5024 0.8271,0 1.8677,0.6958 3.1855,1.5767 7.5047,5.0156 8.3518,2.8281 8.7065,4.4185 0.9269,4.1389 6.6515,3.5627 9.5396,4.7627 -0.4101,0.3574 -3.0222,1.768 -2.619,4.9661 z"
       id="path14"
       inkscape:connector-curvature="0"
       style="fill:#252424;fill-opacity:1" /><path
       d="m 90.301,50.2739 c 0,-22.6817 -18.3367,-41.209 -41.2002,-41.209 -13.3888,0 -21.4187,6.2706 -23.0599,7.054 l -0.0095,-2e-4 C 15.954,23.2571 10.463,32.4648 8.5839,42.7517 7.865,46.6875 7.9116,49.5004 7.8059,51.063 L 7.909,50.9515 c 0.3648,22.4053 18.6964,40.5226 41.1918,40.5226 8.3787,0 16.4198,-2.4997 23.2979,-7.2229 l 0.0117,0.0046 0.4438,-0.3135 C 83.7886,76.2178 90.301,63.6266 90.301,50.2739 Z M 72.1807,81.9466 C 71.3968,81.3982 71.037,80.3815 71.3528,79.4375 75.1039,68.2321 76.0706,66.722 73.9514,63.7793 72.8098,62.1939 71.0349,61.2842 68.9939,61.2842 h -0.002 c -0.564,0 -1.2031,0 -1.6265,-0.2422 -0.418,-0.2329 -0.7397,-0.7783 -1.0479,-1.2998 -3.7671,-6.4907 -2.9458,-8.3643 0.5718,-12.4688 2.0566,-2.3823 4.1216,-4.542 6.7627,-4.7949 2.3379,-0.2217 3.124,0.8208 4.0039,2.0576 2.2843,3.2087 3.5078,2.0122 6.2896,2.0044 2.3227,-0.0085 3.3419,-3.0698 1.3999,-4.3823 -1.19,-0.8038 -2.5198,-0.9487 -3.5513,-1.5107 -1.673,-0.9163 -3.7291,-4.3667 -6.6284,-4.3667 -1.2801,0 -1.8628,0.5749 -2.8706,1.0103 -0.6731,-0.0856 -2.2412,-2.4222 -0.2896,-3.9263 1.9992,-1.5399 2.1857,-4.0699 1.0405,-5.4766 -0.3706,-2.0229 -2.6833,-1.9768 -2.5801,-3.7041 l 0.0181,-0.3008 c 0.1043,-1.7318 1.8552,-3.0366 3.5615,-2.4146 1.0294,0.3755 2.0447,0.8215 3.0202,1.3267 6.9873,7.1204 11.2353,16.8457 11.2353,27.4785 0,12.4713 -5.9911,24.28 -16.1203,31.6727 z M 27.0872,30.1699 c 0.3633,0.7139 1.0879,1.1748 1.8462,1.1748 1.5839,0 2.0636,-1.5021 2.3374,-2.9575 0.8266,-4.3897 1.9349,-0.4307 4.5996,-1.0195 0.5331,-0.1216 0.9459,-0.4009 1.0942,-0.438 0.0755,0.1002 1.6076,1.4342 4.3628,6.2861 0.4385,0.7622 0.3916,1.0186 0.395,1.0186 -0.6465,0.8839 -7.0364,0.1707 -10.8359,4.1577 -1.4467,1.5147 -2.254,3.4723 -3.7383,4.3843 -1.3555,0.8996 -2.4175,1.2902 -2.0513,3.7563 0.0647,0.4567 0.2109,1.2473 -0.0278,1.5005 -0.2704,-0.4783 -0.6875,-2.4668 -3.2964,-2.4668 -2.5327,0 -5.2949,2.2153 -5.3706,5.5132 -0.0518,2.2233 2.1776,3.7799 4.793,2.5405 0.1001,-0.0449 0.21,-0.0869 0.3169,-0.123 -0.119,1.2538 0.078,3.5278 -0.355,3.8569 -0.001,-10e-4 -0.1455,0.0718 -0.7104,-0.2129 -5.7506,-2.9273 -4.9751,-8.9657 -5.3423,-10.2974 -0.6553,-2.2824 -2.859,-3.255 -4.8828,-1.5905 1.4083,-10.9077 7.3406,-20.7501 16.3787,-27.0938 2.073,0.2613 6.6325,0.6075 7.5012,1.2999 -0.0557,0.0889 -0.1724,0.2422 -0.4131,0.4604 -6.1595,5.4967 -9.5773,4.2173 -9.5015,7.0225 0.0589,2.2069 2.3872,2.2207 2.9004,3.2277 z M 9.9391,48.7218 c 0.6751,-0.8369 2.5183,-3.8512 3.2383,-1.3424 0.2438,1.0269 -0.391,8.1062 6.3652,11.5459 4.4765,2.2553 3.8613,-4.2613 3.9409,-5.0474 0.2472,-2.3954 -1.0086,-3.021 -3.1245,-2.0747 -3.4142,1.6191 -2.0065,-4.2368 1.4136,-4.2368 1.6795,0 0.966,1.5972 2.4399,2.3184 0.9482,0.4663 2.186,-0.0127 2.6909,-1.0205 0.4334,-0.8648 0.3008,-1.7151 0.1738,-2.6123 -0.1646,-1.1066 -0.1098,-1.0526 1.1152,-1.77 1.9459,-1.1955 2.8093,-3.3147 4.1411,-4.709 5.629,-5.9086 18.0662,1.1776 6.7319,-13.5713 -0.4277,-0.5449 -1.1084,-1.2695 -2.0815,-1.2695 -1.5626,0 -0.93,1.0406 -2.6392,0.062 -4.5667,-2.6149 -4.8448,2.683 -5.418,4.3389 -0.1974,-0.1535 -0.1465,-0.8058 -1.9736,-1.7783 -0.6904,-0.3672 -0.7617,-0.4541 -0.7822,-0.6665 0.4598,-0.6057 3.8494,-1.0143 8.855,-5.4814 0.9531,-0.8643 1.3013,-1.7183 1.0347,-2.5381 -0.5059,-1.554 -2.9117,-1.9883 -6.7899,-2.4194 13.5445,-7.9741 31.0187,-7.1621 43.8767,2.8635 -2.4641,0.009 -4.5096,1.9596 -4.6596,4.4504 L 68.47,24.0639 c -0.1807,2.9954 2.5939,3.3786 2.6191,4.2891 l 0.0112,0.4238 c 0.1806,0.2348 0.6885,0.3504 0.6489,1.2793 -0.0273,0.645 -0.3789,1.2734 -0.9644,1.7246 -3.4541,2.6609 -1.0493,7.3279 1.3599,7.5044 l 0.1621,0.0063 c 2.3323,0 1.9815,-2.9389 6.2471,1.2207 3.3721,3.2908 3.8377,2.0638 5.6714,3.3032 0.2964,0.2005 0.0889,0.7238 -0.2866,0.7251 -1.1248,0.0035 -2.7306,0.445 -3.4868,0.0928 -1.4008,-0.6568 -1.9957,-4.6396 -6.9917,-4.1455 -3.375,0.3232 -5.8447,2.8838 -8.0869,5.4814 -4.188,4.8862 -4.8887,7.707 -0.7817,14.7832 2.6906,4.56 5.276,0.7754 7.7368,4.1958 1.4623,2.0304 0.9073,2.5668 -2.8721,13.8545 -0.5229,1.5626 -0.0709,3.2279 1.0359,4.3248 C 64.1237,87.2838 56.7599,89.474 49.1008,89.474 27.0458,89.4741 9.0525,71.13 9.9391,48.7218 Z"
       id="path16"
       inkscape:connector-curvature="0"
       style="fill:#252424;fill-opacity:1" /><path
       d="m 55.7512,14.3335 c -7.2727,0.5046 -7.4584,0.3157 -9.209,-0.4917 -1.9093,-0.8809 -3.9709,-1.7783 -5.2617,-0.0288 -1.9005,2.5754 1.5496,4.9598 4.4604,6.3228 2.8465,1.3323 0.9546,1.7427 0.2788,3.5088 -1.2054,3.1458 3.3275,9.8204 6.5449,5.2705 1.5159,-2.1425 0.5526,-1.7834 4.3018,-3.6064 3.939,-2.0015 3.1279,-4.5996 2.6924,-5.9956 -0.7371,-2.3675 0.2558,-5.261 -3.8076,-4.9796 z m 0.209,9.1919 c -4.4249,2.2482 -3.2721,1.7523 -5.0283,4.2344 -1.5709,2.2222 -3.4332,-2.3855 -3.0444,-3.3999 0.2582,-0.6757 3.6703,-3.708 -1.2983,-6.0356 -2.5791,-1.2075 -3.6602,-2.2759 -3.812,-2.8735 -0.0734,-0.2892 0.1062,-0.6343 0.6294,-0.6343 1.3345,0 2.7643,1.7954 6.7334,1.7954 9.6198,-0.2768 6.0768,-1.298 7.5098,3.2969 0.4149,1.3299 0.743,2.3807 -1.6896,3.6166 z"
       id="path24"
       inkscape:connector-curvature="0"
       style="fill:#252424;fill-opacity:1" /></g></svg>