<?xml version="1.0" encoding="UTF-8" standalone="no"?>
<svg
   xmlns:dc="http://purl.org/dc/elements/1.1/"
   xmlns:cc="http://creativecommons.org/ns#"
   xmlns:rdf="http://www.w3.org/1999/02/22-rdf-syntax-ns#"
   xmlns:svg="http://www.w3.org/2000/svg"
   xmlns="http://www.w3.org/2000/svg"
   height="100px"
   width="100px"
   fill="#000000"
   data-name="Layer 1"
   viewBox="0 0 62.36 72.57"
   x="0px"
   y="0px"
   version="1.1"
   id="svg12">
  <metadata
     id="metadata18">
    <rdf:RDF>
      <cc:Work
         rdf:about="">
        <dc:format>image/svg+xml</dc:format>
        <dc:type
           rdf:resource="http://purl.org/dc/dcmitype/StillImage" />
        <dc:title>79</dc:title>
      </cc:Work>
    </rdf:RDF>
  </metadata>
  <defs
     id="defs16" />
  <title
     id="title2">79</title>
  <g
     transform="matrix(0.7257,0,0,0.7257,84.10995,-34.967029)"
     id="g831"
     style="fill:#000000;stroke-width:5;stroke-miterlimit:4;stroke-dasharray:none">
    <path
       d="m -36.545878,55.807071 c -10.258335,-3.831918 -36.185994,-4.057325 -36.185994,-4.057325 0,0 -26.040388,0.225407 -36.298728,4.057325 -10.25833,3.831918 -8.68013,11.270347 -8.68013,11.270347 v 62.325032 c 0,4.84625 3.94551,8.67816 8.68013,8.67816 h 1.01456 v 3.94462 c 0,1.57785 1.35275,2.93029 2.93095,2.93029 h 11.385632 c 1.578206,0 2.930954,-1.35244 2.930954,-2.93029 v -3.94462 h 18.036632 18.036632 v 3.94462 c 0,1.57785 1.352748,2.93029 2.930953,2.93029 h 11.385624 c 1.578206,0 2.930953,-1.35244 2.930953,-2.93029 v -3.94462 h 1.014561 c 4.847345,0 8.680129,-3.94462 8.680129,-8.67816 V 66.964714 c -0.112728,0 1.465477,-7.325725 -8.792858,-11.157643 z m -53.15358,64.579089 c 0,1.46515 -1.127289,2.59219 -2.592765,2.59219 H -102.3251 c -1.46548,0 -2.59277,-1.12704 -2.59277,-2.59219 v -5.40976 c 0,-0.78892 0.33819,-1.57785 1.01456,-2.02866 0.67637,-0.45081 1.46548,-0.67623 2.25458,-0.45081 l 10.03288,2.70487 c 1.12729,0.33811 1.916392,1.35245 1.916392,2.47949 z m -13.527482,-17.46903 c -0.90183,0 -1.5782,-0.67623 -1.5782,-1.57785 V 69.669597 c 0,-0.901627 0.67637,-1.577848 1.5782,-1.577848 h 60.651941 c 0.901831,0 1.578206,0.676221 1.578206,1.577848 v 31.669683 c 0,0.90162 -0.676861,1.54826 -1.578206,1.57785 z m 62.568333,17.46903 c 0,1.46515 -1.127289,2.59219 -2.592766,2.59219 H -53.28425 c -1.465476,0 -2.592766,-1.12704 -2.592766,-2.59219 v -2.70487 c 0,-1.12704 0.789103,-2.14138 1.916392,-2.47949 l 10.032877,-2.70487 c 0.789103,-0.22542 1.578206,0 2.254579,0.45081 0.676375,0.45081 1.014561,1.23974 1.014561,2.02866 z"
       id="path6"
       style="fill:none;fill-opacity:1;stroke:#ffffff;stroke-width:5;stroke-miterlimit:4;stroke-dasharray:none;stroke-opacity:1" />
    <path
       id="path881"
       d="m -71.611724,77.319596 -5.048867,7.677545 h 7.817601 l -5.048868,7.852034"
       style="fill:none;stroke:#ffffff;stroke-width:5;stroke-linecap:round;stroke-linejoin:round;stroke-miterlimit:4;stroke-dasharray:none;stroke-opacity:1" />
  </g>
</svg>
