<?xml version="1.0" encoding="UTF-8" standalone="no"?>
<svg
   xmlns:dc="http://purl.org/dc/elements/1.1/"
   xmlns:cc="http://creativecommons.org/ns#"
   xmlns:rdf="http://www.w3.org/1999/02/22-rdf-syntax-ns#"
   xmlns:svg="http://www.w3.org/2000/svg"
   xmlns="http://www.w3.org/2000/svg"
   xmlns:sodipodi="http://sodipodi.sourceforge.net/DTD/sodipodi-0.dtd"
   xmlns:inkscape="http://www.inkscape.org/namespaces/inkscape"
   id="svg8"
   xml:space="preserve"
   style="fill:#000000"
   viewBox="0 0 123.24024 105.72657"
   y="0px"
   x="0px"
   version="1.1"
   width="123.24024"
   height="105.72657"
   sodipodi:docname="i_ebus_black.svg"
   inkscape:version="0.92.3 (2405546, 2018-03-11)"><sodipodi:namedview
     pagecolor="#ffffff"
     bordercolor="#666666"
     borderopacity="1"
     objecttolerance="10"
     gridtolerance="10"
     guidetolerance="10"
     inkscape:pageopacity="0"
     inkscape:pageshadow="2"
     inkscape:window-width="1853"
     inkscape:window-height="1025"
     id="namedview10"
     showgrid="false"
     inkscape:zoom="2.36"
     inkscape:cx="46.651934"
     inkscape:cy="40.476768"
     inkscape:window-x="67"
     inkscape:window-y="27"
     inkscape:window-maximized="1"
     inkscape:current-layer="svg8"
     fit-margin-top="10"
     fit-margin-left="10"
     fit-margin-right="10"
     fit-margin-bottom="10" /><metadata
     id="metadata14"><rdf:RDF><cc:Work
         rdf:about=""><dc:format>image/svg+xml</dc:format><dc:type
           rdf:resource="http://purl.org/dc/dcmitype/StillImage" /><dc:title></dc:title></cc:Work></rdf:RDF></metadata><defs
     id="defs12" /><path
     style="color:#000000;font-style:normal;font-variant:normal;font-weight:normal;font-stretch:normal;font-size:medium;line-height:normal;font-family:sans-serif;font-variant-ligatures:normal;font-variant-position:normal;font-variant-caps:normal;font-variant-numeric:normal;font-variant-alternates:normal;font-feature-settings:normal;text-indent:0;text-align:start;text-decoration:none;text-decoration-line:none;text-decoration-style:solid;text-decoration-color:#000000;letter-spacing:normal;word-spacing:normal;text-transform:none;writing-mode:lr-tb;direction:ltr;text-orientation:mixed;dominant-baseline:auto;baseline-shift:baseline;text-anchor:start;white-space:normal;shape-padding:0;clip-rule:nonzero;display:inline;overflow:visible;visibility:visible;opacity:1;isolation:auto;mix-blend-mode:normal;color-interpolation:sRGB;color-interpolation-filters:linearRGB;solid-color:#000000;solid-opacity:1;vector-effect:none;fill:#000000;fill-opacity:1;fill-rule:nonzero;stroke:none;stroke-width:2.5;stroke-linecap:butt;stroke-linejoin:miter;stroke-miterlimit:4;stroke-dasharray:none;stroke-dashoffset:0;stroke-opacity:1;color-rendering:auto;image-rendering:auto;shape-rendering:auto;text-rendering:auto;enable-background:accumulate"
     d="m 61.96875,10.000004 c -7.33928,-8.54e-4 -14.77517,0.631453 -23.60156,1.898437 -8.95255,1.285095 -13.39198,3.741966 -15.62109,6.117187 -1.11456,1.187612 -1.65247,2.353235 -1.88477,3.244141 -0.2323,0.890907 -0.14844,1.628906 -0.14844,1.628906 L 20.69919,22.7168 v 60.447266 c 7e-5,0.0031 0.0408,1.754649 1.40235,3.3125 1.2341,1.412003 3.50822,2.665426 7.3496,2.929688 v 2.373049 c 0,2.16479 1.78248,3.94726 3.94727,3.94726 h 9.91406 c 2.16479,0 3.94531,-1.78247 3.94531,-3.94726 V 89.49805 c 9.402,-0.0056 20.21041,-0.03176 29.49415,-0.07031 v 2.351563 c 0,2.16479 1.78247,3.94727 3.94726,3.94727 h 9.91211 c 2.16479,0 3.94727,-1.78248 3.94727,-3.94727 V 89.20313 c 3.29979,-0.368456 5.33624,-1.538674 6.49414,-2.828124 1.36673,-1.522019 1.47851,-3.230469 1.47851,-3.230469 l 0.002,-0.02734 V 22.646488 l -0.002,0.05859 c 0,0 0.015,-0.720676 -0.27344,-1.585938 -0.28844,-0.865262 -0.87917,-1.994364 -2.01757,-3.158203 -2.2768,-2.327677 -6.67598,-4.778894 -15.2461,-6.0625 C 76.55038,10.633761 69.308,10.000854 61.96872,10 Z m -0.004,2.492187 c 7.19887,6.62e-4 14.30155,0.62698 22.66015,1.878906 8.23222,1.232996 12.06881,3.539258 13.82813,5.337891 0.87966,0.899316 1.25864,1.676355 1.43359,2.201172 0.17495,0.524817 0.14844,0.677734 0.14844,0.677734 l -0.002,0.0293 v 60.421872 c 2e-5,0.0034 0.005,0.725703 -0.83985,1.666016 -0.84635,0.942514 -2.59464,2.066959 -6.56836,2.123046 -8.37748,0.118246 -53.21271,0.235086 -61.91015,0.138672 -0.005,-5.4e-5 -0.009,5.8e-5 -0.0137,0 -4.13156,-0.04846 -5.89369,-1.193017 -6.71679,-2.134765 -0.82375,-0.942862 -0.78499,-1.667969 -0.78499,-1.667969 V 22.630863 l -0.0117,-0.08594 c 0,0 -0.0396,-0.144851 0.0937,-0.65625 0.13335,-0.511399 0.44965,-1.269757 1.28711,-2.162109 1.67493,-1.784704 5.53283,-4.115946 14.1543,-5.353516 8.74763,-1.255679 16.04332,-1.88152 23.24219,-1.880859 z M 31.95107,89.47266 c 4.52756,0.0094 8.43133,0.0531 12.80664,0.0625 v 2.244143 c 0,0.82303 -0.62228,1.44726 -1.44531,1.44726 h -9.91406 c -0.82303,0 -1.44727,-0.62423 -1.44727,-1.44726 z m 47.30079,0 c 4.52756,0.0094 8.43131,0.0531 12.80664,0.0625 v 2.244143 c 0,0.82303 -0.62424,1.44726 -1.44727,1.44726 h -9.91211 c -0.82303,0 -1.44726,-0.62423 -1.44726,-1.44726 z"
     id="path817"
     inkscape:connector-curvature="0" /><path
     style="color:#000000;font-style:normal;font-variant:normal;font-weight:normal;font-stretch:normal;font-size:medium;line-height:normal;font-family:sans-serif;font-variant-ligatures:normal;font-variant-position:normal;font-variant-caps:normal;font-variant-numeric:normal;font-variant-alternates:normal;font-feature-settings:normal;text-indent:0;text-align:start;text-decoration:none;text-decoration-line:none;text-decoration-style:solid;text-decoration-color:#000000;letter-spacing:normal;word-spacing:normal;text-transform:none;writing-mode:lr-tb;direction:ltr;text-orientation:mixed;dominant-baseline:auto;baseline-shift:baseline;text-anchor:start;white-space:normal;shape-padding:0;clip-rule:nonzero;display:inline;overflow:visible;visibility:visible;opacity:1;isolation:auto;mix-blend-mode:normal;color-interpolation:sRGB;color-interpolation-filters:linearRGB;solid-color:#000000;solid-opacity:1;vector-effect:none;fill:#000000;fill-opacity:1;fill-rule:nonzero;stroke:none;stroke-width:2.5;stroke-linecap:round;stroke-linejoin:miter;stroke-miterlimit:4;stroke-dasharray:none;stroke-dashoffset:0;stroke-opacity:1;paint-order:fill markers stroke;color-rendering:auto;image-rendering:auto;shape-rendering:auto;text-rendering:auto;enable-background:accumulate"
     d="M 13.94727,32.703128 C 11.78248,32.703128 10,34.48365 10,36.648441 V 47.28516 c 0,2.164791 1.78248,3.947265 3.94727,3.947265 h 1.34765 c 2.16479,0 3.94532,-1.782474 3.94532,-3.947265 V 36.648441 c 0,-2.164791 -1.78053,-3.945312 -3.94532,-3.945313 z m 0,2.5 h 1.34765 c 0.82303,0 1.44532,0.622278 1.44532,1.445313 V 47.28516 c 0,0.823035 -0.62229,1.447265 -1.44532,1.447265 H 13.94727 C 13.12424,48.732425 12.5,48.108195 12.5,47.28516 V 36.648441 c 0,-0.823035 0.62424,-1.445313 1.44727,-1.445313 z"
     id="rect848"
     inkscape:connector-curvature="0" /><path
     style="color:#000000;font-style:normal;font-variant:normal;font-weight:normal;font-stretch:normal;font-size:medium;line-height:normal;font-family:sans-serif;font-variant-ligatures:normal;font-variant-position:normal;font-variant-caps:normal;font-variant-numeric:normal;font-variant-alternates:normal;font-feature-settings:normal;text-indent:0;text-align:start;text-decoration:none;text-decoration-line:none;text-decoration-style:solid;text-decoration-color:#000000;letter-spacing:normal;word-spacing:normal;text-transform:none;writing-mode:lr-tb;direction:ltr;text-orientation:mixed;dominant-baseline:auto;baseline-shift:baseline;text-anchor:start;white-space:normal;shape-padding:0;clip-rule:nonzero;display:inline;overflow:visible;visibility:visible;opacity:1;isolation:auto;mix-blend-mode:normal;color-interpolation:sRGB;color-interpolation-filters:linearRGB;solid-color:#000000;solid-opacity:1;vector-effect:none;fill:#000000;fill-opacity:1;fill-rule:nonzero;stroke:none;stroke-width:2.5;stroke-linecap:round;stroke-linejoin:miter;stroke-miterlimit:4;stroke-dasharray:none;stroke-dashoffset:0;stroke-opacity:1;paint-order:fill markers stroke;color-rendering:auto;image-rendering:auto;shape-rendering:auto;text-rendering:auto;enable-background:accumulate"
     d="M 107.94727,32.703128 C 105.78248,32.703128 104,34.48365 104,36.648441 V 47.28516 c 0,2.164791 1.78248,3.947265 3.94727,3.947265 h 1.34765 c 2.16479,0 3.94532,-1.782474 3.94532,-3.947265 V 36.648441 c 0,-2.164791 -1.78053,-3.945312 -3.94532,-3.945313 z m 0,2.5 h 1.34765 c 0.82303,0 1.44532,0.622278 1.44532,1.445313 V 47.28516 c 0,0.823035 -0.62229,1.447265 -1.44532,1.447265 h -1.34765 c -0.82303,0 -1.44727,-0.62423 -1.44727,-1.447265 V 36.648441 c 0,-0.823035 0.62424,-1.445312 1.44727,-1.445313 z"
     id="rect850"
     inkscape:connector-curvature="0" /><path
     style="color:#000000;font-style:normal;font-variant:normal;font-weight:normal;font-stretch:normal;font-size:medium;line-height:normal;font-family:sans-serif;font-variant-ligatures:normal;font-variant-position:normal;font-variant-caps:normal;font-variant-numeric:normal;font-variant-alternates:normal;font-feature-settings:normal;text-indent:0;text-align:start;text-decoration:none;text-decoration-line:none;text-decoration-style:solid;text-decoration-color:#000000;letter-spacing:normal;word-spacing:normal;text-transform:none;writing-mode:lr-tb;direction:ltr;text-orientation:mixed;dominant-baseline:auto;baseline-shift:baseline;text-anchor:start;white-space:normal;shape-padding:0;clip-rule:nonzero;display:inline;overflow:visible;visibility:visible;opacity:1;isolation:auto;mix-blend-mode:normal;color-interpolation:sRGB;color-interpolation-filters:linearRGB;solid-color:#000000;solid-opacity:1;vector-effect:none;fill:#000000;fill-opacity:1;fill-rule:nonzero;stroke:none;stroke-width:2.5;stroke-linecap:round;stroke-linejoin:miter;stroke-miterlimit:4;stroke-dasharray:none;stroke-dashoffset:0;stroke-opacity:1;paint-order:fill markers stroke;color-rendering:auto;image-rendering:auto;shape-rendering:auto;text-rendering:auto;enable-background:accumulate"
     d="m 32.37696,26.56055 c -2.16479,0 -3.94727,1.780523 -3.94727,3.945313 v 26.517578 c 0,2.164789 1.78248,3.947266 3.94727,3.947266 h 58.42578 c 2.16479,0 3.94531,-1.782477 3.94531,-3.947266 V 30.505863 c 0,-2.16479 -1.78052,-3.945313 -3.94531,-3.945313 z m 0,2.5 h 58.42578 c 0.82303,0 1.44531,0.622281 1.44531,1.445313 v 26.517578 c 0,0.823031 -0.62228,1.447266 -1.44531,1.447266 H 32.37696 c -0.82304,0 -1.44727,-0.624235 -1.44727,-1.447266 V 30.505863 c 0,-0.823032 0.62423,-1.445313 1.44727,-1.445313 z"
     id="rect852"
     inkscape:connector-curvature="0" /><path
     style="color:#000000;font-style:normal;font-variant:normal;font-weight:normal;font-stretch:normal;font-size:medium;line-height:normal;font-family:sans-serif;font-variant-ligatures:normal;font-variant-position:normal;font-variant-caps:normal;font-variant-numeric:normal;font-variant-alternates:normal;font-feature-settings:normal;text-indent:0;text-align:start;text-decoration:none;text-decoration-line:none;text-decoration-style:solid;text-decoration-color:#000000;letter-spacing:normal;word-spacing:normal;text-transform:none;writing-mode:lr-tb;direction:ltr;text-orientation:mixed;dominant-baseline:auto;baseline-shift:baseline;text-anchor:start;white-space:normal;shape-padding:0;clip-rule:nonzero;display:inline;overflow:visible;visibility:visible;opacity:1;isolation:auto;mix-blend-mode:normal;color-interpolation:sRGB;color-interpolation-filters:linearRGB;solid-color:#000000;solid-opacity:1;vector-effect:none;fill:#000000;fill-opacity:1;fill-rule:nonzero;stroke:none;stroke-width:2.4231956;stroke-linecap:butt;stroke-linejoin:round;stroke-miterlimit:4;stroke-dasharray:none;stroke-dashoffset:0;stroke-opacity:1;color-rendering:auto;image-rendering:auto;shape-rendering:auto;text-rendering:auto;enable-background:accumulate"
     d="m 60.57617,30.417972 a 1.211719,1.211719 0 0 0 -1.00586,0.535156 L 50.70313,44.1543 a 1.211719,1.211719 0 0 0 1.0039,1.886719 h 5.98633 l -3.17578,9.679688 a 1.211719,1.211719 0 0 0 2.00586,1.236328 L 72.71485,40.859378 a 1.211719,1.211719 0 0 0 -0.85352,-2.070312 h -6.58984 l 4.36914,-6.482422 a 1.211719,1.211719 0 0 0 -1.00391,-1.888672 z m 0.64454,2.421875 h 5.13671 l -4.36914,6.482422 a 1.211719,1.211719 0 0 0 1.00586,1.888672 h 5.92969 l -10.5293,10.46875 2.12305,-6.472656 a 1.211719,1.211719 0 0 0 -1.15234,-1.589844 h -5.38282 z"
     id="path854"
     inkscape:connector-curvature="0" /><path
     style="color:#000000;font-style:normal;font-variant:normal;font-weight:normal;font-stretch:normal;font-size:medium;line-height:normal;font-family:sans-serif;font-variant-ligatures:normal;font-variant-position:normal;font-variant-caps:normal;font-variant-numeric:normal;font-variant-alternates:normal;font-feature-settings:normal;text-indent:0;text-align:start;text-decoration:none;text-decoration-line:none;text-decoration-style:solid;text-decoration-color:#000000;letter-spacing:normal;word-spacing:normal;text-transform:none;writing-mode:lr-tb;direction:ltr;text-orientation:mixed;dominant-baseline:auto;baseline-shift:baseline;text-anchor:start;white-space:normal;shape-padding:0;clip-rule:nonzero;display:inline;overflow:visible;visibility:visible;opacity:1;isolation:auto;mix-blend-mode:normal;color-interpolation:sRGB;color-interpolation-filters:linearRGB;solid-color:#000000;solid-opacity:1;vector-effect:none;fill:#000000;fill-opacity:1;fill-rule:nonzero;stroke:none;stroke-width:2.5;stroke-linecap:round;stroke-linejoin:miter;stroke-miterlimit:4;stroke-dasharray:none;stroke-dashoffset:0;stroke-opacity:1;paint-order:fill markers stroke;color-rendering:auto;image-rendering:auto;shape-rendering:auto;text-rendering:auto;enable-background:accumulate"
     d="m 56.64453,15.375004 c -2.16479,0 -3.94531,1.782475 -3.94531,3.947265 v 0.898438 c 0,2.16479 1.78052,3.947265 3.94531,3.947265 h 10.9375 c 2.16479,0 3.94532,-1.782475 3.94532,-3.947265 v -0.898438 c 0,-2.16479 -1.78053,-3.947265 -3.94532,-3.947265 z m 0,2.5 h 10.9375 c 0.82303,0 1.44532,0.624233 1.44532,1.447265 v 0.898438 c 0,0.823032 -0.62229,1.447265 -1.44532,1.447265 h -10.9375 c -0.82303,0 -1.44531,-0.624233 -1.44531,-1.447265 v -0.898438 c 0,-0.823032 0.62228,-1.447265 1.44531,-1.447265 z"
     id="rect856"
     inkscape:connector-curvature="0" /><path
     style="color:#000000;font-style:normal;font-variant:normal;font-weight:normal;font-stretch:normal;font-size:medium;line-height:normal;font-family:sans-serif;font-variant-ligatures:normal;font-variant-position:normal;font-variant-caps:normal;font-variant-numeric:normal;font-variant-alternates:normal;font-feature-settings:normal;text-indent:0;text-align:start;text-decoration:none;text-decoration-line:none;text-decoration-style:solid;text-decoration-color:#000000;letter-spacing:normal;word-spacing:normal;text-transform:none;writing-mode:lr-tb;direction:ltr;text-orientation:mixed;dominant-baseline:auto;baseline-shift:baseline;text-anchor:start;white-space:normal;shape-padding:0;clip-rule:nonzero;display:inline;overflow:visible;visibility:visible;opacity:1;isolation:auto;mix-blend-mode:normal;color-interpolation:sRGB;color-interpolation-filters:linearRGB;solid-color:#000000;solid-opacity:1;vector-effect:none;fill:#000000;fill-opacity:1;fill-rule:nonzero;stroke:none;stroke-width:2.5;stroke-linecap:round;stroke-linejoin:miter;stroke-miterlimit:4;stroke-dasharray:none;stroke-dashoffset:0;stroke-opacity:1;paint-order:fill markers stroke;color-rendering:auto;image-rendering:auto;shape-rendering:auto;text-rendering:auto;enable-background:accumulate"
     d="m 33.02735,63.914066 c -0.12546,-0.03677 -0.23678,0.03201 -0.36133,0.01367 -1.09532,-0.161274 -2.14968,0.264679 -2.79688,0.970703 -0.7208,0.786311 -1.14062,1.81094 -1.14062,2.910156 v 4.945313 c 0,2.164789 1.78247,3.945312 3.94726,3.945312 h 8.83789 c 2.16558,0 3.85414,-1.793798 3.94532,-3.890625 l 0.0762,-1.724609 c 0.052,-1.196114 -0.51396,-2.216885 -1.23047,-2.990234 -0.71651,-0.77335 -1.61348,-1.347211 -2.58789,-1.632813 z m -0.70313,2.398438 8.68945,2.546874 c 0.4592,0.134591 1.05508,0.499748 1.45704,0.933594 0.40196,0.433846 0.57929,0.887207 0.5664,1.183594 l -0.0742,1.722656 c -0.0386,0.888173 -0.62697,1.5 -1.44922,1.5 H 32.6758 c -0.82303,0 -1.44726,-0.622282 -1.44726,-1.445312 v -4.945313 c 0,-0.394695 0.21332,-0.927148 0.48242,-1.220703 0.2691,-0.293554 0.40839,-0.335446 0.61328,-0.27539 z"
     id="rect858"
     inkscape:connector-curvature="0" /><path
     style="color:#000000;font-style:normal;font-variant:normal;font-weight:normal;font-stretch:normal;font-size:medium;line-height:normal;font-family:sans-serif;font-variant-ligatures:normal;font-variant-position:normal;font-variant-caps:normal;font-variant-numeric:normal;font-variant-alternates:normal;font-feature-settings:normal;text-indent:0;text-align:start;text-decoration:none;text-decoration-line:none;text-decoration-style:solid;text-decoration-color:#000000;letter-spacing:normal;word-spacing:normal;text-transform:none;writing-mode:lr-tb;direction:ltr;text-orientation:mixed;dominant-baseline:auto;baseline-shift:baseline;text-anchor:start;white-space:normal;shape-padding:0;clip-rule:nonzero;display:inline;overflow:visible;visibility:visible;opacity:1;isolation:auto;mix-blend-mode:normal;color-interpolation:sRGB;color-interpolation-filters:linearRGB;solid-color:#000000;solid-opacity:1;vector-effect:none;fill:#000000;fill-opacity:1;fill-rule:nonzero;stroke:none;stroke-width:2.5;stroke-linecap:round;stroke-linejoin:miter;stroke-miterlimit:4;stroke-dasharray:none;stroke-dashoffset:0;stroke-opacity:1;paint-order:fill markers stroke;color-rendering:auto;image-rendering:auto;shape-rendering:auto;text-rendering:auto;enable-background:accumulate"
     d="M 90.43946,63.914066 81.75,66.460941 c -0.97441,0.285602 -1.87138,0.859463 -2.58789,1.632813 -0.71651,0.773349 -1.28247,1.79412 -1.23047,2.990234 l 0.0762,1.724609 c 0.0912,2.096827 1.77974,3.890625 3.94532,3.890625 h 8.83789 c 2.16479,0 3.94726,-1.780523 3.94726,-3.945312 v -4.945313 c 0,-1.099216 -0.41982,-2.123845 -1.14062,-2.910156 -0.7208,-0.786311 -1.9295,-1.344513 -3.1582,-0.984375 z m 0.70312,2.398438 c 0.20489,-0.06006 0.34419,-0.01816 0.61328,0.27539 0.2691,0.293555 0.48242,0.826008 0.48242,1.220703 v 4.945313 c 0,0.82303 -0.62423,1.445312 -1.44726,1.445312 h -8.83789 c -0.82225,0 -1.4106,-0.611827 -1.44922,-1.5 l -0.07422,-1.722656 c -0.0129,-0.296387 0.16445,-0.749748 0.56641,-1.183594 0.40196,-0.433846 0.99784,-0.799003 1.45703,-0.933594 z"
     id="path861"
     inkscape:connector-curvature="0" /></svg>