<?xml version="1.0" encoding="UTF-8" standalone="no"?>
<svg
   xmlns:dc="http://purl.org/dc/elements/1.1/"
   xmlns:cc="http://creativecommons.org/ns#"
   xmlns:rdf="http://www.w3.org/1999/02/22-rdf-syntax-ns#"
   xmlns:svg="http://www.w3.org/2000/svg"
   xmlns="http://www.w3.org/2000/svg"
   xmlns:sodipodi="http://sodipodi.sourceforge.net/DTD/sodipodi-0.dtd"
   xmlns:inkscape="http://www.inkscape.org/namespaces/inkscape"
   id="svg8"
   xml:space="preserve"
   style="enable-background:new 0 0 100 100;"
   viewBox="0 0 100 100"
   y="0px"
   x="0px"
   version="1.1"
   fill="#000000"
   width="100px"
   height="100px"
   sodipodi:docname="i_ebus_black_line_v2.svg"
   inkscape:version="0.92.3 (2405546, 2018-03-11)"><sodipodi:namedview
     pagecolor="#ffffff"
     bordercolor="#666666"
     borderopacity="1"
     objecttolerance="10"
     gridtolerance="10"
     guidetolerance="10"
     inkscape:pageopacity="0"
     inkscape:pageshadow="2"
     inkscape:window-width="1920"
     inkscape:window-height="1052"
     id="namedview10"
     showgrid="false"
     inkscape:zoom="4.72"
     inkscape:cx="50"
     inkscape:cy="23.034063"
     inkscape:window-x="0"
     inkscape:window-y="0"
     inkscape:window-maximized="1"
     inkscape:current-layer="svg8" /><metadata
     id="metadata14"><rdf:RDF><cc:Work
         rdf:about=""><dc:format>image/svg+xml</dc:format><dc:type
           rdf:resource="http://purl.org/dc/dcmitype/StillImage" /><dc:title></dc:title></cc:Work></rdf:RDF></metadata><defs
     id="defs12" /><path
     style="fill:none;fill-opacity:1;stroke:#252424;stroke-width:3.77952766;stroke-miterlimit:4;stroke-dasharray:none;stroke-opacity:1"
     id="path6"
     d="M 82.1,13.4 C 73,10 50,9.8 50,9.8 c 0,0 -23.1,0.2 -32.2,3.6 -9.1,3.4 -7.7,10 -7.7,10 v 55.3 c 0,4.3 3.5,7.7 7.7,7.7 h 0.9 v 3.5 c 0,1.4 1.2,2.6 2.6,2.6 h 10.1 c 1.4,0 2.6,-1.2 2.6,-2.6 v -3.5 h 16 16 v 3.5 c 0,1.4 1.2,2.6 2.6,2.6 h 10.1 c 1.4,0 2.6,-1.2 2.6,-2.6 v -3.5 h 0.9 c 4.3,0 7.7,-3.5 7.7,-7.7 V 23.3 c -0.1,0 1.3,-6.5 -7.8,-9.9 z M 31.4,70.7 c 0,1.3 -1,2.3 -2.3,2.3 h -8.9 c -1.3,0 -2.3,-1 -2.3,-2.3 v -4.8 c 0,-0.7 0.3,-1.4 0.9,-1.8 0.6,-0.4 1.3,-0.6 2,-0.4 l 8.9,2.4 c 1,0.3 1.7,1.2 1.7,2.2 z M 19.4,55.2 C 18.6,55.2 18,54.6 18,53.8 V 25.7 c 0,-0.8 0.6,-1.4 1.4,-1.4 h 60.9 c 0.8,0 1.4,0.6 1.4,1.4 v 28.1 c 0,0.8 -0.600431,1.373742 -1.4,1.4 H 19.4 Z M 82,70.7 C 82,72 81,73 79.7,73 h -8.9 c -1.3,0 -2.3,-1 -2.3,-2.3 v -2.4 c 0,-1 0.7,-1.9 1.7,-2.2 l 8.9,-2.4 c 0.7,-0.2 1.4,0 2,0.4 0.6,0.4 0.9,1.1 0.9,1.8 z"
     inkscape:connector-curvature="0"
     sodipodi:nodetypes="scscsscsssscccsssscsscscsssssccscccssssssscscssssccss" /><path
     style="fill:none;stroke:#252424;stroke-width:3.77952766;stroke-linecap:round;stroke-linejoin:miter;stroke-miterlimit:4;stroke-dasharray:none;stroke-opacity:1"
     d="M 2.4449528,32.734969 V 47.266613"
     id="path873"
     inkscape:connector-curvature="0" /><path
     inkscape:connector-curvature="0"
     id="path875"
     d="M 97.444953,32.734969 V 47.266613"
     style="fill:none;stroke:#252424;stroke-width:3.77952766;stroke-linecap:round;stroke-linejoin:miter;stroke-miterlimit:4;stroke-dasharray:none;stroke-opacity:1" /><path
     style="fill:none;stroke:#252424;stroke-width:3.77952766;stroke-linecap:round;stroke-linejoin:round;stroke-miterlimit:4;stroke-dasharray:none;stroke-opacity:1"
     d="m 51.271187,30.29661 -6.567797,9.322034 h 10.169491 l -6.567796,9.533899"
     id="path881"
     inkscape:connector-curvature="0" /></svg>