<svg width="30" height="30" viewBox="0 0 30 30" fill="none" xmlns="http://www.w3.org/2000/svg">
<path d="M6.67319 2.43222C5.37549 2.43222 4.31421 3.49409 4.31421 4.79179V23.0027C4.31421 24.1629 5.16342 25.1325 6.27065 25.3254V26.2002C6.27065 27.3002 7.17045 28.2 8.27046 28.2C9.37046 28.2 10.2708 27.3002 10.2708 26.2002V25.3623H19.7291V26.2002C19.7291 27.3002 20.6295 28.2 21.7294 28.2C22.8294 28.2 23.7292 27.3002 23.7292 26.2002V25.3254C24.8365 25.1325 25.6857 24.1629 25.6857 23.0027V4.79179C25.6857 3.49409 24.6244 2.43222 23.3267 2.43222H19.3721L18.3068 4.34999H22.4888C23.3613 4.34999 24.0749 5.06367 24.0749 5.93613V5.98886C24.0749 6.8613 23.3613 7.57499 22.4888 7.57499H21.0002L19.4234 9.47695H23.1187C23.4558 9.47695 23.7292 9.75045 23.7292 10.0875V16.95H6.27065V10.0875C6.27065 9.75045 6.54416 9.47695 6.8812 9.47695H9.11718L10.1707 7.57499H7.8896C7.01542 7.57499 6.29995 6.85953 6.29995 5.98535V5.93964C6.29995 5.06546 7.01542 4.34999 7.8896 4.34999H11.8925L12.9542 2.43222H6.67319ZM8.27046 19.6998C9.04366 19.6998 9.67085 20.327 9.67085 21.1002C9.67085 21.8734 9.04366 22.5 8.27046 22.5C7.49726 22.5 6.87065 21.8734 6.87065 21.1002C6.87065 20.327 7.49726 19.6998 8.27046 19.6998ZM21.7294 19.6998C22.5026 19.6998 23.1292 20.327 23.1292 21.1002C23.1292 21.8734 22.5026 22.5 21.7294 22.5C20.9562 22.5 20.3291 21.8734 20.3291 21.1002C20.3291 20.327 20.9562 19.6998 21.7294 19.6998Z" fill="black"/>
<path d="M14.6315 1.83223H18.4674L15.8458 6.50537H20.0654L12.2965 15.9567L14.1515 9.48377H10.5073L14.6315 1.83223Z" fill="black"/>
</svg>
