<?xml version="1.0" encoding="UTF-8" standalone="no"?>
<svg
   xmlns:dc="http://purl.org/dc/elements/1.1/"
   xmlns:cc="http://creativecommons.org/ns#"
   xmlns:rdf="http://www.w3.org/1999/02/22-rdf-syntax-ns#"
   xmlns:svg="http://www.w3.org/2000/svg"
   xmlns="http://www.w3.org/2000/svg"
   height="105.72657"
   width="123.24024"
   version="1.1"
   x="0px"
   y="0px"
   viewBox="0 0 123.24024 105.72657"
   style="fill:#000000"
   xml:space="preserve"
   id="svg8"><metadata
     id="metadata14"><rdf:RDF><cc:Work
         rdf:about=""><dc:format>image/svg+xml</dc:format><dc:type
           rdf:resource="http://purl.org/dc/dcmitype/StillImage" /><dc:title></dc:title></cc:Work></rdf:RDF></metadata><defs
     id="defs12" /><path
     id="path817"
     d="M 62.624034,6.3150886 C 54.53396,6.3141478 46.337394,7.0111389 36.608081,8.4077322 26.739703,9.8242896 21.846128,12.532494 19.388984,15.150695 c -1.228577,1.309103 -1.821514,2.593966 -2.077578,3.576011 -0.256064,0.982044 -0.163626,1.795541 -0.163626,1.795541 l -0.0151,-0.189458 v 66.630903 c 7.7e-5,0.0034 0.04498,1.934146 1.545808,3.651363 1.360346,1.556447 3.867104,2.938093 8.10145,3.229389 v 2.615806 c 0,2.386254 1.964824,4.35106 4.351068,4.35106 h 10.928249 c 2.386244,0 4.348907,-1.964806 4.348907,-4.35106 v -2.51462 c 10.363806,-0.0062 22.277896,-0.03501 32.511343,-0.0775 v 2.592124 c 0,2.38624 1.964815,4.351056 4.351058,4.351056 h 10.9261 c 2.386241,0 4.351062,-1.964816 4.351062,-4.351056 v -2.839712 c 3.637355,-0.406148 5.882125,-1.696078 7.158475,-3.117435 1.50655,-1.67772 1.62976,-3.56094 1.62976,-3.56094 l 0.002,-0.03014 V 20.255284 l -0.002,0.06459 c 0,0 0.0165,-0.794399 -0.30141,-1.748176 -0.31795,-0.953776 -0.96911,-2.198384 -2.22397,-3.481281 C 102.30088,12.524615 97.451669,9.8226426 88.004843,8.4077273 78.697337,7.013678 70.714076,6.3160262 62.624002,6.3150847 Z m -0.0043,2.747134 c 7.935299,7.3e-4 15.76457,0.691118 24.978239,2.0711144 9.074363,1.359128 13.303427,3.901317 15.242717,5.883947 0.96965,0.991314 1.3874,1.847842 1.58024,2.426346 0.19285,0.578506 0.16363,0.747066 0.16363,0.747066 l -0.002,0.0323 v 66.602913 c 2e-5,0.0038 0.006,0.799941 -0.92577,1.836446 -0.93292,1.038931 -2.86006,2.278405 -7.240281,2.34023 -9.234482,0.130341 -58.656268,0.259134 -68.243439,0.152857 -0.0055,-6e-5 -0.0099,6.5e-5 -0.0151,0 -4.55421,-0.05342 -6.496602,-1.31506 -7.403904,-2.353147 -0.908017,-1.039315 -0.865292,-1.838599 -0.865292,-1.838599 V 20.23806 l -0.01289,-0.09473 c 0,0 -0.04366,-0.159668 0.103285,-0.723382 0.146992,-0.563714 0.495649,-1.399651 1.41878,-2.383289 1.846272,-1.967275 6.098827,-4.536999 15.602256,-5.90117 C 46.642701,9.7513556 54.684726,9.0614926 62.620026,9.0622216 Z M 29.535605,93.917642 c 4.99072,0.01036 9.293839,0.05853 14.116735,0.06889 v 2.473713 c 0,0.90722 -0.685939,1.59531 -1.593164,1.59531 H 31.130927 c -0.907224,0 -1.595322,-0.68809 -1.595322,-1.59531 z m 52.139568,0 c 4.990721,0.01036 9.293817,0.05853 14.116735,0.06889 v 2.473713 c 0,0.90722 -0.6881,1.59531 -1.595324,1.59531 H 83.270486 c -0.907225,0 -1.595313,-0.68809 -1.595313,-1.59531 z"
     style="color:#000000;font-style:normal;font-variant:normal;font-weight:normal;font-stretch:normal;font-size:medium;line-height:normal;font-family:sans-serif;font-variant-ligatures:normal;font-variant-position:normal;font-variant-caps:normal;font-variant-numeric:normal;font-variant-alternates:normal;font-feature-settings:normal;text-indent:0;text-align:start;text-decoration:none;text-decoration-line:none;text-decoration-style:solid;text-decoration-color:#000000;letter-spacing:normal;word-spacing:normal;text-transform:none;writing-mode:lr-tb;direction:ltr;text-orientation:mixed;dominant-baseline:auto;baseline-shift:baseline;text-anchor:start;white-space:normal;shape-padding:0;clip-rule:nonzero;display:inline;overflow:visible;visibility:visible;opacity:1;isolation:auto;mix-blend-mode:normal;color-interpolation:sRGB;color-interpolation-filters:linearRGB;solid-color:#000000;solid-opacity:1;vector-effect:none;fill:#000000;fill-opacity:1;fill-rule:nonzero;stroke:none;stroke-width:2.75574517;stroke-linecap:butt;stroke-linejoin:miter;stroke-miterlimit:4;stroke-dasharray:none;stroke-dashoffset:0;stroke-opacity:1;color-rendering:auto;image-rendering:auto;shape-rendering:auto;text-rendering:auto;enable-background:accumulate" /><path
     id="rect848"
     d="m 9.6900507,31.340698 c -2.386243,0 -4.3510677,1.962666 -4.3510677,4.348911 v 11.724834 c 0,2.386246 1.9648247,4.351064 4.3510677,4.351064 h 1.4855123 c 2.386244,0 4.348918,-1.964818 4.348918,-4.351064 V 35.689609 c 0,-2.386245 -1.962674,-4.34891 -4.348918,-4.348911 z m 0,2.755745 h 1.4855123 c 0.907224,0 1.593174,0.685937 1.593174,1.593166 v 11.724834 c 0,0.90723 -0.68595,1.595318 -1.593174,1.595318 H 9.6900507 c -0.907225,0 -1.5953222,-0.688088 -1.5953222,-1.595318 V 35.689609 c 0,-0.907229 0.6880972,-1.593166 1.5953222,-1.593166 z"
     style="color:#000000;font-style:normal;font-variant:normal;font-weight:normal;font-stretch:normal;font-size:medium;line-height:normal;font-family:sans-serif;font-variant-ligatures:normal;font-variant-position:normal;font-variant-caps:normal;font-variant-numeric:normal;font-variant-alternates:normal;font-feature-settings:normal;text-indent:0;text-align:start;text-decoration:none;text-decoration-line:none;text-decoration-style:solid;text-decoration-color:#000000;letter-spacing:normal;word-spacing:normal;text-transform:none;writing-mode:lr-tb;direction:ltr;text-orientation:mixed;dominant-baseline:auto;baseline-shift:baseline;text-anchor:start;white-space:normal;shape-padding:0;clip-rule:nonzero;display:inline;overflow:visible;visibility:visible;opacity:1;isolation:auto;mix-blend-mode:normal;color-interpolation:sRGB;color-interpolation-filters:linearRGB;solid-color:#000000;solid-opacity:1;vector-effect:none;fill:#000000;fill-opacity:1;fill-rule:nonzero;stroke:none;stroke-width:2.75574517;stroke-linecap:round;stroke-linejoin:miter;stroke-miterlimit:4;stroke-dasharray:none;stroke-dashoffset:0;stroke-opacity:1;paint-order:fill markers stroke;color-rendering:auto;image-rendering:auto;shape-rendering:auto;text-rendering:auto;enable-background:accumulate" /><path
     id="rect850"
     d="m 113.30606,31.340698 c -2.38624,0 -4.35106,1.962666 -4.35106,4.348911 v 11.724834 c 0,2.386246 1.96482,4.351064 4.35106,4.351064 h 1.48552 c 2.38624,0 4.34892,-1.964818 4.34892,-4.351064 V 35.689609 c 0,-2.386245 -1.96268,-4.34891 -4.34892,-4.348911 z m 0,2.755745 h 1.48552 c 0.90722,0 1.59317,0.685937 1.59317,1.593166 v 11.724834 c 0,0.90723 -0.68595,1.595318 -1.59317,1.595318 h -1.48552 c -0.90722,0 -1.59532,-0.688088 -1.59532,-1.595318 V 35.689609 c 0,-0.907229 0.6881,-1.593165 1.59532,-1.593166 z"
     style="color:#000000;font-style:normal;font-variant:normal;font-weight:normal;font-stretch:normal;font-size:medium;line-height:normal;font-family:sans-serif;font-variant-ligatures:normal;font-variant-position:normal;font-variant-caps:normal;font-variant-numeric:normal;font-variant-alternates:normal;font-feature-settings:normal;text-indent:0;text-align:start;text-decoration:none;text-decoration-line:none;text-decoration-style:solid;text-decoration-color:#000000;letter-spacing:normal;word-spacing:normal;text-transform:none;writing-mode:lr-tb;direction:ltr;text-orientation:mixed;dominant-baseline:auto;baseline-shift:baseline;text-anchor:start;white-space:normal;shape-padding:0;clip-rule:nonzero;display:inline;overflow:visible;visibility:visible;opacity:1;isolation:auto;mix-blend-mode:normal;color-interpolation:sRGB;color-interpolation-filters:linearRGB;solid-color:#000000;solid-opacity:1;vector-effect:none;fill:#000000;fill-opacity:1;fill-rule:nonzero;stroke:none;stroke-width:2.75574517;stroke-linecap:round;stroke-linejoin:miter;stroke-miterlimit:4;stroke-dasharray:none;stroke-dashoffset:0;stroke-opacity:1;paint-order:fill markers stroke;color-rendering:auto;image-rendering:auto;shape-rendering:auto;text-rendering:auto;enable-background:accumulate" /><path
     id="rect852"
     d="m 30.005063,24.569747 c -2.386245,0 -4.351068,1.962666 -4.351068,4.348911 v 29.230273 c 0,2.386244 1.964823,4.351064 4.351068,4.351064 h 64.402622 c 2.386244,0 4.34892,-1.96482 4.34892,-4.351064 V 28.918658 c 0,-2.386245 -1.962676,-4.348911 -4.34892,-4.348911 z m 0,2.755745 h 64.402622 c 0.907229,0 1.593163,0.685938 1.593163,1.593166 v 29.230273 c 0,0.907226 -0.685934,1.595319 -1.593163,1.595319 H 30.005063 c -0.907236,0 -1.595324,-0.688093 -1.595324,-1.595319 V 28.918658 c 0,-0.907228 0.688088,-1.593166 1.595324,-1.593166 z"
     style="color:#000000;font-style:normal;font-variant:normal;font-weight:normal;font-stretch:normal;font-size:medium;line-height:normal;font-family:sans-serif;font-variant-ligatures:normal;font-variant-position:normal;font-variant-caps:normal;font-variant-numeric:normal;font-variant-alternates:normal;font-feature-settings:normal;text-indent:0;text-align:start;text-decoration:none;text-decoration-line:none;text-decoration-style:solid;text-decoration-color:#000000;letter-spacing:normal;word-spacing:normal;text-transform:none;writing-mode:lr-tb;direction:ltr;text-orientation:mixed;dominant-baseline:auto;baseline-shift:baseline;text-anchor:start;white-space:normal;shape-padding:0;clip-rule:nonzero;display:inline;overflow:visible;visibility:visible;opacity:1;isolation:auto;mix-blend-mode:normal;color-interpolation:sRGB;color-interpolation-filters:linearRGB;solid-color:#000000;solid-opacity:1;vector-effect:none;fill:#000000;fill-opacity:1;fill-rule:nonzero;stroke:none;stroke-width:2.75574517;stroke-linecap:round;stroke-linejoin:miter;stroke-miterlimit:4;stroke-dasharray:none;stroke-dashoffset:0;stroke-opacity:1;paint-order:fill markers stroke;color-rendering:auto;image-rendering:auto;shape-rendering:auto;text-rendering:auto;enable-background:accumulate" /><path
     id="path854"
     d="m 61.383527,31.975693 a 1.0403486,1.0403486 0 0 0 -0.863603,0.45947 l -7.613118,11.334164 a 1.0403486,1.0403486 0 0 0 0.861921,1.619884 h 5.139698 l -2.726636,8.310715 a 1.0403486,1.0403486 0 0 0 1.722175,1.061477 l 13.9015,-13.821006 A 1.0403486,1.0403486 0 0 0 71.072655,39.162884 H 65.4148 l 3.751224,-5.56563 a 1.0403486,1.0403486 0 0 0 -0.86193,-1.621561 z m 0.553384,2.079356 h 4.410239 l -3.751224,5.565629 a 1.0403486,1.0403486 0 0 0 0.863604,1.621562 h 5.091069 l -9.040167,8.98818 1.822792,-5.557244 A 1.0403486,1.0403486 0 0 0 60.343856,43.30818 h -4.621542 z"
     style="color:#000000;font-style:normal;font-variant:normal;font-weight:normal;font-stretch:normal;font-size:medium;line-height:normal;font-family:sans-serif;font-variant-ligatures:normal;font-variant-position:normal;font-variant-caps:normal;font-variant-numeric:normal;font-variant-alternates:normal;font-feature-settings:normal;text-indent:0;text-align:start;text-decoration:none;text-decoration-line:none;text-decoration-style:solid;text-decoration-color:#000000;letter-spacing:normal;word-spacing:normal;text-transform:none;writing-mode:lr-tb;direction:ltr;text-orientation:mixed;dominant-baseline:auto;baseline-shift:baseline;text-anchor:start;white-space:normal;shape-padding:0;clip-rule:nonzero;display:inline;overflow:visible;visibility:visible;opacity:1;isolation:auto;mix-blend-mode:normal;color-interpolation:sRGB;color-interpolation-filters:linearRGB;solid-color:#000000;solid-opacity:1;vector-effect:none;fill:#000000;fill-opacity:1;fill-rule:nonzero;stroke:#000000;stroke-width:0.5;stroke-linecap:butt;stroke-linejoin:round;stroke-miterlimit:4;stroke-dasharray:none;stroke-dashoffset:0;stroke-opacity:1;color-rendering:auto;image-rendering:auto;shape-rendering:auto;text-rendering:auto;enable-background:accumulate" /><path
     id="rect856"
     d="m 56.755157,12.239941 c -2.386244,0 -4.348907,1.964819 -4.348907,4.351062 v 0.990347 c 0,2.386244 1.962663,4.351063 4.348907,4.351063 h 12.056386 c 2.386243,0 4.348918,-1.964819 4.348918,-4.351063 v -0.990347 c 0,-2.386243 -1.962675,-4.351062 -4.348918,-4.351062 z m 0,2.755746 h 12.056386 c 0.907223,0 1.593172,0.68809 1.593172,1.595316 v 0.990347 c 0,0.907226 -0.685949,1.595317 -1.593172,1.595317 H 56.755157 c -0.907224,0 -1.593162,-0.688091 -1.593162,-1.595317 v -0.990347 c 0,-0.907226 0.685938,-1.595316 1.593162,-1.595316 z"
     style="color:#000000;font-style:normal;font-variant:normal;font-weight:normal;font-stretch:normal;font-size:medium;line-height:normal;font-family:sans-serif;font-variant-ligatures:normal;font-variant-position:normal;font-variant-caps:normal;font-variant-numeric:normal;font-variant-alternates:normal;font-feature-settings:normal;text-indent:0;text-align:start;text-decoration:none;text-decoration-line:none;text-decoration-style:solid;text-decoration-color:#000000;letter-spacing:normal;word-spacing:normal;text-transform:none;writing-mode:lr-tb;direction:ltr;text-orientation:mixed;dominant-baseline:auto;baseline-shift:baseline;text-anchor:start;white-space:normal;shape-padding:0;clip-rule:nonzero;display:inline;overflow:visible;visibility:visible;opacity:1;isolation:auto;mix-blend-mode:normal;color-interpolation:sRGB;color-interpolation-filters:linearRGB;solid-color:#000000;solid-opacity:1;vector-effect:none;fill:#000000;fill-opacity:1;fill-rule:nonzero;stroke:none;stroke-width:2.75574517;stroke-linecap:round;stroke-linejoin:miter;stroke-miterlimit:4;stroke-dasharray:none;stroke-dashoffset:0;stroke-opacity:1;paint-order:fill markers stroke;color-rendering:auto;image-rendering:auto;shape-rendering:auto;text-rendering:auto;enable-background:accumulate" /><path
     id="rect858"
     d="m 30.721986,65.744454 c -0.138295,-0.04053 -0.261002,0.03529 -0.398294,0.01507 -1.207368,-0.177772 -2.369588,0.291756 -3.082994,1.070005 -0.794537,0.866749 -1.257303,1.996195 -1.257303,3.207859 v 5.451209 c 0,2.386243 1.964812,4.348909 4.351056,4.348909 h 9.741989 c 2.387114,0 4.248412,-1.9773 4.348919,-4.288628 l 0.084,-1.901033 c 0.05732,-1.318475 -0.566537,-2.443668 -1.356344,-3.29613 -0.789809,-0.852461 -1.778535,-1.485026 -2.852626,-1.799845 z m -0.775059,2.643794 9.578363,2.807415 c 0.506176,0.148358 1.163014,0.550871 1.606093,1.029098 0.443081,0.478228 0.638551,0.977967 0.624342,1.304673 l -0.08179,1.898881 c -0.04255,0.979031 -0.691107,1.653447 -1.597472,1.653447 h -9.741985 c -0.907226,0 -1.595313,-0.685941 -1.595313,-1.593164 v -5.45121 c 0,-0.435072 0.235142,-1.021993 0.531771,-1.345579 0.296628,-0.323583 0.450168,-0.369761 0.676018,-0.303561 z"
     style="color:#000000;font-style:normal;font-variant:normal;font-weight:normal;font-stretch:normal;font-size:medium;line-height:normal;font-family:sans-serif;font-variant-ligatures:normal;font-variant-position:normal;font-variant-caps:normal;font-variant-numeric:normal;font-variant-alternates:normal;font-feature-settings:normal;text-indent:0;text-align:start;text-decoration:none;text-decoration-line:none;text-decoration-style:solid;text-decoration-color:#000000;letter-spacing:normal;word-spacing:normal;text-transform:none;writing-mode:lr-tb;direction:ltr;text-orientation:mixed;dominant-baseline:auto;baseline-shift:baseline;text-anchor:start;white-space:normal;shape-padding:0;clip-rule:nonzero;display:inline;overflow:visible;visibility:visible;opacity:1;isolation:auto;mix-blend-mode:normal;color-interpolation:sRGB;color-interpolation-filters:linearRGB;solid-color:#000000;solid-opacity:1;vector-effect:none;fill:#000000;fill-opacity:1;fill-rule:nonzero;stroke:none;stroke-width:2.75574517;stroke-linecap:round;stroke-linejoin:miter;stroke-miterlimit:4;stroke-dasharray:none;stroke-dashoffset:0;stroke-opacity:1;paint-order:fill markers stroke;color-rendering:auto;image-rendering:auto;shape-rendering:auto;text-rendering:auto;enable-background:accumulate" /><path
     id="path861"
     d="m 94.007242,65.744454 -9.578373,2.807416 c -1.074092,0.314819 -2.062819,0.947384 -2.852626,1.799845 -0.789809,0.852463 -1.413665,1.977656 -1.356345,3.29613 l 0.084,1.901033 c 0.100529,2.311328 1.961803,4.288629 4.348918,4.288629 h 9.741989 c 2.386232,0 4.35106,-1.962667 4.35106,-4.348909 v -5.45121 c 0,-1.211663 -0.462776,-2.34111 -1.257312,-3.20786 -0.794536,-0.866748 -2.126882,-1.482054 -3.481272,-1.085074 z m 0.775049,2.643794 c 0.225846,-0.06621 0.379398,-0.02002 0.676018,0.303561 0.296635,0.323586 0.53177,0.910507 0.53177,1.345579 v 5.45121 c 0,0.907223 -0.68809,1.593164 -1.595312,1.593164 h -9.741989 c -0.906365,0 -1.554901,-0.674416 -1.597473,-1.653447 l -0.08181,-1.898881 c -0.01422,-0.326706 0.181274,-0.826445 0.624354,-1.304673 0.443079,-0.478227 1.099917,-0.88074 1.606081,-1.029098 z"
     style="color:#000000;font-style:normal;font-variant:normal;font-weight:normal;font-stretch:normal;font-size:medium;line-height:normal;font-family:sans-serif;font-variant-ligatures:normal;font-variant-position:normal;font-variant-caps:normal;font-variant-numeric:normal;font-variant-alternates:normal;font-feature-settings:normal;text-indent:0;text-align:start;text-decoration:none;text-decoration-line:none;text-decoration-style:solid;text-decoration-color:#000000;letter-spacing:normal;word-spacing:normal;text-transform:none;writing-mode:lr-tb;direction:ltr;text-orientation:mixed;dominant-baseline:auto;baseline-shift:baseline;text-anchor:start;white-space:normal;shape-padding:0;clip-rule:nonzero;display:inline;overflow:visible;visibility:visible;opacity:1;isolation:auto;mix-blend-mode:normal;color-interpolation:sRGB;color-interpolation-filters:linearRGB;solid-color:#000000;solid-opacity:1;vector-effect:none;fill:#000000;fill-opacity:1;fill-rule:nonzero;stroke:none;stroke-width:2.75574517;stroke-linecap:round;stroke-linejoin:miter;stroke-miterlimit:4;stroke-dasharray:none;stroke-dashoffset:0;stroke-opacity:1;paint-order:fill markers stroke;color-rendering:auto;image-rendering:auto;shape-rendering:auto;text-rendering:auto;enable-background:accumulate" /></svg>