<?xml version="1.0" encoding="UTF-8" standalone="no"?>
<svg
   xmlns:dc="http://purl.org/dc/elements/1.1/"
   xmlns:cc="http://creativecommons.org/ns#"
   xmlns:rdf="http://www.w3.org/1999/02/22-rdf-syntax-ns#"
   xmlns:svg="http://www.w3.org/2000/svg"
   xmlns="http://www.w3.org/2000/svg"
   id="svg8"
   xml:space="preserve"
   style="enable-background:new 0 0 100 100;"
   viewBox="0 0 100 100"
   y="0px"
   x="0px"
   version="1.1"
   fill="#000000"
   width="100px"
   height="100px"><metadata
     id="metadata14"><rdf:RDF><cc:Work
         rdf:about=""><dc:format>image/svg+xml</dc:format><dc:type
           rdf:resource="http://purl.org/dc/dcmitype/StillImage" /><dc:title></dc:title></cc:Work></rdf:RDF></metadata><defs
     id="defs12" /><circle
     style="opacity:1;fill:#f0d722;fill-opacity:1;stroke:none;stroke-width:19.56955528;stroke-linecap:butt;stroke-linejoin:miter;stroke-miterlimit:4;stroke-dasharray:none;stroke-dashoffset:0;stroke-opacity:1;paint-order:fill markers stroke"
     id="path949"
     cx="50.099407"
     cy="49.942921"
     r="49.364407" /><g
     style="fill:#000000"
     id="g945"
     transform="matrix(0.64399833,0,0,0.64399833,17.899495,17.002409)"><path
       d="M 5.4,32.1 H 3.8 c -1.4,0 -2.6,1.2 -2.6,2.6 v 10.8 c 0,1.4 1.2,2.6 2.6,2.6 h 1.5 c 1.4,0 2.6,-1.2 2.6,-2.6 V 34.7 c 0,-1.4 -1.1,-2.6 -2.5,-2.6 z"
       id="path2-8"
       style="fill:#000000;fill-opacity:1" /><path
       d="m 96.2,33.8 h -1.5 c -1.4,0 -2.6,1.2 -2.6,2.6 v 10.8 c 0,1.4 1.2,2.6 2.6,2.6 h 1.5 c 1.4,0 2.6,-1.2 2.6,-2.6 V 36.4 c 0,-1.5 -1.2,-2.6 -2.6,-2.6 z"
       id="path4"
       style="fill:#000000;fill-opacity:1" /><path
       d="M 82.1,13.4 C 73,10 50,9.8 50,9.8 c 0,0 -23.1,0.2 -32.2,3.6 -9.1,3.4 -7.7,10 -7.7,10 v 55.3 c 0,4.3 3.5,7.7 7.7,7.7 h 0.9 v 3.5 c 0,1.4 1.2,2.6 2.6,2.6 h 10.1 c 1.4,0 2.6,-1.2 2.6,-2.6 v -3.5 h 16 16 v 3.5 c 0,1.4 1.2,2.6 2.6,2.6 h 10.1 c 1.4,0 2.6,-1.2 2.6,-2.6 v -3.5 h 0.9 c 4.3,0 7.7,-3.5 7.7,-7.7 V 23.3 c -0.1,0 1.3,-6.5 -7.8,-9.9 z m -40.1,3 c 0,-0.6 0.5,-1.1 1.1,-1.1 h 13.8 c 0.6,0 1.1,0.5 1.1,1.1 v 3 c 0,0.6 -0.5,1.1 -1.1,1.1 H 43.1 C 42.5,20.5 42,20 42,19.4 Z M 31.4,70.7 c 0,1.3 -1,2.3 -2.3,2.3 h -8.9 c -1.3,0 -2.3,-1 -2.3,-2.3 v -4.8 c 0,-0.7 0.3,-1.4 0.9,-1.8 0.6,-0.4 1.3,-0.6 2,-0.4 l 8.9,2.4 c 1,0.3 1.7,1.2 1.7,2.2 z M 19.4,57.2 C 18.6,57.2 18,56.6 18,55.8 V 27.7 c 0,-0.8 0.6,-1.4 1.4,-1.4 h 60.9 c 0.8,0 1.4,0.6 1.4,1.4 v 28.1 c 0,0.8 -0.6,1.4 -1.4,1.4 H 19.4 Z M 82,70.7 C 82,72 81,73 79.7,73 h -8.9 c -1.3,0 -2.3,-1 -2.3,-2.3 v -2.4 c 0,-1 0.7,-1.9 1.7,-2.2 l 8.9,-2.4 c 0.7,-0.2 1.4,0 2,0.4 0.6,0.4 0.9,1.1 0.9,1.8 z"
       id="path6"
       style="fill:#000000;fill-opacity:1" /><g
       transform="matrix(0.40239233,0,0,0.3432565,29.66305,23.777522)"
       id="g4"
       style="fill:#070707;fill-opacity:1"><polygon
         style="fill:#070707;fill-opacity:1"
         points="67,15 53,41 75,41 34.82574,91 44,56 25,56 47,15 "
         id="polygon2" /></g></g></svg>