<?xml version="1.0" encoding="UTF-8" standalone="no"?>
<svg
   xmlns:dc="http://purl.org/dc/elements/1.1/"
   xmlns:cc="http://creativecommons.org/ns#"
   xmlns:rdf="http://www.w3.org/1999/02/22-rdf-syntax-ns#"
   xmlns:svg="http://www.w3.org/2000/svg"
   xmlns="http://www.w3.org/2000/svg"
   id="svg6"
   xml:space="preserve"
   style="enable-background:new 0 0 100 100;"
   viewBox="0 0 100 100"
   y="0px"
   x="0px"
   version="1.1"
   fill="#000000"
   width="100px"
   height="100px"><metadata
     id="metadata12"><rdf:RDF><cc:Work
         rdf:about=""><dc:format>image/svg+xml</dc:format><dc:type
           rdf:resource="http://purl.org/dc/dcmitype/StillImage" /><dc:title></dc:title></cc:Work></rdf:RDF></metadata><defs
     id="defs10" /><g
     id="g4"><path
       style="fill:#252424;fill-opacity:1"
       id="path2"
       d="M71,51.9l-3.9-41.7c-0.1-1-1-1.8-2-1.8H37.3c-0.6,0-1.2,0.3-1.6,0.8c-0.4,0.5-0.5,1.2-0.3,1.8l7.5,25.9H31   c-0.7,0-1.4,0.4-1.7,1s-0.3,1.4,0,2l31.2,50.7c0.4,0.6,1,1,1.7,1c0.2,0,0.5,0,0.7-0.1c0.9-0.3,1.4-1.2,1.3-2.2l-5.6-35.1H69   c0.6,0,1.1-0.2,1.5-0.7C70.9,53.1,71.1,52.5,71,51.9z M56.2,50.1c-0.6,0-1.1,0.3-1.5,0.7s-0.5,1-0.5,1.6L58.6,80L34.5,40.9h11   c0.6,0,1.2-0.3,1.6-0.8c0.4-0.5,0.5-1.2,0.3-1.8L40,12.4h23.3l3.6,37.7H56.2z" /></g></svg>