<?xml version="1.0" encoding="UTF-8" standalone="no"?>
<svg
   xmlns:dc="http://purl.org/dc/elements/1.1/"
   xmlns:cc="http://creativecommons.org/ns#"
   xmlns:rdf="http://www.w3.org/1999/02/22-rdf-syntax-ns#"
   xmlns:svg="http://www.w3.org/2000/svg"
   xmlns="http://www.w3.org/2000/svg"
   id="svg12"
   version="1.1"
   y="0px"
   x="0px"
   viewBox="0 0 96 96"
   fill="#000000"
   width="100px"
   height="100px">
  <metadata
     id="metadata18">
    <rdf:RDF>
      <cc:Work
         rdf:about="">
        <dc:format>image/svg+xml</dc:format>
        <dc:type
           rdf:resource="http://purl.org/dc/dcmitype/StillImage" />
        <dc:title>Artboard 4</dc:title>
      </cc:Work>
    </rdf:RDF>
  </metadata>
  <defs
     id="defs16" />
  <title
     id="title2">Artboard 4</title>
  <g
     id="g10">
    <path
       id="path4"
       d="M31.57,57.26a6.0067,6.0067,0,0,0-9.4238,1.2168L20,56.9629V46A6,6,0,0,0,8,46V64.1191a5.9507,5.9507,0,0,0,2.1016,4.5664L28,84.8867V90a1.9988,1.9988,0,0,0,2,2H42a1.9988,1.9988,0,0,0,2-2V71.6523a5.9791,5.9791,0,0,0-1.7891-4.2695ZM40,88H32V84a1.9962,1.9962,0,0,0-.6582-1.4824L12.7246,65.666A2.005,2.005,0,0,1,12,64.1191V46a2,2,0,0,1,4,0V58a2.0011,2.0011,0,0,0,.8477,1.6348l4.66,3.2871a6.0779,6.0779,0,0,0,1.6192,2.8652l7.73,7.3067a1.9992,1.9992,0,0,0,2.7461-2.9063L25.9141,62.92a2.0007,2.0007,0,1,1,2.8632-2.7949L39.418,70.2461A1.9767,1.9767,0,0,1,40,71.6523Z" />
    <path
       id="path6"
       d="M82,40a6.0066,6.0066,0,0,0-6,6V56.9629l-2.1465,1.5137a6.0919,6.0919,0,0,0-.9394-1.2168,6.0053,6.0053,0,0,0-8.4493-.0332L53.7539,67.418A5.949,5.949,0,0,0,52,71.6523V90a1.9988,1.9988,0,0,0,2,2H66a1.9988,1.9988,0,0,0,2-2V84.8867L85.8379,68.74A6.0045,6.0045,0,0,0,88,64.1191V46A6.0066,6.0066,0,0,0,82,40Zm2,24.1191a2.0642,2.0642,0,0,1-.7852,1.6016L64.6582,82.5176A1.9962,1.9962,0,0,0,64,84v4H56V71.6523a1.95,1.95,0,0,1,.5469-1.371l10.7109-10.19a2.0009,2.0009,0,0,1,2.8692,2.7891l-7.73,7.3066a1.9992,1.9992,0,1,0,2.7461,2.9063l7.7715-7.3458a5.9419,5.9419,0,0,0,1.5879-2.8339l4.65-3.2793A2.0011,2.0011,0,0,0,80,58V46a2,2,0,0,1,4,0Z" />
    <path
       style="fill:#000000;fill-opacity:1"
       id="path8"
       d="M72,28A24,24,0,1,0,48,52,24.0262,24.0262,0,0,0,72,28Zm-4.2021-2h-5.855a32.9341,32.9341,0,0,0-4.199-15.3569A19.8965,19.8965,0,0,1,67.7979,26ZM46,8.4238V26H38.1042C38.56,17.4021,41.8235,10.199,46,8.4238ZM46,30V47.5762C41.8235,45.801,38.56,38.5979,38.1042,30Zm4,17.5762V30h7.8958C57.44,38.5979,54.1765,45.801,50,47.5762ZM50,26V8.4238C54.1765,10.199,57.44,17.4021,57.8958,26ZM38.2561,10.6431A32.9341,32.9341,0,0,0,34.0571,26h-5.855A19.8965,19.8965,0,0,1,38.2561,10.6431ZM28.2021,30h5.855a32.9341,32.9341,0,0,0,4.199,15.3569A19.8965,19.8965,0,0,1,28.2021,30ZM57.7439,45.3569A32.9341,32.9341,0,0,0,61.9429,30h5.855A19.8965,19.8965,0,0,1,57.7439,45.3569Z" />
  </g>
</svg>
