<?xml version="1.0" encoding="UTF-8" standalone="no"?>
<svg
   xmlns:dc="http://purl.org/dc/elements/1.1/"
   xmlns:cc="http://creativecommons.org/ns#"
   xmlns:rdf="http://www.w3.org/1999/02/22-rdf-syntax-ns#"
   xmlns:svg="http://www.w3.org/2000/svg"
   xmlns="http://www.w3.org/2000/svg"
   height="100.10455"
   width="100.07747"
   viewBox="0 0 66.051129 66.069"
   x="0px"
   y="0px"
   version="1.1"
   id="svg10"
   style="fill:#000000">
  <metadata
     id="metadata16">
    <rdf:RDF>
      <cc:Work
         rdf:about="">
        <dc:format>image/svg+xml</dc:format>
        <dc:type
           rdf:resource="http://purl.org/dc/dcmitype/StillImage" />
        <dc:title>Fichier 12</dc:title>
      </cc:Work>
    </rdf:RDF>
  </metadata>
  <defs
     id="defs14" />
  <title
     id="title2">Fichier 12</title>
  <rect
     ry="17.90897"
     y="0.038725946"
     x="0.051128421"
     height="66"
     width="66"
     id="rect918"
     style="opacity:1;fill:#ffffff;fill-opacity:1;stroke:none;stroke-width:2.6400001;stroke-linecap:round;stroke-linejoin:round;stroke-miterlimit:4;stroke-dasharray:none;stroke-dashoffset:0;stroke-opacity:1;paint-order:fill markers stroke" />
  <path
     id="path823"
     d="m 11.516636,1.2102177 c 0,0 2.207523,-1.16287803 4.300592,-1.16387103 l 5.900081,-0.0028 V 12.000173 Z"
     style="fill:#3655a1;fill-opacity:1;stroke:none;stroke-width:0.70107096px;stroke-linecap:butt;stroke-linejoin:miter;stroke-opacity:1" />
  <path
     style="fill:#3655a1;fill-opacity:1;stroke:none;stroke-width:0.70107096px;stroke-linecap:butt;stroke-linejoin:miter;stroke-opacity:1"
     d="M 12.06899,21.67376 H 0.05766667 C -0.31479033,13.737264 1.2388247,11.46759 1.2388247,11.46759 Z"
     id="path825" />
  <path
     id="path839"
     d="M 2.3777627,9.0801667 15.248221,21.656783 21.706683,21.673763 5.1922857,5.3605877 c -1.368067,1.50014 -1.858613,2.124751 -2.814523,3.719579 z"
     style="fill:#d7724d;fill-opacity:1;stroke:none;stroke-width:0.70107096px;stroke-linecap:butt;stroke-linejoin:miter;stroke-opacity:1" />
  <path
     style="fill:#3655a1;fill-opacity:1;stroke:none;stroke-width:0.70107096px;stroke-linecap:butt;stroke-linejoin:miter;stroke-opacity:1"
     d="m 64.859305,11.516636 c 0,0 1.16287,2.207523 1.16387,4.300592 l 0.003,5.900081 h -11.95683 z"
     id="path955" />
  <path
     id="path957"
     d="M 44.395765,12.06899 V 0.05766667 c 7.93649,-0.372457 10.20616,1.18115803 10.20616,1.18115803 z"
     style="fill:#3655a1;fill-opacity:1;stroke:none;stroke-width:0.70107096px;stroke-linecap:butt;stroke-linejoin:miter;stroke-opacity:1" />
  <path
     style="fill:#d7724d;fill-opacity:1;stroke:none;stroke-width:0.70107096px;stroke-linecap:butt;stroke-linejoin:miter;stroke-opacity:1"
     d="m 56.989355,2.3777627 -12.57662,12.8704583 -0.017,6.458462 16.31318,-16.5143973 c -1.50014,-1.368067 -2.12475,-1.858613 -3.71958,-2.814523 z"
     id="path959" />
  <path
     style="fill:#3655a1;fill-opacity:1;stroke:none;stroke-width:0.70107096px;stroke-linecap:butt;stroke-linejoin:miter;stroke-opacity:1"
     d="m 54.509715,64.858784 c 0,0 -2.20752,1.162878 -4.30059,1.163871 l -5.90008,0.0028 V 54.068831 Z"
     id="path961" />
  <path
     id="path963"
     d="m 53.957355,44.395244 h 12.01133 c 0.37245,7.936496 -1.18116,10.20617 -1.18116,10.20617 z"
     style="fill:#3655a1;fill-opacity:1;stroke:none;stroke-width:0.70107096px;stroke-linecap:butt;stroke-linejoin:miter;stroke-opacity:1" />
  <path
     style="fill:#d7724d;fill-opacity:1;stroke:none;stroke-width:0.70107096px;stroke-linecap:butt;stroke-linejoin:miter;stroke-opacity:1"
     d="m 63.648595,56.988837 -12.87046,-12.576616 -6.45846,-0.01698 16.51439,16.313173 c 1.36807,-1.500138 1.85862,-2.124749 2.81453,-3.719577 z"
     id="path965" />
  <path
     id="path967"
     d="m 1.1670447,54.552368 c 0,0 -1.16287003,-2.207523 -1.16387003,-4.300592 L 1.7467477e-4,44.351695 H 11.957005 Z"
     style="fill:#3655a1;fill-opacity:1;stroke:none;stroke-width:0.70107096px;stroke-linecap:butt;stroke-linejoin:miter;stroke-opacity:1" />
  <path
     style="fill:#3655a1;fill-opacity:1;stroke:none;stroke-width:0.70107096px;stroke-linecap:butt;stroke-linejoin:miter;stroke-opacity:1"
     d="m 21.630585,54.000014 v 12.011321 c -7.93649,0.372457 -10.20616,-1.181158 -10.20616,-1.181158 z"
     id="path969" />
  <path
     id="path971"
     d="m 9.0369947,63.691239 12.5766203,-12.870456 0.017,-6.458462 -16.3131803,16.514395 c 1.50014,1.368067 2.12475,1.858613 3.71958,2.814523 z"
     style="fill:#d7724d;fill-opacity:1;stroke:none;stroke-width:0.70107096px;stroke-linecap:butt;stroke-linejoin:miter;stroke-opacity:1" />
  <path
     id="path847"
     d="m 26.264895,0.11574867 h 13.59053 V 26.290778 h 26.10784 V 39.872061 H 39.844805 V 65.951522 H 26.254275 V 39.861442 H 0.08267467 V 26.280159 H 26.264895 Z"
     style="fill:#d7724d;fill-opacity:1;stroke:none;stroke-width:0.70107096px;stroke-linecap:butt;stroke-linejoin:miter;stroke-opacity:1" />
</svg>
