<?xml version="1.0" encoding="UTF-8" standalone="no"?>
<svg
   xmlns:dc="http://purl.org/dc/elements/1.1/"
   xmlns:cc="http://creativecommons.org/ns#"
   xmlns:rdf="http://www.w3.org/1999/02/22-rdf-syntax-ns#"
   xmlns:svg="http://www.w3.org/2000/svg"
   xmlns="http://www.w3.org/2000/svg"
   xmlns:sodipodi="http://sodipodi.sourceforge.net/DTD/sodipodi-0.dtd"
   xmlns:inkscape="http://www.inkscape.org/namespaces/inkscape"
   height="100px"
   width="100px"
   fill="#000000"
   data-name="Layer 1"
   viewBox="0 0 62.36 72.57"
   x="0px"
   y="0px"
   version="1.1"
   id="svg12"
   sodipodi:docname="i_flash_gray.svg"
   inkscape:version="0.92.3 (2405546, 2018-03-11)">
  <sodipodi:namedview
     pagecolor="#ffffff"
     bordercolor="#666666"
     borderopacity="1"
     objecttolerance="10"
     gridtolerance="10"
     guidetolerance="10"
     inkscape:pageopacity="0"
     inkscape:pageshadow="2"
     inkscape:window-width="1853"
     inkscape:window-height="1025"
     id="namedview9"
     showgrid="false"
     inkscape:zoom="2.36"
     inkscape:cx="50"
     inkscape:cy="50"
     inkscape:window-x="67"
     inkscape:window-y="27"
     inkscape:window-maximized="1"
     inkscape:current-layer="svg12" />
  <metadata
     id="metadata18">
    <rdf:RDF>
      <cc:Work
         rdf:about="">
        <dc:format>image/svg+xml</dc:format>
        <dc:type
           rdf:resource="http://purl.org/dc/dcmitype/StillImage" />
        <dc:title>79</dc:title>
      </cc:Work>
    </rdf:RDF>
  </metadata>
  <defs
     id="defs16" />
  <title
     id="title2">79</title>
  <g
     transform="matrix(-0.85375687,0,0,0.85375687,77.109661,-6.3585649)"
     id="g827"
     style="fill:#ffffff;fill-opacity:1">
    <g
       style="fill:#ffffff;fill-opacity:1"
       id="g4">
      <path
         style="fill:#ffffff;fill-opacity:1"
         id="path2"
         d="M 71,51.9 67.1,10.2 c -0.1,-1 -1,-1.8 -2,-1.8 H 37.3 c -0.6,0 -1.2,0.3 -1.6,0.8 -0.4,0.5 -0.5,1.2 -0.3,1.8 l 7.5,25.9 H 31 c -0.7,0 -1.4,0.4 -1.7,1 -0.3,0.6 -0.3,1.4 0,2 l 31.2,50.7 c 0.4,0.6 1,1 1.7,1 0.2,0 0.5,0 0.7,-0.1 0.9,-0.3 1.4,-1.2 1.3,-2.2 L 58.6,54.2 H 69 c 0.6,0 1.1,-0.2 1.5,-0.7 0.4,-0.4 0.6,-1 0.5,-1.6 z M 56.2,50.1 c -0.6,0 -1.1,0.3 -1.5,0.7 -0.4,0.4 -0.5,1 -0.5,1.6 L 58.6,80 34.5,40.9 h 11 c 0.6,0 1.2,-0.3 1.6,-0.8 0.4,-0.5 0.5,-1.2 0.3,-1.8 L 40,12.4 h 23.3 l 3.6,37.7 z" />
    </g>
  </g>
</svg>
