<?xml version="1.0" encoding="UTF-8" standalone="no"?>
<svg
   xmlns:dc="http://purl.org/dc/elements/1.1/"
   xmlns:cc="http://creativecommons.org/ns#"
   xmlns:rdf="http://www.w3.org/1999/02/22-rdf-syntax-ns#"
   xmlns:svg="http://www.w3.org/2000/svg"
   xmlns="http://www.w3.org/2000/svg"
   id="svg8"
   version="1.1"
   y="0px"
   x="0px"
   viewBox="0 0 100 100"
   data-name="Layer 1"
   fill="#000000"
   width="100px"
   height="100px">
  <metadata
     id="metadata14">
    <rdf:RDF>
      <cc:Work
         rdf:about="">
        <dc:format>image/svg+xml</dc:format>
        <dc:type
           rdf:resource="http://purl.org/dc/dcmitype/StillImage" />
        <dc:title>12</dc:title>
      </cc:Work>
    </rdf:RDF>
  </metadata>
  <defs
     id="defs12" />
  <title
     id="title2">12</title>
  <path
     style="fill:#252424;fill-opacity:1"
     id="path4"
     d="M49.9,18.57H25.1a6,6,0,0,0-6,6V43.89a4,4,0,0,0,4,4H51.9a4,4,0,0,0,4-4V24.57A6,6,0,0,0,49.9,18.57Zm-2,21.32H27.1V26.57H47.9Z" />
  <path
     style="fill:#252424;fill-opacity:1"
     id="path6"
     d="M73.51,7.1l-5.27,6L83,26V67.36a2.88,2.88,0,0,1-5.75,0V39.23a10,10,0,0,0-10-10H66V22.57a15,15,0,0,0-15-15H24a15,15,0,0,0-15,15V88.9a4,4,0,0,0,4,4H62a4,4,0,0,0,4-4V37.23h1.25a2,2,0,0,1,2,2V67.36a10.88,10.88,0,0,0,21.75,0V24.23a4,4,0,0,0-1.36-3ZM58,84.9H17V22.57a7,7,0,0,1,7-7H51a7,7,0,0,1,7,7Z" />
</svg>
