<?xml version="1.0" encoding="UTF-8" standalone="no"?>
<svg
   xmlns:dc="http://purl.org/dc/elements/1.1/"
   xmlns:cc="http://creativecommons.org/ns#"
   xmlns:rdf="http://www.w3.org/1999/02/22-rdf-syntax-ns#"
   xmlns:svg="http://www.w3.org/2000/svg"
   xmlns="http://www.w3.org/2000/svg"
   id="svg6"
   xml:space="preserve"
   enable-background="new 0 0 50 50"
   viewBox="0 0 50 50"
   y="0px"
   x="0px"
   version="1.1"
   fill="#000000"
   width="100px"
   height="100px"><metadata
     id="metadata12"><rdf:RDF><cc:Work
         rdf:about=""><dc:format>image/svg+xml</dc:format><dc:type
           rdf:resource="http://purl.org/dc/dcmitype/StillImage" /><dc:title></dc:title></cc:Work></rdf:RDF></metadata><defs
     id="defs10" /><g
     style="fill:#252424;fill-opacity:1"
     id="g4"><path
       style="fill:#252424;fill-opacity:1"
       id="path2"
       d="M28.792,43.931H8.857c-4.411,0-6.895-4.32-5.74-8.368   c1.081-3.776,4.066-4.415,7.599-4.324l0.291-1.071c1.014-3.734,3.909-6.486,7.869-6.827c4.709-0.406,7.75,2.341,9.598,6.361   c1.703,0.104,3.073,0.234,4.551,1.235c1.912,1.297,2.907,3.539,2.912,5.809C35.947,40.969,32.947,43.931,28.792,43.931    M43.23,17.837h-12.41c-2.395,0-3.679-2.35-3.06-4.527c0.675-2.337,2.617-2.347,4.623-2.294c0.692-2.55,1.682-4.668,4.72-4.929   c2.945-0.256,4.476,1.547,5.576,3.941c1.055,0.066,1.959,0.069,2.886,0.697C48.451,12.681,47.296,17.837,43.23,17.837z    M30.821,20.676h12.41c6.774,0,9.161-8.738,3.921-12.291c-0.74-0.502-1.618-0.866-2.63-1.038c-1.563-2.721-4.494-4.364-7.661-4.087   c-3.003,0.261-5.475,2.176-6.589,4.941c-2.514,0.273-4.529,1.859-5.237,4.333C23.884,16.533,26.592,20.676,30.821,20.676z    M8.857,46.77h19.935c5.709,0,9.987-4.24,9.972-10.025c-0.008-3.221-1.449-6.312-4.154-8.148c-1.187-0.804-2.617-1.369-4.289-1.59   c-2.278-4.261-6.734-6.923-11.689-6.494c-4.702,0.404-8.48,3.51-10.043,7.889c-3.947,0.246-7.111,2.574-8.2,6.385   C-1.287,40.664,2.62,46.77,8.857,46.77z"
       clip-rule="evenodd"
       fill-rule="evenodd" /></g></svg>