<?xml version="1.0" encoding="UTF-8" standalone="no"?>
<svg
   xmlns:dc="http://purl.org/dc/elements/1.1/"
   xmlns:cc="http://creativecommons.org/ns#"
   xmlns:rdf="http://www.w3.org/1999/02/22-rdf-syntax-ns#"
   xmlns:svg="http://www.w3.org/2000/svg"
   xmlns="http://www.w3.org/2000/svg"
   xmlns:sodipodi="http://sodipodi.sourceforge.net/DTD/sodipodi-0.dtd"
   xmlns:inkscape="http://www.inkscape.org/namespaces/inkscape"
   height="89.999023"
   width="90.037109"
   version="1.1"
   x="0px"
   y="0px"
   viewBox="0 0 90.037109 89.999023"
   style="fill:#000000"
   xml:space="preserve"
   id="svg16"
   sodipodi:docname="i_government_black.svg"
   inkscape:version="0.92.3 (2405546, 2018-03-11)"><metadata
     id="metadata22"><rdf:RDF><cc:Work
         rdf:about=""><dc:format>image/svg+xml</dc:format><dc:type
           rdf:resource="http://purl.org/dc/dcmitype/StillImage" /><dc:title></dc:title></cc:Work></rdf:RDF></metadata><defs
     id="defs20" /><sodipodi:namedview
     pagecolor="#ffffff"
     bordercolor="#666666"
     borderopacity="1"
     objecttolerance="10"
     gridtolerance="10"
     guidetolerance="10"
     inkscape:pageopacity="0"
     inkscape:pageshadow="2"
     inkscape:window-width="1853"
     inkscape:window-height="1025"
     id="namedview18"
     showgrid="false"
     fit-margin-top="0"
     fit-margin-left="5"
     fit-margin-right="5"
     fit-margin-bottom="10"
     inkscape:zoom="9.44"
     inkscape:cx="52.491989"
     inkscape:cy="49.999999"
     inkscape:window-x="67"
     inkscape:window-y="27"
     inkscape:window-maximized="1"
     inkscape:current-layer="svg16" /><path
     d="m 84.434571,18.961914 -15.311524,-6.63086 c -0.125488,-0.05371 -0.260742,-0.08203 -0.397461,-0.08203 H 46.018555 v -4.13086 h 8.654785 c 0.552246,0 1,-0.447266 1,-1 V 1.713867 c 0,-0.552735 -0.447754,-1 -1,-1 H 45.960816 C 45.835999,0.303649 45.469361,0 45.018555,0 c -0.552246,0 -1,0.447265 -1,1 V 12.249023 H 21.311524 c -0.136719,0 -0.271973,0.02832 -0.397461,0.08203 l -15.3110353,6.63086 c -0.365723,0.15918 -0.6025394,0.519532 -0.6025394,0.917969 v 6.12793 c 0,0.552734 0.4477544,1 1.0000004,1 h 1.666015 V 72.359375 H 5.9999997 C 5.4477537,72.359375 5,72.80664 5,73.359375 v 5.639648 c 0,0.552734 0.4477537,1 0.9999997,1 H 84.03711 c 0.552246,0 1,-0.447266 1,-1 v -5.639648 c 0,-0.552735 -0.447754,-1 -1,-1 H 82.693848 V 27.007812 h 1.343262 c 0.552246,0 1,-0.447266 1,-1 v -6.12793 c 0,-0.398437 -0.236817,-0.758789 -0.602539,-0.917968 z M 53.67334,6.118164 H 46.018555 V 2.713867 H 53.67334 Z M 83.03711,77.999023 H 6.9999997 V 74.359375 H 83.03711 Z M 51.849121,72.359375 V 48.526367 h 9.661133 v 23.833008 z m -2,-23.833008 V 72.359375 H 40.187989 V 48.526367 Z m 13.544434,-2 h -36.75 v -4.350586 l 18.375,-3.84375 18.375,3.84375 z m -25.205566,2 V 72.359375 H 28.526856 V 48.526367 Z M 80.693848,72.359375 H 63.510254 V 48.526367 h 0.883301 c 0.552246,0 1,-0.447266 1,-1 v -6.163086 c 0,-0.473633 -0.332031,-0.881836 -0.79541,-0.978516 l -19.375,-4.052734 c -0.134766,-0.0293 -0.274414,-0.0293 -0.40918,0 l -19.375,4.052734 c -0.463379,0.09668 -0.79541,0.504883 -0.79541,0.978516 v 6.163086 c 0,0.552734 0.447754,1 1,1 h 0.883301 V 72.359374 H 9.6665037 V 27.007812 H 80.693848 Z M 83.03711,25.007812 H 7.0004887 v -4.47168 L 21.518555,14.249023 h 47 l 14.518555,6.287109 z"
     id="path2"
     inkscape:connector-curvature="0"
     style="fill:#252424;fill-opacity:1" /><path
     d="m 15.051758,65.314453 h 5.36084 c 0.552246,0 1,-0.447266 1,-1 v -5.361328 c 0,-0.552735 -0.447754,-1 -1,-1 h -5.36084 c -0.552246,0 -1,0.447265 -1,1 v 5.361328 c 0,0.552734 0.447754,1 1,1 z m 1,-5.361328 h 3.36084 v 3.361328 h -3.36084 z"
     id="path4"
     inkscape:connector-curvature="0"
     style="fill:#252424;fill-opacity:1" /><path
     d="m 69.502442,65.314453 h 5.360839 c 0.552247,0 1,-0.447266 1,-1 v -5.361328 c 0,-0.552735 -0.447753,-1 -1,-1 h -5.360839 c -0.552246,0 -1,0.447265 -1,1 v 5.361328 c 0,0.552734 0.447754,1 1,1 z m 1,-5.361328 h 3.360839 v 3.361328 h -3.360839 z"
     id="path6"
     inkscape:connector-curvature="0"
     style="fill:#252424;fill-opacity:1" /><path
     d="m 15.051758,53.484375 h 5.36084 c 0.552246,0 1,-0.447266 1,-1 v -5.360352 c 0,-0.552734 -0.447754,-1 -1,-1 h -5.36084 c -0.552246,0 -1,0.447266 -1,1 v 5.360352 c 0,0.552734 0.447754,1 1,1 z m 1,-5.360352 h 3.36084 v 3.360352 h -3.36084 z"
     id="path8"
     inkscape:connector-curvature="0"
     style="fill:#252424;fill-opacity:1" /><path
     d="m 69.502442,53.484375 h 5.360839 c 0.552247,0 1,-0.447266 1,-1 v -5.360352 c 0,-0.552734 -0.447753,-1 -1,-1 h -5.360839 c -0.552246,0 -1,0.447266 -1,1 v 5.360352 c 0,0.552734 0.447754,1 1,1 z m 1,-5.360352 h 3.360839 v 3.360352 h -3.360839 z"
     id="path10"
     inkscape:connector-curvature="0"
     style="fill:#252424;fill-opacity:1" /><path
     d="m 15.051758,41.655273 h 5.36084 c 0.552246,0 1,-0.447266 1,-1 v -5.360352 c 0,-0.552734 -0.447754,-1 -1,-1 h -5.36084 c -0.552246,0 -1,0.447266 -1,1 v 5.360352 c 0,0.552734 0.447754,1 1,1 z m 1,-5.360352 h 3.36084 v 3.360352 h -3.36084 z"
     id="path12"
     inkscape:connector-curvature="0"
     style="fill:#252424;fill-opacity:1" /><path
     d="m 69.502442,41.655273 h 5.360839 c 0.552247,0 1,-0.447266 1,-1 v -5.360352 c 0,-0.552734 -0.447753,-1 -1,-1 h -5.360839 c -0.552246,0 -1,0.447266 -1,1 v 5.360352 c 0,0.552734 0.447754,1 1,1 z m 1,-5.360352 h 3.360839 v 3.360352 h -3.360839 z"
     id="path14"
     inkscape:connector-curvature="0"
     style="fill:#252424;fill-opacity:1" /></svg>