<?xml version="1.0" encoding="UTF-8" standalone="no"?>
<svg
   xmlns:dc="http://purl.org/dc/elements/1.1/"
   xmlns:cc="http://creativecommons.org/ns#"
   xmlns:rdf="http://www.w3.org/1999/02/22-rdf-syntax-ns#"
   xmlns:svg="http://www.w3.org/2000/svg"
   xmlns="http://www.w3.org/2000/svg"
   xmlns:sodipodi="http://sodipodi.sourceforge.net/DTD/sodipodi-0.dtd"
   xmlns:inkscape="http://www.inkscape.org/namespaces/inkscape"
   height="79.998047"
   width="80.037109"
   version="1.1"
   x="0px"
   y="0px"
   viewBox="0 0 80.037109 79.998046"
   style="fill:#000000"
   xml:space="preserve"
   id="svg16"
   sodipodi:docname="i_government_black_fill.svg"
   inkscape:version="0.92.3 (2405546, 2018-03-11)"><metadata
     id="metadata22"><rdf:RDF><cc:Work
         rdf:about=""><dc:format>image/svg+xml</dc:format><dc:type
           rdf:resource="http://purl.org/dc/dcmitype/StillImage" /><dc:title></dc:title></cc:Work></rdf:RDF></metadata><defs
     id="defs20" /><sodipodi:namedview
     pagecolor="#ffffff"
     bordercolor="#666666"
     borderopacity="1"
     objecttolerance="10"
     gridtolerance="10"
     guidetolerance="10"
     inkscape:pageopacity="0"
     inkscape:pageshadow="2"
     inkscape:window-width="1853"
     inkscape:window-height="1025"
     id="namedview18"
     showgrid="false"
     fit-margin-top="0"
     fit-margin-left="0"
     fit-margin-right="0"
     fit-margin-bottom="0"
     inkscape:zoom="9.44"
     inkscape:cx="47.491989"
     inkscape:cy="39.999023"
     inkscape:window-x="67"
     inkscape:window-y="27"
     inkscape:window-maximized="1"
     inkscape:current-layer="svg16" /><path
     style="fill:#252424;fill-opacity:1"
     d="m 40.019531,0 c -0.552246,0 -1,0.447265 -1,1 V 12.248047 H 16.3125 c -0.136719,0 -0.272949,0.02832 -0.398438,0.08203 L 0.6035156,18.960938 C 0.2377926,19.120117 0,19.480469 0,19.878906 v 6.128906 c 0,0.552735 0.447754,1 1,1 H 2.6660156 V 72.359375 H 1 c -0.552246,0 -1,0.447265 -1,1 v 5.638672 c 0,0.552734 0.447754,1 1,1 h 78.037109 c 0.552246,0 1,-0.447266 1,-1 v -5.638672 c 0,-0.552735 -0.447754,-1 -1,-1 h -1.34375 V 27.007812 h 1.34375 c 0.552246,0 1,-0.447265 1,-1 v -6.128906 c 0,-0.398437 -0.23584,-0.758789 -0.601562,-0.917968 l -15.3125,-6.63086 C 63.997559,12.276368 63.863287,12.25 63.726562,12.25 H 41.019531 V 8.1171875 h 8.654297 c 0.552246,0 1,-0.447266 1,-1 V 1.7128906 c 0,-0.552735 -0.447754,-0.99999995 -1,-0.99999998 h -8.71289 C 40.83612,0.30267262 40.470337,0 40.019531,0 Z M 4.6660156,27.007812 H 75.693359 V 72.359375 H 58.509766 V 48.525391 h 0.884765 c 0.552246,0 1,-0.447266 1,-1 v -6.16211 c 0,-0.473633 -0.333496,-0.881835 -0.796875,-0.978515 l -19.375,-4.052735 c -0.134766,-0.0293 -0.273437,-0.0293 -0.408203,0 l -19.375,4.052735 c -0.463379,0.09668 -0.794922,0.504882 -0.794922,0.978515 v 6.16211 c 0,0.552734 0.447754,1 1,1 h 0.882813 V 72.359375 H 4.6660156 Z m 5.2695314,8.22461 v 5.402344 h 5.615234 v -5.402344 z m 54,0 v 5.402344 h 5.615234 v -5.402344 z m -54,12 v 5.402344 h 5.615234 v -5.402344 z m 54,0 v 5.402344 h 5.615234 V 47.232422 Z M 35.1875,48.525391 h 9.662109 V 72.359375 H 35.1875 Z M 9.935547,59.232422 v 5.402344 h 5.615234 v -5.402344 z m 54,0 v 5.402344 h 5.615234 v -5.402344 z"
     id="path2"
     inkscape:connector-curvature="0" /><path
     d="m 10.051758,65.314453 h 5.36084 c 0.552246,0 1,-0.447266 1,-1 v -5.361328 c 0,-0.552735 -0.447754,-1 -1,-1 h -5.36084 c -0.552246,0 -1,0.447265 -1,1 v 5.361328 c 0,0.552734 0.447754,1 1,1 z m 1,-5.361328 h 3.36084 v 3.361328 h -3.36084 z"
     id="path4"
     inkscape:connector-curvature="0"
     style="fill:#252424;fill-opacity:1" /><path
     d="m 64.502442,65.314453 h 5.360839 c 0.552247,0 1,-0.447266 1,-1 v -5.361328 c 0,-0.552735 -0.447753,-1 -1,-1 h -5.360839 c -0.552246,0 -1,0.447265 -1,1 v 5.361328 c 0,0.552734 0.447754,1 1,1 z m 1,-5.361328 h 3.360839 v 3.361328 h -3.360839 z"
     id="path6"
     inkscape:connector-curvature="0"
     style="fill:#252424;fill-opacity:1" /><path
     d="m 10.051758,53.484375 h 5.36084 c 0.552246,0 1,-0.447266 1,-1 v -5.360352 c 0,-0.552734 -0.447754,-1 -1,-1 h -5.36084 c -0.552246,0 -1,0.447266 -1,1 v 5.360352 c 0,0.552734 0.447754,1 1,1 z m 1,-5.360352 h 3.36084 v 3.360352 h -3.36084 z"
     id="path8"
     inkscape:connector-curvature="0"
     style="fill:#252424;fill-opacity:1" /><path
     d="m 64.502442,53.484375 h 5.360839 c 0.552247,0 1,-0.447266 1,-1 v -5.360352 c 0,-0.552734 -0.447753,-1 -1,-1 h -5.360839 c -0.552246,0 -1,0.447266 -1,1 v 5.360352 c 0,0.552734 0.447754,1 1,1 z m 1,-5.360352 h 3.360839 v 3.360352 h -3.360839 z"
     id="path10"
     inkscape:connector-curvature="0"
     style="fill:#252424;fill-opacity:1" /><path
     d="m 10.051758,41.655273 h 5.36084 c 0.552246,0 1,-0.447266 1,-1 v -5.360352 c 0,-0.552734 -0.447754,-1 -1,-1 h -5.36084 c -0.552246,0 -1,0.447266 -1,1 v 5.360352 c 0,0.552734 0.447754,1 1,1 z m 1,-5.360352 h 3.36084 v 3.360352 h -3.36084 z"
     id="path12"
     inkscape:connector-curvature="0"
     style="fill:#252424;fill-opacity:1" /><path
     d="m 64.502442,41.655273 h 5.360839 c 0.552247,0 1,-0.447266 1,-1 v -5.360352 c 0,-0.552734 -0.447753,-1 -1,-1 h -5.360839 c -0.552246,0 -1,0.447266 -1,1 v 5.360352 c 0,0.552734 0.447754,1 1,1 z m 1,-5.360352 h 3.360839 v 3.360352 h -3.360839 z"
     id="path14"
     inkscape:connector-curvature="0"
     style="fill:#252424;fill-opacity:1" /></svg>