<?xml version="1.0" encoding="UTF-8" standalone="no"?>
<svg
   xmlns:dc="http://purl.org/dc/elements/1.1/"
   xmlns:cc="http://creativecommons.org/ns#"
   xmlns:rdf="http://www.w3.org/1999/02/22-rdf-syntax-ns#"
   xmlns:svg="http://www.w3.org/2000/svg"
   xmlns="http://www.w3.org/2000/svg"
   xmlns:sodipodi="http://sodipodi.sourceforge.net/DTD/sodipodi-0.dtd"
   xmlns:inkscape="http://www.inkscape.org/namespaces/inkscape"
   height="79.999023"
   width="80.037109"
   version="1.1"
   x="0px"
   y="0px"
   viewBox="0 0 80.037109 79.999023"
   style="fill:#000000"
   xml:space="preserve"
   id="svg16"
   sodipodi:docname="i_government_black_line.svg"
   inkscape:version="0.92.3 (2405546, 2018-03-11)"><metadata
     id="metadata22"><rdf:RDF><cc:Work
         rdf:about=""><dc:format>image/svg+xml</dc:format><dc:type
           rdf:resource="http://purl.org/dc/dcmitype/StillImage" /><dc:title /></cc:Work></rdf:RDF></metadata><defs
     id="defs20" /><sodipodi:namedview
     pagecolor="#ffffff"
     bordercolor="#666666"
     borderopacity="1"
     objecttolerance="10"
     gridtolerance="10"
     guidetolerance="10"
     inkscape:pageopacity="0"
     inkscape:pageshadow="2"
     inkscape:window-width="1853"
     inkscape:window-height="1025"
     id="namedview18"
     showgrid="false"
     fit-margin-top="0"
     fit-margin-left="0"
     fit-margin-right="0"
     fit-margin-bottom="0"
     inkscape:zoom="4.72"
     inkscape:cx="18.849603"
     inkscape:cy="40"
     inkscape:window-x="67"
     inkscape:window-y="27"
     inkscape:window-maximized="1"
     inkscape:current-layer="svg16" /><path
     d="m 77.434571,16.961914 -13.311524,-6.63086 c -0.125488,-0.05371 -0.260742,-0.08203 -0.397461,-0.08203 H 41.018555 V 7.1180234 H 48.673 c 0.552246,0 1,-0.447266 1,-1 v -4.404156 c 0,-0.552735 -0.447754,-1 -1,-1 H 40.960816 C 40.835999,0.3036494 40.469361,4e-7 40.018555,4e-7 c -0.552246,0 -1,0.447265 -1,1 V 10.249023 H 16.311524 c -0.136719,0 -0.271973,0.02832 -0.397461,0.08203 l -13.3110353,6.63086 c -0.365723,0.15918 -0.6025394,0.519532 -0.6025394,0.917969 v 6.12793 c 0,0.552734 0.6465427,0.575685 1.0000004,1 h 1.666015 V 66.359375 H 2.9999997 C 2.4477537,66.359375 2,66.80664 2,67.359375 v 5.639648 c 0,0.552734 0.4477537,1 0.9999997,1 H 77.03711 c 0.552246,0 1,-0.447266 1,-1 v -5.639648 c 0,-0.552735 -0.692095,-1.458443 -1,-1 H 75.693848 V 25.007812 h 1.343262 c 0.552246,0 1,-0.447266 1,-1 v -6.12793 c 0,-0.398437 -0.236817,-0.758789 -0.602539,-0.917968 z M 47.673,5.1180234 H 41.018555 V 2.7138674 H 47.673 Z M 76.03711,71.999023 H 3.9999997 V 68.359375 H 76.03711 Z M 46.449,66.359527 V 46.526519 l 8.061254,-1.52e-4 v 19.833008 z m -2,-19.833008 v 19.833008 l -8.861,-1.52e-4 V 46.526367 Z m 11.944555,-2.000152 h -32.75 v -4.350586 l 16.375,-3.84375 16.375,3.84375 z m -22.805555,2 V 66.359375 H 25.526856 V 46.526367 Z M 73.693848,66.359375 H 56.510254 V 46.526367 h 0.883301 c 0.552246,0 1,-0.447266 1,-1 v -6.163086 c 0,-0.473633 -0.332031,-0.881836 -0.79541,-0.978516 l -17.375,-4.052734 c -0.134766,-0.0293 -0.274414,-0.0293 -0.40918,0 l -17.375,4.052734 c -0.463379,0.09668 -0.79541,0.504883 -0.79541,0.978516 v 6.163086 c 0,0.552734 0.447754,1 1,1 h 0.883301 V 66.359374 H 6.6665037 V 25.007812 H 73.693848 Z M 76.03711,23.007812 H 4.0004887 v -4.47168 L 16.518555,12.249023 h 47 l 12.518555,6.287109 z"
     id="path2"
     inkscape:connector-curvature="0"
     style="fill:#252424;fill-opacity:1"
     sodipodi:nodetypes="ccsccsssscsscsccsssccssssssssccssscccccccccccccccccccccccccccccccccccsssccccsssccccccccccccc" /><path
     d="m 10.552,62.914023 h 5.36084 c 0.552246,0 1,-0.447266 1,-1 v -5.361328 c 0,-0.552735 -0.447754,-1 -1,-1 H 10.552 c -0.552246,0 -1,0.447265 -1,1 v 5.361328 c 0,0.552734 0.447754,1 1,1 z m 1,-5.361328 h 3.36084 v 3.361328 H 11.552 Z"
     id="path4"
     inkscape:connector-curvature="0"
     style="fill:#252424;fill-opacity:1" /><path
     d="m 64.002,62.914023 h 5.360839 c 0.552247,0 1,-0.447266 1,-1 v -5.361328 c 0,-0.552735 -0.447753,-1 -1,-1 H 64.002 c -0.552246,0 -1,0.447265 -1,1 v 5.361328 c 0,0.552734 0.447754,1 1,1 z m 1,-5.361328 h 3.360839 v 3.361328 H 65.002 Z"
     id="path6"
     inkscape:connector-curvature="0"
     style="fill:#252424;fill-opacity:1" /><path
     d="m 10.552,51.083945 h 5.36084 c 0.552246,0 1,-0.447266 1,-1 v -5.360352 c 0,-0.552734 -0.447754,-1 -1,-1 H 10.552 c -0.552246,0 -1,0.447266 -1,1 v 5.360352 c 0,0.552734 0.447754,1 1,1 z m 1,-5.360352 h 3.36084 v 3.360352 H 11.552 Z"
     id="path8"
     inkscape:connector-curvature="0"
     style="fill:#252424;fill-opacity:1" /><path
     d="m 64.002,51.083945 h 5.360839 c 0.552247,0 1,-0.447266 1,-1 v -5.360352 c 0,-0.552734 -0.447753,-1 -1,-1 H 64.002 c -0.552246,0 -1,0.447266 -1,1 v 5.360352 c 0,0.552734 0.447754,1 1,1 z m 1,-5.360352 h 3.360839 v 3.360352 H 65.002 Z"
     id="path10"
     inkscape:connector-curvature="0"
     style="fill:#252424;fill-opacity:1" /><path
     d="m 10.552,39.254843 h 5.36084 c 0.552246,0 1,-0.447266 1,-1 v -5.360352 c 0,-0.552734 -0.447754,-1 -1,-1 H 10.552 c -0.552246,0 -1,0.447266 -1,1 v 5.360352 c 0,0.552734 0.447754,1 1,1 z m 1,-5.360352 h 3.36084 v 3.360352 H 11.552 Z"
     id="path12"
     inkscape:connector-curvature="0"
     style="fill:#252424;fill-opacity:1" /><path
     d="m 64.002,39.254843 h 5.360839 c 0.552247,0 1,-0.447266 1,-1 v -5.360352 c 0,-0.552734 -0.447753,-1 -1,-1 H 64.002 c -0.552246,0 -1,0.447266 -1,1 v 5.360352 c 0,0.552734 0.447754,1 1,1 z m 1,-5.360352 h 3.360839 v 3.360352 H 65.002 Z"
     id="path14"
     inkscape:connector-curvature="0"
     style="fill:#252424;fill-opacity:1" /></svg>