<svg height='100px' width='100px'  fill="#000000" xmlns="http://www.w3.org/2000/svg" xmlns:xlink="http://www.w3.org/1999/xlink" version="1.1" x="0px" y="0px" viewBox="0 0 100 100" style="enable-background:new 0 0 100 100;" xml:space="preserve"><path d="M89.4160156,28.9628906l-15.3115234-6.6308594C73.9790039,22.2783203,73.84375,22.25,73.7070312,22.25H51v-4.1308594  h8.6547852c0.5522461,0,1-0.4472656,1-1v-5.4042969c0-0.5527344-0.4477539-1-1-1h-8.7125244  C50.8174438,10.3046265,50.4508057,10.0009766,50,10.0009766c-0.5522461,0-1,0.4472656-1,1V22.25H26.2929688  c-0.1367188,0-0.2719727,0.0283203-0.3974609,0.0820312l-15.3110352,6.6308594  c-0.3657227,0.1591797-0.6025391,0.5195312-0.6025391,0.9179688v6.1279297c0,0.5527344,0.4477539,1,1,1h1.6660156v45.3515625  h-1.6665039c-0.5522461,0-1,0.4472656-1,1V89c0,0.5527344,0.4477539,1,1,1h78.0371094c0.5522461,0,1-0.4472656,1-1v-5.6396484  c0-0.5527344-0.4477539-1-1-1H87.675293V37.0087891h1.3432617c0.5522461,0,1-0.4472656,1-1v-6.1279297  C90.0185547,29.4824219,89.7817383,29.1220703,89.4160156,28.9628906z M58.6547852,16.1191406H51v-3.4042969h7.6547852V16.1191406z   M88.0185547,88H11.9814453v-3.6396484h76.0371094V88z M56.8305664,82.3603516V58.5273438h9.6611328v23.8330078H56.8305664z   M54.8305664,58.5273438v23.8330078h-9.6611328V58.5273438H54.8305664z M68.375,56.5273438h-36.75v-4.3505859L50,48.3330078  l18.375,3.84375V56.5273438z M43.1694336,58.5273438v23.8330078h-9.6611328V58.5273438H43.1694336z M85.675293,82.3603516  H68.4916992V58.5273438H69.375c0.5522461,0,1-0.4472656,1-1v-6.1630859c0-0.4736328-0.3320312-0.8818359-0.7954102-0.9785156  l-19.375-4.0527344c-0.1347656-0.0292969-0.2744141-0.0292969-0.4091797,0l-19.375,4.0527344  C29.9570312,50.4824219,29.625,50.890625,29.625,51.3642578v6.1630859c0,0.5527344,0.4477539,1,1,1h0.8833008v23.8330078H14.6479492  V37.0087891H85.675293V82.3603516z M88.0185547,35.0087891H11.9819336v-4.4716797L26.5,24.25h47l14.5185547,6.2871094V35.0087891z"></path><path d="M20.0332031,75.3154297h5.3608398c0.5522461,0,1-0.4472656,1-1v-5.3613281c0-0.5527344-0.4477539-1-1-1h-5.3608398  c-0.5522461,0-1,0.4472656-1,1v5.3613281C19.0332031,74.8681641,19.480957,75.3154297,20.0332031,75.3154297z   M21.0332031,69.9541016h3.3608398v3.3613281h-3.3608398V69.9541016z"></path><path d="M74.4838867,75.3154297h5.3608398c0.5522461,0,1-0.4472656,1-1v-5.3613281c0-0.5527344-0.4477539-1-1-1h-5.3608398  c-0.5522461,0-1,0.4472656-1,1v5.3613281C73.4838867,74.8681641,73.9316406,75.3154297,74.4838867,75.3154297z   M75.4838867,69.9541016h3.3608398v3.3613281h-3.3608398V69.9541016z"></path><path d="M20.0332031,63.4853516h5.3608398c0.5522461,0,1-0.4472656,1-1V57.125c0-0.5527344-0.4477539-1-1-1h-5.3608398  c-0.5522461,0-1,0.4472656-1,1v5.3603516C19.0332031,63.0380859,19.480957,63.4853516,20.0332031,63.4853516z M21.0332031,58.125  h3.3608398v3.3603516h-3.3608398V58.125z"></path><path d="M74.4838867,63.4853516h5.3608398c0.5522461,0,1-0.4472656,1-1V57.125c0-0.5527344-0.4477539-1-1-1h-5.3608398  c-0.5522461,0-1,0.4472656-1,1v5.3603516C73.4838867,63.0380859,73.9316406,63.4853516,74.4838867,63.4853516z M75.4838867,58.125  h3.3608398v3.3603516h-3.3608398V58.125z"></path><path d="M20.0332031,51.65625h5.3608398c0.5522461,0,1-0.4472656,1-1v-5.3603516c0-0.5527344-0.4477539-1-1-1h-5.3608398  c-0.5522461,0-1,0.4472656-1,1V50.65625C19.0332031,51.2089844,19.480957,51.65625,20.0332031,51.65625z M21.0332031,46.2958984  h3.3608398V49.65625h-3.3608398V46.2958984z"></path><path d="M74.4838867,51.65625h5.3608398c0.5522461,0,1-0.4472656,1-1v-5.3603516c0-0.5527344-0.4477539-1-1-1h-5.3608398  c-0.5522461,0-1,0.4472656-1,1V50.65625C73.4838867,51.2089844,73.9316406,51.65625,74.4838867,51.65625z M75.4838867,46.2958984  h3.3608398V49.65625h-3.3608398V46.2958984z"></path></svg>