<?xml version="1.0" encoding="UTF-8" standalone="no"?>
<svg
   xmlns:dc="http://purl.org/dc/elements/1.1/"
   xmlns:cc="http://creativecommons.org/ns#"
   xmlns:rdf="http://www.w3.org/1999/02/22-rdf-syntax-ns#"
   xmlns:svg="http://www.w3.org/2000/svg"
   xmlns="http://www.w3.org/2000/svg"
   id="svg16"
   xml:space="preserve"
   style="fill:#000000"
   viewBox="0 0 80.037109 79.999023"
   y="0px"
   x="0px"
   version="1.1"
   width="80.037109"
   height="79.999023"><metadata
     id="metadata22"><rdf:RDF><cc:Work
         rdf:about=""><dc:format>image/svg+xml</dc:format><dc:type
           rdf:resource="http://purl.org/dc/dcmitype/StillImage" /><dc:title></dc:title></cc:Work></rdf:RDF></metadata><defs
     id="defs20" /><path
     style="fill:#17bebb;fill-opacity:1"
     id="path2"
     d="m 79.434571,18.961914 -15.311524,-6.63086 c -0.125488,-0.05371 -0.260742,-0.08203 -0.397461,-0.08203 H 41.018555 V 8.1181644 h 8.654785 c 0.552246,0 1,-0.447266 1,-1 v -5.404297 c 0,-0.552735 -0.447754,-1 -1,-1 H 40.960816 C 40.835999,0.3036494 40.469361,4e-7 40.018555,4e-7 c -0.552246,0 -1,0.447265 -1,1 V 12.249023 H 16.311524 c -0.136719,0 -0.271973,0.02832 -0.397461,0.08203 l -15.3110353,6.63086 c -0.365723,0.15918 -0.6025394,0.519532 -0.6025394,0.917969 v 6.12793 c 0,0.552734 0.4477544,1 1.0000004,1 h 1.666015 V 72.359375 H 0.9999997 C 0.4477537,72.359375 0,72.80664 0,73.359375 v 5.639648 c 0,0.552734 0.4477537,1 0.9999997,1 H 79.03711 c 0.552246,0 1,-0.447266 1,-1 v -5.639648 c 0,-0.552735 -0.447754,-1 -1,-1 H 77.693848 V 27.007812 h 1.343262 c 0.552246,0 1,-0.447266 1,-1 v -6.12793 c 0,-0.398437 -0.236817,-0.758789 -0.602539,-0.917968 z M 48.67334,6.1181644 H 41.018555 V 2.7138674 H 48.67334 Z M 78.03711,77.999023 H 1.9999997 V 74.359375 H 78.03711 Z M 46.849121,72.359375 V 48.526367 h 9.661133 v 23.833008 z m -2,-23.833008 V 72.359375 H 35.187989 V 48.526367 Z m 13.544434,-2 h -36.75 v -4.350586 l 18.375,-3.84375 18.375,3.84375 z m -25.205566,2 V 72.359375 H 23.526856 V 48.526367 Z M 75.693848,72.359375 H 58.510254 V 48.526367 h 0.883301 c 0.552246,0 1,-0.447266 1,-1 v -6.163086 c 0,-0.473633 -0.332031,-0.881836 -0.79541,-0.978516 l -19.375,-4.052734 c -0.134766,-0.0293 -0.274414,-0.0293 -0.40918,0 l -19.375,4.052734 c -0.463379,0.09668 -0.79541,0.504883 -0.79541,0.978516 v 6.163086 c 0,0.552734 0.447754,1 1,1 h 0.883301 V 72.359374 H 4.6665037 V 27.007812 H 75.693848 Z M 78.03711,25.007812 H 2.0004887 v -4.47168 L 16.518555,14.249023 h 47 l 14.518555,6.287109 z" /><path
     style="fill:#17bebb;fill-opacity:1"
     id="path4"
     d="m 10.051758,65.314453 h 5.36084 c 0.552246,0 1,-0.447266 1,-1 v -5.361328 c 0,-0.552735 -0.447754,-1 -1,-1 h -5.36084 c -0.5522463,0 -1.0000003,0.447265 -1.0000003,1 v 5.361328 c 0,0.552734 0.447754,1 1.0000003,1 z m 1,-5.361328 h 3.36084 v 3.361328 h -3.36084 z" /><path
     style="fill:#17bebb;fill-opacity:1"
     id="path6"
     d="m 64.502442,65.314453 h 5.360839 c 0.552247,0 1,-0.447266 1,-1 v -5.361328 c 0,-0.552735 -0.447753,-1 -1,-1 h -5.360839 c -0.552246,0 -1,0.447265 -1,1 v 5.361328 c 0,0.552734 0.447754,1 1,1 z m 1,-5.361328 h 3.360839 v 3.361328 h -3.360839 z" /><path
     style="fill:#17bebb;fill-opacity:1"
     id="path8"
     d="m 10.051758,53.484375 h 5.36084 c 0.552246,0 1,-0.447266 1,-1 v -5.360352 c 0,-0.552734 -0.447754,-1 -1,-1 h -5.36084 c -0.5522463,0 -1.0000003,0.447266 -1.0000003,1 v 5.360352 c 0,0.552734 0.447754,1 1.0000003,1 z m 1,-5.360352 h 3.36084 v 3.360352 h -3.36084 z" /><path
     style="fill:#17bebb;fill-opacity:1"
     id="path10"
     d="m 64.502442,53.484375 h 5.360839 c 0.552247,0 1,-0.447266 1,-1 v -5.360352 c 0,-0.552734 -0.447753,-1 -1,-1 h -5.360839 c -0.552246,0 -1,0.447266 -1,1 v 5.360352 c 0,0.552734 0.447754,1 1,1 z m 1,-5.360352 h 3.360839 v 3.360352 h -3.360839 z" /><path
     style="fill:#17bebb;fill-opacity:1"
     id="path12"
     d="m 10.051758,41.655273 h 5.36084 c 0.552246,0 1,-0.447266 1,-1 v -5.360352 c 0,-0.552734 -0.447754,-1 -1,-1 h -5.36084 c -0.5522463,0 -1.0000003,0.447266 -1.0000003,1 v 5.360352 c 0,0.552734 0.447754,1 1.0000003,1 z m 1,-5.360352 h 3.36084 v 3.360352 h -3.36084 z" /><path
     style="fill:#17bebb;fill-opacity:1"
     id="path14"
     d="m 64.502442,41.655273 h 5.360839 c 0.552247,0 1,-0.447266 1,-1 v -5.360352 c 0,-0.552734 -0.447753,-1 -1,-1 h -5.360839 c -0.552246,0 -1,0.447266 -1,1 v 5.360352 c 0,0.552734 0.447754,1 1,1 z m 1,-5.360352 h 3.360839 v 3.360352 h -3.360839 z" /></svg>