<?xml version="1.0" encoding="UTF-8" standalone="no"?>
<svg
   xmlns:dc="http://purl.org/dc/elements/1.1/"
   xmlns:cc="http://creativecommons.org/ns#"
   xmlns:rdf="http://www.w3.org/1999/02/22-rdf-syntax-ns#"
   xmlns:svg="http://www.w3.org/2000/svg"
   xmlns="http://www.w3.org/2000/svg"
   id="svg8"
   xml:space="preserve"
   style="enable-background:new 0 0 500 500;"
   viewBox="0 0 500 500"
   y="0px"
   x="0px"
   version="1.1"
   fill="#000000"
   width="100px"
   height="100px"><metadata
     id="metadata14"><rdf:RDF><cc:Work
         rdf:about=""><dc:format>image/svg+xml</dc:format><dc:type
           rdf:resource="http://purl.org/dc/dcmitype/StillImage" /><dc:title></dc:title></cc:Work></rdf:RDF></metadata><defs
     id="defs12" /><path
     id="path814"
     d="m 187.75304,182.56524 c -42.49656,5.06812 -36.21923,52.8731 -36.21923,52.8731 0,-1e-5 0.40629,-2.44134 6.90294,99.88082 l 38.98253,0.81522 c 0,0 -0.40233,48.19858 -0.40233,107.19667 0,58.99809 103.13113,55.65936 103.13113,0 0,-55.65935 0.81523,-108.81653 0.81523,-108.81653 h 38.98253 l 7.98284,-103.00407 c 0,0 6.90061,-43.28347 -36.20865,-48.81817 a 64.486368,64.486368 0 0 1 -61.94644,46.77481 64.486368,64.486368 0 0 1 -62.02055,-46.90185 z"
     style="fill:#636363;fill-opacity:1;stroke:#636363;stroke-width:21.68284225;stroke-linecap:butt;stroke-linejoin:round;stroke-miterlimit:4;stroke-dasharray:none;stroke-opacity:1" /><circle
     r="64.486366"
     cy="81.14193"
     cx="249.77037"
     id="path816"
     style="opacity:1;fill:none;fill-opacity:1;stroke:#636363;stroke-width:20;stroke-linecap:round;stroke-linejoin:round;stroke-miterlimit:4;stroke-dasharray:none;stroke-dashoffset:0;stroke-opacity:1;paint-order:fill markers stroke" /></svg>