<?xml version="1.0" encoding="UTF-8" standalone="no"?>
<svg
   xmlns:dc="http://purl.org/dc/elements/1.1/"
   xmlns:cc="http://creativecommons.org/ns#"
   xmlns:rdf="http://www.w3.org/1999/02/22-rdf-syntax-ns#"
   xmlns:svg="http://www.w3.org/2000/svg"
   xmlns="http://www.w3.org/2000/svg"
   xmlns:sodipodi="http://sodipodi.sourceforge.net/DTD/sodipodi-0.dtd"
   xmlns:inkscape="http://www.inkscape.org/namespaces/inkscape"
   height="100px"
   width="100px"
   fill="#000000"
   version="1.1"
   x="0px"
   y="0px"
   viewBox="0 0 500 500"
   style="enable-background:new 0 0 500 500;"
   xml:space="preserve"
   id="svg8"
   sodipodi:docname="i_human_icon_fill.svg"
   inkscape:version="0.92.3 (2405546, 2018-03-11)"><metadata
     id="metadata14"><rdf:RDF><cc:Work
         rdf:about=""><dc:format>image/svg+xml</dc:format><dc:type
           rdf:resource="http://purl.org/dc/dcmitype/StillImage" /><dc:title></dc:title></cc:Work></rdf:RDF></metadata><defs
     id="defs12" /><sodipodi:namedview
     pagecolor="#ffffff"
     bordercolor="#666666"
     borderopacity="1"
     objecttolerance="10"
     gridtolerance="10"
     guidetolerance="10"
     inkscape:pageopacity="0"
     inkscape:pageshadow="2"
     inkscape:window-width="1853"
     inkscape:window-height="1025"
     id="namedview10"
     showgrid="false"
     inkscape:zoom="6.675088"
     inkscape:cx="50"
     inkscape:cy="50"
     inkscape:window-x="67"
     inkscape:window-y="27"
     inkscape:window-maximized="1"
     inkscape:current-layer="svg8" /><g
     id="g6"><path
       style="fill:#252424;fill-opacity:1;stroke:none;stroke-width:0.2;stroke-opacity:1"
       d="M 41.380859 34.820312 C 38.240859 34.820312 35.320156 36.079844 33.160156 38.339844 C 31.000156 40.619844 29.879062 43.600703 30.039062 46.720703 L 30.039062 46.759766 L 31.279297 65.640625 C 31.339297 66.700625 32.219297 67.5 33.279297 67.5 L 38.580078 67.5 L 38.580078 84.339844 C 38.580078 90.279844 43.399844 95.099609 49.339844 95.099609 L 50.640625 95.099609 C 56.580625 95.099609 61.400391 90.279844 61.400391 84.339844 L 61.400391 67.5 L 66.699219 67.5 C 67.759219 67.5 68.619219 66.680625 68.699219 65.640625 L 69.939453 46.759766 L 69.939453 46.720703 C 70.119453 43.600703 69.019375 40.619844 66.859375 38.339844 C 64.699375 36.059844 61.780625 34.820312 58.640625 34.820312 L 41.380859 34.820312 z "
       transform="scale(5)"
       id="path2" /><path
       style="fill:#252424;fill-opacity:1;stroke:none;stroke-width:0.2;stroke-opacity:1"
       d="M 50 4.6601562 C 42.38 4.6601562 36.179688 10.860469 36.179688 18.480469 C 36.179688 26.100469 42.38 32.300781 50 32.300781 C 57.62 32.300781 63.820312 26.100469 63.820312 18.480469 C 63.820312 10.860469 57.62 4.6601563 50 4.6601562 z "
       transform="scale(5)"
       id="path4" /></g></svg>