<?xml version="1.0" encoding="UTF-8" standalone="no"?>
<svg
   xmlns:dc="http://purl.org/dc/elements/1.1/"
   xmlns:cc="http://creativecommons.org/ns#"
   xmlns:rdf="http://www.w3.org/1999/02/22-rdf-syntax-ns#"
   xmlns:svg="http://www.w3.org/2000/svg"
   xmlns="http://www.w3.org/2000/svg"
   id="svg8"
   xml:space="preserve"
   style="fill:#000000"
   viewBox="0 0 194.36077 445.72758"
   y="0px"
   x="0px"
   version="1.1"
   width="38.872154"
   height="89.145515"><metadata
     id="metadata14"><rdf:RDF><cc:Work
         rdf:about=""><dc:format>image/svg+xml</dc:format><dc:type
           rdf:resource="http://purl.org/dc/dcmitype/StillImage" /><dc:title></dc:title></cc:Work></rdf:RDF></metadata><defs
     id="defs12" /><path
     id="path814"
     d="M 11.262989,300.18531 C 5.2705595,205.80454 4.8960295,208.0517 4.8960295,208.0517 c 0,0 -6.4949999,-49.1893 40.3843195,-49.1893 h 98.565161 c 49.47334,0 42.19742,45.56815 42.19742,45.56815 l -7.36642,95.00571 h -35.95458 c 0,0 -0.74906,49.03367 -0.74906,100.37321 0,51.33954 -95.129831,54.41915 -95.129831,0 0,-54.41915 0.37453,-98.8751 0.37453,-98.8751 z"
     style="fill:none;fill-opacity:1;stroke:#252424;stroke-width:11.25;stroke-linecap:butt;stroke-linejoin:round;stroke-miterlimit:4;stroke-dasharray:none;stroke-opacity:1" /><circle
     r="59.481476"
     cy="65.731476"
     cx="95.504356"
     id="path816"
     style="opacity:1;fill:none;fill-opacity:1;stroke:#252424;stroke-width:11.25;stroke-linecap:round;stroke-linejoin:round;stroke-miterlimit:4;stroke-dasharray:none;stroke-dashoffset:0;stroke-opacity:1;paint-order:fill markers stroke" /><path
     id="path822"
     d="m 68.519438,160.30508 c 0,0 0.526328,26.98491 26.984912,26.98491 26.4586,0 26.98492,-26.98491 26.98492,-26.98491"
     style="fill:none;stroke:#252424;stroke-width:10;stroke-linecap:butt;stroke-linejoin:miter;stroke-miterlimit:4;stroke-dasharray:none;stroke-opacity:1" /></svg>