<?xml version="1.0" encoding="UTF-8" standalone="no"?>
<svg
   xmlns:dc="http://purl.org/dc/elements/1.1/"
   xmlns:cc="http://creativecommons.org/ns#"
   xmlns:rdf="http://www.w3.org/1999/02/22-rdf-syntax-ns#"
   xmlns:svg="http://www.w3.org/2000/svg"
   xmlns="http://www.w3.org/2000/svg"
   id="svg20"
   xml:space="preserve"
   enable-background="new 0 0 32 32"
   viewBox="0 0 32 32"
   y="0px"
   x="0px"
   version="1.1"
   fill="#000000"
   width="100px"
   height="100px"><metadata
     id="metadata26"><rdf:RDF><cc:Work
         rdf:about=""><dc:format>image/svg+xml</dc:format><dc:type
           rdf:resource="http://purl.org/dc/dcmitype/StillImage" /><dc:title></dc:title></cc:Work></rdf:RDF></metadata><defs
     id="defs24" /><g
     style="fill:#b0b0b0;fill-opacity:1"
     id="g8"><g
       style="fill:#b0b0b0;fill-opacity:1"
       id="g6"><g
         style="fill:#b0b0b0;fill-opacity:1"
         id="g4"><path
           style="fill:#b0b0b0;fill-opacity:1"
           id="path2"
           d="M16,2.02c7.72,0,14,6.28,14,14s-6.28,14-14,14s-14-6.28-14-14S8.28,2.02,16,2.02 M16,0.02c-8.84,0-16,7.16-16,16     s7.16,16,16,16s16-7.16,16-16S24.84,0.02,16,0.02L16,0.02z" /></g></g></g><g
     id="g12"
     display="none"><text
       id="text10"
       font-size="22px"
       font-family="'Arial-BoldMT'"
       display="inline"
       transform="matrix(1 0 0 1 12.9439 23.8043)">i</text>
</g><g
     style="fill:#b0b0b0;fill-opacity:1"
     id="g18"><g
       style="fill:#b0b0b0;fill-opacity:1"
       id="g16"><path
         style="fill:#b0b0b0;fill-opacity:1"
         id="path14"
         d="M14.52,10.85V8.06h3.02v2.79H14.52z M14.52,23.8V12.4h3.02V23.8H14.52z" /></g></g></svg>