<?xml version="1.0" encoding="UTF-8" standalone="no"?>
<svg
   xmlns:dc="http://purl.org/dc/elements/1.1/"
   xmlns:cc="http://creativecommons.org/ns#"
   xmlns:rdf="http://www.w3.org/1999/02/22-rdf-syntax-ns#"
   xmlns:svg="http://www.w3.org/2000/svg"
   xmlns="http://www.w3.org/2000/svg"
   height="100px"
   width="100px"
   fill="#000000"
   version="1.1"
   x="0px"
   y="0px"
   viewBox="0 0 32 32"
   enable-background="new 0 0 32 32"
   xml:space="preserve"
   id="svg20"><metadata
     id="metadata26"><rdf:RDF><cc:Work
         rdf:about=""><dc:format>image/svg+xml</dc:format><dc:type
           rdf:resource="http://purl.org/dc/dcmitype/StillImage" /><dc:title></dc:title></cc:Work></rdf:RDF></metadata><defs
     id="defs24" /><g
     id="g8"
     style="fill:#efefef;fill-opacity:1"><g
       id="g6"
       style="fill:#efefef;fill-opacity:1"><g
         id="g4"
         style="fill:#efefef;fill-opacity:1"><path
           d="M16,2.02c7.72,0,14,6.28,14,14s-6.28,14-14,14s-14-6.28-14-14S8.28,2.02,16,2.02 M16,0.02c-8.84,0-16,7.16-16,16     s7.16,16,16,16s16-7.16,16-16S24.84,0.02,16,0.02L16,0.02z"
           id="path2"
           style="fill:#efefef;fill-opacity:1" /></g></g></g><g
     display="none"
     id="g12"><text
   transform="matrix(1 0 0 1 12.9439 23.8043)"
   display="inline"
   font-family="'Arial-BoldMT'"
   font-size="22px"
   id="text10">i</text>

</g><g
     id="g18"
     style="fill:#efefef;fill-opacity:1"><g
       id="g16"
       style="fill:#efefef;fill-opacity:1"><path
         d="M14.52,10.85V8.06h3.02v2.79H14.52z M14.52,23.8V12.4h3.02V23.8H14.52z"
         id="path14"
         style="fill:#efefef;fill-opacity:1" /></g></g></svg>