<?xml version="1.0" encoding="UTF-8" standalone="no"?>
<svg
   xmlns:dc="http://purl.org/dc/elements/1.1/"
   xmlns:cc="http://creativecommons.org/ns#"
   xmlns:rdf="http://www.w3.org/1999/02/22-rdf-syntax-ns#"
   xmlns:svg="http://www.w3.org/2000/svg"
   xmlns="http://www.w3.org/2000/svg"
   id="svg20"
   xml:space="preserve"
   enable-background="new 0 0 32 32"
   viewBox="0 0 32 32"
   y="0px"
   x="0px"
   version="1.1"
   fill="#000000"
   width="100px"
   height="100px"><metadata
     id="metadata26"><rdf:RDF><cc:Work
         rdf:about=""><dc:format>image/svg+xml</dc:format><dc:type
           rdf:resource="http://purl.org/dc/dcmitype/StillImage" /><dc:title></dc:title></cc:Work></rdf:RDF></metadata><defs
     id="defs24" /><g
     id="g12"
     display="none"><text
   id="text10"
   font-size="22px"
   font-family="'Arial-BoldMT'"
   display="inline"
   transform="matrix(1 0 0 1 12.9439 23.8043)">i</text>

</g><path
     id="path833"
     d="m 15.962891,0.46875 c -8.4826647,0 -15.37500038,6.8923356 -15.37500038,15.375 10e-9,8.482664 6.89233568,15.376953 15.37500038,15.376953 8.482664,0 15.376953,-6.894289 15.376953,-15.376953 0,-8.4826644 -6.894289,-15.375 -15.376953,-15.375 z m 0,1.5996094 c 7.61796,0 13.777343,6.1574304 13.777343,13.7753906 0,7.61796 -6.159383,13.777344 -13.777343,13.777344 C 8.3449305,29.621094 2.1875,23.46171 2.1875,15.84375 2.1875,8.2257898 8.3449305,2.0683594 15.962891,2.0683594 Z"
     style="color:#000000;font-style:normal;font-variant:normal;font-weight:normal;font-stretch:normal;font-size:medium;line-height:normal;font-family:sans-serif;font-variant-ligatures:normal;font-variant-position:normal;font-variant-caps:normal;font-variant-numeric:normal;font-variant-alternates:normal;font-feature-settings:normal;text-indent:0;text-align:start;text-decoration:none;text-decoration-line:none;text-decoration-style:solid;text-decoration-color:#000000;letter-spacing:normal;word-spacing:normal;text-transform:none;writing-mode:lr-tb;direction:ltr;text-orientation:mixed;dominant-baseline:auto;baseline-shift:baseline;text-anchor:start;white-space:normal;shape-padding:0;clip-rule:nonzero;display:inline;overflow:visible;visibility:visible;opacity:1;isolation:auto;mix-blend-mode:normal;color-interpolation:sRGB;color-interpolation-filters:linearRGB;solid-color:#000000;solid-opacity:1;vector-effect:none;fill:#252424;fill-opacity:1;fill-rule:nonzero;stroke:none;stroke-width:1.60000002;stroke-linecap:butt;stroke-linejoin:miter;stroke-miterlimit:4;stroke-dasharray:none;stroke-dashoffset:0;stroke-opacity:1;paint-order:fill markers stroke;color-rendering:auto;image-rendering:auto;shape-rendering:auto;text-rendering:auto;enable-background:accumulate" /><path
     id="path835"
     d="m 15.945312,12.037109 a 1.280128,1.280128 0 0 0 -1.261718,1.296875 v 9.396485 a 1.2802735,1.2802735 0 1 0 2.560547,0 v -9.396485 a 1.280128,1.280128 0 0 0 -1.298829,-1.296875 z"
     style="color:#000000;font-style:normal;font-variant:normal;font-weight:normal;font-stretch:normal;font-size:medium;line-height:normal;font-family:sans-serif;font-variant-ligatures:normal;font-variant-position:normal;font-variant-caps:normal;font-variant-numeric:normal;font-variant-alternates:normal;font-feature-settings:normal;text-indent:0;text-align:start;text-decoration:none;text-decoration-line:none;text-decoration-style:solid;text-decoration-color:#000000;letter-spacing:normal;word-spacing:normal;text-transform:none;writing-mode:lr-tb;direction:ltr;text-orientation:mixed;dominant-baseline:auto;baseline-shift:baseline;text-anchor:start;white-space:normal;shape-padding:0;clip-rule:nonzero;display:inline;overflow:visible;visibility:visible;opacity:1;isolation:auto;mix-blend-mode:normal;color-interpolation:sRGB;color-interpolation-filters:linearRGB;solid-color:#000000;solid-opacity:1;vector-effect:none;fill:#252424;fill-opacity:1;fill-rule:nonzero;stroke:none;stroke-width:2.55999994;stroke-linecap:round;stroke-linejoin:miter;stroke-miterlimit:4;stroke-dasharray:none;stroke-dashoffset:0;stroke-opacity:1;color-rendering:auto;image-rendering:auto;shape-rendering:auto;text-rendering:auto;enable-background:accumulate" /><path
     id="path837"
     d="m 17.258204,9.2599173 a 1.2943649,1.2943649 0 0 1 -1.294365,1.2943647 1.2943649,1.2943649 0 0 1 -1.294365,-1.2943647 1.2943649,1.2943649 0 0 1 1.294365,-1.294365 1.2943649,1.2943649 0 0 1 1.294365,1.294365 z"
     style="opacity:1;fill:#252424;fill-opacity:1;stroke:none;stroke-width:4.31999969;stroke-linecap:round;stroke-linejoin:miter;stroke-miterlimit:4;stroke-dasharray:none;stroke-dashoffset:0;stroke-opacity:1;paint-order:fill markers stroke" /></svg>