<?xml version="1.0" encoding="UTF-8" standalone="no"?>
<svg
   xmlns:dc="http://purl.org/dc/elements/1.1/"
   xmlns:cc="http://creativecommons.org/ns#"
   xmlns:rdf="http://www.w3.org/1999/02/22-rdf-syntax-ns#"
   xmlns:svg="http://www.w3.org/2000/svg"
   xmlns="http://www.w3.org/2000/svg"
   xmlns:sodipodi="http://sodipodi.sourceforge.net/DTD/sodipodi-0.dtd"
   xmlns:inkscape="http://www.inkscape.org/namespaces/inkscape"
   id="svg8"
   version="1.1"
   y="0px"
   x="0px"
   viewBox="0 0 32 32"
   fill="#000000"
   width="100px"
   height="100px"
   sodipodi:docname="i_leaf_black.svg"
   inkscape:version="0.92.3 (2405546, 2018-03-11)">
  <sodipodi:namedview
     pagecolor="#ffffff"
     bordercolor="#666666"
     borderopacity="1"
     objecttolerance="10"
     gridtolerance="10"
     guidetolerance="10"
     inkscape:pageopacity="0"
     inkscape:pageshadow="2"
     inkscape:window-width="1853"
     inkscape:window-height="1025"
     id="namedview8"
     showgrid="false"
     inkscape:zoom="4.22"
     inkscape:cx="91.868814"
     inkscape:cy="57.125247"
     inkscape:window-x="67"
     inkscape:window-y="27"
     inkscape:window-maximized="1"
     inkscape:current-layer="svg8"
     showguides="true"
     inkscape:guide-bbox="true" />
  <metadata
     id="metadata14">
    <rdf:RDF>
      <cc:Work
         rdf:about="">
        <dc:format>image/svg+xml</dc:format>
        <dc:type
           rdf:resource="http://purl.org/dc/dcmitype/StillImage" />
        <dc:title>natural, resource, environment, leaf, nature</dc:title>
      </cc:Work>
    </rdf:RDF>
  </metadata>
  <defs
     id="defs12" />
  <title
     id="title2">natural, resource, environment, leaf, nature</title>
  <path
     style="color:#000000;font-style:normal;font-variant:normal;font-weight:normal;font-stretch:normal;font-size:medium;line-height:normal;font-family:sans-serif;font-variant-ligatures:normal;font-variant-position:normal;font-variant-caps:normal;font-variant-numeric:normal;font-variant-alternates:normal;font-feature-settings:normal;text-indent:0;text-align:start;text-decoration:none;text-decoration-line:none;text-decoration-style:solid;text-decoration-color:#000000;letter-spacing:normal;word-spacing:normal;text-transform:none;writing-mode:lr-tb;direction:ltr;text-orientation:mixed;dominant-baseline:auto;baseline-shift:baseline;text-anchor:start;white-space:normal;shape-padding:0;clip-rule:nonzero;display:inline;overflow:visible;visibility:visible;opacity:1;isolation:auto;mix-blend-mode:normal;color-interpolation:sRGB;color-interpolation-filters:linearRGB;solid-color:#000000;solid-opacity:1;vector-effect:none;fill:#252424;fill-opacity:1;fill-rule:nonzero;stroke:none;stroke-width:1.60000002;stroke-linecap:round;stroke-linejoin:miter;stroke-miterlimit:4;stroke-dasharray:none;stroke-dashoffset:0;stroke-opacity:1;color-rendering:auto;image-rendering:auto;shape-rendering:auto;text-rendering:auto;enable-background:accumulate"
     d="m 23.389595,1.14199 c -11.023452,0 -20.099375,9.695908 -20.099375,20.1 v 6.415625 L 1.434595,29.51324 A 0.80124038,0.80124038 0 0 0 2.56772,30.646365 L 4.4995949,28.71449 H 11.52272 c 4.96927,0 9.770803,-2.447853 13.345625,-6.036875 3.574822,-3.589022 5.955,-8.345897 5.955,-13.113125 V 1.94324 a 0.80008,0.80008 0 0 0 -0.79875,-0.80125 z m 0,1.601875 H 29.22397 V 9.56449 c 0,4.228029 -2.166311,8.646231 -5.490625,11.98375 -3.324314,3.33752 -7.771699,5.566875 -12.210625,5.566875 H 6.09897 L 8.7770951,24.43699 H 15.25522 a 0.80078099,0.80078099 0 1 0 0,-1.60125 h -4.876875 l 4.308125,-4.30875 h 7.475 a 0.80078099,0.80078099 0 0 0 0,-1.60125 h -5.87375 l 4.324375,-4.324375 h 5.650625 a 0.80008,0.80008 0 1 0 0,-1.6 H 22.212095 L 25.82522,7.38824 A 0.80008,0.80008 0 0 0 25.243345,6.01324 0.80008,0.80008 0 0 0 24.69272,6.2557399 L 20.96647,9.98199 V 5.7807399 a 0.80008,0.80008 0 0 0 -0.8125,-0.810625 0.80008,0.80008 0 0 0 -0.7875,0.810625 V 11.58199 l -4.324375,4.324375 v -6.02375 a 0.80008,0.80008 0 0 0 -0.8125,-0.8106249 0.80008,0.80008 0 0 0 -0.78875,0.8106249 v 7.625 L 9.1558449,21.79199 v -4.98 A 0.80008,0.80008 0 0 0 8.343345,15.99949 0.80008,0.80008 0 0 0 7.55397,16.81199 v 6.581875 L 4.8895949,26.05824 v -4.81625 c 0,-9.464758 8.4233131,-18.498125 18.5000001,-18.498125 z"
     id="path874"
     inkscape:connector-curvature="0" />
  <g
     style="fill:#000000"
     id="g946"
     transform="matrix(0.44095356,0,0,0.44095356,11.729741,-19.63981)" />
</svg>
