<?xml version="1.0" encoding="UTF-8" standalone="no"?>
<svg
   xmlns:dc="http://purl.org/dc/elements/1.1/"
   xmlns:cc="http://creativecommons.org/ns#"
   xmlns:rdf="http://www.w3.org/1999/02/22-rdf-syntax-ns#"
   xmlns:svg="http://www.w3.org/2000/svg"
   xmlns="http://www.w3.org/2000/svg"
   id="svg8"
   version="1.1"
   y="0px"
   x="0px"
   viewBox="0 0 32 32"
   fill="#000000"
   width="100px"
   height="100px">
  <metadata
     id="metadata14">
    <rdf:RDF>
      <cc:Work
         rdf:about="">
        <dc:format>image/svg+xml</dc:format>
        <dc:type
           rdf:resource="http://purl.org/dc/dcmitype/StillImage" />
        <dc:title>natural, resource, environment, leaf, nature</dc:title>
      </cc:Work>
    </rdf:RDF>
  </metadata>
  <defs
     id="defs12" />
  <title
     id="title2">natural, resource, environment, leaf, nature</title>
  <g
     style="fill:#000000;fill-opacity:1"
     id="g6"
     data-name="14">
    <path
       style="fill:#000000;fill-opacity:1"
       id="path4"
       d="M30,1H23.74A20.77,20.77,0,0,0,3,21.74v5.85l-1.71,1.7a1,1,0,0,0,0,1.42,1,1,0,0,0,1.42,0L4.41,29h5.85A20.77,20.77,0,0,0,31,8.26V2A1,1,0,0,0,30,1ZM29,8.26A18.77,18.77,0,0,1,10.26,27H6.41l2-2H15a1,1,0,0,0,0-2H10.41l4-4H22a1,1,0,0,0,0-2H16.41l4-4H26a1,1,0,0,0,0-2H22.41l3.3-3.29a1,1,0,1,0-1.42-1.42L21,9.59V6a1,1,0,0,0-2,0v5.59l-4,4V10a1,1,0,0,0-2,0v7.59l-4,4V17a1,1,0,0,0-2,0v6.59l-2,2V21.74A18.77,18.77,0,0,1,23.74,3H29Z" />
  </g>
</svg>
