<?xml version="1.0" encoding="UTF-8" standalone="no"?>
<svg
   xmlns:dc="http://purl.org/dc/elements/1.1/"
   xmlns:cc="http://creativecommons.org/ns#"
   xmlns:rdf="http://www.w3.org/1999/02/22-rdf-syntax-ns#"
   xmlns:svg="http://www.w3.org/2000/svg"
   xmlns="http://www.w3.org/2000/svg"
   xmlns:sodipodi="http://sodipodi.sourceforge.net/DTD/sodipodi-0.dtd"
   xmlns:inkscape="http://www.inkscape.org/namespaces/inkscape"
   id="svg4"
   xml:space="preserve"
   style="enable-background:new 0 0 100 100;"
   viewBox="0 0 100 100"
   y="0px"
   x="0px"
   version="1.1"
   fill="#000000"
   width="100px"
   height="100px"
   sodipodi:docname="i_next_black_large.svg"
   inkscape:version="0.92.3 (2405546, 2018-03-11)"><sodipodi:namedview
     pagecolor="#ffffff"
     bordercolor="#666666"
     borderopacity="1"
     objecttolerance="10"
     gridtolerance="10"
     guidetolerance="10"
     inkscape:pageopacity="0"
     inkscape:pageshadow="2"
     inkscape:window-width="1853"
     inkscape:window-height="1025"
     id="namedview6"
     showgrid="false"
     inkscape:zoom="2.36"
     inkscape:cx="50"
     inkscape:cy="50"
     inkscape:window-x="67"
     inkscape:window-y="27"
     inkscape:window-maximized="1"
     inkscape:current-layer="svg4" /><metadata
     id="metadata10"><rdf:RDF><cc:Work
         rdf:about=""><dc:format>image/svg+xml</dc:format><dc:type
           rdf:resource="http://purl.org/dc/dcmitype/StillImage" /><dc:title></dc:title></cc:Work></rdf:RDF></metadata><defs
     id="defs8" /><path
     style="fill:#252424;fill-opacity:1"
     id="path2"
     d="M 26.8,81.8 59.8,50 26.8,18.2 c -1.2,-1.2 -1.9,-2.7 -1.9,-4.4 0,-1.7 0.6,-3.3 1.8,-4.5 1.2,-1.2 2.7,-1.9 4.4,-1.9 h 0.1 c 1.6,0 3.2,0.6 4.4,1.8 l 37.7,36.3 c 1.2,1.2 1.9,2.8 1.9,4.5 0,1.7 -0.7,3.4 -1.9,4.5 L 35.5,90.8 c -1.2,1.1 -2.7,1.8 -4.4,1.8 -1.7,0 -3.3,-0.7 -4.5,-1.9 -1.2,-1.2 -1.8,-2.8 -1.8,-4.5 0,-1.7 0.7,-3.3 2,-4.4 z" /></svg>