<?xml version="1.0" encoding="UTF-8" standalone="no"?>
<svg
   xmlns:dc="http://purl.org/dc/elements/1.1/"
   xmlns:cc="http://creativecommons.org/ns#"
   xmlns:rdf="http://www.w3.org/1999/02/22-rdf-syntax-ns#"
   xmlns:svg="http://www.w3.org/2000/svg"
   xmlns="http://www.w3.org/2000/svg"
   height="100px"
   width="100px"
   fill="#000000"
   data-name="Layer 1"
   viewBox="0 0 100 100"
   x="0px"
   y="0px"
   version="1.1"
   id="svg8">
  <metadata
     id="metadata14">
    <rdf:RDF>
      <cc:Work
         rdf:about="">
        <dc:format>image/svg+xml</dc:format>
        <dc:type
           rdf:resource="http://purl.org/dc/dcmitype/StillImage" />
        <dc:title>12</dc:title>
      </cc:Work>
    </rdf:RDF>
  </metadata>
  <defs
     id="defs12" />
  <title
     id="title2">12</title>
  <g
     id="text2483"
     style="font-style:normal;font-variant:normal;font-weight:bold;font-stretch:normal;font-size:55.32400131px;line-height:1.25;font-family:Roboto;-inkscape-font-specification:'Roboto Bold';letter-spacing:0px;word-spacing:0px;fill:#252424;fill-opacity:1;stroke:none;stroke-width:3.45775008"
     transform="scale(0.94399335,1.0593295)"
     aria-label="NOx">
    <path
       id="path2485"
       style="stroke-width:3.45775008"
       d="M 34.925946,72.98645 H 26.821845 L 11.04586,47.107352 V 72.98645 H 2.941758 V 33.654543 H 11.04586 L 26.848858,59.587669 V 33.654543 h 8.077088 z" />
    <path
       id="path2487"
       style="stroke-width:3.45775008"
       d="m 74.365909,54.211948 q 0,5.807939 -2.053039,10.184154 -2.053039,4.376215 -5.88898,6.753418 -3.808928,2.377204 -8.75243,2.377204 -4.889475,0 -8.725417,-2.35019 -3.835941,-2.350189 -5.943008,-6.699391 -2.107066,-4.376215 -2.13408,-10.049086 v -1.944984 q 0,-5.80794 2.080053,-10.211168 2.107067,-4.430243 5.915994,-6.780432 3.835942,-2.377203 8.75243,-2.377203 4.916489,0 8.725417,2.377203 3.835941,2.350189 5.915994,6.780432 2.107066,4.403228 2.107066,10.184154 z m -8.212156,-1.782903 q 0,-6.186131 -2.215121,-9.400758 -2.215121,-3.214627 -6.3212,-3.214627 -4.079064,0 -6.294185,3.187614 -2.215122,3.160599 -2.242135,9.292703 v 1.917971 q 0,6.024049 2.215121,9.34673 2.215121,3.322682 6.375227,3.322682 4.079064,0 6.267172,-3.187613 2.188107,-3.214627 2.215121,-9.346731 z" />
    <path
       id="path2489"
       style="stroke-width:3.45775008"
       d="m 90.925288,52.483073 4.916489,-8.725416 H 104.189 l -8.32021,14.317246 8.67139,14.911547 H 96.165941 L 90.952302,63.801802 85.765677,72.98645 H 77.364425 L 86.035814,58.074903 77.742616,43.757657 h 8.374239 z" />
  </g>
</svg>
