<?xml version="1.0" encoding="UTF-8" standalone="no"?>
<svg
   xmlns:dc="http://purl.org/dc/elements/1.1/"
   xmlns:cc="http://creativecommons.org/ns#"
   xmlns:rdf="http://www.w3.org/1999/02/22-rdf-syntax-ns#"
   xmlns:svg="http://www.w3.org/2000/svg"
   xmlns="http://www.w3.org/2000/svg"
   xmlns:sodipodi="http://sodipodi.sourceforge.net/DTD/sodipodi-0.dtd"
   xmlns:inkscape="http://www.inkscape.org/namespaces/inkscape"
   height="100px"
   width="100px"
   fill="#000000"
   version="1.1"
   x="0px"
   y="0px"
   viewBox="0 0 100 100"
   style="enable-background:new 0 0 100 100;"
   xml:space="preserve"
   id="svg8"
   sodipodi:docname="i_pedestrian_black_small.svg"
   inkscape:version="0.92.3 (2405546, 2018-03-11)"><sodipodi:namedview
     pagecolor="#ffffff"
     bordercolor="#666666"
     borderopacity="1"
     objecttolerance="10"
     gridtolerance="10"
     guidetolerance="10"
     inkscape:pageopacity="0"
     inkscape:pageshadow="2"
     inkscape:window-width="1853"
     inkscape:window-height="1025"
     id="namedview8"
     showgrid="false"
     inkscape:zoom="2.36"
     inkscape:cx="50"
     inkscape:cy="50"
     inkscape:window-x="67"
     inkscape:window-y="27"
     inkscape:window-maximized="1"
     inkscape:current-layer="g6" /><metadata
     id="metadata14"><rdf:RDF><cc:Work
         rdf:about=""><dc:format>image/svg+xml</dc:format><dc:type
           rdf:resource="http://purl.org/dc/dcmitype/StillImage" /><dc:title /></cc:Work></rdf:RDF></metadata><defs
     id="defs12" /><g
     transform="matrix(0.64689266,0,0,0.64689266,18.254819,17.019774)"
     id="g6"><circle
       cx="54.523132"
       cy="13.9829"
       r="8.9828987"
       id="circle2"
       style="fill:#8a8a8a;fill-opacity:1" /><path
       d="M 77.025497,50.450317 64.118691,41.484459 56.973965,27.760073 c -0.151367,-0.290541 -0.352585,-0.535023 -0.575436,-0.751574 -0.59547,-0.64971 -1.383182,-1.132288 -2.306644,-1.32564 l -6.777573,-1.216196 c -0.01234,-0.0023 -0.02443,-0.0014 -0.03677,-0.0035 -0.907928,-0.214441 -1.901245,-0.0046 -2.652477,0.659401 L 32.455696,35.864399 c -0.02959,0.02599 -0.05036,0.05792 -0.07861,0.08482 -0.07704,0.07342 -0.147633,0.152195 -0.216977,0.234276 -0.06134,0.0724 -0.120731,0.145015 -0.174085,0.221965 -0.05318,0.07673 -0.09995,0.157669 -0.146296,0.240437 -0.05244,0.09371 -0.101463,0.187481 -0.143074,0.285351 -0.01539,0.03603 -0.03788,0.06669 -0.05193,0.10363 l -5.85508,15.369812 c -0.584043,1.534382 0.185827,3.252197 1.720209,3.836754 0.348397,0.13264 0.705969,0.1954 1.057787,0.1954 1.198097,0 2.327025,-0.729626 2.778965,-1.915154 l 5.594126,-14.685386 4.070774,-3.593296 -2.321865,21.400058 -3.890564,15.160271 -12.168772,13.47506 c -1.338951,1.482627 -1.222324,3.769432 0.2603,5.108871 0.692005,0.625199 1.55912,0.933006 2.423328,0.933006 0.987648,0 1.971333,-0.402603 2.685597,-1.193283 L 40.761154,76.995499 c 0.0293,-0.03249 0.04811,-0.07006 0.07598,-0.103401 0.102719,-0.121987 0.197628,-0.25013 0.284298,-0.38659 0.04244,-0.0667 0.08308,-0.133041 0.120732,-0.201904 0.06686,-0.122322 0.123951,-0.250633 0.177078,-0.382484 0.03166,-0.07855 0.06658,-0.155159 0.09257,-0.235245 0.0081,-0.02497 0.02078,-0.04708 0.02839,-0.0724 l 4.371887,-14.526291 0.06701,0.01926 7.969571,13.053818 6.372718,18.404831 C 60.839165,94.061287 62.240475,95 63.739628,95 c 0.391948,0 0.791675,-0.06486 1.18362,-0.200363 1.888161,-0.654099 2.887841,-2.713524 2.234619,-4.601776 L 60.658295,71.42691 c -0.0019,-0.0057 -0.0054,-0.01038 -0.0074,-0.01596 -0.03982,-0.11287 -0.10115,-0.220085 -0.152938,-0.330384 -0.05358,-0.114067 -0.0993,-0.233657 -0.163254,-0.339851 -0.003,-0.005 -0.0043,-0.01049 -0.0074,-0.01539 l -8.065651,-15.006539 3.604782,-17.209038 3.328636,6.393978 c 0.01345,0.02576 0.03511,0.04355 0.04908,0.06874 0.105343,0.185715 0.227726,0.36208 0.374165,0.524021 0.0875,0.09861 0.186111,0.1791 0.284439,0.263863 0.0741,0.06316 0.139938,0.132816 0.221538,0.189476 l 0.128426,0.08926 c 0.02779,0.01756 0.0523,0.03928 0.08063,0.05598 l 13.299263,9.23838 c 0.517784,0.359173 1.108093,0.531376 1.693619,0.531376 0.94162,0 1.866875,-0.445301 2.444649,-1.276505 0.936661,-1.348896 0.602768,-3.201293 -0.745362,-4.138008 z"
       id="path4"
       style="fill:#8a8a8a;fill-opacity:1" /></g></svg>