<?xml version="1.0" encoding="UTF-8" standalone="no"?>
<svg
   xmlns:i="http://ns.adobe.com/AdobeIllustrator/10.0/"
   xmlns:dc="http://purl.org/dc/elements/1.1/"
   xmlns:cc="http://creativecommons.org/ns#"
   xmlns:rdf="http://www.w3.org/1999/02/22-rdf-syntax-ns#"
   xmlns:svg="http://www.w3.org/2000/svg"
   xmlns="http://www.w3.org/2000/svg"
   id="svg8"
   xml:space="preserve"
   style="enable-background:new 0 0 100 100;"
   viewBox="0 0 100 100"
   y="0px"
   x="0px"
   version="1.1"
   fill="#000000"
   width="100px"
   height="100px"><metadata
     id="metadata14"><rdf:RDF><cc:Work
         rdf:about=""><dc:format>image/svg+xml</dc:format><dc:type
           rdf:resource="http://purl.org/dc/dcmitype/StillImage" /><dc:title></dc:title></cc:Work></rdf:RDF></metadata><defs
     id="defs12" /><g
     id="g6"
     transform="matrix(0.64689266,0,0,0.64689266,18.254819,17.019774)"><g
       transform="translate(-10.407587,-25.362445)"
       id="g838"><path
         d="m 26.301202,35.937636 c 3.59181,0 6.50343,-2.911747 6.50343,-6.503501 0,-3.591769 -2.91162,-6.503477 -6.50343,-6.503477 -3.591801,0 -6.503429,2.911708 -6.503429,6.503477 0,3.591754 2.911628,6.503501 6.503429,6.503501 z"
         id="path2-4"
         style="fill:#8a8a8a;fill-opacity:1;stroke-width:1.39271629" /><path
         d="M 46.043231,56.635907 C 43.011441,55.241659 36.767053,53.256624 35.061525,50.335677 32.783738,46.434679 30.835337,37.352778 22.832097,37.40375 c -3.495027,0.0228 -9.183862,5.800382 -13.1996224,8.406431 -1.8686018,1.212363 -1.8080181,4.473962 -2.1379585,6.423068 -0.4325813,2.551878 -0.86445,5.103892 -1.2976012,7.655905 -0.4313066,2.539899 1.704831,3.689865 3.8039391,2.554238 1.149966,-0.621981 1.653297,-2.199097 1.854263,-3.385689 0.518936,-3.060078 1.211247,-5.449564 1.730159,-8.509634 l 3.688068,-2.99351 c -1.25248,7.491564 -2.385732,11.917619 -3.53569,22.015644 -0.340241,2.988766 -0.749973,6.049399 -1.454848,6.968455 -2.278888,2.970668 -4.0228467,5.89091 -6.3342115,8.836505 -3.2713456,4.167988 2.5518865,7.3697 5.5466385,3.553798 2.047994,-2.61023 4.096114,-5.219764 6.143553,-7.829297 2.903394,-3.700728 2.778601,-9.735782 3.535683,-14.2596 2.296457,4.959456 4.592216,9.918087 6.888657,14.876854 1.063065,2.297004 2.126676,4.594015 3.190295,6.891025 1.985613,4.287477 8.10463,2.067344 6.01933,-2.434329 -2.959243,-6.390062 -5.317534,-12.780827 -8.276785,-19.170325 -0.923783,-1.995905 -2.371925,-3.938329 -2.057035,-6.108732 0.516552,-3.555603 1.032979,-7.110652 1.548977,-10.665558 0.853603,1.461934 1.59744,3.462566 2.743226,4.699021 0.813501,1.394106 3.882067,2.269989 5.286355,2.915373 2.195605,1.01028 4.391218,2.019301 6.586839,3.028876 3.517314,1.619173 6.672649,-2.51956 2.938903,-4.236362 z"
         id="path4-2"
         style="fill:#8a8a8a;fill-opacity:1;stroke-width:1.39271629" /></g><g
       transform="matrix(0.76428972,0,0,0.76428972,33.39285,31.28097)"
       id="g840"
       style="fill:#8a8a8a;fill-opacity:1"><g
         style="fill:#8a8a8a;fill-opacity:1"
         id="g824"><g
           style="fill:#8a8a8a;fill-opacity:1"
           i:extraneous="self"
           id="g822"><g
             style="fill:#8a8a8a;fill-opacity:1"
             id="g820"><path
               style="fill:#8a8a8a;fill-opacity:1"
               d="m 79.7,58.9 c -0.9,0 -1.8,0.1 -2.7,0.2 L 71.7,39.6 c -0.2,-0.9 -1,-1.5 -1.9,-1.5 h -5.6 c -0.4,-1.2 -1.5,-2.3 -2.8,-2.7 l -5.9,-1.9 -2,-5.8 C 52.8,25.8 51.4,24.2 49.6,23.2 L 48,22.5 c -3.9,-2 -8.7,-0.6 -10.9,3.2 l -6,10.5 c 0,0 -2.6,4.4 -2.6,4.4 -1.8,3.1 -0.9,7.2 2.2,9.2 l 14.7,9.5 0.5,16 c 0.1,2.3 1.7,4.4 4,4.8 2.9,0.4 5.4,-1.8 5.4,-4.7 V 54.7 c 0,-1.2 -0.5,-2.3 -1.5,-3 l -10.1,-7.9 4,-7.2 0.6,1.6 c 0.4,1.2 1.4,2.1 2.6,2.5 l 8,2.6 c 0.5,0.2 1,0.2 1.4,0.2 1.1,0 2.1,-0.5 2.8,-1.3 h 5 l 2,7.4 h -12 c 0.9,1.2 1.4,2.5 1.6,4 h 4.9 l -4.9,6.7 v 6.8 L 69.5,53.6 H 71 l 1.8,6.5 c -6.5,2.6 -11.2,9 -11.2,16.5 0,9.8 8,17.8 17.8,17.8 9.8,0 17.8,-8 17.8,-17.8 0.3,-9.7 -7.7,-17.7 -17.5,-17.7 z m 0,31.6 c -7.6,0 -13.8,-6.2 -13.8,-13.8 0,-5.6 3.4,-10.5 8.3,-12.6 l 3.6,13.2 c 0.2,0.9 1.1,1.5 1.9,1.5 0.2,0 0.4,0 0.5,-0.1 1.1,-0.3 1.7,-1.4 1.4,-2.5 L 78,63 c 0.6,-0.1 1.1,-0.1 1.7,-0.1 7.6,0 13.8,6.2 13.8,13.8 0,7.6 -6.2,13.8 -13.8,13.8 z"
               id="path814" /><path
               style="fill:#8a8a8a;fill-opacity:1"
               d="M 41.4,74.7 H 38 C 37.4,69.8 34.9,65.5 31.2,62.6 l 3.1,-5.1 -3.4,-2.2 -3.2,5.2 c -2.2,-1 -4.8,-1.6 -7.4,-1.6 -9.8,0 -17.8,8 -17.8,17.8 0,9.8 8,17.8 17.8,17.8 9.1,0 16.7,-6.9 17.7,-15.8 h 4 c -0.4,-1 -0.6,-2 -0.6,-3.1 z M 20.3,90.5 c -7.6,0 -13.8,-6.2 -13.8,-13.8 0,-7.6 6.2,-13.8 13.8,-13.8 1.9,0 3.7,0.4 5.3,1.1 l -7.1,11.7 c -0.4,0.6 -0.4,1.4 0,2 0.4,0.6 1,1 1.7,1 h 13.6 c -0.9,6.6 -6.6,11.8 -13.5,11.8 z m 3.6,-15.8 5.2,-8.6 c 2.6,2.1 4.3,5.2 4.9,8.6 z"
               id="path816" /><circle
               style="fill:#8a8a8a;fill-opacity:1"
               cx="53.799999"
               cy="13.6"
               r="8"
               id="circle818" /></g></g></g></g><path
       id="path840"
       d="M 16.20352,99.454148 68.82843,8.3051381"
       style="fill:none;fill-opacity:1;stroke:#8a8a8a;stroke-width:4.63755465;stroke-linecap:round;stroke-linejoin:miter;stroke-miterlimit:4;stroke-dasharray:none;stroke-opacity:1" /></g></svg>