<?xml version="1.0" encoding="UTF-8" standalone="no"?>
<svg
   xmlns:dc="http://purl.org/dc/elements/1.1/"
   xmlns:cc="http://creativecommons.org/ns#"
   xmlns:rdf="http://www.w3.org/1999/02/22-rdf-syntax-ns#"
   xmlns:svg="http://www.w3.org/2000/svg"
   xmlns="http://www.w3.org/2000/svg"
   id="svg8"
   xml:space="preserve"
   style="enable-background:new 0 0 100 100;"
   viewBox="0 0 100 100"
   y="0px"
   x="0px"
   version="1.1"
   fill="#000000"
   width="100px"
   height="100px"><metadata
     id="metadata14"><rdf:RDF><cc:Work
         rdf:about=""><dc:format>image/svg+xml</dc:format><dc:type
           rdf:resource="http://purl.org/dc/dcmitype/StillImage" /><dc:title></dc:title></cc:Work></rdf:RDF></metadata><defs
     id="defs12" /><g
     style="fill:#8a8a8a;fill-opacity:1"
     id="g6"><circle
       style="fill:#8a8a8a;fill-opacity:1"
       id="circle2"
       r="8.9828987"
       cy="13.9828997"
       cx="54.5231323" /><path
       style="fill:#8a8a8a;fill-opacity:1"
       id="path4"
       d="M77.0254974,50.4503174l-12.9068069-8.9658585l-7.1447258-13.7243862   c-0.1513672-0.2905407-0.3525848-0.5350227-0.5754356-0.7515736c-0.5954704-0.6497097-1.3831825-1.132288-2.3066444-1.3256397   l-6.7775726-1.2161961c-0.0123444-0.0023365-0.0244255-0.0013676-0.0367699-0.0035343   c-0.9079285-0.2144413-1.9012451-0.0045605-2.6524773,0.6594009L32.4556961,35.864399   c-0.0295868,0.0259933-0.0503616,0.0579147-0.0786095,0.0848198c-0.0770378,0.0734177-0.1476326,0.152195-0.2169762,0.2342758   c-0.0613365,0.0723953-0.1207314,0.1450157-0.1740856,0.2219658c-0.0531826,0.076725-0.0999527,0.1576691-0.1462955,0.2404366   c-0.0524406,0.0937119-0.1014633,0.1874809-0.143074,0.2853508c-0.0153904,0.036026-0.037878,0.0666924-0.0519295,0.1036301   l-5.8550816,15.369812c-0.5840435,1.5343819,0.1858273,3.2521973,1.7202091,3.8367538   c0.3483963,0.1326408,0.7059689,0.1954002,1.0577869,0.1954002c1.1980972,0,2.3270245-0.7296257,2.778965-1.9151535   l5.5941257-14.6853867l4.0707741-3.5932961L38.68964,57.6430664l-3.890564,15.1602707L22.6303043,86.2783966   c-1.3389511,1.4826279-1.2223244,3.7694321,0.2602997,5.1088715c0.6920052,0.6251984,1.5591202,0.9330063,2.4233284,0.9330063   c0.987648,0,1.9713326-0.4026031,2.6855965-1.1932831l12.7616253-14.1314926   c0.0292969-0.0324936,0.0481071-0.0700607,0.0759811-0.1034012c0.1027184-0.1219864,0.197628-0.2501297,0.2842979-0.3865891   c0.0424385-0.0666962,0.0830803-0.1330414,0.1207314-0.2019043c0.066864-0.1223221,0.123951-0.2506332,0.1770782-0.3824844   c0.031662-0.0785446,0.0665779-0.155159,0.0925713-0.2352448c0.0080643-0.024971,0.0207748-0.047081,0.0283852-0.0723953   l4.3718872-14.5262909l0.067009,0.0192642l7.9695702,13.0538177l6.3727188,18.4048309   C60.8391647,94.0612869,62.2404747,95,63.7396278,95c0.3919487,0,0.7916756-0.0648651,1.1836205-0.2003632   c1.8881607-0.6540985,2.8878403-2.7135239,2.2346191-4.6017761l-6.4995728-18.7709503   c-0.0019379-0.0057068-0.0053864-0.010376-0.0074081-0.0159607c-0.0398178-0.1128693-0.1011505-0.2200851-0.1529388-0.3303833   c-0.0535812-0.1140671-0.0992966-0.2336578-0.1632538-0.3398514c-0.0029907-0.0049591-0.0043297-0.0104904-0.0074081-0.0153885   l-8.0656509-15.0065384l3.6047821-17.2090378l3.3286362,6.3939781c0.0134506,0.0257645,0.0351143,0.0435524,0.0490761,0.0687447   c0.1053429,0.1857147,0.227726,0.3620796,0.3741646,0.5240211c0.0874977,0.0986137,0.1861115,0.1791,0.2844391,0.2638626   c0.0741043,0.0631599,0.1399384,0.1328163,0.2215385,0.189476l0.1284256,0.0892639   c0.0277901,0.0175552,0.0522995,0.0392761,0.0806313,0.0559769l13.299263,9.2383804   C74.1503754,55.692627,74.7406845,55.86483,75.32621,55.86483c0.9416199,0,1.8668747-0.4453011,2.4446487-1.2765045   C78.7075195,53.2394295,78.3736267,51.3870316,77.0254974,50.4503174z" /></g></svg>