<svg height='100px' width='100px'  fill="#000000" xmlns="http://www.w3.org/2000/svg" xmlns:xlink="http://www.w3.org/1999/xlink" version="1.1" x="0px" y="0px" viewBox="0 0 32 32" enable-background="new 0 0 32 32" xml:space="preserve"><g display="none"><rect x="-86.73" y="-85.339" display="inline" fill="#000000" width="412.397" height="207"></rect></g><g display="none"><g display="inline"><path d="M16,1c5.142,0,9.325,4.183,9.325,9.325c0,0.845-0.114,1.684-0.338,2.493c-0.091,0.329-0.202,0.656-0.315,0.942    l-0.266,0.604L16,29.899L7.606,14.388l-0.282-0.638c-0.119-0.3-0.223-0.614-0.311-0.931c-0.224-0.809-0.338-1.648-0.338-2.493    C6.675,5.183,10.858,1,16,1 M16,0C10.298,0,5.675,4.622,5.675,10.325c0,0.956,0.131,1.882,0.374,2.76    c0.097,0.352,0.212,0.696,0.345,1.032l0.313,0.711L16,32l9.305-17.196l0.282-0.641c0.14-0.35,0.262-0.71,0.364-1.078    c0.243-0.879,0.374-1.804,0.374-2.76C26.325,4.622,21.702,0,16,0L16,0z"></path></g><g display="inline"><path d="M16,5.186c2.782,0,5.045,2.263,5.045,5.045c0,2.782-2.263,5.045-5.045,5.045c-2.782,0-5.045-2.263-5.045-5.045    C10.955,7.449,13.218,5.186,16,5.186 M16,4.186c-3.338,0-6.045,2.706-6.045,6.045c0,3.338,2.706,6.045,6.045,6.045    s6.045-2.706,6.045-6.045C22.045,6.893,19.338,4.186,16,4.186L16,4.186z"></path></g></g><g display="none"><rect x="-83.667" y="-89.005" display="inline" fill="#000000" width="414.333" height="204"></rect></g><g display="none"><g display="inline"><path fill="#000000" d="M7.146,14.59l-0.294-0.674c-0.119-0.303-0.229-0.63-0.322-0.965c-0.235-0.851-0.354-1.734-0.354-2.626    C6.176,4.907,10.583,0.5,16,0.5s9.824,4.407,9.824,9.825c0,0.892-0.119,1.775-0.354,2.626c-0.098,0.35-0.213,0.692-0.347,1.025    l-0.276,0.626L16,30.949L7.146,14.59z"></path><path d="M16,1c5.142,0,9.325,4.183,9.325,9.325c0,0.845-0.114,1.684-0.338,2.493c-0.091,0.329-0.202,0.656-0.315,0.942    l-0.266,0.604L16,29.899L7.606,14.388l-0.282-0.638c-0.119-0.3-0.223-0.614-0.311-0.931c-0.224-0.809-0.338-1.648-0.338-2.493    C6.675,5.183,10.858,1,16,1 M16,0C10.298,0,5.675,4.622,5.675,10.325c0,0.956,0.131,1.882,0.374,2.76    c0.097,0.352,0.212,0.696,0.345,1.032l0.313,0.711L16,32l9.305-17.196l0.282-0.641c0.14-0.35,0.262-0.71,0.364-1.078    c0.243-0.879,0.374-1.804,0.374-2.76C26.325,4.622,21.702,0,16,0L16,0z"></path></g><g display="inline"><circle fill="#000000" cx="16" cy="10.231" r="5.545"></circle><path d="M16,5.186c2.782,0,5.045,2.263,5.045,5.045c0,2.782-2.263,5.045-5.045,5.045c-2.782,0-5.045-2.263-5.045-5.045    C10.955,7.449,13.218,5.186,16,5.186 M16,4.186c-3.338,0-6.045,2.706-6.045,6.045c0,3.338,2.706,6.045,6.045,6.045    s6.045-2.706,6.045-6.045C22.045,6.893,19.338,4.186,16,4.186L16,4.186z"></path></g></g><g display="none"><circle display="inline" cx="16" cy="10.231" r="5.545"></circle><path display="inline" d="M16,0C10.298,0,5.675,4.622,5.675,10.325c0,0.956,0.131,1.882,0.374,2.76   c0.097,0.352,0.212,0.696,0.345,1.032l0.313,0.711L16,32l9.305-17.196l0.282-0.641c0.14-0.35,0.262-0.71,0.364-1.078   c0.243-0.879,0.374-1.804,0.374-2.76C26.325,4.622,21.702,0,16,0z M16,16.776c-3.608,0-6.545-2.937-6.545-6.545   S12.392,3.686,16,3.686s6.545,2.937,6.545,6.545S19.608,16.776,16,16.776z"></path></g><g display="none"><g display="inline"><path fill="#000000" d="M16,0C10.298,0,5.675,4.622,5.675,10.325c0,0.956,0.131,1.882,0.374,2.76    c0.097,0.352,0.212,0.696,0.345,1.032l0.313,0.711L16,32l9.305-17.196l0.282-0.641c0.14-0.35,0.262-0.71,0.364-1.078    c0.243-0.879,0.374-1.804,0.374-2.76C26.325,4.622,21.702,0,16,0z"></path></g><g display="inline"><circle fill="#000000" cx="16" cy="10.231" r="6.045"></circle></g></g><g><path d="M25.587,14.157c0.14-0.35,0.262-0.71,0.364-1.078c0.243-0.879,0.374-1.804,0.374-2.76c0-5.702-4.622-10.325-10.325-10.325   S5.675,4.617,5.675,10.319c0,0.956,0.131,1.882,0.374,2.76c0.097,0.352,0.212,0.696,0.345,1.032l0.313,0.711L16,31.995   l9.305-17.196L25.587,14.157z M24.023,12.546c-0.078,0.284-0.173,0.565-0.281,0.838l-0.235,0.534L16,27.792L8.505,13.943   l-0.264-0.6c-0.1-0.257-0.189-0.525-0.265-0.797c-0.2-0.722-0.301-1.471-0.301-2.227c0-4.59,3.734-8.325,8.325-8.325   c4.59,0,8.325,3.734,8.325,8.325C24.325,11.075,24.223,11.824,24.023,12.546z"></path><path d="M16,4.181c-3.338,0-6.045,2.706-6.045,6.045c0,3.338,2.706,6.045,6.045,6.045s6.045-2.706,6.045-6.045   C22.045,6.887,19.338,4.181,16,4.181z M16,14.271c-2.23,0-4.045-1.814-4.045-4.045c0-2.23,1.815-4.045,4.045-4.045   s4.045,1.814,4.045,4.045C20.045,12.456,18.23,14.271,16,14.271z"></path></g></svg>