<?xml version="1.0" encoding="UTF-8" standalone="no"?>
<svg
   xmlns:dc="http://purl.org/dc/elements/1.1/"
   xmlns:cc="http://creativecommons.org/ns#"
   xmlns:rdf="http://www.w3.org/1999/02/22-rdf-syntax-ns#"
   xmlns:svg="http://www.w3.org/2000/svg"
   xmlns="http://www.w3.org/2000/svg"
   xmlns:sodipodi="http://sodipodi.sourceforge.net/DTD/sodipodi-0.dtd"
   xmlns:inkscape="http://www.inkscape.org/namespaces/inkscape"
   id="svg12"
   version="1.1"
   y="0px"
   x="0px"
   viewBox="0 0 62.36 72.57"
   data-name="Layer 1"
   fill="#000000"
   width="100px"
   height="100px"
   sodipodi:docname="i_pin_black.svg"
   inkscape:version="0.92.3 (2405546, 2018-03-11)">
  <sodipodi:namedview
     pagecolor="#ffffff"
     bordercolor="#666666"
     borderopacity="1"
     objecttolerance="10"
     gridtolerance="10"
     guidetolerance="10"
     inkscape:pageopacity="0"
     inkscape:pageshadow="2"
     inkscape:window-width="1853"
     inkscape:window-height="1025"
     id="namedview11"
     showgrid="false"
     inkscape:zoom="3.337544"
     inkscape:cx="-32.995161"
     inkscape:cy="50"
     inkscape:window-x="67"
     inkscape:window-y="27"
     inkscape:window-maximized="1"
     inkscape:current-layer="svg12"
     showguides="true"
     inkscape:guide-bbox="true">
    <sodipodi:guide
       position="31.202944,99.585384"
       orientation="1,0"
       id="guide958"
       inkscape:locked="false" />
  </sodipodi:namedview>
  <metadata
     id="metadata18">
    <rdf:RDF>
      <cc:Work
         rdf:about="">
        <dc:format>image/svg+xml</dc:format>
        <dc:type
           rdf:resource="http://purl.org/dc/dcmitype/StillImage" />
        <dc:title>79</dc:title>
      </cc:Work>
    </rdf:RDF>
  </metadata>
  <defs
     id="defs16">
    <style
       id="style928"
       type="text/css">
   
    .fil0 {fill:#000000;fill-rule:nonzero}
   
  </style>
  </defs>
  <title
     id="title2">79</title>
  <g
     style="clip-rule:evenodd;fill:#252424;fill-rule:evenodd;image-rendering:optimizeQuality;shape-rendering:geometricPrecision;text-rendering:geometricPrecision;fill-opacity:1"
     id="g948"
     transform="matrix(0.17202671,0,0,0.17202671,7.696348,0.78657365)">
    <g
       id="g936"
       style="fill:#252424;fill-opacity:1">
      <path
         id="path932"
         d="m 137,0 c 78,0 137,66 137,142 0,51 -53,134 -79,180 l -50,87 c -4,5 -12,5 -15,0 L 80,322 C 53,276 0,193 0,142 0,66 59,0 137,0 Z m 0,20 C 71,20 20,77 20,142 c 0,45 53,127 77,169 l 40,70 40,-70 C 201,269 254,187 254,142 254,77 204,20 137,20 Z"
         class="fil0"
         inkscape:connector-curvature="0"
         style="fill:#252424;fill-rule:nonzero;fill-opacity:1" />
      <path
         id="path934"
         d="m 137,73 c 37,0 67,29 67,66 0,37 -30,66 -67,66 -37,0 -66,-29 -66,-66 0,-37 30,-66 66,-66 z m 0,20 c -25,0 -46,20 -46,46 0,26 21,46 46,46 26,0 46,-20 46,-46 0,-26 -20,-46 -46,-46 z"
         class="fil0"
         inkscape:connector-curvature="0"
         style="fill:#252424;fill-rule:nonzero;fill-opacity:1" />
    </g>
  </g>
</svg>
