<?xml version="1.0" encoding="UTF-8" standalone="no"?>
<svg
   xmlns:dc="http://purl.org/dc/elements/1.1/"
   xmlns:cc="http://creativecommons.org/ns#"
   xmlns:rdf="http://www.w3.org/1999/02/22-rdf-syntax-ns#"
   xmlns:svg="http://www.w3.org/2000/svg"
   xmlns="http://www.w3.org/2000/svg"
   height="100px"
   width="100px"
   fill="#000000"
   version="1.1"
   x="0px"
   y="0px"
   viewBox="0 0 100 100"
   style="enable-background:new 0 0 100 100;"
   xml:space="preserve"
   id="svg4"><metadata
     id="metadata10"><rdf:RDF><cc:Work
         rdf:about=""><dc:format>image/svg+xml</dc:format><dc:type
           rdf:resource="http://purl.org/dc/dcmitype/StillImage" /><dc:title></dc:title></cc:Work></rdf:RDF></metadata><defs
     id="defs8" /><path
     d="M 73.2,81.8 40.2,50 73.2,18.2 c 1.2,-1.2 1.9,-2.7 1.9,-4.4 0,-1.7 -0.6,-3.3 -1.8,-4.5 C 72.1,8.1 70.6,7.4 68.9,7.4 H 68.8 C 67.2,7.4 65.6,8 64.4,9.2 L 26.7,45.5 c -1.2,1.2 -1.9,2.8 -1.9,4.5 0,1.7 0.7,3.4 1.9,4.5 l 37.8,36.3 c 1.2,1.1 2.7,1.8 4.4,1.8 1.7,0 3.3,-0.7 4.5,-1.9 1.2,-1.2 1.8,-2.8 1.8,-4.5 0,-1.7 -0.7,-3.3 -2,-4.4 z"
     id="path2"
     style="fill:#252424;fill-opacity:1" /></svg>