<?xml version="1.0" encoding="UTF-8" standalone="no"?>
<svg
   xmlns:dc="http://purl.org/dc/elements/1.1/"
   xmlns:cc="http://creativecommons.org/ns#"
   xmlns:rdf="http://www.w3.org/1999/02/22-rdf-syntax-ns#"
   xmlns:svg="http://www.w3.org/2000/svg"
   xmlns="http://www.w3.org/2000/svg"
   id="svg12"
   version="1.1"
   y="0px"
   x="0px"
   viewBox="0 0 62.36 72.57"
   data-name="Layer 1"
   fill="#000000"
   width="100px"
   height="100px">
  <metadata
     id="metadata18">
    <rdf:RDF>
      <cc:Work
         rdf:about="">
        <dc:format>image/svg+xml</dc:format>
        <dc:type
           rdf:resource="http://purl.org/dc/dcmitype/StillImage" />
        <dc:title>79</dc:title>
      </cc:Work>
    </rdf:RDF>
  </metadata>
  <defs
     id="defs16" />
  <title
     id="title2">79</title>
  <path
     id="path912"
     transform="matrix(0.7257,0,0,0.7257,-5.105,0)"
     d="M 49.828125 1.1835938 A 2.50025 2.50025 0 0 0 47.365234 3.71875 L 47.365234 47.519531 L 3.7675781 47.519531 A 2.5002797 2.5002797 0 1 0 3.7675781 52.519531 L 47.365234 52.519531 L 47.365234 96.716797 A 2.5002797 2.5002797 0 1 0 52.365234 96.716797 L 52.365234 52.519531 L 96.765625 52.519531 A 2.5002797 2.5002797 0 1 0 96.765625 47.519531 L 52.365234 47.519531 L 52.365234 3.71875 A 2.50025 2.50025 0 0 0 49.828125 1.1835938 z "
     style="color:#000000;font-style:normal;font-variant:normal;font-weight:normal;font-stretch:normal;font-size:medium;line-height:normal;font-family:sans-serif;font-variant-ligatures:normal;font-variant-position:normal;font-variant-caps:normal;font-variant-numeric:normal;font-variant-alternates:normal;font-feature-settings:normal;text-indent:0;text-align:start;text-decoration:none;text-decoration-line:none;text-decoration-style:solid;text-decoration-color:#000000;letter-spacing:normal;word-spacing:normal;text-transform:none;writing-mode:lr-tb;direction:ltr;text-orientation:mixed;dominant-baseline:auto;baseline-shift:baseline;text-anchor:start;white-space:normal;shape-padding:0;clip-rule:nonzero;display:inline;overflow:visible;visibility:visible;opacity:1;isolation:auto;mix-blend-mode:normal;color-interpolation:sRGB;color-interpolation-filters:linearRGB;solid-color:#000000;solid-opacity:1;vector-effect:none;fill:#252424;fill-opacity:1;fill-rule:nonzero;stroke:none;stroke-width:5;stroke-linecap:round;stroke-linejoin:miter;stroke-miterlimit:4;stroke-dasharray:none;stroke-dashoffset:0;stroke-opacity:1;color-rendering:auto;image-rendering:auto;shape-rendering:auto;text-rendering:auto;enable-background:accumulate" />
  <path
     id="path916"
     transform="matrix(0.7257,0,0,0.7257,-5.105,0)"
     d="M 7.8496094 5.3164062 A 2.50025 2.50025 0 0 0 6.109375 9.6074219 L 18.375 21.875 L 6.109375 34.140625 A 2.50025 2.50025 0 1 0 9.6425781 37.675781 L 21.908203 25.410156 L 34.173828 37.675781 A 2.5006524 2.5006524 0 1 0 37.710938 34.140625 L 25.443359 21.875 L 37.710938 9.6074219 A 2.50025 2.50025 0 0 0 35.890625 5.3183594 A 2.50025 2.50025 0 0 0 34.173828 6.0742188 L 21.908203 18.339844 L 9.6425781 6.0742188 A 2.50025 2.50025 0 0 0 7.8496094 5.3164062 z "
     style="color:#000000;font-style:normal;font-variant:normal;font-weight:normal;font-stretch:normal;font-size:medium;line-height:normal;font-family:sans-serif;font-variant-ligatures:normal;font-variant-position:normal;font-variant-caps:normal;font-variant-numeric:normal;font-variant-alternates:normal;font-feature-settings:normal;text-indent:0;text-align:start;text-decoration:none;text-decoration-line:none;text-decoration-style:solid;text-decoration-color:#000000;letter-spacing:normal;word-spacing:normal;text-transform:none;writing-mode:lr-tb;direction:ltr;text-orientation:mixed;dominant-baseline:auto;baseline-shift:baseline;text-anchor:start;white-space:normal;shape-padding:0;clip-rule:nonzero;display:inline;overflow:visible;visibility:visible;opacity:1;isolation:auto;mix-blend-mode:normal;color-interpolation:sRGB;color-interpolation-filters:linearRGB;solid-color:#000000;solid-opacity:1;vector-effect:none;fill:#252424;fill-opacity:1;fill-rule:nonzero;stroke:none;stroke-width:5;stroke-linecap:round;stroke-linejoin:miter;stroke-miterlimit:4;stroke-dasharray:none;stroke-dashoffset:0;stroke-opacity:1;color-rendering:auto;image-rendering:auto;shape-rendering:auto;text-rendering:auto;enable-background:accumulate" />
  <path
     id="path920"
     d="m 50.890625,3.7910156 c -6.650196,0 -12.080078,5.4298817 -12.080078,12.0800784 0,6.650196 5.429882,12.080078 12.080078,12.080078 6.650196,0 12.080078,-5.429882 12.080078,-12.080078 0,-6.6501967 -5.429882,-12.0800784 -12.080078,-12.0800784 z m 0,3.6289063 c 4.68921,0 8.453125,3.7619621 8.453125,8.4511721 0,4.689209 -3.763915,8.453125 -8.453125,8.453125 -4.68921,0 -8.451172,-3.763916 -8.451172,-8.453125 0,-4.68921 3.761962,-8.4511721 8.451172,-8.4511721 z"
     style="color:#000000;font-style:normal;font-variant:normal;font-weight:normal;font-stretch:normal;font-size:medium;line-height:normal;font-family:sans-serif;font-variant-ligatures:normal;font-variant-position:normal;font-variant-caps:normal;font-variant-numeric:normal;font-variant-alternates:normal;font-feature-settings:normal;text-indent:0;text-align:start;text-decoration:none;text-decoration-line:none;text-decoration-style:solid;text-decoration-color:#000000;letter-spacing:normal;word-spacing:normal;text-transform:none;writing-mode:lr-tb;direction:ltr;text-orientation:mixed;dominant-baseline:auto;baseline-shift:baseline;text-anchor:start;white-space:normal;shape-padding:0;clip-rule:nonzero;display:inline;overflow:visible;visibility:visible;opacity:1;isolation:auto;mix-blend-mode:normal;color-interpolation:sRGB;color-interpolation-filters:linearRGB;solid-color:#000000;solid-opacity:1;vector-effect:none;fill:#252424;fill-opacity:1;fill-rule:nonzero;stroke:none;stroke-width:3.62849998;stroke-linecap:round;stroke-linejoin:round;stroke-miterlimit:4;stroke-dasharray:none;stroke-dashoffset:0;stroke-opacity:1;paint-order:fill markers stroke;color-rendering:auto;image-rendering:auto;shape-rendering:auto;text-rendering:auto;enable-background:accumulate" />
  <path
     style="color:#000000;font-style:normal;font-variant:normal;font-weight:normal;font-stretch:normal;font-size:medium;line-height:normal;font-family:sans-serif;font-variant-ligatures:normal;font-variant-position:normal;font-variant-caps:normal;font-variant-numeric:normal;font-variant-alternates:normal;font-feature-settings:normal;text-indent:0;text-align:start;text-decoration:none;text-decoration-line:none;text-decoration-style:solid;text-decoration-color:#000000;letter-spacing:normal;word-spacing:normal;text-transform:none;writing-mode:lr-tb;direction:ltr;text-orientation:mixed;dominant-baseline:auto;baseline-shift:baseline;text-anchor:start;white-space:normal;shape-padding:0;clip-rule:nonzero;display:inline;overflow:visible;visibility:visible;opacity:1;isolation:auto;mix-blend-mode:normal;color-interpolation:sRGB;color-interpolation-filters:linearRGB;solid-color:#000000;solid-opacity:1;vector-effect:none;fill:#252424;fill-opacity:1;fill-rule:nonzero;stroke:none;stroke-width:3.62849998;stroke-linecap:round;stroke-linejoin:miter;stroke-miterlimit:4;stroke-dasharray:none;stroke-dashoffset:0;stroke-opacity:1;color-rendering:auto;image-rendering:auto;shape-rendering:auto;text-rendering:auto;enable-background:accumulate"
     d="m 61.135691,68.813441 a 1.8144314,1.8144314 0 0 0 1.262889,-3.11399 l -8.901164,-8.90258 8.901164,-8.90116 a 1.8144314,1.8144314 0 1 0 -2.564046,-2.56547 l -8.901164,8.90117 -8.901164,-8.90117 a 1.8147234,1.8147234 0 1 0 -2.566881,2.56547 l 8.902582,8.90116 -8.902582,8.90258 a 1.8144314,1.8144314 0 0 0 1.321001,3.11257 1.8144314,1.8144314 0 0 0 1.24588,-0.54852 l 8.901164,-8.90117 8.901164,8.90117 a 1.8144314,1.8144314 0 0 0 1.301157,0.54994 z"
     id="path936" />
  <path
     style="color:#000000;font-style:normal;font-variant:normal;font-weight:normal;font-stretch:normal;font-size:medium;line-height:normal;font-family:sans-serif;font-variant-ligatures:normal;font-variant-position:normal;font-variant-caps:normal;font-variant-numeric:normal;font-variant-alternates:normal;font-feature-settings:normal;text-indent:0;text-align:start;text-decoration:none;text-decoration-line:none;text-decoration-style:solid;text-decoration-color:#000000;letter-spacing:normal;word-spacing:normal;text-transform:none;writing-mode:lr-tb;direction:ltr;text-orientation:mixed;dominant-baseline:auto;baseline-shift:baseline;text-anchor:start;white-space:normal;shape-padding:0;clip-rule:nonzero;display:inline;overflow:visible;visibility:visible;opacity:1;isolation:auto;mix-blend-mode:normal;color-interpolation:sRGB;color-interpolation-filters:linearRGB;solid-color:#000000;solid-opacity:1;vector-effect:none;fill:#252424;fill-opacity:1;fill-rule:nonzero;stroke:none;stroke-width:3.62849998;stroke-linecap:round;stroke-linejoin:round;stroke-miterlimit:4;stroke-dasharray:none;stroke-dashoffset:0;stroke-opacity:1;paint-order:fill markers stroke;color-rendering:auto;image-rendering:auto;shape-rendering:auto;text-rendering:auto;enable-background:accumulate"
     d="m 10.836528,68.880541 c 6.650196,0 12.080078,-5.42988 12.080078,-12.08008 0,-6.65019 -5.429882,-12.08007 -12.080078,-12.08007 -6.6501963,0 -12.0800783,5.42988 -12.0800783,12.08007 0,6.6502 5.429882,12.08008 12.0800783,12.08008 z m 0,-3.6289 c -4.6892103,0 -8.4531253,-3.76197 -8.4531253,-8.45118 0,-4.68921 3.763915,-8.45312 8.4531253,-8.45312 4.68921,0 8.451172,3.76391 8.451172,8.45312 0,4.68921 -3.761962,8.45118 -8.451172,8.45118 z"
     id="path938" />
</svg>
