<?xml version="1.0" encoding="UTF-8" standalone="no"?>
<svg
   xmlns:dc="http://purl.org/dc/elements/1.1/"
   xmlns:cc="http://creativecommons.org/ns#"
   xmlns:rdf="http://www.w3.org/1999/02/22-rdf-syntax-ns#"
   xmlns:svg="http://www.w3.org/2000/svg"
   xmlns="http://www.w3.org/2000/svg"
   xmlns:sodipodi="http://sodipodi.sourceforge.net/DTD/sodipodi-0.dtd"
   xmlns:inkscape="http://www.inkscape.org/namespaces/inkscape"
   height="100px"
   width="100px"
   fill="#000000"
   data-name="Layer 1"
   viewBox="0 0 62.36 72.57"
   x="0px"
   y="0px"
   version="1.1"
   id="svg12"
   sodipodi:docname="i_quiz_blue.svg"
   inkscape:version="0.92.3 (2405546, 2018-03-11)">
  <metadata
     id="metadata18">
    <rdf:RDF>
      <cc:Work
         rdf:about="">
        <dc:format>image/svg+xml</dc:format>
        <dc:type
           rdf:resource="http://purl.org/dc/dcmitype/StillImage" />
        <dc:title>79</dc:title>
      </cc:Work>
    </rdf:RDF>
  </metadata>
  <defs
     id="defs16" />
  <sodipodi:namedview
     pagecolor="#ffffff"
     bordercolor="#666666"
     borderopacity="1"
     objecttolerance="10"
     gridtolerance="10"
     guidetolerance="10"
     inkscape:pageopacity="0"
     inkscape:pageshadow="2"
     inkscape:window-width="1920"
     inkscape:window-height="1031"
     id="namedview14"
     showgrid="false"
     inkscape:zoom="2.36"
     inkscape:cx="50.847458"
     inkscape:cy="50"
     inkscape:window-x="0"
     inkscape:window-y="25"
     inkscape:window-maximized="1"
     inkscape:current-layer="svg12" />
  <title
     id="title2">79</title>
  <path
     d="M378.82,1813.71v33.41h28.09v-33.41H378.82Zm22,22.29a1.64,1.64,0,0,1-2.32,2.32l-5.59-5.59-5.59,5.59A1.64,1.64,0,0,1,385,1836l5.59-5.59-5.59-5.59a1.64,1.64,0,0,1,2.32-2.32l5.59,5.59,5.59-5.59a1.64,1.64,0,0,1,2.32,2.32l-5.59,5.59Z"
     transform="translate(-378.82 -1813.71)"
     id="path4"
     style="fill:#17bebb;fill-opacity:1" />
  <path
     d="M413.09,1852.87v33.41h28.09v-33.41H413.09ZM434.83,1875a1.6,1.6,0,1,1-2.26,2.26l-5.44-5.44-5.44,5.44a1.6,1.6,0,1,1-2.26-2.26l5.44-5.44-5.44-5.44a1.6,1.6,0,1,1,2.26-2.26l5.44,5.44,5.44-5.44a1.6,1.6,0,1,1,2.26,2.26l-5.44,5.44Z"
     transform="translate(-378.82 -1813.71)"
     id="path6"
     style="fill:#17bebb;fill-opacity:1" />
  <path
     d="M378.82,1852.87v33.41h28.09v-33.41H378.82Zm14,27a10.32,10.32,0,1,1,10.32-10.32A10.32,10.32,0,0,1,392.87,1879.9Z"
     transform="translate(-378.82 -1813.71)"
     id="path8"
     style="fill:#17bebb;fill-opacity:1" />
  <path
     d="M413.09,1813.71v33.41h28.09v-33.41H413.09Zm14,27a10.32,10.32,0,1,1,10.32-10.32A10.32,10.32,0,0,1,427.13,1840.74Z"
     transform="translate(-378.82 -1813.71)"
     id="path10"
     style="fill:#17bebb;fill-opacity:1" />
</svg>
