<?xml version="1.0" encoding="UTF-8" standalone="no"?>
<svg
   xmlns:i="http://ns.adobe.com/AdobeIllustrator/10.0/"
   xmlns:dc="http://purl.org/dc/elements/1.1/"
   xmlns:cc="http://creativecommons.org/ns#"
   xmlns:rdf="http://www.w3.org/1999/02/22-rdf-syntax-ns#"
   xmlns:svg="http://www.w3.org/2000/svg"
   xmlns="http://www.w3.org/2000/svg"
   id="svg22"
   xml:space="preserve"
   style="enable-background:new 0 0 100 100;"
   viewBox="0 0 100 100"
   y="0px"
   x="0px"
   version="1.1"
   fill="#000000"
   width="100px"
   height="100px"><metadata
     id="metadata28"><rdf:RDF><cc:Work
         rdf:about=""><dc:format>image/svg+xml</dc:format><dc:type
           rdf:resource="http://purl.org/dc/dcmitype/StillImage" /><dc:title></dc:title></cc:Work></rdf:RDF></metadata><defs
     id="defs26" /><g
     style="fill:#b0b0b0;fill-opacity:1"
     id="g20"><g
       style="fill:#b0b0b0;fill-opacity:1"
       id="g18"
       i:extraneous="self"><g
         style="fill:#b0b0b0;fill-opacity:1"
         id="g16"><path
           style="fill:#b0b0b0;fill-opacity:1"
           id="path2"
           d="M81.6,2.5H18.4c-3.4,0-6.2,2.8-6.2,6.2v82.6c0,3.4,2.8,6.2,6.2,6.2h63.2c3.4,0,6.2-2.8,6.2-6.2V8.7     C87.8,5.3,85,2.5,81.6,2.5z M82.7,91.3c0,0.6-0.5,1.1-1.1,1.1H18.4c-0.6,0-1.1-0.5-1.1-1.1V8.7c0-0.6,0.5-1.1,1.1-1.1h63.2     c0.6,0,1.1,0.5,1.1,1.1V91.3z" /><path
           style="fill:#b0b0b0;fill-opacity:1"
           id="path4"
           d="M68.8,62H31.2c-1.4,0-2.5,1.1-2.5,2.5c0,1.4,1.1,2.5,2.5,2.5h37.7c1.4,0,2.5-1.1,2.5-2.5C71.4,63.1,70.2,62,68.8,62z" /><path
           style="fill:#b0b0b0;fill-opacity:1"
           id="path6"
           d="M68.8,77.2H31.2c-1.4,0-2.5,1.1-2.5,2.5c0,1.4,1.1,2.5,2.5,2.5h37.7c1.4,0,2.5-1.1,2.5-2.5     C71.4,78.3,70.2,77.2,68.8,77.2z" /><path
           style="fill:#b0b0b0;fill-opacity:1"
           id="path8"
           d="M68.8,46.8H31.2c-1.4,0-2.5,1.1-2.5,2.5s1.1,2.5,2.5,2.5h37.7c1.4,0,2.5-1.1,2.5-2.5S70.2,46.8,68.8,46.8z" /><path
           style="fill:#b0b0b0;fill-opacity:1"
           id="path10"
           d="M35.6,37.1h4.6c0.5,0,1-0.4,1-1v-7.3c0-0.5-0.4-1-1-1h-4.6c-0.5,0-1,0.4-1,1v7.3C34.6,36.6,35.1,37.1,35.6,37.1z" /><path
           style="fill:#b0b0b0;fill-opacity:1"
           id="path12"
           d="M47,37.1h4.6c0.5,0,1-0.4,1-1V23.6c0-0.5-0.4-1-1-1H47c-0.5,0-1,0.4-1,1v12.5C46,36.6,46.5,37.1,47,37.1z" /><path
           style="fill:#b0b0b0;fill-opacity:1"
           id="path14"
           d="M58.4,37.1h4.6c0.5,0,1-0.4,1-1V18.5c0-0.5-0.4-1-1-1h-4.6c-0.5,0-1,0.4-1,1v17.6C57.4,36.6,57.9,37.1,58.4,37.1z" /></g></g></g></svg>