<?xml version="1.0" encoding="UTF-8" standalone="no"?>
<svg
   xmlns:dc="http://purl.org/dc/elements/1.1/"
   xmlns:cc="http://creativecommons.org/ns#"
   xmlns:rdf="http://www.w3.org/1999/02/22-rdf-syntax-ns#"
   xmlns:svg="http://www.w3.org/2000/svg"
   xmlns="http://www.w3.org/2000/svg"
   id="svg8"
   version="1.1"
   viewBox="0 0 14.076509 36.936059"
   height="36.936058mm"
   width="14.076509mm">
  <defs
     id="defs2">
    <clipPath
       id="clip0">
      <rect
         width="99"
         height="99"
         id="rect6"
         x="0"
         y="0"
         style="fill:#ffffff" />
    </clipPath>
  </defs>
  <metadata
     id="metadata5">
    <rdf:RDF>
      <cc:Work
         rdf:about="">
        <dc:format>image/svg+xml</dc:format>
        <dc:type
           rdf:resource="http://purl.org/dc/dcmitype/StillImage" />
        <dc:title></dc:title>
      </cc:Work>
    </rdf:RDF>
  </metadata>
  <g
     transform="translate(-67.349051,-124.04305)"
     id="layer1">
    <g
       transform="matrix(0.21547535,0,0,0.21547535,64.901502,142.98897)"
       id="g827"
       style="fill:#757575;fill-opacity:1;stroke:none">
      <g
         style="fill:#757575;fill-opacity:1;stroke:none"
         clip-path="url(#clip0)"
         id="g4"
         transform="translate(-6.4673119,-16.9508)">
        <path
           d="m 26.7073,67.139 -0.0324,-0.0541 -0.039,-0.0495 c -4.0606,-5.162 -6.4893,-11.6652 -6.4893,-18.7412 0,-16.7579 13.5855,-30.3434 30.3434,-30.3434 16.7579,0 30.3434,13.5855 30.3434,30.3434 0,7.076 -2.4287,13.5792 -6.4893,18.7412 l -0.039,0.0495 -0.0324,0.0541 -15.836,26.3845 -0.0044,0.0073 -0.0043,0.0074 c -1.6369,2.8356 -4.6638,4.5826 -7.938,4.5826 -3.2742,0 -6.3011,-1.747 -7.938,-4.5826 L 42.5477,93.5308 42.5433,93.5235 Z M 63.3492,48.2942 c 0,-7.1032 -5.7571,-12.8592 -12.8592,-12.8592 -7.1021,0 -12.8592,5.756 -12.8592,12.8592 0,7.1031 5.7571,12.8592 12.8592,12.8592 7.1021,0 12.8592,-5.7571 12.8592,-12.8592 z"
           id="path2"
           style="fill:#757575;fill-opacity:1;stroke:none;stroke-width:2;stroke-opacity:1" />
      </g>
    </g>
    <circle
       r="1.0839"
       cy="133.68605"
       cx="74.387306"
       id="path831"
       style="opacity:1;fill:#757575;fill-opacity:1;stroke:none;stroke-width:1.4747113;stroke-linecap:butt;stroke-linejoin:round;stroke-miterlimit:4;stroke-dasharray:1.4747114, 1.4747114;stroke-dashoffset:0;stroke-opacity:1;paint-order:fill markers stroke" />
    <circle
       style="opacity:1;fill:#757575;fill-opacity:1;stroke:none;stroke-width:1.4747113;stroke-linecap:butt;stroke-linejoin:round;stroke-miterlimit:4;stroke-dasharray:1.4747114, 1.4747114;stroke-dashoffset:0;stroke-opacity:1;paint-order:fill markers stroke"
       id="circle833"
       cx="74.387306"
       cy="137.02809"
       r="1.0839" />
    <circle
       r="1.0839"
       cy="140.3701"
       cx="74.387306"
       id="circle835"
       style="opacity:1;fill:#757575;fill-opacity:1;stroke:none;stroke-width:1.4747113;stroke-linecap:butt;stroke-linejoin:round;stroke-miterlimit:4;stroke-dasharray:1.4747114, 1.4747114;stroke-dashoffset:0;stroke-opacity:1;paint-order:fill markers stroke" />
    <circle
       style="opacity:1;fill:#757575;fill-opacity:1;stroke:none;stroke-width:4.49030876;stroke-linecap:butt;stroke-linejoin:round;stroke-miterlimit:4;stroke-dasharray:4.49030882, 4.49030882;stroke-dashoffset:0;stroke-opacity:1;paint-order:fill markers stroke"
       id="circle837"
       cx="74.387306"
       cy="127.84338"
       r="3.3003373" />
  </g>
</svg>
