<?xml version="1.0" encoding="UTF-8" standalone="no"?>
<svg
   xmlns:i="http://ns.adobe.com/AdobeIllustrator/10.0/"
   xmlns:dc="http://purl.org/dc/elements/1.1/"
   xmlns:cc="http://creativecommons.org/ns#"
   xmlns:rdf="http://www.w3.org/1999/02/22-rdf-syntax-ns#"
   xmlns:svg="http://www.w3.org/2000/svg"
   xmlns="http://www.w3.org/2000/svg"
   id="svg8"
   xml:space="preserve"
   style="enable-background:new 0 0 100 100;"
   viewBox="0 0 100 100"
   y="0px"
   x="0px"
   version="1.1"
   fill="#000000"
   width="100px"
   height="100px"><metadata
     id="metadata14"><rdf:RDF><cc:Work
         rdf:about=""><dc:format>image/svg+xml</dc:format><dc:type
           rdf:resource="http://purl.org/dc/dcmitype/StillImage" /><dc:title></dc:title></cc:Work></rdf:RDF></metadata><defs
     id="defs12" /><g
     style="fill:#d0d0d0;fill-opacity:1"
     id="g6"><g
       style="fill:#d0d0d0;fill-opacity:1"
       id="g4"
       i:extraneous="self"><path
         style="fill:#d0d0d0;fill-opacity:1"
         id="path2"
         d="M94,36.3l-27.7-3.1c-0.5-0.1-1-0.4-1.2-0.9L53.6,6.9c-1.4-3.1-5.8-3.1-7.2,0L34.9,32.3c-0.2,0.5-0.7,0.8-1.2,0.9L6,36.3    c-3.4,0.4-4.7,4.6-2.2,6.8l20.6,18.8c0.4,0.4,0.6,0.9,0.5,1.4l-5.6,27.3c-0.7,3.3,2.9,5.9,5.8,4.2l24.2-13.7c0.5-0.3,1-0.3,1.5,0    L75,94.8c3,1.7,6.5-0.9,5.8-4.2l-5.6-27.3c-0.1-0.5,0.1-1.1,0.5-1.4l20.6-18.8C98.7,40.8,97.4,36.7,94,36.3z" /></g></g></svg>