<?xml version="1.0" encoding="UTF-8" standalone="no"?>
<svg
   xmlns:dc="http://purl.org/dc/elements/1.1/"
   xmlns:cc="http://creativecommons.org/ns#"
   xmlns:rdf="http://www.w3.org/1999/02/22-rdf-syntax-ns#"
   xmlns:svg="http://www.w3.org/2000/svg"
   xmlns="http://www.w3.org/2000/svg"
   xmlns:sodipodi="http://sodipodi.sourceforge.net/DTD/sodipodi-0.dtd"
   xmlns:inkscape="http://www.inkscape.org/namespaces/inkscape"
   height="100px"
   width="100px"
   fill="#000000"
   viewBox="0 0 32 32"
   x="0px"
   y="0px"
   version="1.1"
   id="svg10"
   sodipodi:docname="i_star_black.svg"
   inkscape:version="0.92.3 (2405546, 2018-03-11)">
  <metadata
     id="metadata16">
    <rdf:RDF>
      <cc:Work
         rdf:about="">
        <dc:format>image/svg+xml</dc:format>
        <dc:type
           rdf:resource="http://purl.org/dc/dcmitype/StillImage" />
      </cc:Work>
    </rdf:RDF>
  </metadata>
  <defs
     id="defs14" />
  <sodipodi:namedview
     pagecolor="#ffffff"
     bordercolor="#666666"
     borderopacity="1"
     objecttolerance="10"
     gridtolerance="10"
     guidetolerance="10"
     inkscape:pageopacity="0"
     inkscape:pageshadow="2"
     inkscape:window-width="1920"
     inkscape:window-height="1031"
     id="namedview12"
     showgrid="false"
     inkscape:zoom="2.36"
     inkscape:cx="-27.118644"
     inkscape:cy="50"
     inkscape:window-x="0"
     inkscape:window-y="25"
     inkscape:window-maximized="1"
     inkscape:current-layer="svg10" />
  <title
     id="title2">Artboard 23</title>
  <g
     data-name="Layer 2"
     id="g8">
    <path
       d="M8.24,30A1.66,1.66,0,0,1,6.61,28l1.33-7.78L2.29,14.73a1.66,1.66,0,0,1,.92-2.83L11,10.77l3.49-7.08a1.66,1.66,0,0,1,3,0h0L21,10.77l7.81,1.14a1.66,1.66,0,0,1,.92,2.83l-5.65,5.51L25.39,28A1.66,1.66,0,0,1,23,29.76l-7-3.67L9,29.76A1.65,1.65,0,0,1,8.24,30ZM4.19,13.78l5.28,5.15a1.65,1.65,0,0,1,.48,1.47L8.7,27.66l6.53-3.43a1.66,1.66,0,0,1,1.54,0l6.53,3.43-1.25-7.27a1.65,1.65,0,0,1,.48-1.47l5.28-5.15-7.3-1.06a1.66,1.66,0,0,1-1.25-.91L16,5.2l-3.26,6.61a1.66,1.66,0,0,1-1.25.91Zm19.74,6.58h0ZM15.69,4.58h0Z"
       id="path4" />
    <path
       d="M16.59,4.13l3.57,7.24a.66.66,0,0,0,.49.36l8,1.16A.66.66,0,0,1,29,14l-5.78,5.63a.66.66,0,0,0-.19.58l1.36,8a.66.66,0,0,1-1,.69l-7.14-3.76a.66.66,0,0,0-.61,0L8.55,28.87a.66.66,0,0,1-1-.69l1.36-8a.66.66,0,0,0-.19-.58L3,14a.66.66,0,0,1,.36-1.12l8-1.16a.66.66,0,0,0,.49-.36l3.57-7.24A.66.66,0,0,1,16.59,4.13Z"
       id="path6" />
  </g>
</svg>
