<?xml version="1.0" encoding="UTF-8" standalone="no"?>
<svg
   xmlns:dc="http://purl.org/dc/elements/1.1/"
   xmlns:cc="http://creativecommons.org/ns#"
   xmlns:rdf="http://www.w3.org/1999/02/22-rdf-syntax-ns#"
   xmlns:svg="http://www.w3.org/2000/svg"
   xmlns="http://www.w3.org/2000/svg"
   id="svg6"
   viewBox="0 0 100 100"
   y="0px"
   x="0px"
   version="1.1"
   fill="#000000"
   width="100px"
   height="100px">
  <metadata
     id="metadata12">
    <rdf:RDF>
      <cc:Work
         rdf:about="">
        <dc:format>image/svg+xml</dc:format>
        <dc:type
           rdf:resource="http://purl.org/dc/dcmitype/StillImage" />
        <dc:title></dc:title>
      </cc:Work>
    </rdf:RDF>
  </metadata>
  <defs
     id="defs10" />
  <g
     style="fill:#17bebb;fill-opacity:1"
     id="g4"
     transform="translate(0,-952.36218)">
    <path
       id="path2"
       transform="translate(0,952.36218)"
       d="M 50 6 C 25.723216 6 6 25.72315 6 50 C 6 74.2769 25.723219 94 50 94 C 71.427289 94 89.319835 78.6282 93.21875 58.3125 A 2.0041461 2.0041461 0 1 0 89.28125 57.5625 C 85.738385 76.023 69.519267 90 50 90 C 27.884981 90 10 72.1151 10 50 C 10 27.88491 27.884984 10 50 10 C 72.115016 10 90 27.88491 90 50 A 2.0002 2.0002 0 1 0 94 50 C 94 25.72315 74.276784 6 50 6 z M 49.78125 17.96875 A 2.0002 2.0002 0 0 0 48 20 L 48 50 A 2.0002 2.0002 0 0 0 50 52 L 74 52 A 2.0002 2.0002 0 1 0 74 48 L 52 48 L 52 20 A 2.0002 2.0002 0 0 0 49.78125 17.96875 z "
       style="font-size:medium;font-style:normal;font-variant:normal;font-weight:normal;font-stretch:normal;text-indent:0;text-align:start;text-decoration:none;line-height:normal;letter-spacing:normal;word-spacing:normal;text-transform:none;direction:ltr;block-progression:tb;writing-mode:lr-tb;text-anchor:start;baseline-shift:baseline;opacity:1;color:#000000;fill:#17bebb;fill-opacity:1;stroke:none;stroke-width:4;marker:none;visibility:visible;display:inline;overflow:visible;enable-background:accumulate;font-family:Sans;-inkscape-font-specification:Sans" />
  </g>
</svg>
