<svg height='100px' width='100px'  fill="#000000" xmlns="http://www.w3.org/2000/svg" xmlns:xlink="http://www.w3.org/1999/xlink" version="1.1" x="0px" y="0px" viewBox="0 0 90 90" enable-background="new 0 0 90 90" xml:space="preserve"><g><path d="M50.479,86.191H39.521c-2.097,0-3.803-1.705-3.803-3.802V57.442c-0.537,0.234-1.121,0.356-1.725,0.356   c-2.395,0-4.343-1.955-4.343-4.358c0-0.302,0.033-0.611,0.101-0.922V35.854h0.039c0.426-5.645,4.646-10.498,10.435-12.26   c-3.356-1.79-5.533-5.293-5.533-9.267c0-5.8,4.72-10.519,10.52-10.519S55.73,8.528,55.73,14.328c0,3.961-2.261,7.535-5.65,9.318   c5.748,1.8,9.818,6.563,10.23,12.208h0.034l0.004,0.796l-0.012,17.098c-0.158,2.261-2.04,4.051-4.332,4.051   c-0.603,0-1.187-0.122-1.724-0.355V82.39C54.281,84.486,52.575,86.191,50.479,86.191L50.479,86.191z M37.31,54.008V82.39   c0,1.219,0.992,2.211,2.212,2.211h10.957c1.22,0,2.212-0.992,2.212-2.211V54.009l1.361,1.381c0.521,0.527,1.215,0.818,1.953,0.818   c1.518,0,2.752-1.242,2.752-2.768c0-0.13,0.001-1.283,0.001-1.283L58.753,36.66c-0.074-6.057-4.951-11.121-11.596-12.043   l-0.059-1.566c4.079-0.878,7.041-4.547,7.041-8.724c0-4.923-4.005-8.928-8.928-8.928s-8.929,4.005-8.929,8.928   c0,4.194,2.857,7.772,6.948,8.7l-0.078,1.565c-6.655,0.83-11.73,6.017-11.806,12.068l-0.004,0.329c0,0-0.102,16.242-0.102,16.451   c0,1.525,1.234,2.768,2.752,2.768c0.739,0,1.433-0.291,1.954-0.819L37.31,54.008L37.31,54.008z"></path></g><g><path d="M45,85.927c-0.293,0-0.53-0.237-0.53-0.53V53.599c0-0.293,0.237-0.53,0.53-0.53s0.53,0.237,0.53,0.53v31.798   C45.53,85.689,45.293,85.927,45,85.927L45,85.927z"></path></g><g><path d="M36.549,49.754c-0.293,0-0.53-0.237-0.53-0.53V35.768c0-0.293,0.237-0.53,0.53-0.53s0.53,0.237,0.53,0.53v13.456   C37.079,49.517,36.842,49.754,36.549,49.754L36.549,49.754z"></path></g><g><path d="M53.874,49.754c-0.293,0-0.53-0.237-0.53-0.53V35.768c0-0.293,0.237-0.53,0.53-0.53s0.531,0.237,0.531,0.53v13.456   C54.405,49.517,54.167,49.754,53.874,49.754L53.874,49.754z"></path></g></svg>