<svg width="25" height="25" viewBox="0 0 25 25" fill="none" xmlns="http://www.w3.org/2000/svg">
<path d="M13.1533 5.66023C14.3473 5.66023 15.3152 4.69233 15.3152 3.49836C15.3152 2.30439 14.3473 1.33649 13.1533 1.33649C11.9594 1.33649 10.9915 2.30439 10.9915 3.49836C10.9915 4.69233 11.9594 5.66023 13.1533 5.66023Z" fill="black"/>
<path d="M19.7159 12.5407C18.7081 12.0772 16.6324 11.4174 16.0654 10.4464C15.3082 9.14961 14.6605 6.13065 12.0001 6.1476C10.8383 6.15518 8.94726 8.07576 7.61237 8.94202C6.99118 9.34504 7.01133 10.4293 6.90165 11.0772C6.75787 11.9255 6.61429 12.7738 6.47031 13.6221C6.32693 14.4664 7.03705 14.8487 7.73481 14.4712C8.11709 14.2644 8.2844 13.7402 8.3512 13.3457C8.5237 12.3285 8.75382 11.5342 8.92632 10.517L10.1523 9.52192C9.73595 12.0122 9.35925 13.4835 8.97697 16.8403C8.8639 17.8338 8.7277 18.8512 8.49339 19.1567C7.7358 20.1442 7.1561 21.115 6.38775 22.0941C5.30034 23.4797 7.23607 24.5439 8.23155 23.2755C8.91236 22.4078 9.59317 21.5403 10.2738 20.6729C11.2389 19.4427 11.1975 17.4365 11.4491 15.9328C12.2125 17.5813 12.9757 19.2297 13.739 20.8781C14.0924 21.6416 14.446 22.4052 14.7995 23.1688C15.4596 24.594 17.4936 23.856 16.8005 22.3595C15.8167 20.2354 15.0328 18.111 14.0491 15.987C13.742 15.3235 13.2606 14.6778 13.3653 13.9563C13.537 12.7744 13.7087 11.5927 13.8802 10.4109C14.164 10.8969 14.4113 11.5619 14.7921 11.9729C15.0626 12.4364 16.0826 12.7275 16.5494 12.9421C17.2793 13.2779 18.0091 13.6133 18.739 13.949C19.9082 14.4872 20.9571 13.1114 19.7159 12.5407Z" fill="black"/>
</svg>
