<?xml version="1.0" encoding="UTF-8" standalone="no"?>
<svg
   xmlns:dc="http://purl.org/dc/elements/1.1/"
   xmlns:cc="http://creativecommons.org/ns#"
   xmlns:rdf="http://www.w3.org/1999/02/22-rdf-syntax-ns#"
   xmlns:svg="http://www.w3.org/2000/svg"
   xmlns="http://www.w3.org/2000/svg"
   id="svg4"
   xml:space="preserve"
   enable-background="new 0 0 100 100"
   viewBox="0 0 100 100"
   y="0px"
   x="0px"
   version="1.1"
   fill="#000000"
   width="100px"
   height="100px"><metadata
     id="metadata10"><rdf:RDF><cc:Work
         rdf:about=""><dc:format>image/svg+xml</dc:format><dc:type
           rdf:resource="http://purl.org/dc/dcmitype/StillImage" /><dc:title></dc:title></cc:Work></rdf:RDF></metadata><defs
     id="defs8" /><path
     style="fill:#d7724d;fill-opacity:1;stroke-width:1.2608813"
     id="path2"
     d="M 64.565128,51.868881 83.56409,32.723659 c 4.002037,-4.031038 4.002037,-10.567448 0,-14.597224 -3.999516,-4.032299 -10.489272,-4.032299 -14.487527,0 L 50.077602,37.270397 31.076121,18.123913 c -3.996996,-4.032298 -10.488012,-4.029777 -14.486268,0 -4.003298,4.032298 -4.003298,10.566187 0,14.599746 L 35.590074,51.868881 16.588593,71.016627 c -4.003298,4.029777 -4.003298,10.566185 0,14.597223 1.999757,2.01615 4.622392,3.024855 7.243764,3.024855 2.620111,0 5.242745,-1.009966 7.242502,-3.024855 L 50.077602,66.467366 69.076563,85.61385 c 2.001019,2.01615 4.623651,3.024855 7.243764,3.024855 2.622632,0 5.244005,-1.009966 7.243763,-3.024855 4.002037,-4.031038 4.002037,-10.567446 0,-14.597223 z" /></svg>