<?xml version="1.0" encoding="UTF-8" standalone="no"?>
<svg
   xmlns:dc="http://purl.org/dc/elements/1.1/"
   xmlns:cc="http://creativecommons.org/ns#"
   xmlns:rdf="http://www.w3.org/1999/02/22-rdf-syntax-ns#"
   xmlns:svg="http://www.w3.org/2000/svg"
   xmlns="http://www.w3.org/2000/svg"
   height="40.640217"
   width="99.684967"
   version="1.1"
   x="0px"
   y="0px"
   viewBox="-255 347 99.684967 40.640217"
   style="fill:#000000"
   xml:space="preserve"
   id="svg6"><metadata
     id="metadata12"><rdf:RDF><cc:Work
         rdf:about=""><dc:format>image/svg+xml</dc:format><dc:type
           rdf:resource="http://purl.org/dc/dcmitype/StillImage" /><dc:title></dc:title></cc:Work></rdf:RDF></metadata><defs
     id="defs10" /><g
     id="g4"
     transform="translate(4.668,-36.28654)"><path
       style="fill:#efefef;fill-opacity:1;stroke:none;stroke-width:1px;stroke-linecap:butt;stroke-linejoin:miter;stroke-opacity:1"
       d="m -247.74364,405.10381 5.7733,1.58899 h 80.29661 l 1.16526,-0.74153 -0.21187,-15.51907 -2.06568,-6.46186 h -83.79237 l -1.37712,1.00635 z"
       id="path882" /><path
       style="fill:#252424;fill-opacity:1;stroke:none;stroke-width:1px;stroke-linecap:butt;stroke-linejoin:miter;stroke-opacity:1"
       d="m -243.20407,397.82873 h 17.64188 c 1.21851,0 1.2058,1.26197 1.2058,1.26197 v 3.37806 l 0.85775,4.13852 17.63657,0.0562 v -7.79016 c 0,0 -0.009,-1.08821 1.08613,-1.08613 l 19.77502,0.0374 c 1.26236,0.002 1.27339,1.27339 1.27339,1.27339 v 3.07112 l 2.0599,4.60668 16.47918,-0.0374 v -7.07856 c 0,-1.06815 1.50908,-1.08535 1.50908,-1.08535 l -1.54309,-4.64648 0.26483,-4.55509 0.6356,-0.58263 h 2.86017 l -0.76783,-2.87559 h -81.87158 c -1.05932,0 -1.0674,1.0674 -1.0674,1.0674 v 9.00738 l 0.2809,0.74905 z"
       id="path884" /><path
       style="fill:#ffffff;fill-opacity:1;stroke:none;stroke-width:1px;stroke-linecap:butt;stroke-linejoin:miter;stroke-opacity:1"
       d="m -163.47458,404.25636 -0.053,-2.17161 2.91314,0.053 v 2.22457 z"
       id="path880" /><path
       style="fill:#ffffff;fill-opacity:1;stroke:none;stroke-width:1px;stroke-linecap:butt;stroke-linejoin:miter;stroke-opacity:1"
       d="m -160.66737,398.27119 -2.91314,-0.10594 -1.64195,-4.23728 0.26483,-4.55509 0.6356,-0.58263 h 2.86017 l 0.79449,2.38348 z"
       id="path878" /><path
       style="fill:#ffffff;fill-opacity:1;stroke:none;stroke-width:1px;stroke-linecap:butt;stroke-linejoin:miter;stroke-opacity:1"
       d="m -180.1589,406.6928 0.21187,-18.11441 11.8644,0.053 0.21187,18.27331 z"
       id="path876" /><path
       style="fill:#ffffff;fill-opacity:1;stroke:none;stroke-width:1px;stroke-linecap:butt;stroke-linejoin:miter;stroke-opacity:1"
       d="m -191.91737,397.37076 -1.48305,-0.18538 -0.39722,-8.07733 1.82734,-0.42373 8.05084,0.053 0.68856,0.79449 -0.10593,7.20339 -0.68856,0.58263 z"
       id="path874" /><path
       style="fill:#ffffff;fill-opacity:1;stroke:none;stroke-width:1px;stroke-linecap:butt;stroke-linejoin:miter;stroke-opacity:1"
       d="m -205.52966,397.3178 -0.84746,-0.90043 0.10593,-6.88559 0.74153,-0.90042 10.19597,0.18538 1.03284,0.90043 -0.63559,7.36228 -1.16525,0.34428 z"
       id="path872" /><path
       style="fill:#ffffff;fill-opacity:1;stroke:none;stroke-width:1px;stroke-linecap:butt;stroke-linejoin:miter;stroke-opacity:1"
       d="m -221.36652,406.74576 0.053,-18.00847 12.23516,-0.053 0.053,18.00847 z"
       id="path870" /><path
       style="fill:#ffffff;fill-opacity:1;stroke:none;stroke-width:1px;stroke-linecap:butt;stroke-linejoin:miter;stroke-opacity:1"
       d="m -239.00424,396.5233 0.79449,0.90043 13.2945,0.10593 1.00635,-1.00636 -0.10593,-7.04449 -0.79449,-0.84745 h -13.40043 l -0.58262,0.63559 z"
       id="path868" /><path
       style="fill:#ffffff;fill-opacity:1;stroke:none;stroke-width:1px;stroke-linecap:butt;stroke-linejoin:miter;stroke-opacity:1"
       d="m -244.88777,396.73849 0.97377,0.74905 3.52055,0.0375 0.7865,-0.74905 -0.22471,-7.52799 -1.16103,-0.44944 -3.09629,-0.008 -0.68856,0.68856 z"
       id="path866" /><path
       d="m -245.69396,383.28654 c -0.10001,0 -0.69882,-8e-4 -1.29883,0.19922 -0.6,0.20001 -1.3,0.69962 -1.5,1.59961 -0.1,0.4 -0.0996,2.50079 -0.0996,5.30078 0,5.60001 0.0996,13.59961 0.0996,13.59961 0,1.39999 1.2,2.29998 2.5,2.5 1.2,0.20001 4.19922,0.80078 4.19922,0.80078 h 0.0996 10.60156 c 0.80001,1.29999 2.19882,2.19922 3.79883,2.19922 1.6,0 3.10078,-0.8992 3.80078,-2.19922 h 33.60937 c 0.8,1.29999 2.20078,2.19922 3.80078,2.19922 1.60001,0 2.99882,-0.8992 3.79883,-2.19922 h 20.5 c 1,0 1.80079,-0.70117 1.80079,-1.70117 v -4.59961 c 0,0 -0.10083,-6.19922 -0.30078,-9.69922 -0.30004,-3.6 -1.19883,-6.10116 -1.29884,-6.20117 -0.1,-0.6 -0.70155,-1.69885 -2.10156,-1.79883 h -81.9082 z m -0.0996,1.29883 h 82.00976 c 0.6,0 0.8004,0.40039 0.90039,0.90039 0.21187,0.868 0.51388,1.71637 0.751,2.8739 l -1.85061,0.0265 c -0.8999,0.0129 -1.59961,0.69961 -1.59961,1.59961 v 3.90039 c 0,0.89999 1.39844,4.40039 1.39844,4.40039 0.1,0.20002 0.20039,0.29883 0.40039,0.29883 h 2.40039 c 0,1.5 0.0996,2.60156 0.0996,2.60156 v 0.5 h -1.79883 c -0.5,0 -0.80078,0.39883 -0.80078,0.79883 v 1.40039 c 0,0.5 0.20013,0.8188 0.80078,0.80078 h 2 v 0.89844 c 0,0.29999 -0.30156,0.5 -0.60156,0.5 h -5.79883 v -17.39845 c 0,-0.10001 -0.002,-0.2008 -0.10156,-0.30078 -0.10001,-0.1 -0.19882,-0.0996 -0.29883,-0.0996 h -12.20117 c -0.10001,0 -0.19882,-4.1e-4 -0.29883,0.0996 -0.1,0.10001 -0.0996,0.2008 -0.0996,0.30078 v 17.5 h -1.30078 c 0.1,-0.29999 0.0996,-0.60001 0.0996,-1 0,-2.4 -2.0004,-4.40039 -4.40039,-4.40039 -2.4,0 -4.39844,2.00039 -4.39844,4.40039 0,0.29999 -4e-4,0.6 0.0996,1 h -18.30078 V 388.7006 c 1.9e-4,-0.22121 -0.17918,-0.40059 -0.40039,-0.40039 h -12.20898 c -0.22121,-1.9e-4 -0.40059,0.17918 -0.40039,0.40039 v 17.48633 h -1.19922 c 0.10001,-0.29999 0.0996,-0.60001 0.0996,-1 0,-2.4 -2.00039,-4.40039 -4.40039,-4.40039 -2.39999,0 -4.39844,2.00039 -4.39844,4.40039 0,0.29999 -3.9e-4,0.6 0.0996,1 h -10.09961 c -0.4,-0.10001 -3.00155,-0.6008 -4.10156,-0.80078 -1.1,-0.20001 -1.5,-0.6008 -1.5,-1.30078 0,0 -0.0996,-7.99961 -0.0996,-13.59961 v -5.09961 c 0.1,-0.39999 0.30118,-0.49921 0.70117,-0.69922 0.4,-0.10001 0.79883,-0.10156 0.79883,-0.10156 z m 2.20117,3.70117 c -0.89999,0 -1.60156,0.69962 -1.60156,1.59961 v 6.33593 c 0,0.9 0.70155,1.59961 1.60156,1.59961 h 2.69922 c 0.89999,0 1.59961,-0.69961 1.59961,-1.59961 v -6.33593 c 0,-0.90002 -0.6996,-1.59961 -1.59961,-1.59961 z m 5.89844,0 c -0.89999,0 -1.59961,0.69962 -1.59961,1.59961 v 6.33593 c 0,0.9 0.6996,1.59961 1.59961,1.59961 h 12.5 c 0.89999,0 1.60156,-0.69961 1.60156,-1.59961 v -6.33593 c 0,-0.90556 -0.80156,-1.59961 -1.60156,-1.59961 z m 32.61132,0 c -0.89999,0 -1.60156,0.69962 -1.60156,1.59961 v 6.33593 c 0,0.9 0.70155,1.59961 1.60156,1.59961 h 9.34746 c 0.9,0 1.59961,-0.69961 1.59961,-1.59961 v -6.33593 c 0,-0.90002 -0.69961,-1.59961 -1.59961,-1.59961 z m 12.54029,0 c -0.89999,0 -1.60156,0.69962 -1.60156,1.59961 v 6.33593 c 0,0.9 0.70155,1.59961 1.60156,1.59961 h 7.97355 c 0.89999,0 1.59961,-0.69961 1.59961,-1.59961 v -6.33593 c 0,-0.90556 -0.79961,-1.59961 -1.59961,-1.59961 z m -51.05005,0.79883 h 2.69922 c 0.39999,0 0.80078,0.30078 0.80078,0.80078 v 6.33593 c 0,0.4 -0.30078,0.79883 -0.80078,0.79883 h -2.69922 c -0.39999,0 -0.80078,-0.29883 -0.80078,-0.79883 v -6.33593 c 0,-0.39999 0.30078,-0.80078 0.80078,-0.80078 z m 5.79883,0 h 12.59961 c 0.39999,0 0.90243,-0.0473 0.80078,0.80078 v 6.33593 l -2.9e-4,0.0795 c -0.002,0.66269 -0.4001,0.71938 -0.9001,0.71938 h -12.5 c -0.39999,0 -0.79882,-0.29883 -0.79882,-0.79883 v -6.33593 c 0,-0.39999 0.29882,-0.80078 0.79883,-0.80078 z m 32.71093,0 h 9.34746 c 0.4,0 0.79883,0.30078 0.79883,0.80078 v 6.33593 c 0,0.4 -0.29883,0.80079 -0.79883,0.80079 h -9.34746 c -0.39999,0 -0.80078,-0.30079 -0.80078,-0.80079 v -6.33593 c 0,-0.39999 0.30078,-0.80078 0.80078,-0.80078 z m 12.43873,0 h 7.9755 c 0.4,0 0.79883,0.30078 0.79883,0.80078 v 6.33593 c 0,0.4 -0.29883,0.80079 -0.79883,0.80079 h -7.9755 c -0.4,0 -0.79883,-0.30079 -0.79883,-0.80079 v -6.33593 c 0,-0.39999 0.29883,-0.80078 0.79883,-0.80078 z m 12.95971,0 h 5.13477 v 17.10156 h -5.13477 z m 5.93555,0 h 5.36523 v 17.10156 h -5.36523 z m 9.96484,0 h 1.59961 c 0.3589,0.0142 0.50116,0.50079 0.70117,2.30078 0.10001,1.79999 0.19883,4.30078 0.29883,6.30078 h -2.09961 c -0.10001,-0.29999 -0.3996,-1.00155 -0.59961,-1.60156 -0.3,-1 -0.69922,-2.09884 -0.69922,-2.29883 v -3.90039 c 0,-0.39999 0.29883,-0.80078 0.79883,-0.80078 z m -57.11133,0.0156 h 5.14453 v 17.08593 h -5.14453 z m 5.94532,0 h 5.46484 v 17.08593 h -5.46484 z m -12.24414,12.88476 c 1.80001,0 3.20117,1.40115 3.20117,3.20117 0,1.80001 -1.40118,3.19922 -3.20117,3.19922 -1.8,0 -3.19922,-1.3992 -3.19922,-3.19922 0,-1.79999 1.39922,-3.20117 3.19922,-3.20117 z m 41.21093,0 c 1.8,0 3.19922,1.40115 3.19922,3.20117 0,1.80002 -1.49922,3.19922 -3.19922,3.19922 -1.8,0 -3.20117,-1.3992 -3.20117,-3.19922 0,-1.79999 1.40117,-3.20117 3.20117,-3.20117 z m 22.90039,0.5 h 2 v 1.40039 h -2 z"
       id="path2"
       style="fill:#252424;fill-opacity:1" /><path
       style="opacity:1;fill:#252424;fill-opacity:1;stroke:none;stroke-width:0.84545457;stroke-linecap:round;stroke-linejoin:round;stroke-miterlimit:4;stroke-dasharray:none;stroke-dashoffset:0;stroke-opacity:1;paint-order:stroke fill markers"
       d="m -223.76446,405.13989 a 3.4831002,3.4831002 0 0 1 -3.4831,3.4831 3.4831002,3.4831002 0 0 1 -3.4831,-3.4831 3.4831002,3.4831002 0 0 1 3.4831,-3.4831 3.4831002,3.4831002 0 0 1 3.4831,3.4831 z"
       id="path892" /><path
       style="opacity:1;fill:#c1c1c1;fill-opacity:1;stroke:none;stroke-width:1.17073178;stroke-linecap:round;stroke-linejoin:round;stroke-miterlimit:4;stroke-dasharray:none;stroke-dashoffset:0;stroke-opacity:1;paint-order:stroke fill markers"
       d="m -225.0004,405.13989 a 2.2471614,2.2471614 0 0 1 -2.24716,2.24716 2.2471614,2.2471614 0 0 1 -2.24716,-2.24716 2.2471614,2.2471614 0 0 1 2.24716,-2.24716 2.2471614,2.2471614 0 0 1 2.24716,2.24716 z"
       id="path886" /><path
       style="opacity:1;fill:#252424;fill-opacity:1;stroke:none;stroke-width:0.60645163;stroke-linecap:round;stroke-linejoin:round;stroke-miterlimit:4;stroke-dasharray:none;stroke-dashoffset:0;stroke-opacity:1;paint-order:stroke fill markers"
       d="m -226.36742,405.13989 a 0.88013822,0.88013822 0 0 1 -0.88014,0.88014 0.88013822,0.88013822 0 0 1 -0.88014,-0.88014 0.88013822,0.88013822 0 0 1 0.88014,-0.88014 0.88013822,0.88013822 0 0 1 0.88014,0.88014 z"
       id="path890" /><path
       style="opacity:1;fill:#252424;fill-opacity:1;stroke:none;stroke-width:0.84545457;stroke-linecap:round;stroke-linejoin:round;stroke-miterlimit:4;stroke-dasharray:none;stroke-dashoffset:0;stroke-opacity:1;paint-order:stroke fill markers"
       d="m -182.6648,405.13989 a 3.4831002,3.4831002 0 0 1 -3.4831,3.4831 3.4831002,3.4831002 0 0 1 -3.4831,-3.4831 3.4831002,3.4831002 0 0 1 3.4831,-3.4831 3.4831002,3.4831002 0 0 1 3.4831,3.4831 z"
       id="circle894" /><path
       style="opacity:1;fill:#c1c1c1;fill-opacity:1;stroke:none;stroke-width:1.17073178;stroke-linecap:round;stroke-linejoin:round;stroke-miterlimit:4;stroke-dasharray:none;stroke-dashoffset:0;stroke-opacity:1;paint-order:stroke fill markers"
       d="m -183.90074,405.13989 a 2.2471614,2.2471614 0 0 1 -2.24716,2.24716 2.2471614,2.2471614 0 0 1 -2.24716,-2.24716 2.2471614,2.2471614 0 0 1 2.24716,-2.24716 2.2471614,2.2471614 0 0 1 2.24716,2.24716 z"
       id="circle896" /><path
       style="opacity:1;fill:#252424;fill-opacity:1;stroke:none;stroke-width:0.60645163;stroke-linecap:round;stroke-linejoin:round;stroke-miterlimit:4;stroke-dasharray:none;stroke-dashoffset:0;stroke-opacity:1;paint-order:stroke fill markers"
       d="m -185.26777,405.13989 a 0.88013822,0.88013822 0 0 1 -0.88013,0.88014 0.88013822,0.88013822 0 0 1 -0.88014,-0.88014 0.88013822,0.88013822 0 0 1 0.88014,-0.88014 0.88013822,0.88013822 0 0 1 0.88013,0.88014 z"
       id="circle898" /><path
       style="color:#000000;font-style:normal;font-variant:normal;font-weight:normal;font-stretch:normal;font-size:medium;line-height:normal;font-family:sans-serif;font-variant-ligatures:normal;font-variant-position:normal;font-variant-caps:normal;font-variant-numeric:normal;font-variant-alternates:normal;font-feature-settings:normal;text-indent:0;text-align:start;text-decoration:none;text-decoration-line:none;text-decoration-style:solid;text-decoration-color:#000000;letter-spacing:normal;word-spacing:normal;text-transform:none;writing-mode:lr-tb;direction:ltr;text-orientation:mixed;dominant-baseline:auto;baseline-shift:baseline;text-anchor:start;white-space:normal;shape-padding:0;clip-rule:nonzero;display:inline;overflow:visible;visibility:visible;opacity:1;isolation:auto;mix-blend-mode:normal;color-interpolation:sRGB;color-interpolation-filters:linearRGB;solid-color:#000000;solid-opacity:1;vector-effect:none;fill:#252424;fill-opacity:1;fill-rule:nonzero;stroke:none;stroke-width:0.74593091px;stroke-linecap:butt;stroke-linejoin:miter;stroke-miterlimit:4;stroke-dasharray:none;stroke-dashoffset:0;stroke-opacity:1;color-rendering:auto;image-rendering:auto;shape-rendering:auto;text-rendering:auto;enable-background:accumulate"
       d="m -253.25652,419.46288 v -2.13206 c 0,-0.68398 -0.42825,-1.11975 -0.83603,-1.28972 -0.40778,-0.16997 -0.80049,-0.14147 -0.80049,-0.14147 l 0.0247,-0.002 h -1.46941 -0.54242 -1.17601 l 0.0247,0.002 c 0,0 -0.39271,-0.0285 -0.80049,0.14147 -0.40778,0.16997 -0.83603,0.60574 -0.83603,1.28972 v 2.16169 c 0,0.94493 0.2123,1.0949 1.06091,1.0949 h 4.24385 c 1.07484,0 1.10675,-0.12551 1.10675,-1.12453 z"
       id="path855" /><rect
       style="opacity:1;fill:#c1c1c1;fill-opacity:1;stroke:none;stroke-width:0.58732432;stroke-linecap:round;stroke-linejoin:round;stroke-miterlimit:4;stroke-dasharray:none;stroke-dashoffset:0;stroke-opacity:1;paint-order:stroke fill markers"
       id="rect866"
       width="1.3038617"
       height="4.7709484"
       x="254.22058"
       y="-423.92676"
       ry="0.56128812"
       transform="scale(-1)" /><rect
       ry="0.56128812"
       y="-423.92676"
       x="257.38547"
       height="4.7709484"
       width="1.3038617"
       id="rect868"
       style="opacity:1;fill:#c1c1c1;fill-opacity:1;stroke:none;stroke-width:0.58732432;stroke-linecap:round;stroke-linejoin:round;stroke-miterlimit:4;stroke-dasharray:none;stroke-dashoffset:0;stroke-opacity:1;paint-order:stroke fill markers"
       transform="scale(-1)" /><path
       style="color:#000000;font-style:normal;font-variant:normal;font-weight:normal;font-stretch:normal;font-size:medium;line-height:normal;font-family:sans-serif;font-variant-ligatures:normal;font-variant-position:normal;font-variant-caps:normal;font-variant-numeric:normal;font-variant-alternates:normal;font-feature-settings:normal;text-indent:0;text-align:start;text-decoration:none;text-decoration-line:none;text-decoration-style:solid;text-decoration-color:#000000;letter-spacing:normal;word-spacing:normal;text-transform:none;writing-mode:lr-tb;direction:ltr;text-orientation:mixed;dominant-baseline:auto;baseline-shift:baseline;text-anchor:start;white-space:normal;shape-padding:0;clip-rule:nonzero;display:inline;overflow:visible;visibility:visible;opacity:1;isolation:auto;mix-blend-mode:normal;color-interpolation:sRGB;color-interpolation-filters:linearRGB;solid-color:#000000;solid-opacity:1;vector-effect:none;fill:#252424;fill-opacity:1;fill-rule:nonzero;stroke:none;stroke-width:1px;stroke-linecap:butt;stroke-linejoin:miter;stroke-miterlimit:4;stroke-dasharray:none;stroke-dashoffset:0;stroke-opacity:1;color-rendering:auto;image-rendering:auto;shape-rendering:auto;text-rendering:auto;enable-background:accumulate"
       d="m -256.93164,416 v -8.68555 c 0,-1.83982 0.0228,-3.11648 0.80078,-4.0039 0.38898,-0.44371 0.94503,-0.72359 1.64453,-0.88477 0.6995,-0.16118 1.55851,-0.21875 2.66211,-0.21875 h 3.76172 v 1 h -3.76172 c -1.06703,0 -1.86599,0.0617 -2.4375,0.19336 -0.5715,0.13169 -0.89681,0.31697 -1.11719,0.56836 -0.44075,0.50278 -0.55273,1.53021 -0.55273,3.3457 V 416 Z"
       id="path871" /></g></svg>