<?xml version="1.0" encoding="UTF-8" standalone="no"?>
<svg
   xmlns:i="http://ns.adobe.com/AdobeIllustrator/10.0/"
   xmlns:dc="http://purl.org/dc/elements/1.1/"
   xmlns:cc="http://creativecommons.org/ns#"
   xmlns:rdf="http://www.w3.org/1999/02/22-rdf-syntax-ns#"
   xmlns:svg="http://www.w3.org/2000/svg"
   xmlns="http://www.w3.org/2000/svg"
   style="fill:none"
   id="svg4"
   version="1.1"
   viewBox="0 0 183.00571 61.695171"
   height="61.695171"
   width="183.00571">
  <metadata
     id="metadata10">
    <rdf:RDF>
      <cc:Work
         rdf:about="">
        <dc:format>image/svg+xml</dc:format>
        <dc:type
           rdf:resource="http://purl.org/dc/dcmitype/StillImage" />
        <dc:title></dc:title>
      </cc:Work>
    </rdf:RDF>
  </metadata>
  <defs
     id="defs8" />
  <path
     style="fill:#252424;stroke-width:1.1379261;fill-opacity:1"
     id="path2-4"
     d="m 35.824086,10.627422 c 2.93471,0 5.31366,-2.3790616 5.31366,-5.3137167 C 41.137746,2.379028 38.758796,0 35.824086,0 c -2.9347,0 -5.31366,2.379028 -5.31366,5.3137053 0,2.9346551 2.37896,5.3137167 5.31366,5.3137167 z" />
  <path
     style="fill:#252424;stroke-width:1.1379261;fill-opacity:1"
     id="path4"
     d="m 51.954416,27.539052 c -2.47714,-1.139177 -7.57915,-2.761063 -8.97266,-5.147636 -1.86108,-3.187332 -3.45303,-10.607747 -9.99212,-10.566099 -2.85563,0.01866 -7.50372,4.739234 -10.78482,6.868522 -1.52675,0.990564 -1.47725,3.655474 -1.74683,5.248001 -0.35344,2.085023 -0.7063,4.170158 -1.06021,6.255294 -0.3524,2.075235 1.39294,3.014821 3.10803,2.086956 0.93958,-0.508197 1.35083,-1.796785 1.51503,-2.766298 0.424,-2.500251 0.98966,-4.452591 1.41364,-6.952842 l 3.01335,-2.445858 c -1.02334,6.121018 -1.94927,9.737347 -2.88885,17.987992 -0.278,2.44199 -0.61277,4.942697 -1.18869,5.693614 -1.86198,2.427196 -3.28689,4.813199 -5.1754,7.219913 -2.67287,3.405472 2.08503,6.02145 4.53191,2.903646 1.67332,-2.1327 3.34675,-4.264833 5.01962,-6.396965 2.37223,-3.023697 2.27027,-7.954672 2.88885,-11.650883 1.87633,4.052154 3.75209,8.103626 5.62841,12.155212 0.86858,1.876781 1.73761,3.753563 2.60665,5.630344 1.62235,3.503106 6.62193,1.689139 4.91812,-1.988981 -2.41786,-5.221032 -4.34472,-10.442634 -6.76259,-15.66321 -0.75478,-1.630762 -1.93799,-3.217828 -1.68071,-4.991171 0.42205,-2.905125 0.844,-5.809796 1.2656,-8.714352 0.69744,1.194481 1.3052,2.829111 2.24137,3.839362 0.66467,1.139064 3.17186,1.854706 4.31924,2.382021 1.79393,0.825452 3.58787,1.649879 5.38181,2.474762 2.87384,1.322952 5.45192,-2.058622 2.40125,-3.461344 z" />
  <g
     transform="matrix(0.62446688,0,0,0.62446688,108.07613,-3.2274856)"
     id="g840"
     style="fill:#252424;fill-opacity:1">
    <g
       style="fill:#252424;fill-opacity:1"
       id="g824">
      <g
         style="fill:#252424;fill-opacity:1"
         i:extraneous="self"
         id="g822">
        <g
           style="fill:#252424;fill-opacity:1"
           id="g820">
          <path
             style="fill:#252424;fill-opacity:1"
             d="m 79.7,58.9 c -0.9,0 -1.8,0.1 -2.7,0.2 L 71.7,39.6 c -0.2,-0.9 -1,-1.5 -1.9,-1.5 h -5.6 c -0.4,-1.2 -1.5,-2.3 -2.8,-2.7 l -5.9,-1.9 -2,-5.8 C 52.8,25.8 51.4,24.2 49.6,23.2 L 48,22.5 c -3.9,-2 -8.7,-0.6 -10.9,3.2 l -6,10.5 c 0,0 -2.6,4.4 -2.6,4.4 -1.8,3.1 -0.9,7.2 2.2,9.2 l 14.7,9.5 0.5,16 c 0.1,2.3 1.7,4.4 4,4.8 2.9,0.4 5.4,-1.8 5.4,-4.7 V 54.7 c 0,-1.2 -0.5,-2.3 -1.5,-3 l -10.1,-7.9 4,-7.2 0.6,1.6 c 0.4,1.2 1.4,2.1 2.6,2.5 l 8,2.6 c 0.5,0.2 1,0.2 1.4,0.2 1.1,0 2.1,-0.5 2.8,-1.3 h 5 l 2,7.4 h -12 c 0.9,1.2 1.4,2.5 1.6,4 h 4.9 l -4.9,6.7 v 6.8 L 69.5,53.6 H 71 l 1.8,6.5 c -6.5,2.6 -11.2,9 -11.2,16.5 0,9.8 8,17.8 17.8,17.8 9.8,0 17.8,-8 17.8,-17.8 0.3,-9.7 -7.7,-17.7 -17.5,-17.7 z m 0,31.6 c -7.6,0 -13.8,-6.2 -13.8,-13.8 0,-5.6 3.4,-10.5 8.3,-12.6 l 3.6,13.2 c 0.2,0.9 1.1,1.5 1.9,1.5 0.2,0 0.4,0 0.5,-0.1 1.1,-0.3 1.7,-1.4 1.4,-2.5 L 78,63 c 0.6,-0.1 1.1,-0.1 1.7,-0.1 7.6,0 13.8,6.2 13.8,13.8 0,7.6 -6.2,13.8 -13.8,13.8 z"
             id="path814" />
          <path
             style="fill:#252424;fill-opacity:1"
             d="M 41.4,74.7 H 38 C 37.4,69.8 34.9,65.5 31.2,62.6 l 3.1,-5.1 -3.4,-2.2 -3.2,5.2 c -2.2,-1 -4.8,-1.6 -7.4,-1.6 -9.8,0 -17.8,8 -17.8,17.8 0,9.8 8,17.8 17.8,17.8 9.1,0 16.7,-6.9 17.7,-15.8 h 4 c -0.4,-1 -0.6,-2 -0.6,-3.1 z M 20.3,90.5 c -7.6,0 -13.8,-6.2 -13.8,-13.8 0,-7.6 6.2,-13.8 13.8,-13.8 1.9,0 3.7,0.4 5.3,1.1 l -7.1,11.7 c -0.4,0.6 -0.4,1.4 0,2 0.4,0.6 1,1 1.7,1 h 13.6 c -0.9,6.6 -6.6,11.8 -13.5,11.8 z m 3.6,-15.8 5.2,-8.6 c 2.6,2.1 4.3,5.2 4.9,8.6 z"
             id="path816" />
          <circle
             style="fill:#252424;fill-opacity:1"
             cx="53.799999"
             cy="13.6"
             r="8"
             id="circle818" />
        </g>
      </g>
    </g>
  </g>
</svg>
