<?xml version="1.0" encoding="UTF-8" standalone="no"?>
<svg
   xmlns:dc="http://purl.org/dc/elements/1.1/"
   xmlns:cc="http://creativecommons.org/ns#"
   xmlns:rdf="http://www.w3.org/1999/02/22-rdf-syntax-ns#"
   xmlns:svg="http://www.w3.org/2000/svg"
   xmlns="http://www.w3.org/2000/svg"
   xmlns:sodipodi="http://sodipodi.sourceforge.net/DTD/sodipodi-0.dtd"
   xmlns:inkscape="http://www.inkscape.org/namespaces/inkscape"
   style="fill:none"
   id="svg32"
   version="1.1"
   viewBox="0 0 296.08374 83.005989"
   height="83.005989"
   width="296.08374"
   sodipodi:docname="Icon_Conventional_Bus.svg"
   inkscape:version="0.92.3 (2405546, 2018-03-11)">
  <sodipodi:namedview
     pagecolor="#ffffff"
     bordercolor="#666666"
     borderopacity="1"
     objecttolerance="10"
     gridtolerance="10"
     guidetolerance="10"
     inkscape:pageopacity="0"
     inkscape:pageshadow="2"
     inkscape:window-width="1853"
     inkscape:window-height="1025"
     id="namedview22"
     showgrid="false"
     inkscape:zoom="11.942567"
     inkscape:cx="272.51047"
     inkscape:cy="64.516574"
     inkscape:window-x="67"
     inkscape:window-y="27"
     inkscape:window-maximized="1"
     inkscape:current-layer="svg32" />
  <metadata
     id="metadata38">
    <rdf:RDF>
      <cc:Work
         rdf:about="">
        <dc:format>image/svg+xml</dc:format>
        <dc:type
           rdf:resource="http://purl.org/dc/dcmitype/StillImage" />
        <dc:title />
      </cc:Work>
    </rdf:RDF>
  </metadata>
  <defs
     id="defs36" />
  <path
     style="fill:#efefef"
     id="path2"
     d="m 62.318358,5.8467 3.5085,-3.9661 206.771002,0.6101 4.119,9.9153 2.135,15.712 v 38.898 l -2.898,0.763 -196.185102,-0.279 -15.5324,-3.775 -1.8337,-3.775 z" />
  <path
     style="fill:#f0d722;fill-opacity:1"
     id="path4"
     d="m 71.786958,11.7347 2.2651,-2.0493 5.1775,0.3235 1.1865,2.4809 -0.108,19.7392 -2.0494,1.402 -4.6382,0.108 -2.2651,-2.157 z" />
  <path
     style="fill:#f0d722;fill-opacity:1"
     id="path6"
     d="m 88.901358,11.4112 2.2652,-1.7258 19.091702,0.2156 1.6539,2.2652 -0.288,19.7388 -1.3662,1.618 -19.163702,0.108 -2.6965,-2.049 z" />
  <path
     style="fill:#f0d722;fill-opacity:1"
     id="path8"
     d="m 120.47006,11.3032 3.0755,-1.7257 25.9223,0.2157 2.246,2.2651 -0.391,19.7387 -1.855,1.618 -26.0204,0.108 -3.6613,-2.049 z" />
  <path
     style="fill:#f0d722;fill-opacity:1"
     id="path10"
     d="m 159.40886,11.3032 3.075,-1.7257 25.923,0.2157 2.246,2.2651 -0.391,19.7387 -1.855,1.618 -26.021,0.108 -3.661,-2.049 z" />
  <path
     style="fill:#f0d722;fill-opacity:1"
     id="path12"
     d="m 198.67286,11.3032 2.598,-1.7257 21.894,0.2157 1.897,2.2651 -0.331,19.7387 -1.566,1.618 -21.977,0.108 -3.092,-2.049 z" />
  <path
     style="fill:#f0d722;fill-opacity:1"
     id="path14"
     d="m 268.42286,9.6854 -2.481,2.6965 -0.108,17.6901 4.099,12.835 9.168,0.108 -0.862,-24.161 -2.373,-9.0607 z" />
  <path
     style="fill:#ffffff"
     id="path16"
     d="m 270.68786,54.125 v 5.933 l 7.55,0.323 0.755,-5.716 z" />
  <path
     style="fill:#000000"
     id="path18"
     d="m 186.82786,8.64 h -24.48 c -2.592,0 -4.608,2.016 -4.608,4.608 V 30.24 c 0,2.592 2.016,4.608 4.608,4.608 h 24.48 c 2.592,0 4.608,-2.016 4.608,-4.608 V 13.248 c 0,-2.5921 -2.016,-4.608 -4.608,-4.608 z m 2.304,21.6 c 0,1.152 -0.864,2.304 -2.304,2.304 h -24.48 c -1.152,0 -2.304,-0.864 -2.304,-2.304 V 13.248 c 0,-1.152 0.864,-2.304 2.304,-2.304 h 24.48 c 1.152,0 2.304,0.864 2.304,2.304 z m 32.832,-21.6 h -20.448 c -2.592,0 -4.608,2.016 -4.608,4.608 V 30.24 c 0,2.592 2.016,4.608 4.608,4.608 h 20.448 c 2.592,0 4.608,-2.016 4.608,-4.608 V 13.248 c -0.288,-2.5921 -2.304,-4.608 -4.608,-4.608 z m 2.016,21.6 c 0,1.152 -0.864,2.304 -2.304,2.304 h -20.448 c -1.152,0 -2.304,-0.864 -2.304,-2.304 V 13.248 c 0,-1.152 0.864,-2.304 2.304,-2.304 h 20.448 c 1.152,0 2.304,0.864 2.304,2.304 z m -76.032,-21.6 h -24.4799 c -2.592,0 -4.6081,2.016 -4.6081,4.608 V 30.24 c 0,2.592 2.016,4.608 4.6081,4.608 h 24.4799 c 2.592,0 4.608,-2.016 4.608,-4.608 V 13.248 c -0.288,-2.5921 -2.304,-4.608 -4.608,-4.608 z m 2.016,21.6 c 0,1.152 -0.864,2.304 -2.304,2.304 h -24.4799 c -1.152,0 -2.3041,-0.864 -2.3041,-2.304 V 13.248 c 0,-1.152 0.8641,-2.304 2.3041,-2.304 h 24.7679 c 1.152,0 2.304,0.864 2.304,2.304 V 30.24 Z M 108.77996,8.64 H 91.787958 c -2.592,0 -4.6081,2.016 -4.6081,4.608 V 30.24 c 0,2.592 2.016,4.608 4.6081,4.608 h 16.992002 c 2.5919,0 4.608,-2.016 4.608,-4.608 V 13.248 c -0.2881,-2.5921 -2.016,-4.608 -4.608,-4.608 z m 2.016,21.6 c 0,1.152 -0.864,2.304 -2.304,2.304 H 91.499958 c -1.152,0 -2.304,-0.864 -2.304,-2.304 V 13.248 c 0,-1.152 0.864,-2.304 2.304,-2.304 h 16.992002 c 1.1519,0 2.304,0.864 2.304,2.304 z M 77.099858,8.64 h -2.0159 c -2.592,0 -4.6081,2.016 -4.6081,4.608 V 30.24 c 0,2.592 2.016,4.608 4.6081,4.608 h 2.0159 c 2.592,0 4.6081,-2.016 4.6081,-4.608 V 13.248 c 0,-2.5921 -2.016,-4.608 -4.6081,-4.608 z m 2.3041,21.6 c 0,1.152 -0.8641,2.304 -2.3041,2.304 h -2.0159 c -1.152,0 -2.3041,-0.864 -2.3041,-2.304 V 13.248 c 0,-1.152 0.8641,-2.304 2.3041,-2.304 h 2.0159 c 1.152,0 2.3041,0.864 2.3041,2.304 z m 173.951902,6.336 h -14.4 v 2.304 h 14.4 z m 26.496,-13.536 c -0.864,-10.368 -3.456,-17.568 -3.744,-17.8561 -0.288,-1.728 -2.016,-4.896 -6.048,-5.1839 h -200.735902 -0.2881 c -0.288,0 -2.0159,0 -3.744,0.576 -1.728,0.576 -3.744,2.0161 -4.32,4.608 -0.288,1.152 -0.288,7.2 -0.288,15.264 0,16.128 0.288,39.168 0.288,39.168 0,4.032 3.456,6.624 7.2,7.2 3.456,0.576 12.096,2.304 12.096,2.304 h 0.288 30.528102 c 2.304,3.744 6.3359,6.336 10.944,6.336 4.608,0 8.9279,-2.592 10.9439,-6.336 h 73.152 c 2.304,3.744 6.336,6.336 10.944,6.336 4.608,0 8.64,-2.592 10.944,-6.336 h 47.52 c 2.88,0 5.184,-2.016 5.184,-4.896 V 50.976 c 0,0 -0.288,-17.856 -0.864,-27.936 z m -3.456,0.288 c 0.288,5.184 0.576,12.384 0.864,18.144 h -6.048 c -0.288,-0.864 -1.152,-2.88 -1.728,-4.608 -0.864,-2.88 -2.016,-6.048 -2.016,-6.624 V 13.248 c 0,-1.152 0.864,-2.304 2.304,-2.304 h 4.608 c 0.576,3.1681 1.44,7.2 2.016,12.384 z m -154.0799,48.96 c -5.184,0 -9.216,-4.032 -9.216,-9.216 0,-5.184 4.032,-9.216 9.216,-9.216 5.1839,0 9.2159,4.032 9.2159,9.216 0,5.184 -4.032,9.216 -9.2159,9.216 z m 95.0399,0 c -5.184,0 -9.216,-4.032 -9.216,-9.216 0,-5.184 4.032,-9.216 9.216,-9.216 5.184,0 9.216,4.032 9.216,9.216 0,5.184 -4.32,9.216 -9.216,9.216 z m 39.168,-6.336 h -21.024 V 10.9439 h 21.024 z m 21.024,-6.624 h -5.76 v -4.032 h 5.76 z m 0,-6.336 h -5.76 c -1.44,0 -2.304,1.152 -2.304,2.304 v 4.032 c 0,1.44 1.152,2.304 2.304,2.304 h 5.76 v 2.592 c 0,0.864 -0.864,1.44 -1.728,1.44 h -16.704 V 9.7919 c 0,-0.2881 0,-0.5761 -0.288,-0.864 -0.288,-0.288 -0.576,-0.288 -0.864,-0.288 h -23.616 c -0.288,0 -0.576,0 -0.864,0.288 -0.288,0.288 -0.288,0.576 -0.288,0.864 V 65.952 h -3.744 c 0.288,-0.864 0.288,-1.728 0.288,-2.88 0,-6.912 -5.76,-12.672 -12.672,-12.672 -6.912,0 -12.672,5.76 -12.672,12.672 0,0.864 0,1.728 0.288,2.88 h -69.984 c 0.288,-0.864 0.288,-1.728 0.288,-2.88 0,-6.912 -5.76,-12.672 -12.6719,-12.672 -6.912,0 -12.672,5.76 -12.672,12.672 0,0.864 0,1.728 0.288,2.88 H 80.843958 c -1.152,-0.288 -8.64,-1.728 -11.808,-2.304 -3.168,-0.576 -4.32,-1.728 -4.32,-3.744 0,0 -0.288,-23.04 -0.288,-39.168 V 6.0479 c 0.288,-1.152 0.864,-1.44 2.016,-2.016 1.152,-0.2881 2.304,-0.2881 2.304,-0.2881 H 269.77186 c 1.728,0 2.304,1.152 2.592,2.592 0,0.288 0.288,1.152 0.864,2.592 h -4.032 c -2.592,0 -4.608,2.016 -4.608,4.608 V 30.528 c 0,2.592 4.032,12.672 4.032,12.672 0.288,0.576 0.576,0.864 1.152,0.864 h 6.912 c 0,4.32 0.288,7.488 0.288,7.488 v 1.44 z" />
  <path
     style="fill:#000000"
     id="path20"
     d="m 133.48486,62.431 c 0,1.501 -0.296,2.988 -0.87,4.375 -0.575,1.387 -1.417,2.648 -2.479,3.71 -1.061,1.061 -2.322,1.903 -3.7091,2.478 -1.3871,0.575 -2.8739,0.87 -4.3754,0.87 -3.0323,0 -5.9405,-1.204 -8.0847,-3.349 -2.1442,-2.144 -3.3488,-5.052 -3.3488,-8.084 0,-3.033 1.2046,-5.941 3.3488,-8.085 2.1442,-2.144 5.0524,-3.349 8.0847,-3.349 3.0324,0 5.9405,1.205 8.0845,3.349 2.144,2.144 3.349,5.052 3.349,8.085 z" />
  <path
     style="fill:#000000"
     id="path22"
     d="m 227.94786,62.431 c 0,1.501 -0.295,2.988 -0.87,4.375 -0.574,1.387 -1.417,2.648 -2.478,3.71 -1.062,1.061 -2.322,1.903 -3.71,2.478 -1.387,0.575 -2.874,0.87 -4.375,0.87 -3.033,0 -5.941,-1.204 -8.085,-3.349 -2.144,-2.144 -3.349,-5.052 -3.349,-8.084 0,-3.033 1.205,-5.941 3.349,-8.085 2.144,-2.144 5.052,-3.349 8.085,-3.349 3.032,0 5.94,1.205 8.085,3.349 2.144,2.144 3.348,5.052 3.348,8.085 z" />
  <path
     style="fill:#efefef"
     id="path24"
     d="m 122.15926,71.491 c 4.7066,0 8.5216,-3.815 8.5216,-8.521 0,-4.706 -3.815,-8.521 -8.5216,-8.521 -4.7061,0 -8.5212,3.815 -8.5212,8.521 0,4.706 3.8151,8.521 8.5212,8.521 z" />
  <path
     style="fill:#efefef"
     id="path26"
     d="m 217.00686,71.491 c 4.706,0 8.521,-3.815 8.521,-8.521 0,-4.706 -3.815,-8.521 -8.521,-8.521 -4.706,0 -8.521,3.815 -8.521,8.521 0,4.706 3.815,8.521 8.521,8.521 z" />
  <path
     style="fill:#000000"
     id="path28"
     d="m 122.15926,67.069 c 2.2637,0 4.0988,-1.835 4.0988,-4.099 0,-2.264 -1.8351,-4.099 -4.0988,-4.099 -2.2637,0 -4.0988,1.835 -4.0988,4.099 0,2.264 1.8351,4.099 4.0988,4.099 z" />
  <path
     style="fill:#000000"
     id="path30"
     d="m 217.00686,67.069 c 2.264,0 4.099,-1.835 4.099,-4.099 0,-2.264 -1.835,-4.099 -4.099,-4.099 -2.264,0 -4.099,1.835 -4.099,4.099 0,2.264 1.835,4.099 4.099,4.099 z" />
  <path
     id="path901"
     d="m 41.031806,47.01011 c 0,-0.12826 0.02235,-0.25639 0.02235,-0.3846 0,-6.94406 -5.805681,-12.56342 -12.967403,-12.56342 -5.166848,0 -9.605153,2.92719 -11.689738,7.15774 -0.907838,-0.43802 -1.927751,-0.69441 -3.003693,-0.69441 -3.3063,0 -6.063432,2.33961 -6.590189,5.39501 C 2.835572,47.22378 0,50.84532 0,55.10792 c 0,5.36296 4.494317,9.71106 10.030976,9.72175 h 31.012006 c 5.065963,-0.0214 9.156756,-4.00626 9.156756,-8.90981 0.01133,-4.91423 -4.102128,-8.89907 -9.167929,-8.90975 z"
     style="fill:#000000;stroke-width:1.61934638" />
  <rect
     style="opacity:1;fill:#f0d722;fill-opacity:1;stroke:none;stroke-width:0.69389725;stroke-linecap:round;stroke-linejoin:round;stroke-miterlimit:4;stroke-dasharray:none;stroke-dashoffset:0;stroke-opacity:1;paint-order:fill markers stroke"
     id="rect827"
     width="8.8415661"
     height="35.303993"
     x="91.899117"
     y="-47.758198"
     ry="4.3911014" />
</svg>
