<?xml version="1.0" encoding="UTF-8" standalone="no"?>
<svg
   xmlns:dc="http://purl.org/dc/elements/1.1/"
   xmlns:cc="http://creativecommons.org/ns#"
   xmlns:rdf="http://www.w3.org/1999/02/22-rdf-syntax-ns#"
   xmlns:svg="http://www.w3.org/2000/svg"
   xmlns="http://www.w3.org/2000/svg"
   style="fill:none"
   id="svg6"
   version="1.1"
   viewBox="0 0 56.974575 54.545395"
   height="54.545395"
   width="56.974575">
  <metadata
     id="metadata12">
    <rdf:RDF>
      <cc:Work
         rdf:about="">
        <dc:format>image/svg+xml</dc:format>
        <dc:type
           rdf:resource="http://purl.org/dc/dcmitype/StillImage" />
        <dc:title></dc:title>
      </cc:Work>
    </rdf:RDF>
  </metadata>
  <defs
     id="defs10" />
  <ellipse
     ry="6.75"
     rx="28.487288"
     cy="47.795395"
     cx="28.487288"
     id="path822"
     style="opacity:0.869;fill:#efefef;fill-opacity:1;stroke:none;stroke-width:5.61001301;stroke-linecap:round;stroke-linejoin:round;stroke-miterlimit:4;stroke-dasharray:none;stroke-dashoffset:0;stroke-opacity:1;paint-order:fill markers stroke" />
  <path
     style="fill:#000000"
     id="path2"
     d="m 31.61449,9.33929 c 2.579,0 4.6696,-2.0907 4.6696,-4.66965 C 36.28409,2.09067 34.19349,0 31.61449,0 c -2.579,0 -4.6696,2.09067 -4.6696,4.66964 0,2.57895 2.0906,4.66965 4.6696,4.66965 z" />
  <path
     style="fill:#000000"
     id="path4"
     d="m 45.78969,24.20109 c -2.1769,-1.0011 -6.6605,-2.4264 -7.8851,-4.5237 -1.6355,-2.801 -3.0345,-9.322 -8.781,-9.2854 -2.5095,0.0164 -6.5942,4.1648 -9.4776,6.036 -1.3417,0.8705 -1.2982,3.2124 -1.5351,4.6119 -0.3106,1.8323 -0.6207,3.6647 -0.9317,5.4971 -0.3097,1.8237 1.2241,2.6494 2.7313,1.834 0.8257,-0.4466 1.1871,-1.579 1.3314,-2.431 0.3726,-2.1972 0.8697,-3.9129 1.2423,-6.1101 l 2.6481,-2.1494 c -0.8993,5.3791 -1.713,8.5571 -2.5387,15.8077 -0.2443,2.146 -0.5385,4.3436 -1.0446,5.0035 -1.6363,2.133 -2.8885,4.2298 -4.5481,6.3448 -2.3489,2.9927 1.8323,5.2916 3.9826,2.5517 1.4705,-1.8742 2.9411,-3.7479 4.4112,-5.6216 2.0847,-2.6572 1.9951,-6.9905 2.5387,-10.2387 1.6489,3.561 3.2973,7.1214 4.9462,10.6819 0.7633,1.6493 1.527,3.2986 2.2907,4.9479 1.4257,3.0785 5.8193,1.4844 4.322,-1.7479 -2.1248,-4.5882 -3.8181,-9.1769 -5.9429,-13.7647 -0.6633,-1.4331 -1.7031,-2.8278 -1.477,-4.3862 0.3709,-2.553 0.7417,-5.1056 1.1122,-7.6581 0.6129,1.0497 1.147,2.4862 1.9697,3.374 0.5841,1.001 2.7874,1.6299 3.7957,2.0933 1.5765,0.7254 3.153,1.4499 4.7295,2.1748 2.5255,1.1626 4.7911,-1.8091 2.1102,-3.0418 z" />
</svg>
