<?xml version="1.0" encoding="UTF-8" standalone="no"?>
<svg
   xmlns:dc="http://purl.org/dc/elements/1.1/"
   xmlns:cc="http://creativecommons.org/ns#"
   xmlns:rdf="http://www.w3.org/1999/02/22-rdf-syntax-ns#"
   xmlns:svg="http://www.w3.org/2000/svg"
   xmlns="http://www.w3.org/2000/svg"
   width="294.20303"
   height="75.456001"
   viewBox="0 0 294.20303 75.456001"
   version="1.1"
   id="svg32"
   style="fill:none">
  <metadata
     id="metadata38">
    <rdf:RDF>
      <cc:Work
         rdf:about="">
        <dc:format>image/svg+xml</dc:format>
        <dc:type
           rdf:resource="http://purl.org/dc/dcmitype/StillImage" />
        <dc:title></dc:title>
      </cc:Work>
    </rdf:RDF>
  </metadata>
  <defs
     id="defs36" />
  <path
     id="path863"
     d="m 289.90302,10.3583 -7.35794,-1.8895732 -2.84202,10.3835232 2.36835,24.15725 5.44723,0.947343 4.92839,-0.484842 z"
     style="fill:#f0d722;stroke:none;stroke-width:1px;stroke-linecap:butt;stroke-linejoin:miter;stroke-opacity:1;fill-opacity:1" />
  <path
     d="m 293.33904,23.04 c -0.864,-10.368 -3.456,-17.568 -3.744,-17.8561 -0.288,-1.728 -2.016,-4.896 -6.048,-5.1839 h -200.735898 -0.2881 c -0.288,0 -2.0159,0 -3.744,0.576 -1.728,0.576 -3.744,2.0161 -4.32,4.608 -0.288,1.152 -0.288,7.2 -0.288,15.264 0,16.128 0.288,39.168 0.288,39.168 0,4.032 3.456,6.624 7.2,7.2 3.456,0.576 12.096,2.304 12.096,2.304 h 0.288 30.528098 c 2.304,3.744 6.3359,6.336 10.944,6.336 4.608,0 8.9279,-2.592 10.9439,-6.336 h 73.152 c 2.304,3.744 6.336,6.336 10.944,6.336 4.608,0 8.64,-2.592 10.944,-6.336 h 47.52 c 2.88,0 5.184,-2.016 5.184,-4.896 V 50.976 c 0,0 -0.288,-17.856 -0.864,-27.936 z m -3.456,0.288 c 0.288,5.184 0.576,12.384 0.864,18.144 z m -154.0799,48.96 c -5.184,0 -9.216,-4.032 -9.216,-9.216 0,-5.184 4.032,-9.216 9.216,-9.216 5.1839,0 9.2159,4.032 9.2159,9.216 0,5.184 -4.032,9.216 -9.2159,9.216 z m 95.0399,0 c -5.184,0 -9.216,-4.032 -9.216,-9.216 0,-5.184 4.032,-9.216 9.216,-9.216 5.184,0 9.216,4.032 9.216,9.216 0,5.184 -4.32,9.216 -9.216,9.216 z m 60.192,-8.064 c 0,0.864 -0.864,1.44 -1.728,1.44 l -46.368,0.288 c 0.288,-0.864 0.288,-1.728 0.288,-2.88 0,-6.912 -5.76,-12.672 -12.672,-12.672 -6.912,0 -12.672,5.76 -12.672,12.672 0,0.864 0,1.728 0.288,2.88 h -69.984 c 0.288,-0.864 0.288,-1.728 0.288,-2.88 0,-6.912 -5.76,-12.672 -12.6719,-12.672 -6.912,0 -12.672,5.76 -12.672,12.672 0,0.864 0,1.728 0.288,2.88 H 94.331142 c -1.152,-0.288 -8.64,-1.728 -11.808,-2.304 -3.168,-0.576 -4.32,-1.728 -4.32,-3.744 0,0 -0.288,-23.04 -0.288,-39.168 V 6.0479 c 0.288,-1.152 0.864,-1.44 2.016,-2.016 1.152,-0.2881 2.304,-0.2881 2.304,-0.2881 H 283.25904 c 1.728,0 2.304,1.152 2.592,2.592 3.92518,2.1329268 5.13503,31.877069 5.184,57.8882 z"
     id="path18"
     style="fill:#252424;fill-opacity:1" />
  <path
     d="m 146.97204,62.431 c 0,1.501 -0.296,2.988 -0.87,4.375 -0.575,1.387 -1.417,2.648 -2.479,3.71 -1.061,1.061 -2.322,1.903 -3.7091,2.478 -1.3871,0.575 -2.8739,0.87 -4.3754,0.87 -3.0323,0 -5.9405,-1.204 -8.0847,-3.349 -2.1442,-2.144 -3.3488,-5.052 -3.3488,-8.084 0,-3.033 1.2046,-5.941 3.3488,-8.085 2.1442,-2.144 5.0524,-3.349 8.0847,-3.349 3.0324,0 5.9405,1.205 8.0845,3.349 2.144,2.144 3.349,5.052 3.349,8.085 z"
     id="path20"
     style="fill:#252424;fill-opacity:1" />
  <path
     d="m 241.43504,62.431 c 0,1.501 -0.295,2.988 -0.87,4.375 -0.574,1.387 -1.417,2.648 -2.478,3.71 -1.062,1.061 -2.322,1.903 -3.71,2.478 -1.387,0.575 -2.874,0.87 -4.375,0.87 -3.033,0 -5.941,-1.204 -8.085,-3.349 -2.144,-2.144 -3.349,-5.052 -3.349,-8.084 0,-3.033 1.205,-5.941 3.349,-8.085 2.144,-2.144 5.052,-3.349 8.085,-3.349 3.032,0 5.94,1.205 8.085,3.349 2.144,2.144 3.348,5.052 3.348,8.085 z"
     id="path22"
     style="fill:#252424;fill-opacity:1" />
  <path
     d="m 135.64644,71.491 c 4.7066,0 8.5216,-3.815 8.5216,-8.521 0,-4.706 -3.815,-8.521 -8.5216,-8.521 -4.7061,0 -8.5212,3.815 -8.5212,8.521 0,4.706 3.8151,8.521 8.5212,8.521 z"
     id="path24"
     style="fill:#f0d722;fill-opacity:1" />
  <path
     d="m 230.49404,71.491 c 4.706,0 8.521,-3.815 8.521,-8.521 0,-4.706 -3.815,-8.521 -8.521,-8.521 -4.706,0 -8.521,3.815 -8.521,8.521 0,4.706 3.815,8.521 8.521,8.521 z"
     id="path26"
     style="fill:#f0d722;fill-opacity:1" />
  <path
     d="m 135.64644,67.069 c 2.2637,0 4.0988,-1.835 4.0988,-4.099 0,-2.264 -1.8351,-4.099 -4.0988,-4.099 -2.2637,0 -4.0988,1.835 -4.0988,4.099 0,2.264 1.8351,4.099 4.0988,4.099 z"
     id="path28"
     style="fill:#252424;fill-opacity:1" />
  <path
     d="m 230.49404,67.069 c 2.264,0 4.099,-1.835 4.099,-4.099 0,-2.264 -1.835,-4.099 -4.099,-4.099 -2.264,0 -4.099,1.835 -4.099,4.099 0,2.264 1.835,4.099 4.099,4.099 z"
     id="path30"
     style="fill:#252424;fill-opacity:1" />
  <path
     style="fill:none;fill-opacity:1;stroke:#252424;stroke-width:3;stroke-miterlimit:4;stroke-dasharray:none;stroke-opacity:1"
     d="m 55.467113,48.852957 c 0,-0.115 0.02004,-0.229874 0.02004,-0.344826 0,-6.225926 -5.205275,-11.264147 -11.626352,-11.264147 -4.632508,0 -8.611816,2.624468 -10.480819,6.417507 -0.813952,-0.392722 -1.728389,-0.622596 -2.69306,-0.622596 -2.964372,0 -5.43637,2.097654 -5.90865,4.837074 -3.557249,1.168561 -6.099573,4.415572 -6.099573,8.237346 0,4.808338 4.029528,8.706771 8.993601,8.716355 h 27.804834 c 4.542056,-0.01918 8.209791,-3.591944 8.209791,-7.988384 0.01013,-4.406014 -3.677897,-7.978753 -8.219808,-7.988329 z"
     id="path901" />
  <path
     id="path833"
     d="m 27.280085,18.465404 c 0,-0.08059 0.01405,-0.161088 0.01405,-0.241642 0,-4.362921 -3.647683,-7.893538 -8.147359,-7.893538 -3.246307,0 -6.034873,1.839139 -7.344608,4.497174 -0.570391,-0.275206 -1.211198,-0.436294 -1.887207,-0.436294 -2.0773325,0 -3.809626,1.469966 -4.1405845,3.38966 C 3.281576,18.599652 1.5,20.875049 1.5,23.553221 c 0,3.369522 2.8237581,6.101414 6.3024151,6.10813 H 27.287111 c 3.182921,-0.01344 5.753147,-2.517114 5.753147,-5.597993 0.0071,-3.087587 -2.577347,-5.591243 -5.760167,-5.597954 z"
     style="fill:none;fill-opacity:1;stroke:#252424;stroke-width:3;stroke-miterlimit:4;stroke-dasharray:none;stroke-opacity:1" />
  <rect
     ry="4.4756598"
     rx="4.2658634"
     y="10.468727"
     x="84.666664"
     height="23.696936"
     width="11.471757"
     id="rect831"
     style="opacity:1;fill:#f0d722;fill-opacity:1;stroke:#252424;stroke-width:3.79999995;stroke-linecap:round;stroke-linejoin:round;stroke-miterlimit:4;stroke-dasharray:none;stroke-dashoffset:0;stroke-opacity:1;paint-order:fill markers stroke" />
  <rect
     style="opacity:1;fill:#f0d722;fill-opacity:1;stroke:#252424;stroke-width:3.79999995;stroke-linecap:round;stroke-linejoin:round;stroke-miterlimit:4;stroke-dasharray:none;stroke-dashoffset:0;stroke-opacity:1;paint-order:fill markers stroke"
     id="rect835"
     width="22.857594"
     height="22.35519"
     x="109.00007"
     y="10.468727"
     rx="3.6867778"
     ry="4.2309031" />
  <rect
     ry="4.2309031"
     rx="3.6867778"
     y="10.468727"
     x="144.75285"
     height="22.35519"
     width="22.857594"
     id="rect837"
     style="opacity:1;fill:#f0d722;fill-opacity:1;stroke:#252424;stroke-width:3.79999995;stroke-linecap:round;stroke-linejoin:round;stroke-miterlimit:4;stroke-dasharray:none;stroke-dashoffset:0;stroke-opacity:1;paint-order:fill markers stroke" />
  <rect
     style="opacity:1;fill:#f0d722;fill-opacity:1;stroke:#252424;stroke-width:3.79999995;stroke-linecap:round;stroke-linejoin:round;stroke-miterlimit:4;stroke-dasharray:none;stroke-dashoffset:0;stroke-opacity:1;paint-order:fill markers stroke"
     id="rect839"
     width="22.857594"
     height="22.35519"
     x="180.50565"
     y="10.468727"
     rx="3.6867778"
     ry="4.2309031" />
  <rect
     ry="4.2309031"
     rx="3.6867778"
     y="10.468727"
     x="216.25844"
     height="22.35519"
     width="22.857594"
     id="rect841"
     style="opacity:1;fill:#f0d722;fill-opacity:1;stroke:#252424;stroke-width:3.79999995;stroke-linecap:round;stroke-linejoin:round;stroke-miterlimit:4;stroke-dasharray:none;stroke-dashoffset:0;stroke-opacity:1;paint-order:fill markers stroke" />
  <path
     id="rect843"
     d="m 252.52111,8.4687268 c -3.41897,0 -5.90235,3.1388782 -5.90235,6.6171882 v 51.89258 c 0,0.036 0.003,0.0715 0.004,0.10742 h 3.80273 c -0.001,-0.037 -0.008,-0.0698 -0.008,-0.10742 v -51.89258 c 0,-1.747992 1.08841,-2.816406 2.10352,-2.816406 h 14.8164 c 1.01511,0 2.10155,1.068414 2.10157,2.816406 v 51.89258 c 0,0.0376 -0.007,0.0704 -0.008,0.10742 h 3.80469 c 5.3e-4,-0.0359 0.004,-0.0714 0.004,-0.10742 v -51.89258 c 0,-3.47831 -2.48338,-6.6171882 -5.90235,-6.6171882 z"
     style="color:#000000;font-style:normal;font-variant:normal;font-weight:normal;font-stretch:normal;font-size:medium;line-height:normal;font-family:sans-serif;font-variant-ligatures:normal;font-variant-position:normal;font-variant-caps:normal;font-variant-numeric:normal;font-variant-alternates:normal;font-feature-settings:normal;text-indent:0;text-align:start;text-decoration:none;text-decoration-line:none;text-decoration-style:solid;text-decoration-color:#000000;letter-spacing:normal;word-spacing:normal;text-transform:none;writing-mode:lr-tb;direction:ltr;text-orientation:mixed;dominant-baseline:auto;baseline-shift:baseline;text-anchor:start;white-space:normal;shape-padding:0;clip-rule:nonzero;display:inline;overflow:visible;visibility:visible;opacity:1;isolation:auto;mix-blend-mode:normal;color-interpolation:sRGB;color-interpolation-filters:linearRGB;solid-color:#000000;solid-opacity:1;vector-effect:none;fill:#252424;fill-opacity:1;fill-rule:nonzero;stroke:none;stroke-width:3.79999995;stroke-linecap:round;stroke-linejoin:round;stroke-miterlimit:4;stroke-dasharray:none;stroke-dashoffset:0;stroke-opacity:1;paint-order:fill markers stroke;color-rendering:auto;image-rendering:auto;shape-rendering:auto;text-rendering:auto;enable-background:accumulate" />
  <path
     id="path857"
     d="m 254.96686,40.459425 h 9.92489"
     style="fill:none;stroke:#252424;stroke-width:3.79999995;stroke-linecap:round;stroke-linejoin:miter;stroke-miterlimit:4;stroke-dasharray:none;stroke-opacity:1" />
  <path
     id="path859"
     d="m 289.90302,10.3583 c 0,0 -3.09672,0 -5.8294,0 -2.73268,0 -3.77562,3.77562 -3.77562,3.77562 v 16.670671 c 0,0 0.61547,12.66741 3.67202,12.66741 2.59417,0 8.47701,0 8.47701,0"
     style="fill:none;stroke:#252424;stroke-width:3.79999995;stroke-linecap:butt;stroke-linejoin:miter;stroke-miterlimit:4;stroke-dasharray:none;stroke-opacity:1" />
  <path
     id="path861"
     d="m 291.49766,50.160676 h -6.50659 v 6.88946 h 7.53607"
     style="fill:none;stroke:#252424;stroke-width:3.79999995;stroke-linecap:butt;stroke-linejoin:round;stroke-miterlimit:4;stroke-dasharray:none;stroke-opacity:1" />
</svg>
