<?xml version="1.0" encoding="UTF-8" standalone="no"?>
<svg
   xmlns:dc="http://purl.org/dc/elements/1.1/"
   xmlns:cc="http://creativecommons.org/ns#"
   xmlns:rdf="http://www.w3.org/1999/02/22-rdf-syntax-ns#"
   xmlns:svg="http://www.w3.org/2000/svg"
   xmlns="http://www.w3.org/2000/svg"
   xmlns:sodipodi="http://sodipodi.sourceforge.net/DTD/sodipodi-0.dtd"
   xmlns:inkscape="http://www.inkscape.org/namespaces/inkscape"
   style="fill:none"
   id="svg28"
   version="1.1"
   viewBox="0 0 140.41089 43.750065"
   height="43.750065"
   width="140.41089"
   sodipodi:docname="Icon_Conventional_Car.svg"
   inkscape:version="0.92.3 (2405546, 2018-03-11)">
  <sodipodi:namedview
     pagecolor="#ffffff"
     bordercolor="#666666"
     borderopacity="1"
     objecttolerance="10"
     gridtolerance="10"
     guidetolerance="10"
     inkscape:pageopacity="0"
     inkscape:pageshadow="2"
     inkscape:window-width="1853"
     inkscape:window-height="1025"
     id="namedview20"
     showgrid="false"
     inkscape:zoom="8.9036171"
     inkscape:cx="110.57752"
     inkscape:cy="21.875032"
     inkscape:window-x="1987"
     inkscape:window-y="27"
     inkscape:window-maximized="1"
     inkscape:current-layer="g915" />
  <metadata
     id="metadata34">
    <rdf:RDF>
      <cc:Work
         rdf:about="">
        <dc:format>image/svg+xml</dc:format>
        <dc:type
           rdf:resource="http://purl.org/dc/dcmitype/StillImage" />
        <dc:title />
      </cc:Work>
    </rdf:RDF>
  </metadata>
  <defs
     id="defs32" />
  <g
     transform="matrix(1.7805618,0,0,1.7805618,319.21829,-853.46094)"
     id="g875"
     style="fill:#000000">
    <g
       id="g4"
       transform="translate(4.766,-36.28654)">
      <g
         transform="matrix(0.5616205,0,0,0.5616205,-309.04724,421.25158)"
         id="g1083"
         style="fill:none">
        <path
           id="path901"
           d="m 255.32412,191.96891 c 0,-0.0674 0.0117,-0.13476 0.0117,-0.20216 0,-3.65007 -3.05169,-6.60381 -6.81617,-6.60381 -2.7159,0 -5.04883,1.53864 -6.14458,3.76238 -0.47719,-0.23025 -1.01329,-0.36501 -1.57885,-0.36501 -1.73792,0 -3.18718,1.22978 -3.46406,2.83582 -2.0855,0.68509 -3.57598,2.58872 -3.57598,4.82931 0,2.81897 2.36238,5.1045 5.27266,5.11012 h 16.3011 c 2.66287,-0.0113 4.81314,-2.10584 4.81314,-4.68335 0.006,-2.58309 -2.15623,-4.67768 -4.81901,-4.6833 z"
           style="fill:none;fill-opacity:1;stroke:#252424;stroke-width:1.75880599;stroke-miterlimit:4;stroke-dasharray:none;stroke-opacity:1" />
        <path
           style="fill:none;fill-opacity:1;stroke:#252424;stroke-width:1.75880599;stroke-miterlimit:4;stroke-dasharray:none;stroke-opacity:1"
           d="m 238.79896,174.15364 c 0,-0.0472 0.008,-0.0945 0.008,-0.14166 0,-2.55784 -2.13853,-4.62774 -4.77655,-4.62774 -1.90321,0 -3.53806,1.07823 -4.3059,2.63654 -0.33441,-0.16133 -0.7101,-0.25577 -1.10642,-0.25577 -1.21787,0 -2.23346,0.86179 -2.4275,1.98725 -1.46145,0.48009 -2.50593,1.81408 -2.50593,3.38421 0,1.97545 1.65548,3.57706 3.69491,3.581 h 11.42326 c 1.86605,-0.008 3.3729,-1.47571 3.3729,-3.28192 0.004,-1.81016 -1.51102,-3.27797 -3.37701,-3.28191 z"
           id="path833" />
      </g>
    </g>
  </g>
  <g
     transform="matrix(0.56565176,0,0,0.56565176,73.982584,-56.666956)"
     id="g915"
     style="fill:none">
    <path
       id="path919"
       d="m -3.0653862,101.5928 a 1.835105,1.835105 0 0 0 -1.3797873,0.62716 l -21.4133855,24.47399 c -0.637544,0.0799 -7.26155,0.91656 -14.536017,1.62347 -3.708448,0.36038 -5.992231,2.67018 -7.0709,4.72707 -1.078667,2.05688 -1.207751,4.02465 -1.207751,4.02465 a 1.835105,1.835105 0 0 0 -0.0036,0.1326 v 16.27059 c 0,3.13284 1.130428,5.46937 2.86348,6.76628 1.733053,1.29691 3.761885,1.54821 5.451008,1.54821 H 110.12276 a 1.835105,1.835105 0 0 0 0.0358,0 c 0,0 1.62449,-0.009 3.35447,-0.66659 0.86499,-0.32871 1.80925,-0.83127 2.59111,-1.69157 0.78186,-0.8603 1.33676,-2.12218 1.33676,-3.53365 v -17.25615 c 0,-3.00717 -0.50794,-5.15289 -1.69155,-6.70176 -1.18362,-1.54888 -2.9046,-2.18522 -4.45112,-2.51227 -1.10914,-0.23456 -2.93131,-0.35344 -5.63737,-0.55191 -2.70607,-0.19847 -6.081124,-0.41972 -9.489988,-0.6666 -3.408884,-0.24688 -6.851978,-0.51941 -9.665608,-0.80994 -2.813634,-0.29053 -5.15851,-0.68028 -5.687536,-0.86012 0.0629,0.0214 -0.677252,-0.39115 -1.498049,-1.10382 -0.820779,-0.71265 -1.846848,-1.70914 -2.974573,-2.8814 -2.255467,-2.34451 -4.935645,-5.39172 -7.493801,-8.39691 -5.116293,-6.0104 -9.748001,-11.86249 -9.74802,-11.86249 a 1.835105,1.835105 0 0 0 -1.437111,-0.69884 z m 1.834922,3.66984 H 28.221458 v 21.34172 H -1.2304642 Z m 33.1217652,0 H 56.79893 c 0.497134,0.62702 4.391058,5.55062 9.26061,11.27115 2.585037,3.03678 5.296446,6.11761 7.64432,8.55818 0.52174,0.54236 1.015903,1.03973 1.49803,1.51239 H 31.891301 Z m -36.7916085,3.04984 v 18.29188 H -20.898528 Z M -24.833591,130.2742 H 80.609898 c 1.389458,0.32649 3.203152,0.53533 5.515516,0.7741 2.88561,0.29797 6.356244,0.56915 9.780288,0.81712 3.424044,0.24798 6.802358,0.46973 9.486408,0.66659 2.68405,0.19685 4.88818,0.42487 5.14996,0.48024 1.19532,0.25278 1.817,0.53491 2.29007,1.15398 0.47307,0.61906 0.93537,1.89059 0.93537,4.47263 v 0.90313 h -6.52615 a 1.835105,1.835105 0 0 0 -1.83492,1.83492 v 8.64061 a 1.835105,1.835105 0 0 0 1.83492,1.83492 h 6.52615 v 4.04257 c 0,0.56234 -0.13416,0.7976 -0.37988,1.06797 -0.24572,0.27037 -0.67039,0.53557 -1.1755,0.72753 -1.01024,0.38389 -2.12521,0.42647 -2.12521,0.42647 H -40.362321 c -1.277264,0 -2.488651,-0.24788 -3.25412,-0.8207 -0.765467,-0.57283 -1.390526,-1.47529 -1.390526,-3.82395 v -16.16307 c 0.0017,-0.0195 0.104412,-1.25124 0.792025,-2.56244 0.693045,-1.32154 1.721988,-2.53908 4.175165,-2.77747 7.590537,-0.73763 15.020712,-1.67177 15.206186,-1.69515 z m 25.62082508,5.6302 a 1.835105,1.835105 0 1 0 0,3.66625 H 11.158835 a 1.835105,1.835105 0 1 0 0,-3.66625 z m 33.02858792,0 a 1.835105,1.835105 0 1 0 0,3.66625 h 10.371601 a 1.835105,1.835105 0 1 0 0,-3.66625 z m 75.264038,7.30743 h 4.68765 v 4.97077 h -4.68765 z"
       style="color:#000000;font-style:normal;font-variant:normal;font-weight:normal;font-stretch:normal;font-size:medium;line-height:normal;font-family:sans-serif;font-variant-ligatures:normal;font-variant-position:normal;font-variant-caps:normal;font-variant-numeric:normal;font-variant-alternates:normal;font-feature-settings:normal;text-indent:0;text-align:start;text-decoration:none;text-decoration-line:none;text-decoration-style:solid;text-decoration-color:#000000;letter-spacing:normal;word-spacing:normal;text-transform:none;writing-mode:lr-tb;direction:ltr;text-orientation:mixed;dominant-baseline:auto;baseline-shift:baseline;text-anchor:start;white-space:normal;shape-padding:0;clip-rule:nonzero;display:inline;overflow:visible;visibility:visible;opacity:1;isolation:auto;mix-blend-mode:normal;color-interpolation:sRGB;color-interpolation-filters:linearRGB;solid-color:#000000;solid-opacity:1;vector-effect:none;fill:#252424;fill-opacity:1;fill-rule:nonzero;stroke:none;stroke-width:3.66984296;stroke-linecap:butt;stroke-linejoin:round;stroke-miterlimit:4;stroke-dasharray:none;stroke-dashoffset:0;stroke-opacity:1;color-rendering:auto;image-rendering:auto;shape-rendering:auto;text-rendering:auto;enable-background:accumulate" />
    <path
       d="m 5.0832124,159.87405 c 0,2.12509 -0.41907,4.23035 -1.231726,6.19404 -0.814072,1.96367 -2.0061573,3.74897 -3.50971232,5.25253 -1.50214028,1.50214 -3.28743528,2.69422 -5.25125858,3.5083 -1.963825,0.81406 -4.0688019,1.23171 -6.1945905,1.23171 -4.293061,0 -8.410423,-1.70458 -11.446133,-4.74143 -3.035708,-3.03543 -4.741153,-7.15251 -4.741153,-11.44515 0,-4.29404 1.705445,-8.41112 4.741153,-11.44655 3.03571,-3.03543 7.153072,-4.74144 11.446133,-4.74144 4.2932015,0 8.4104228,1.70601 11.44584908,4.74144 3.03542632,3.03543 4.74143832,7.15251 4.74143832,11.44655 z"
       id="path927"
       style="fill:#252424;fill-opacity:1;stroke:#252424;stroke-width:1.41577709;stroke-opacity:1" />
    <path
       d="m -11.134954,171.9672 c 6.6634965,0 12.06468608,-5.4012 12.06468608,-12.06384 0,-6.66265 -5.40118958,-12.06384 -12.06468608,-12.06384 -6.662787,0 -12.064119,5.40119 -12.064119,12.06384 0,6.66264 5.401332,12.06384 12.064119,12.06384 z"
       id="path929"
       style="fill:#f0d722;stroke:#252424;stroke-width:1.41577709;stroke-opacity:1;fill-opacity:1" />
    <path
       d="m -11.134954,165.70663 c 3.2048945,0 5.8029865,-2.59795 5.8029865,-5.80327 0,-3.20532 -2.598092,-5.80327 -5.8029865,-5.80327 -3.204893,0 -5.802987,2.59795 -5.802987,5.80327 0,3.20532 2.598094,5.80327 5.802987,5.80327 z"
       id="path931"
       style="fill:#252424;fill-opacity:1;stroke:#252424;stroke-width:1.41577709;stroke-opacity:1" />
    <path
       style="fill:#252424;fill-opacity:1;stroke:#252424;stroke-width:1.41577709;stroke-opacity:1"
       id="path939"
       d="m 93.159432,159.87405 c 0,2.12509 -0.419074,4.23035 -1.231734,6.19404 -0.81407,1.96367 -2.00616,3.74897 -3.509714,5.25253 -1.50214,1.50214 -3.287434,2.69422 -5.251254,3.5083 -1.963814,0.81406 -4.068801,1.23171 -6.194589,1.23171 -4.293051,0 -8.410412,-1.70458 -11.44613,-4.74143 -3.035706,-3.03543 -4.741144,-7.15251 -4.741144,-11.44515 0,-4.29404 1.705438,-8.41112 4.741144,-11.44655 3.035718,-3.03543 7.153079,-4.74144 11.44613,-4.74144 4.293207,0 8.410419,1.70601 11.445843,4.74144 3.035434,3.03543 4.741448,7.15251 4.741448,11.44655 z" />
    <path
       style="fill:#f0d722;stroke:#252424;stroke-width:1.41577709;stroke-opacity:1;fill-opacity:1"
       id="path941"
       d="m 76.941263,171.9672 c 6.663497,0 12.064681,-5.4012 12.064681,-12.06384 0,-6.66265 -5.401184,-12.06384 -12.064681,-12.06384 -6.662783,0 -12.064111,5.40119 -12.064111,12.06384 0,6.66264 5.401328,12.06384 12.064111,12.06384 z" />
    <path
       style="fill:#252424;fill-opacity:1;stroke:#252424;stroke-width:1.41577709;stroke-opacity:1"
       id="path943"
       d="m 76.941263,165.70663 c 3.204899,0 5.802997,-2.59795 5.802997,-5.80327 0,-3.20532 -2.598098,-5.80327 -5.802997,-5.80327 -3.204889,0 -5.802986,2.59795 -5.802986,5.80327 0,3.20532 2.598097,5.80327 5.802986,5.80327 z" />
  </g>
</svg>
