<?xml version="1.0" encoding="UTF-8" standalone="no"?>
<svg
   xmlns:dc="http://purl.org/dc/elements/1.1/"
   xmlns:cc="http://creativecommons.org/ns#"
   xmlns:rdf="http://www.w3.org/1999/02/22-rdf-syntax-ns#"
   xmlns:svg="http://www.w3.org/2000/svg"
   xmlns="http://www.w3.org/2000/svg"
   style="fill:none"
   id="svg4"
   version="1.1"
   viewBox="0 0 92.076271 61.650173"
   height="61.650173"
   width="92.076271">
  <metadata
     id="metadata10">
    <rdf:RDF>
      <cc:Work
         rdf:about="">
        <dc:format>image/svg+xml</dc:format>
        <dc:type
           rdf:resource="http://purl.org/dc/dcmitype/StillImage" />
        <dc:title></dc:title>
      </cc:Work>
    </rdf:RDF>
  </metadata>
  <defs
     id="defs8" />
  <ellipse
     ry="6.75"
     rx="46.038136"
     cy="54.900173"
     cx="46.038136"
     id="path822"
     style="opacity:0.869;fill:#efefef;fill-opacity:1;stroke:none;stroke-width:7.13176727;stroke-linecap:round;stroke-linejoin:round;stroke-miterlimit:4;stroke-dasharray:none;stroke-dashoffset:0;stroke-opacity:1;paint-order:fill markers stroke" />
  <path
     style="clip-rule:evenodd;fill:#000000;fill-rule:evenodd"
     id="path2"
     d="m 27.621287,30.799 c 6.9255,0 12.54,5.624 12.54,12.54 0,6.9255 -5.6145,12.54 -12.54,12.54 -6.9255,0 -12.54004,-5.6145 -12.54004,-12.54 0,-6.916 5.61454,-12.54 12.54004,-12.54 z m 38.76,0 c 6.9255,0 12.54,5.624 12.54,12.54 0,6.9255 -5.6145,12.54 -12.54,12.54 -6.9255,0 -12.54,-5.6145 -12.54,-12.54 0,-6.916 5.6145,-12.54 12.54,-12.54 z m -38.76,3.135 c 5.187,0 9.405,4.218 9.405,9.405 0,5.1965 -4.218,9.405 -9.405,9.405 -5.187,0 -9.40504,-4.2085 -9.40504,-9.405 0,-5.187 4.21804,-9.405 9.40504,-9.405 z m 38.76,0 c 5.187,0 9.405,4.218 9.405,9.405 0,5.1965 -4.218,9.405 -9.405,9.405 -5.187,0 -9.405,-4.2085 -9.405,-9.405 0,-5.187 4.218,-9.405 9.405,-9.405 z m -23.522,-25.1465 c 0.6555,-0.0095 1.311,0.2375 1.8145,0.7315 l 10.7635,10.773 h 8.4455 c 1.3775,0 2.4985,1.1115 2.4985,2.489 0,1.3775 -1.121,2.4985 -2.4985,2.4985 h -9.4145 c -0.0095,0 -0.019,0 -0.0285,0 -0.6555,0.0095 -1.3015,-0.2375 -1.7955,-0.7315 l -9.2625,-9.2625 -4.9495,8.5595 12.597,3.382 c 1.1305,0.2945 1.8715,1.33 1.8525,2.451 0,0.228 -0.0285,0.456 -0.0855,0.684 l -4.2085,15.713 c -0.361,1.33 -1.729,2.1185 -3.059,1.767 -1.33,-0.361 -2.1185,-1.729 -1.767,-3.059 l 3.591,-13.376 -13.319,-3.572 c -1.1305,-0.304 -1.862,-1.3205 -1.8525,-2.4415 -0.0095,-0.4275 0.1045,-0.874 0.3325,-1.273 l 8.132,-14.079 c 0.475,-0.817 1.33,-1.2635 2.2135,-1.254 z M 45.528787,0 c 2.3085,0 4.1705,1.8715 4.1705,4.1705 0,2.299 -1.862,4.1705 -4.1705,4.1705 -2.299,0 -4.1705,-1.8715 -4.1705,-4.1705 0,-2.299 1.8715,-4.1705 4.1705,-4.1705 z" />
</svg>
