<?xml version="1.0" encoding="UTF-8" standalone="no"?>
<svg
   xmlns:dc="http://purl.org/dc/elements/1.1/"
   xmlns:cc="http://creativecommons.org/ns#"
   xmlns:rdf="http://www.w3.org/1999/02/22-rdf-syntax-ns#"
   xmlns:svg="http://www.w3.org/2000/svg"
   xmlns="http://www.w3.org/2000/svg"
   style="fill:none"
   id="svg11"
   version="1.1"
   viewBox="0 0 88.04538 91.127449"
   height="91.127449"
   width="88.04538">
  <metadata
     id="metadata15">
    <rdf:RDF>
      <cc:Work
         rdf:about="">
        <dc:format>image/svg+xml</dc:format>
        <dc:type
           rdf:resource="http://purl.org/dc/dcmitype/StillImage" />
        <dc:title></dc:title>
      </cc:Work>
    </rdf:RDF>
  </metadata>
  <g
     transform="translate(-6.4673119,-16.9508)"
     id="g4"
     clip-path="url(#clip0)">
    <path
       style="fill:#000000;stroke:#252424;stroke-width:2;stroke-opacity:1"
       id="path2"
       d="m 26.7073,67.139 -0.0324,-0.0541 -0.039,-0.0495 c -4.0606,-5.162 -6.4893,-11.6652 -6.4893,-18.7412 0,-16.7579 13.5855,-30.3434 30.3434,-30.3434 16.7579,0 30.3434,13.5855 30.3434,30.3434 0,7.076 -2.4287,13.5792 -6.4893,18.7412 l -0.039,0.0495 -0.0324,0.0541 -15.836,26.3845 -0.0044,0.0073 -0.0043,0.0074 c -1.6369,2.8356 -4.6638,4.5826 -7.938,4.5826 -3.2742,0 -6.3011,-1.747 -7.938,-4.5826 L 42.5477,93.5308 42.5433,93.5235 Z M 63.3492,48.2942 c 0,-7.1032 -5.7571,-12.8592 -12.8592,-12.8592 -7.1021,0 -12.8592,5.756 -12.8592,12.8592 0,7.1031 5.7571,12.8592 12.8592,12.8592 7.1021,0 12.8592,-5.7571 12.8592,-12.8592 z" />
  </g>
  <defs
     id="defs9">
    <clipPath
       id="clip0">
      <rect
         style="fill:#ffffff"
         y="0"
         x="0"
         id="rect6"
         height="99"
         width="99" />
    </clipPath>
  </defs>
</svg>
