<?xml version="1.0" encoding="UTF-8" standalone="no"?>
<svg
   xmlns:dc="http://purl.org/dc/elements/1.1/"
   xmlns:cc="http://creativecommons.org/ns#"
   xmlns:rdf="http://www.w3.org/1999/02/22-rdf-syntax-ns#"
   xmlns:svg="http://www.w3.org/2000/svg"
   xmlns="http://www.w3.org/2000/svg"
   xmlns:sodipodi="http://sodipodi.sourceforge.net/DTD/sodipodi-0.dtd"
   xmlns:inkscape="http://www.inkscape.org/namespaces/inkscape"
   width="138.75311"
   height="50.603374"
   viewBox="0 0 138.75311 50.603375"
   version="1.1"
   id="svg28"
   style="fill:none"
   sodipodi:docname="Icon_Conventional_Car.svg"
   inkscape:version="0.92.3 (2405546, 2018-03-11)">
  <sodipodi:namedview
     pagecolor="#ffffff"
     bordercolor="#666666"
     borderopacity="1"
     objecttolerance="10"
     gridtolerance="10"
     guidetolerance="10"
     inkscape:pageopacity="0"
     inkscape:pageshadow="2"
     inkscape:window-width="1853"
     inkscape:window-height="1025"
     id="namedview21"
     showgrid="false"
     inkscape:zoom="6.3710282"
     inkscape:cx="73.069297"
     inkscape:cy="25.301687"
     inkscape:window-x="67"
     inkscape:window-y="27"
     inkscape:window-maximized="1"
     inkscape:current-layer="svg28" />
  <metadata
     id="metadata34">
    <rdf:RDF>
      <cc:Work
         rdf:about="">
        <dc:format>image/svg+xml</dc:format>
        <dc:type
           rdf:resource="http://purl.org/dc/dcmitype/StillImage" />
        <dc:title />
      </cc:Work>
    </rdf:RDF>
  </metadata>
  <defs
     id="defs32" />
  <path
     d="m 40.500058,17.452351 -0.3178,14.5127 5.19069,0.8475 80.296602,0.2119 2.9661,-3.7077 -0.9534,-11.1228 c 0,0 -18.4322,-2.7543 -18.9619,-2.6483 -0.5296,0.1059 -57.309302,-0.7416 -57.309302,-0.7416 z"
     id="path4"
     style="fill:#efefef;stroke:none" />
  <path
     id="path826"
     d="m 40.182258,31.965051 0.3178,-14.5127 10.120413,-1.90512 58.735479,0.42212 16.98861,1.437407 1.343,14.049764 -4.23559,1.962834 -4.64882,-2.169448 -2.8926,8.574488 -9.09103,1.136378 -5.06204,-7.851339 H 63.43055 L 58.47181,40.754159 49.690707,39.204553 47.10803,32.5929 Z"
     style="fill:#efefef;fill-opacity:1;stroke:none;stroke-width:1px;stroke-linecap:butt;stroke-linejoin:miter;stroke-opacity:1" />
  <path
     d="m 51.411048,14.804051 12.0762,-12.7117998 32.945,-0.2119 12.923702,14.0889998 z"
     id="path2"
     style="fill:#f0d722;fill-opacity:1" />
  <path
     d="m 97.782848,31.250051 h -29.6875 c -0.4144,0 -0.8118,0.1646 -1.1049,0.4576 -0.293,0.2931 -0.4576,0.6905 -0.4576,1.1049 0,0.4144 0.1646,0.8118 0.4576,1.1049 0.2931,0.293 0.6905,0.4576 1.1049,0.4576 h 29.6875 c 0.4144,0 0.8118,-0.1646 1.1049,-0.4576 0.293,-0.2931 0.4576,-0.6905 0.4576,-1.1049 0,-0.4144 -0.1646,-0.8118 -0.4576,-1.1049 -0.2931,-0.293 -0.6905,-0.4576 -1.1049,-0.4576 z"
     id="path6"
     style="fill:#000000" />
  <path
     d="m 124.73595,15.390651 -14.6093,-1.2031 c -0.4077,-0.0396 -0.7863,-0.2289 -1.0625,-0.5312 L 98.329748,1.5625512 c -0.4421,-0.4943 -0.9841,-0.8892 -1.5901,-1.1585 -0.6061,-0.2694 -1.2624,-0.4071 -1.9255,-0.403999998164 h -30 C 64.150948,-0.0030488 63.494648,0.1346512 62.888648,0.4040512 c -0.6061,0.2693 -1.148,0.6642 -1.5902,1.1585 l -10.7968,12.1562998 c -0.2485,0.2742 -0.5863,0.4514 -0.9532,0.5 l -7.12497,1.0156 c -1.12345,0.1626 -2.14971,0.7274 -2.88823,1.5895 -0.73851,0.8621 -1.13911,1.9629 -1.12739,3.098 v 9.7656 c 0,1.2432 0.49386,2.4355 1.37293,3.3146 0.87908,0.879 2.07136,1.3729 3.31457,1.3729 h 1.56249 0.125 c 0.395,2.7369 1.8121,5.2225 3.9659,6.9567 2.1538,1.7342 4.8846,2.5882 7.6427,2.3902 2.7581,-0.198 5.3388,-1.4334 7.2228,-3.4575 1.884,-2.0241 2.9314,-4.6867 2.9314,-7.4519 0,-2.7652 -1.0474,-5.4278 -2.9314,-7.4519 -1.884,-2.0241 -4.4647,-3.2595 -7.2228,-3.4575 -2.7581,-0.198 -5.4889,0.656 -7.6427,2.3902 -2.1538,1.7342 -3.5709,4.2198 -3.9659,6.9567 h -0.125 -1.56249 c -0.41441,0 -0.81183,-0.1646 -1.10486,-0.4576 -0.29302,-0.2931 -0.45764,-0.6905 -0.45764,-1.1049 v -9.7969 c -0.0037,-0.3791 0.13053,-0.7467 0.37776,-1.0342 0.24723,-0.2874 0.59055,-0.4752 0.96599,-0.5283 l 7.09374,-1.0156 c 0.2652,-0.0331 0.5267,-0.0907 0.7813,-0.1719 h 0.1562 51.562502 c 0.3085,-0.0015 0.6096,-0.0943 0.8654,-0.2667 0.2558,-0.1724 0.4549,-0.4167 0.5721,-0.702 0.1197,-0.2846 0.1524,-0.5982 0.094,-0.9013 -0.0584,-0.3031 -0.2053,-0.5821 -0.4221,-0.8018 l -3.125,-3.125 c -0.2942,-0.2943 -0.693302,-0.4596 -1.109402,-0.4596 -0.4161,0 -0.8151,0.1653 -1.1094,0.4596 -0.2942,0.2942 -0.4595,0.6932 -0.4595,1.1093 0,0.4161 0.1653,0.8152 0.4595,1.1094 l 0.4688,0.4531 h -14.9844 V 3.1250512 h 11.0938 c 0.2206,-0.0017 0.4391,0.0434 0.6411,0.1323 0.202,0.0889 0.3829,0.2195 0.5307,0.3833 L 106.72035,15.718851 c 0.8014,0.904 1.9209,1.4638 3.125,1.5625 l 14.6406,1.2187 c 0.3896,0.0352 0.7518,0.2152 1.015,0.5045 0.2633,0.2893 0.4085,0.6669 0.4069,1.058 v 0.25 h -3.125 c -0.4144,0 -0.8118,0.1646 -1.1049,0.4576 -0.293,0.2931 -0.4576,0.6905 -0.4576,1.1049 v 6.25 c 0,0.4144 0.1646,0.8118 0.4576,1.1049 0.2931,0.293 0.6905,0.4576 1.1049,0.4576 h 3.125 c 0,0.4144 -0.1646,0.8118 -0.4576,1.1049 -0.2931,0.293 -0.6905,0.4576 -1.1049,0.4576 h -1.5625 c -0.4144,0 -0.8118,0.1646 -1.1049,0.4576 -0.293,0.2931 -0.4576,0.6905 -0.4576,1.1049 0,0.4144 0.1646,0.8118 0.4576,1.1049 0.2931,0.293 0.6905,0.4576 1.1049,0.4576 h 1.5625 c 1.2432,0 2.4355,-0.4939 3.3146,-1.3729 0.879,-0.8791 1.3729,-2.0714 1.3729,-3.3146 v -9.625 c 2e-4,-1.1757 -0.4415,-2.3085 -1.2374,-3.1739 -0.7958,-0.8653 -1.8879,-1.4 -3.0595,-1.498 z m -69.140602,9.6094 c 1.5452,0 3.0556,0.4582 4.3404,1.3166 1.2848,0.8585 2.2861,2.0786 2.8774,3.5062 0.5913,1.4275 0.746,2.9984 0.4446,4.5139 -0.3015,1.5154 -1.0455,2.9075 -2.1381,4.0001 -1.0926,1.0926 -2.4847,1.8366 -4.0002,2.1381 -1.5154,0.3014 -3.0863,0.1467 -4.5138,-0.4446 -1.4276,-0.5913 -2.6477,-1.5926 -3.5062,-2.8774 -0.8584,-1.2848 -1.3166,-2.7952 -1.3166,-4.3404 0,-2.072 0.8231,-4.0591 2.2882,-5.5243 1.4652,-1.4651 3.4523,-2.2882 5.5243,-2.2882 z m 7.8125,-21.0936998 V 14.062551 h -9.0156 z m 17.1875,10.1561998 h -14.0625 V 3.1250512 h 14.0625 z m 43.750002,12.5 v -3.125 h 1.5625 v 3.125 z"
     id="path8"
     style="fill:#000000" />
  <path
     d="m 110.28285,21.875051 c -2.1632,0 -4.2779,0.6415 -6.0765,1.8433 -1.7987,1.2018 -3.2006,2.91 -4.0284,4.9086 -0.827902,1.9986 -1.044502,4.1977 -0.622402,6.3194 0.422,2.1217 1.463702,4.0705 2.993302,5.6002 1.5297,1.5296 3.4785,2.5713 5.6002,2.9933 2.1217,0.4221 4.3208,0.2055 6.3194,-0.6224 1.9986,-0.8278 3.7068,-2.2297 4.9086,-4.0284 1.2018,-1.7986 1.8433,-3.9133 1.8433,-6.0765 0,-2.9008 -1.1523,-5.6828 -3.2035,-7.734 -2.0512,-2.0512 -4.8332,-3.2035 -7.734,-3.2035 z m 0,18.75 c -1.5452,0 -3.0556,-0.4582 -4.3404,-1.3166 -1.2847,-0.8585 -2.2861,-2.0786 -2.8774,-3.5062 -0.5913,-1.4275 -0.746,-2.9984 -0.4446,-4.5138 0.3015,-1.5155 1.0455,-2.9076 2.1381,-4.0002 1.0926,-1.0926 2.4847,-1.8366 4.0002,-2.1381 1.5154,-0.3014 3.0863,-0.1467 4.5138,0.4446 1.4276,0.5913 2.6477,1.5926 3.5062,2.8774 0.8584,1.2848 1.3166,2.7952 1.3166,4.3404 0,2.072 -0.8231,4.0591 -2.2882,5.5243 -1.4652,1.4651 -3.4523,2.2882 -5.5243,2.2882 z"
     id="path10"
     style="fill:#000000" />
  <path
     d="m 88.407848,18.750051 h -4.6875 c -0.4144,0 -0.8118,0.1646 -1.1049,0.4576 -0.293,0.2931 -0.4576,0.6905 -0.4576,1.1049 0,0.4144 0.1646,0.8118 0.4576,1.1049 0.2931,0.293 0.6905,0.4576 1.1049,0.4576 h 4.6875 c 0.4144,0 0.8118,-0.1646 1.1049,-0.4576 0.293,-0.2931 0.4576,-0.6905 0.4576,-1.1049 0,-0.4144 -0.1646,-0.8118 -0.4576,-1.1049 -0.2931,-0.293 -0.6905,-0.4576 -1.1049,-0.4576 z"
     id="path12"
     style="fill:#000000" />
  <path
     d="m 69.657848,18.750051 h -4.6875 c -0.4144,0 -0.8118,0.1646 -1.1049,0.4576 -0.293,0.2931 -0.4576,0.6905 -0.4576,1.1049 0,0.4144 0.1646,0.8118 0.4576,1.1049 0.2931,0.293 0.6905,0.4576 1.1049,0.4576 h 4.6875 c 0.4144,0 0.8118,-0.1646 1.1049,-0.4576 0.293,-0.2931 0.4576,-0.6905 0.4576,-1.1049 0,-0.4144 -0.1646,-0.8118 -0.4576,-1.1049 -0.2931,-0.293 -0.6905,-0.4576 -1.1049,-0.4576 z"
     id="path14"
     style="fill:#000000" />
  <path
     d="m 55.667348,41.889151 c 5.0884,0 9.2134,-4.125 9.2134,-9.2134 0,-5.0884 -4.125,-9.2134 -9.2134,-9.2134 -5.0884,0 -9.2134,4.125 -9.2134,9.2134 0,5.0884 4.125,9.2134 9.2134,9.2134 z"
     id="path16"
     style="fill:#000000" />
  <path
     d="m 55.667548,38.630751 c 3.2888,0 5.9549,-2.6662 5.9549,-5.955 0,-3.2889 -2.6661,-5.955 -5.9549,-5.955 -3.2889,0 -5.955,2.6661 -5.955,5.955 0,3.2888 2.6661,5.955 5.955,5.955 z"
     id="path18"
     style="fill:#efefef" />
  <path
     d="m 55.667548,35.540151 c 1.582,0 2.8644,-1.2824 2.8644,-2.8644 0,-1.582 -1.2824,-2.8644 -2.8644,-2.8644 -1.582,0 -2.8644,1.2824 -2.8644,2.8644 0,1.582 1.2824,2.8644 2.8644,2.8644 z"
     id="path20"
     style="fill:#000000" />
  <path
     d="m 110.46765,41.889151 c 5.0884,0 9.2134,-4.125 9.2134,-9.2134 0,-5.0884 -4.125,-9.2134 -9.2134,-9.2134 -5.0884,0 -9.2134,4.125 -9.2134,9.2134 0,5.0884 4.125,9.2134 9.2134,9.2134 z"
     id="path22"
     style="fill:#000000" />
  <path
     d="m 110.46785,38.630751 c 3.2888,0 5.9549,-2.6662 5.9549,-5.955 0,-3.2889 -2.6661,-5.955 -5.9549,-5.955 -3.2889,0 -5.955,2.6661 -5.955,5.955 0,3.2888 2.6661,5.955 5.955,5.955 z"
     id="path24"
     style="fill:#efefef" />
  <path
     d="m 110.46785,35.540151 c 1.582,0 2.8644,-1.2824 2.8644,-2.8644 0,-1.582 -1.2824,-2.8644 -2.8644,-2.8644 -1.582,0 -2.8644,1.2824 -2.8644,2.8644 0,1.582 1.2824,2.8644 2.8644,2.8644 z"
     id="path26"
     style="fill:#000000" />
  <path
     style="fill:#000000"
     d="m 25.3385,22.727872 c 0,-0.07916 0.0138,-0.15833 0.0138,-0.2375 0,-4.28819 -3.5852,-7.75833 -8.0078,-7.75833 -3.1907,0 -5.9315,1.80764 -7.2188,4.42014 -0.56062,-0.27049 -1.19045,-0.42882 -1.85488,-0.42882 -2.04175,0 -3.74437,1.44479 -4.06966,3.3316 C 1.75106,22.859822 0,25.096242 0,27.728542 c 0,3.3118 2.77539,5.9969 6.19446,6.0035 H 25.3454 c 3.1284,-0.0132 5.6546,-2.474 5.6546,-5.5021 0.007,-3.0347 -2.5332,-5.49547 -5.6615,-5.50207 z"
     id="path901" />
</svg>
