<?xml version="1.0" encoding="UTF-8" standalone="no"?>
<svg
   xmlns:dc="http://purl.org/dc/elements/1.1/"
   xmlns:cc="http://creativecommons.org/ns#"
   xmlns:rdf="http://www.w3.org/1999/02/22-rdf-syntax-ns#"
   xmlns:svg="http://www.w3.org/2000/svg"
   xmlns="http://www.w3.org/2000/svg"
   xmlns:sodipodi="http://sodipodi.sourceforge.net/DTD/sodipodi-0.dtd"
   xmlns:inkscape="http://www.inkscape.org/namespaces/inkscape"
   width="183.00571"
   height="61.695171"
   viewBox="0 0 183.00571 61.695171"
   version="1.1"
   id="svg4"
   style="fill:none"
   sodipodi:docname="Icon_Pedestrian_Bike.svg"
   inkscape:version="0.92.3 (2405546, 2018-03-11)">
  <sodipodi:namedview
     pagecolor="#ffffff"
     bordercolor="#666666"
     borderopacity="1"
     objecttolerance="10"
     gridtolerance="10"
     guidetolerance="10"
     inkscape:pageopacity="0"
     inkscape:pageshadow="2"
     inkscape:window-width="1853"
     inkscape:window-height="1025"
     id="namedview10"
     showgrid="false"
     inkscape:zoom="2.4152252"
     inkscape:cx="91.502853"
     inkscape:cy="30.847586"
     inkscape:window-x="67"
     inkscape:window-y="27"
     inkscape:window-maximized="1"
     inkscape:current-layer="svg4" />
  <metadata
     id="metadata10">
    <rdf:RDF>
      <cc:Work
         rdf:about="">
        <dc:format>image/svg+xml</dc:format>
        <dc:type
           rdf:resource="http://purl.org/dc/dcmitype/StillImage" />
        <dc:title />
      </cc:Work>
    </rdf:RDF>
  </metadata>
  <defs
     id="defs8" />
  <path
     d="m 118.55072,30.843997 c 6.9255,0 12.54,5.624 12.54,12.54 0,6.9255 -5.6145,12.54 -12.54,12.54 -6.9255,0 -12.54004,-5.6145 -12.54004,-12.54 0,-6.916 5.61454,-12.54 12.54004,-12.54 z m 38.76,0 c 6.9255,0 12.54,5.624 12.54,12.54 0,6.9255 -5.6145,12.54 -12.54,12.54 -6.9255,0 -12.54,-5.6145 -12.54,-12.54 0,-6.916 5.6145,-12.54 12.54,-12.54 z m -38.76,3.135 c 5.187,0 9.405,4.218 9.405,9.405 0,5.1965 -4.218,9.405 -9.405,9.405 -5.187,0 -9.40504,-4.2085 -9.40504,-9.405 0,-5.187 4.21804,-9.405 9.40504,-9.405 z m 38.76,0 c 5.187,0 9.405,4.218 9.405,9.405 0,5.1965 -4.218,9.405 -9.405,9.405 -5.187,0 -9.405,-4.2085 -9.405,-9.405 0,-5.187 4.218,-9.405 9.405,-9.405 z m -23.522,-25.1465002 c 0.6555,-0.0095 1.311,0.2375 1.8145,0.7315 l 10.7635,10.7730002 h 8.4455 c 1.3775,0 2.4985,1.1115 2.4985,2.489 0,1.3775 -1.121,2.4985 -2.4985,2.4985 h -9.4145 c -0.01,0 -0.019,0 -0.0285,0 -0.6555,0.0095 -1.3015,-0.2375 -1.7955,-0.7315 l -9.2625,-9.2625 -4.9495,8.5595 12.597,3.382 c 1.1305,0.2945 1.8715,1.33 1.8525,2.451 0,0.228 -0.0285,0.456 -0.0855,0.684 l -4.2085,15.713 c -0.361,1.33 -1.729,2.1185 -3.059,1.767 -1.33,-0.361 -2.1185,-1.729 -1.767,-3.059 l 3.591,-13.376 -13.319,-3.572 c -1.1305,-0.304 -1.862,-1.3205 -1.8525,-2.4415 -0.01,-0.4275 0.1045,-0.874 0.3325,-1.273 l 8.132,-14.079 c 0.475,-0.8170001 1.33,-1.2635001 2.2135,-1.2540002 z m 2.6695,-8.78749995 c 2.3085,0 4.1705,1.87149995 4.1705,4.17049995 0,2.299 -1.862,4.1705 -4.1705,4.1705 -2.299,0 -4.1705,-1.8715 -4.1705,-4.1705 0,-2.299 1.8715,-4.17049995 4.1705,-4.17049995 z"
     id="path2"
     style="clip-rule:evenodd;fill:#000000;fill-rule:evenodd" />
  <path
     d="m 35.824086,10.627422 c 2.93471,0 5.31366,-2.3790616 5.31366,-5.3137167 C 41.137746,2.379028 38.758796,0 35.824086,0 c -2.9347,0 -5.31366,2.379028 -5.31366,5.3137053 0,2.9346551 2.37896,5.3137167 5.31366,5.3137167 z"
     id="path2-4"
     style="fill:#000000;stroke-width:1.1379261" />
  <path
     d="m 51.954416,27.539052 c -2.47714,-1.139177 -7.57915,-2.761063 -8.97266,-5.147636 -1.86108,-3.187332 -3.45303,-10.607747 -9.99212,-10.566099 -2.85563,0.01866 -7.50372,4.739234 -10.78482,6.868522 -1.52675,0.990564 -1.47725,3.655474 -1.74683,5.248001 -0.35344,2.085023 -0.7063,4.170158 -1.06021,6.255294 -0.3524,2.075235 1.39294,3.014821 3.10803,2.086956 0.93958,-0.508197 1.35083,-1.796785 1.51503,-2.766298 0.424,-2.500251 0.98966,-4.452591 1.41364,-6.952842 l 3.01335,-2.445858 c -1.02334,6.121018 -1.94927,9.737347 -2.88885,17.987992 -0.278,2.44199 -0.61277,4.942697 -1.18869,5.693614 -1.86198,2.427196 -3.28689,4.813199 -5.1754,7.219913 -2.67287,3.405472 2.08503,6.02145 4.53191,2.903646 1.67332,-2.1327 3.34675,-4.264833 5.01962,-6.396965 2.37223,-3.023697 2.27027,-7.954672 2.88885,-11.650883 1.87633,4.052154 3.75209,8.103626 5.62841,12.155212 0.86858,1.876781 1.73761,3.753563 2.60665,5.630344 1.62235,3.503106 6.62193,1.689139 4.91812,-1.988981 -2.41786,-5.221032 -4.34472,-10.442634 -6.76259,-15.66321 -0.75478,-1.630762 -1.93799,-3.217828 -1.68071,-4.991171 0.42205,-2.905125 0.844,-5.809796 1.2656,-8.714352 0.69744,1.194481 1.3052,2.829111 2.24137,3.839362 0.66467,1.139064 3.17186,1.854706 4.31924,2.382021 1.79393,0.825452 3.58787,1.649879 5.38181,2.474762 2.87384,1.322952 5.45192,-2.058622 2.40125,-3.461344 z"
     id="path4"
     style="fill:#000000;stroke-width:1.1379261" />
</svg>
