<?xml version="1.0" encoding="UTF-8" standalone="no"?>
<svg
   xmlns:dc="http://purl.org/dc/elements/1.1/"
   xmlns:cc="http://creativecommons.org/ns#"
   xmlns:rdf="http://www.w3.org/1999/02/22-rdf-syntax-ns#"
   xmlns:svg="http://www.w3.org/2000/svg"
   xmlns="http://www.w3.org/2000/svg"
   xmlns:sodipodi="http://sodipodi.sourceforge.net/DTD/sodipodi-0.dtd"
   xmlns:inkscape="http://www.inkscape.org/namespaces/inkscape"
   height="100px"
   width="100px"
   fill="#000000"
   version="1.0"
   x="0px"
   y="0px"
   viewBox="0 0 100 100"
   enable-background="new 0 0 100 100"
   xml:space="preserve"
   id="svg4"
   sodipodi:docname="Icon_E_Bus_Front.svg"
   inkscape:version="0.92.3 (2405546, 2018-03-11)"><metadata
     id="metadata10"><rdf:RDF><cc:Work
         rdf:about=""><dc:format>image/svg+xml</dc:format><dc:type
           rdf:resource="http://purl.org/dc/dcmitype/StillImage" /><dc:title /></cc:Work></rdf:RDF></metadata><defs
     id="defs8" /><sodipodi:namedview
     pagecolor="#ffffff"
     bordercolor="#666666"
     borderopacity="1"
     objecttolerance="10"
     gridtolerance="10"
     guidetolerance="10"
     inkscape:pageopacity="0"
     inkscape:pageshadow="2"
     inkscape:window-width="1920"
     inkscape:window-height="1052"
     id="namedview6"
     showgrid="false"
     inkscape:zoom="0.59"
     inkscape:cx="52.152421"
     inkscape:cy="62.58713"
     inkscape:window-x="1920"
     inkscape:window-y="0"
     inkscape:window-maximized="1"
     inkscape:current-layer="svg4"
     showguides="false" /><path
     d="m 22.244141,8.1074219 c -4.325684,0 -7.863282,3.5395511 -7.863282,7.8652341 v 60.703125 c 0,3.867371 2.830689,7.099304 6.521485,7.742188 v 2.916015 c 0,3.666687 2.999328,6.666016 6.666015,6.666016 3.666687,0 6.667969,-2.999329 6.667969,-6.666016 v -2.792968 h 31.527344 v 2.792968 c 0,3.666687 3.001343,6.666016 6.667969,6.666016 3.666687,0 6.666015,-2.999329 6.666015,-6.666016 v -2.916015 c 3.690796,-0.642884 6.521485,-3.874817 6.521485,-7.742188 V 15.972656 c 0,-4.325683 -3.537598,-7.8652341 -7.863282,-7.8652341 l -13.182137,0 L 61.022941,14.5 l 13.93995,0 c 2.908203,0 5.287109,2.378906 5.287109,5.287109 v 0.175782 C 80.25,22.871033 77.871094,25.25 74.962891,25.25 h -4.962196 l -5.255859,6.339844 H 77.0625 c 1.123535,0 2.035156,0.911682 2.035156,2.035156 V 56.5 H 20.902344 V 33.625 c 0,-1.123474 0.911682,-2.035156 2.035156,-2.035156 h 7.453257 L 33.902476,25.25 H 26.298828 C 23.384888,25.25 21,22.865112 21,19.951172 V 19.798828 C 21,16.884888 23.384888,14.5 26.298828,14.5 l 13.342956,0 3.539063,-6.3925781 z m 5.324218,57.5585941 c 2.577332,0 4.667969,2.090637 4.667969,4.667968 0,2.577332 -2.090637,4.666016 -4.667969,4.666016 -2.577331,0 -4.666015,-2.088684 -4.666015,-4.666016 0,-2.577331 2.088684,-4.667968 4.666015,-4.667968 z m 44.863282,0 c 2.577331,0 4.666015,2.090637 4.666015,4.667968 0,2.577332 -2.088684,4.666016 -4.666015,4.666016 -2.577332,0 -4.667969,-2.088684 -4.667969,-4.666016 0,-2.577331 2.090637,-4.667968 4.667969,-4.667968 z"
     id="path2"
     inkscape:connector-curvature="0"
     sodipodi:nodetypes="ssscsssccssscsssccssssccssccssccssssccsssssssssss" /><g
     style="fill:#000000;stroke:#ffffff;stroke-width:5;stroke-miterlimit:4;stroke-dasharray:none;stroke-opacity:1;paint-order:fill markers stroke"
     id="g834"
     transform="matrix(0.63932031,0,0,0.61949218,18.271762,-2.0221538)"><g
       id="g821"
       style="stroke:#ffffff;stroke-width:5;stroke-miterlimit:4;stroke-dasharray:none;stroke-opacity:1;paint-order:fill markers stroke"><g
         id="g819"
         style="stroke:#ffffff;stroke-width:5;stroke-miterlimit:4;stroke-dasharray:none;stroke-opacity:1;paint-order:fill markers stroke" /></g></g><g
     transform="matrix(0.63932025,0,0,0.61949218,18.723197,-3.1849608)"
     id="g826"
     style="fill:#000000;stroke:none;stroke-width:5.00057077;stroke-miterlimit:4;stroke-dasharray:none;stroke-opacity:1;paint-order:fill markers stroke"><g
       style="stroke:none;stroke-width:5.00057077;stroke-miterlimit:4;stroke-dasharray:none;stroke-opacity:1;paint-order:fill markers stroke"
       id="g824"><g
         style="stroke:none;stroke-width:5.00057077;stroke-miterlimit:4;stroke-dasharray:none;stroke-opacity:1;paint-order:fill markers stroke"
         id="g822"><path
           style="fill:#000000;stroke:none;stroke-width:5.00057077;stroke-miterlimit:4;stroke-dasharray:none;stroke-opacity:1;paint-order:fill markers stroke"
           d="M 47,15 H 67 L 53.33139,40.145008 h 22 L 34.82574,91 44.497085,56.170998 h -19 z"
           id="polygon819"
           inkscape:connector-curvature="0"
           sodipodi:nodetypes="cccccccc" /></g></g></g></svg>