<svg height='100px' width='100px'  fill="#000000" xmlns:x="http://ns.adobe.com/Extensibility/1.0/" xmlns:i="http://ns.adobe.com/AdobeIllustrator/10.0/" xmlns:graph="http://ns.adobe.com/Graphs/1.0/" xmlns="http://www.w3.org/2000/svg" xmlns:xlink="http://www.w3.org/1999/xlink" version="1.1" x="0px" y="0px" viewBox="0 0 100 100" style="enable-background:new 0 0 100 100;" xml:space="preserve"><g><g i:extraneous="self"><g><path d="M96.7,43.6c1.1-1.1,1.1-2.9,0-4C95.8,38.6,75.6,17.4,50,17.4c-25.6,0-45.8,21.2-46.7,22.1c-1.1,1.2-1.1,2.9,0,4     C4.2,44.5,24.4,65.7,50,65.7c7.6,0,14.7-1.9,21-4.6c-1.1,3-1.8,5.8-1.8,7.7c0,7.6,6.2,13.8,13.8,13.8s13.8-6.2,13.8-13.8     c0-4.2-3.7-12.8-6.8-19.1C94,46.4,96.4,43.9,96.7,43.6z M9.7,41.6c4.3-3.9,14.8-12.6,27.9-16.4c-5,3.8-8.2,9.7-8.2,16.4     c0,6.7,3.2,12.6,8.2,16.4C24.5,54.1,13.9,45.5,9.7,41.6z M50,56.3c-8.1,0-14.8-6.6-14.8-14.7c0-8.1,6.6-14.8,14.8-14.8     c8.1,0,14.8,6.6,14.8,14.8C64.8,49.7,58.1,56.3,50,56.3z M62.4,58c5-3.8,8.2-9.7,8.2-16.4c0-6.7-3.2-12.6-8.2-16.4     C75.5,29,86.1,37.6,90.3,41.6c-0.9,0.8-2.1,1.8-3.4,3c-1.1-1-2.4-1.5-3.9-1.5c-2.3,0-4.3,1.3-5.3,3.3c-0.9,1.9-2.1,4.2-3.2,6.7     C70.8,54.9,66.8,56.7,62.4,58z M83,76.7c-4.4,0-7.9-3.5-7.9-7.9c0-2.6,3.2-10.6,7.9-19.9c0,0,0.1,0,0.1,0c0,0,0,0,0,0     c4.7,9.3,7.8,17.3,7.8,19.9C90.9,73.2,87.3,76.7,83,76.7z"></path><path d="M50,32.7c-1.3,0-2.5,0.3-3.7,0.8c0.9,0.6,1.5,1.6,1.5,2.7c0,1.8-1.4,3.2-3.2,3.2c-1.2,0-2.2-0.6-2.7-1.5     c-0.5,1.1-0.8,2.4-0.8,3.7c0,4.9,4,8.8,8.8,8.8c4.9,0,8.8-4,8.8-8.8C58.8,36.7,54.9,32.7,50,32.7z"></path></g></g></g></svg>