<svg height='100px' width='100px'  fill="#000000" xmlns="http://www.w3.org/2000/svg" viewBox="0 0 48 67" x="0px" y="0px"><path fill="#000000" d="M336.244798,560.58205 C338.298069,560.687346 340.352433,560.876979 342.276853,561.173044 C344.475803,561.511344 346.367232,561.968613 347.868968,562.569307 C353.008363,564.625065 355.425713,569.943296 354.484288,575.660267 C353.875857,579.355069 352.361794,585.669037 350.709689,590.630474 C348.206546,598.147662 345.61479,602.497783 342.497577,602.497783 C340.431887,602.497783 336.870347,601.979741 332.187185,601.071492 C331.233895,600.886611 330.246445,600.68774 329.23163,600.47687 C327.118756,600.037831 324.985172,599.567619 322.937802,599.09741 C322.221179,598.932827 321.566408,598.779973 320.986888,598.642751 C320.638673,598.560298 320.392565,598.501291 320.339586,598.485224 L307.839586,596.485224 C307.354461,596.407604 306.997577,595.98908 306.997577,595.497783 L306.997577,562.497783 C306.997577,562.149417 307.178872,561.826157 307.476127,561.644502 C307.571568,561.586176 307.75032,561.477427 308.001405,561.325446 C308.419331,561.072477 308.887609,560.790681 309.395273,560.487244 C310.845982,559.620137 312.322267,558.752955 313.736783,557.942999 C313.974286,557.807004 314.208416,557.673569 314.438914,557.542866 C316.912664,556.140126 318.857605,555.112661 320.103658,554.578638 C320.698158,554.323853 321.641456,553.129008 322.707864,551.209474 C323.473809,549.830773 324.287772,548.12145 325.129128,546.158286 C325.969986,544.196284 326.792224,542.090553 327.561155,539.98435 C327.830403,539.246846 328.073672,538.562182 328.286712,537.948125 C328.414177,537.580724 328.502982,537.319291 328.548894,537.181556 C328.716726,536.678058 329.248662,536.393374 329.760694,536.53302 L333.046157,537.429055 C337.862948,538.742725 340.496784,543.662439 338.919099,548.395493 L334.875941,560.524968 C335.306002,560.538628 335.763958,560.557391 336.244798,560.58205 Z M329.43987,540.67023 C328.659309,542.808287 327.824264,544.946817 326.967418,546.946125 C326.101369,548.966906 325.259667,550.734481 324.456179,552.18076 C323.17592,554.485226 322.039218,555.925048 320.891496,556.416929 C319.73416,556.91293 317.836949,557.915181 315.425443,559.282624 C315.197419,559.411925 314.965715,559.543978 314.730597,559.678607 C313.328057,560.481705 311.862145,561.342794 310.421375,562.20396 C309.917021,562.505419 309.451907,562.785311 309.037051,563.036421 C309.02814,563.041816 309.014981,573.578101 308.997577,594.645277 L320.733177,596.525933 C320.860401,596.556776 321.103063,596.614956 321.447719,596.696566 C322.022984,596.832781 322.673388,596.984615 323.385477,597.148157 C325.420138,597.615448 327.54046,598.082736 329.638523,598.518697 C330.644958,598.727827 331.623759,598.924956 332.567969,599.108075 C337.124807,599.991826 340.603266,600.497783 342.497577,600.497783 C345.983083,600.497783 350.699898,586.332718 352.510866,575.3353 C353.310081,570.481921 351.320051,566.103806 347.126186,564.42626 C345.787685,563.89086 344.034144,563.466927 341.972739,563.149787 C340.12275,562.865174 338.133105,562.681514 336.142368,562.579425 C335.444807,562.543653 334.797347,562.520666 334.217006,562.507911 C333.870737,562.500301 333.625279,562.497783 333.497577,562.497783 C332.815019,562.497783 332.33305,561.829087 332.548894,561.181556 L337.021733,547.763038 C338.236294,544.119354 336.229124,540.370183 332.519922,539.358583 L330.139497,538.709376 C329.931997,539.305671 329.697618,539.964224 329.43987,540.67023 Z" transform="translate(-307 -536)"></path></svg>