<svg height='100px' width='100px'  fill="#000000" xmlns:x="http://ns.adobe.com/Extensibility/1.0/" xmlns:i="http://ns.adobe.com/AdobeIllustrator/10.0/" xmlns:graph="http://ns.adobe.com/Graphs/1.0/" xmlns="http://www.w3.org/2000/svg" xmlns:xlink="http://www.w3.org/1999/xlink" version="1.1" x="0px" y="0px" viewBox="0 0 100 100" style="enable-background:new 0 0 100 100;" xml:space="preserve"><g><g i:extraneous="self"><g><path d="M81.6,2.5H18.4c-3.4,0-6.2,2.8-6.2,6.2v82.6c0,3.4,2.8,6.2,6.2,6.2h63.2c3.4,0,6.2-2.8,6.2-6.2V8.7     C87.8,5.3,85,2.5,81.6,2.5z M82.7,91.3c0,0.6-0.5,1.1-1.1,1.1H18.4c-0.6,0-1.1-0.5-1.1-1.1V8.7c0-0.6,0.5-1.1,1.1-1.1h63.2     c0.6,0,1.1,0.5,1.1,1.1V91.3z"></path><path d="M68.8,62H31.2c-1.4,0-2.5,1.1-2.5,2.5c0,1.4,1.1,2.5,2.5,2.5h37.7c1.4,0,2.5-1.1,2.5-2.5C71.4,63.1,70.2,62,68.8,62z"></path><path d="M68.8,77.2H31.2c-1.4,0-2.5,1.1-2.5,2.5c0,1.4,1.1,2.5,2.5,2.5h37.7c1.4,0,2.5-1.1,2.5-2.5     C71.4,78.3,70.2,77.2,68.8,77.2z"></path><path d="M68.8,46.8H31.2c-1.4,0-2.5,1.1-2.5,2.5s1.1,2.5,2.5,2.5h37.7c1.4,0,2.5-1.1,2.5-2.5S70.2,46.8,68.8,46.8z"></path><path d="M35.6,37.1h4.6c0.5,0,1-0.4,1-1v-7.3c0-0.5-0.4-1-1-1h-4.6c-0.5,0-1,0.4-1,1v7.3C34.6,36.6,35.1,37.1,35.6,37.1z"></path><path d="M47,37.1h4.6c0.5,0,1-0.4,1-1V23.6c0-0.5-0.4-1-1-1H47c-0.5,0-1,0.4-1,1v12.5C46,36.6,46.5,37.1,47,37.1z"></path><path d="M58.4,37.1h4.6c0.5,0,1-0.4,1-1V18.5c0-0.5-0.4-1-1-1h-4.6c-0.5,0-1,0.4-1,1v17.6C57.4,36.6,57.9,37.1,58.4,37.1z"></path></g></g></g></svg>