<?xml version="1.0" encoding="UTF-8" standalone="no"?>
<!-- Created with Inkscape (http://www.inkscape.org/) -->

<svg
   xmlns:dc="http://purl.org/dc/elements/1.1/"
   xmlns:cc="http://creativecommons.org/ns#"
   xmlns:rdf="http://www.w3.org/1999/02/22-rdf-syntax-ns#"
   xmlns:svg="http://www.w3.org/2000/svg"
   xmlns="http://www.w3.org/2000/svg"
   xmlns:sodipodi="http://sodipodi.sourceforge.net/DTD/sodipodi-0.dtd"
   xmlns:inkscape="http://www.inkscape.org/namespaces/inkscape"
   width="7.56464mm"
   height="74.302605mm"
   viewBox="0 0 7.56464 74.302605"
   version="1.1"
   id="svg8"
   inkscape:version="0.92.3 (2405546, 2018-03-11)"
   sodipodi:docname="route.svg">
  <defs
     id="defs2">
    <clipPath
       id="clip0">
      <rect
         style="fill:#ffffff"
         y="0"
         x="0"
         id="rect6"
         height="99"
         width="99" />
    </clipPath>
    <clipPath
       id="clip0-5">
      <rect
         style="fill:#ffffff"
         y="0"
         x="0"
         id="rect6-9"
         height="99"
         width="99" />
    </clipPath>
    <clipPath
       id="clip0-9">
      <rect
         style="fill:#ffffff"
         y="0"
         x="0"
         id="rect6-7"
         height="99"
         width="99" />
    </clipPath>
  </defs>
  <sodipodi:namedview
     id="base"
     pagecolor="#ffffff"
     bordercolor="#666666"
     borderopacity="1.0"
     inkscape:pageopacity="0.0"
     inkscape:pageshadow="2"
     inkscape:zoom="0.98994949"
     inkscape:cx="-109.44277"
     inkscape:cy="115.12807"
     inkscape:document-units="mm"
     inkscape:current-layer="layer1"
     showgrid="false"
     inkscape:window-width="1920"
     inkscape:window-height="1052"
     inkscape:window-x="0"
     inkscape:window-y="0"
     inkscape:window-maximized="1"
     fit-margin-top="0"
     fit-margin-left="0"
     fit-margin-right="0"
     fit-margin-bottom="0" />
  <metadata
     id="metadata5">
    <rdf:RDF>
      <cc:Work
         rdf:about="">
        <dc:format>image/svg+xml</dc:format>
        <dc:type
           rdf:resource="http://purl.org/dc/dcmitype/StillImage" />
        <dc:title></dc:title>
      </cc:Work>
    </rdf:RDF>
  </metadata>
  <g
     inkscape:label="Ebene 1"
     inkscape:groupmode="layer"
     id="layer1"
     transform="translate(74.608744,-115.68248)">
    <g
       style="fill:none"
       id="g827"
       transform="matrix(0.10963744,0,0,0.10963744,-75.652959,180.98942)">
      <g
         transform="translate(-6.4673119,-16.9508)"
         id="g4"
         clip-path="url(#clip0)">
        <path
           style="fill:#000000;stroke:#252424;stroke-width:2;stroke-opacity:1"
           inkscape:connector-curvature="0"
           id="path2"
           d="m 26.7073,67.139 -0.0324,-0.0541 -0.039,-0.0495 c -4.0606,-5.162 -6.4893,-11.6652 -6.4893,-18.7412 0,-16.7579 13.5855,-30.3434 30.3434,-30.3434 16.7579,0 30.3434,13.5855 30.3434,30.3434 0,7.076 -2.4287,13.5792 -6.4893,18.7412 l -0.039,0.0495 -0.0324,0.0541 -15.836,26.3845 -0.0044,0.0073 -0.0043,0.0074 c -1.6369,2.8356 -4.6638,4.5826 -7.938,4.5826 -3.2742,0 -6.3011,-1.747 -7.938,-4.5826 L 42.5477,93.5308 42.5433,93.5235 Z M 63.3492,48.2942 c 0,-7.1032 -5.7571,-12.8592 -12.8592,-12.8592 -7.1021,0 -12.8592,5.756 -12.8592,12.8592 0,7.1031 5.7571,12.8592 12.8592,12.8592 7.1021,0 12.8592,-5.7571 12.8592,-12.8592 z" />
      </g>
    </g>
    <g
       style="fill:none"
       id="g839"
       transform="matrix(0.26458333,0,0,0.26458333,-82.441775,104.34902)">
      <circle
         r="10.046412"
         cy="57.130508"
         cx="43.900539"
         id="path1650-2"
         style="opacity:1;fill:none;fill-opacity:1;stroke:#252424;stroke-width:8.49794102;stroke-linecap:butt;stroke-linejoin:round;stroke-miterlimit:4;stroke-dasharray:none;stroke-dashoffset:0;stroke-opacity:1;paint-order:fill markers stroke" />
    </g>
    <path
       style="fill:none;stroke:#000000;stroke-width:2;stroke-linecap:butt;stroke-linejoin:miter;stroke-miterlimit:4;stroke-dasharray:2, 2;stroke-dashoffset:0;stroke-opacity:1"
       d="m -70.826424,125.14569 v 53.98844"
       id="path863"
       inkscape:connector-curvature="0" />
  </g>
</svg>
